<?xml version="1.0" standalone="no"?>
<!DOCTYPE svg PUBLIC "-//W3C//DTD SVG 1.1//EN" "http://www.w3.org/Graphics/SVG/1.1/DTD/svg11.dtd" >
<svg>
<metadata>
Created by FontForge 20090622 at Mon Apr 13 17:18:04 2015
 By deploy user
Copyright (c) 1989, 1990 Adobe Systems Incorporated. All Rights Reserved.Avant Garde Gothic is a registered trademark of International Typeface Corporation.
</metadata>
<defs>
<font id="AvantGardeLT-CondDemi" horiz-adv-x="500" >
  <font-face 
    font-family="AvantGarde LT CondBook"
    font-weight="600"
    font-stretch="normal"
    units-per-em="1000"
    panose-1="2 0 7 6 4 0 0 2 0 4"
    ascent="800"
    descent="-200"
    x-height="572"
    cap-height="724"
    bbox="-167 -227 1000 971"
    underline-thickness="50"
    underline-position="-75"
    unicode-range="U+0020-U+FB02"
  />
<missing-glyph 
 />
    <glyph glyph-name=".notdef" 
 />
    <glyph glyph-name="exclam" unicode="!" horiz-adv-x="278" 
d="M201 124v-124h-124v124h124zM77 724h124v-530h-124v530z" />
    <glyph glyph-name="quotedbl" unicode="&#x22;" horiz-adv-x="333" 
d="M205 724h98v-256h-98v256zM30 724h98v-256h-98v256z" />
    <glyph glyph-name="numbersign" unicode="#" horiz-adv-x="556" 
d="M242 424l-18 -123h99l18 123h-99zM500 207h-92l-29 -207h-97l28 207h-99l-29 -207h-98l28 207h-90l4 94h100l16 123h-90l4 94h100l29 206h97l-28 -206h99l29 206h98l-28 -206h82l-4 -94h-91l-17 -123h82z" />
    <glyph glyph-name="dollar" unicode="$" horiz-adv-x="556" 
d="M166 211q3 -44 32.5 -74.5t75.5 -30.5q42 0 73 22.5t31 68.5q0 41 -23.5 64.5t-59 40t-77 32t-77 40t-59 63.5t-23.5 103q0 37 12 69t34 56t52.5 39t67.5 20v64h96v-64q37 -5 66.5 -25t49.5 -49t31 -64t11 -69h-118q-2 20 -9.5 38.5t-19.5 32.5t-29.5 22t-39.5 8
q-35 0 -59.5 -23t-24.5 -58t23.5 -55.5t59 -36.5t77 -32t77 -42t59 -66t23.5 -104q0 -39 -12.5 -74t-36 -62t-56 -44.5t-72.5 -20.5v-74h-96v74q-46 2 -80 21t-56 48.5t-32.5 66.5t-10.5 75h120z" />
    <glyph glyph-name="percent" unicode="%" horiz-adv-x="889" 
d="M670 282q-44 0 -62.5 -30.5t-18.5 -76.5t18.5 -76.5t62.5 -30.5t62.5 30.5t18.5 76.5t-18.5 76.5t-62.5 30.5zM219 656q-44 0 -62.5 -30.5t-18.5 -76.5t18.5 -76.5t62.5 -30.5t62.5 30.5t18.5 76.5t-18.5 76.5t-62.5 30.5zM588 736h82l-372 -748h-81zM670 362
q42 0 74 -16t53 -42.5t31.5 -60t10.5 -68.5t-10.5 -69t-31.5 -60t-53 -42t-74 -16t-74 16t-53 42t-31.5 60t-10.5 69t10.5 68.5t31.5 60t53 42.5t74 16zM219 736q42 0 74 -16t53 -42.5t31.5 -60t10.5 -68.5t-10.5 -69t-31.5 -60t-53 -42t-74 -16t-74 16t-53 42t-31.5 60
t-10.5 69t10.5 68.5t31.5 60t53 42.5t74 16z" />
    <glyph glyph-name="ampersand" unicode="&#x26;" horiz-adv-x="611" 
d="M305 572q0 20 -10.5 37t-32.5 17q-21 0 -32.5 -19t-11.5 -48q0 -23 8 -45.5t19 -39.5q22 17 41 43t19 55zM215 319q-31 -21 -49.5 -51t-18.5 -72q0 -16 6 -33.5t17.5 -31.5t27.5 -23.5t37 -9.5q32 0 56 16.5t41 43.5zM395 262l95 186l100 -51l-121 -231l119 -166h-144
l-37 55q-35 -35 -82.5 -51t-98.5 -16q-47 0 -83 16.5t-61 45t-38 66.5t-13 80q0 39 7 70t21.5 56.5t36.5 47.5t51 43q-23 37 -34 69.5t-11 77.5q0 38 10.5 70.5t30.5 56t50 36.5t69 13q36 0 65.5 -12t50 -34t32 -51.5t11.5 -65.5t-8.5 -63.5t-23.5 -49.5t-36.5 -40.5
t-46.5 -34.5z" />
    <glyph glyph-name="quoteright" unicode="&#x2019;" horiz-adv-x="222" 
d="M200 736l-98 -228h-92l67 228h123z" />
    <glyph glyph-name="parenleft" unicode="(" horiz-adv-x="389" 
d="M352 619q-40 -26 -73 -64t-56 -84.5t-36 -99.5t-13 -110t13 -110t36 -99.5t56 -84.5t73 -64v-123q-66 31 -119.5 80t-91 112t-57.5 136.5t-20 152.5t20 152.5t57.5 136.5t91 112t119.5 80v-123z" />
    <glyph glyph-name="parenright" unicode=")" horiz-adv-x="389" 
d="M37 -97q40 26 73 64t56 84.5t36 99.5t13 110t-13 110t-36 99.5t-56 84.5t-73 64v123q66 -31 119 -80t90.5 -112t58 -136.5t20.5 -152.5t-20.5 -152.5t-58 -136.5t-90.5 -112t-119 -80v123z" />
    <glyph glyph-name="asterisk" unicode="*" horiz-adv-x="444" 
d="M171 352l21 134l-107 -85l-50 87l131 50l-131 50l50 87l107 -89l-21 138h100l-21 -138l108 89l51 -87l-131 -50l131 -50l-51 -87l-108 85l21 -134h-100z" />
    <glyph glyph-name="plus" unicode="+" horiz-adv-x="600" 
d="M245 506h110v-198h198v-110h-198v-198h-110v198h-198v110h198v198z" />
    <glyph glyph-name="comma" unicode="," horiz-adv-x="278" 
d="M215 130l-90 -224h-104l82 224h112z" />
    <glyph glyph-name="hyphen" unicode="-" horiz-adv-x="333" 
d="M44 236v100h245v-100h-245z" />
    <glyph glyph-name="hyphen" unicode="&#xad;" horiz-adv-x="333" 
d="M44 236v100h245v-100h-245z" />
    <glyph glyph-name="period" unicode="." horiz-adv-x="278" 
d="M81 0v130h116v-130h-116z" />
    <glyph glyph-name="slash" unicode="/" horiz-adv-x="278" 
d="M-40 -12l247 748h111l-247 -748h-111z" />
    <glyph glyph-name="zero" unicode="0" horiz-adv-x="556" 
d="M396 362q0 128 -32 193t-86 65t-86 -65t-32 -193t32 -193t86 -65t86 65t32 193zM520 362q0 -74 -13.5 -142t-43 -119.5t-75.5 -82t-110 -30.5q-65 0 -110.5 30.5t-75 82t-43 119.5t-13.5 142t13.5 142t43 119.5t75 82t110.5 30.5q64 0 110 -30.5t75.5 -82t43 -119.5
t13.5 -142z" />
    <glyph glyph-name="one" unicode="1" horiz-adv-x="556" 
d="M118 614v110h237v-724h-124v614h-113z" />
    <glyph glyph-name="two" unicode="2" horiz-adv-x="556" 
d="M39 0v116l271 266q12 12 22 26.5t17.5 31t12 33.5t4.5 33q0 51 -23.5 82.5t-77.5 31.5q-43 0 -67.5 -29t-29.5 -91h-124q1 52 17.5 95t47 74.5t73 49t95.5 17.5q52 0 93 -16.5t69 -46.5t42.5 -71t14.5 -90q0 -39 -7.5 -69t-22 -56.5t-35.5 -50t-48 -48.5l-188 -178h298
v-110h-454z" />
    <glyph glyph-name="three" unicode="3" horiz-adv-x="556" 
d="M154 224q5 -57 33.5 -88.5t84.5 -31.5q53 0 78.5 33.5t25.5 78.5q0 34 -10 56t-27.5 34.5t-41 17t-51.5 4.5h-35v116h35q53 0 79 20t26 69q0 39 -21 63t-63 24q-44 0 -66.5 -24.5t-27.5 -65.5h-124q0 46 17 84t46.5 65t69 42t84.5 15q41 0 80 -13t69 -38t48 -61.5
t18 -83.5q0 -59 -20 -93.5t-72 -53.5v-2q31 -8 53 -25t36 -40.5t21 -52t7 -58.5q0 -54 -18.5 -96.5t-51.5 -71.5t-78 -44t-97 -15q-53 0 -95.5 17.5t-72.5 49t-46 74.5t-17 95h124z" />
    <glyph glyph-name="four" unicode="4" horiz-adv-x="556" 
d="M157 266h145v258h-2zM33 278l261 446h131v-458h84v-110h-84v-156h-124v156h-268v122z" />
    <glyph glyph-name="five" unicode="5" horiz-adv-x="556" 
d="M165 214q0 -22 7 -42t20 -35t32.5 -24t44.5 -9q54 0 84.5 39t30.5 116q0 27 -5.5 52.5t-18.5 45t-34 31.5t-51 12q-37 0 -60.5 -17.5t-38.5 -50.5h-129l29 392h396v-116h-283l-14 -172l2 -2q15 42 46 62t76 20q57 0 97.5 -23.5t66.5 -61.5t38.5 -86t12.5 -98
q0 -53 -17.5 -100.5t-49.5 -82.5t-76.5 -55.5t-99.5 -20.5q-52 0 -95 16t-74 45t-48.5 71t-18.5 94h130z" />
    <glyph glyph-name="six" unicode="6" horiz-adv-x="556" 
d="M287 370q-26 0 -45 -10.5t-32.5 -28.5t-20 -42t-6.5 -52t6.5 -52t20 -42t32.5 -28.5t45 -10.5q25 0 44.5 10.5t33 28.5t20 42t6.5 52t-6.5 52t-20 42t-33 28.5t-44.5 10.5zM385 543q-8 34 -32 55.5t-60 21.5q-34 0 -57.5 -16t-38.5 -44.5t-22.5 -68t-8.5 -87.5l2 -2
q20 39 56 61.5t87 22.5q52 0 90.5 -22t63.5 -56.5t37.5 -77t12.5 -84.5q0 -57 -15.5 -104.5t-45 -81.5t-72.5 -53t-97 -19q-62 0 -107.5 23.5t-75.5 68.5t-45 110t-15 147q0 206 66.5 302.5t194.5 96.5q41 0 76.5 -15t62.5 -41t43 -61t18 -76h-118z" />
    <glyph glyph-name="seven" unicode="7" horiz-adv-x="556" 
d="M46 614v110h440v-113l-214 -611h-132l221 614h-315z" />
    <glyph glyph-name="eight" unicode="8" horiz-adv-x="556" 
d="M278 436q46 0 67.5 26.5t21.5 65.5t-21.5 65.5t-67.5 26.5t-67.5 -26.5t-21.5 -65.5t21.5 -65.5t67.5 -26.5zM278 320q-22 0 -42.5 -7.5t-36.5 -22t-26 -34.5t-10 -44t10 -44t26 -34.5t36.5 -22t42.5 -7.5t42.5 7.5t36.5 22t26 34.5t10 44t-10 44t-26 34.5t-36.5 22
t-42.5 7.5zM517 194q0 -41 -15.5 -78.5t-46 -66t-75 -45t-102.5 -16.5t-102.5 16.5t-75 45t-46 66t-15.5 78.5q0 74 25 119.5t88 67.5q-24 13 -41 31.5t-27 39.5t-14.5 43.5t-4.5 44.5q0 35 12 70t38 63t66.5 45.5t97.5 17.5q56 0 96 -17.5t66 -45.5t38 -63t12 -70
q0 -22 -4.5 -44.5t-14.5 -43.5t-27 -39.5t-41 -31.5q63 -22 88 -70.5t25 -116.5z" />
    <glyph glyph-name="nine" unicode="9" horiz-adv-x="556" 
d="M269 620q-26 0 -45 -11t-32.5 -29.5t-20 -43t-6.5 -51.5t6.5 -51.5t20 -43t32.5 -29.5t45 -11t45.5 11t33 29.5t20 43t6.5 51.5t-6.5 51.5t-20 43t-33 29.5t-45.5 11zM168 179q4 -38 29 -56.5t67 -18.5q30 0 53 16t39 44.5t25 68.5t11 89h-2q-26 -47 -59.5 -67.5
t-81.5 -20.5q-53 0 -93 20t-67 54t-40.5 79t-13.5 94q0 53 15 99.5t44 81t72.5 54.5t99.5 20q64 0 111 -26t78 -74t46 -116.5t15 -153.5q0 -194 -69 -286t-205 -92q-86 0 -139 51.5t-59 139.5h124z" />
    <glyph glyph-name="colon" unicode=":" horiz-adv-x="278" 
d="M81 354v130h116v-130h-116zM81 0v130h116v-130h-116z" />
    <glyph glyph-name="semicolon" unicode=";" horiz-adv-x="278" 
d="M81 354v130h116v-130h-116zM215 130l-90 -224h-104l82 224h112z" />
    <glyph glyph-name="less" unicode="&#x3c;" horiz-adv-x="600" 
d="M553 -8l-506 216v90l506 216v-108l-361 -153l361 -153v-108z" />
    <glyph glyph-name="equal" unicode="=" horiz-adv-x="600" 
d="M553 88h-506v110h506v-110zM553 308h-506v110h506v-110z" />
    <glyph glyph-name="greater" unicode="&#x3e;" horiz-adv-x="600" 
d="M409 253l-362 153v108l506 -216v-90l-506 -216v108z" />
    <glyph glyph-name="question" unicode="?" 
d="M166 0v126h124v-126h-124zM166 172v124q0 30 11.5 52t29 40t38 33.5t38 32t29.5 36.5t12 47q0 38 -23 60.5t-61 22.5q-48 0 -67 -27t-19 -90h-124q0 57 12 101t38 73t68.5 44t103.5 15q41 0 76.5 -15t62 -41.5t42 -62t15.5 -76.5q0 -46 -11.5 -78t-29.5 -54.5t-38 -39
l-38 -31t-29.5 -30t-11.5 -36.5v-100h-124z" />
    <glyph glyph-name="at" unicode="@" horiz-adv-x="800" 
d="M381 250q24 0 44 10t34.5 27t22 38.5t7.5 44.5q0 37 -21.5 60t-56.5 23q-23 0 -43 -10.5t-34.5 -27.5t-23 -38.5t-8.5 -42.5q0 -36 21 -60t58 -24zM531 545h91l-51 -246q-2 -8 -4 -18t-2 -19q0 -8 3 -15t11 -7q18 0 36 10.5t32.5 31t23.5 51t9 71.5q0 60 -20 106.5
t-55.5 78t-84.5 47.5t-106 16q-63 0 -114.5 -22t-87.5 -61t-55.5 -92t-19.5 -116q0 -69 21.5 -122.5t60.5 -90.5t93 -56.5t118 -19.5q59 0 110 19.5t89 51.5h93q-54 -75 -130 -115t-170 -40q-80 0 -150.5 28t-123.5 77.5t-84 118t-31 149.5q0 80 30.5 148.5t82.5 119t122 79
t149 28.5q67 0 129.5 -21.5t111.5 -61t78.5 -96t29.5 -126.5q0 -55 -14.5 -98t-37.5 -75t-52 -54t-57.5 -36t-53.5 -20t-40 -6q-22 0 -38 13t-17 39l-2 1q-19 -21 -42 -37t-58 -16q-33 0 -62.5 13.5t-52 38.5t-36 60.5t-13.5 79.5q0 41 15 81t42 71.5t65.5 51t85.5 19.5
q38 0 68.5 -15t52.5 -47z" />
    <glyph glyph-name="A" unicode="A" horiz-adv-x="556" 
d="M276 536h-2l-62 -234h127zM222 724h109l225 -724h-127l-60 192h-182l-59 -192h-128z" />
    <glyph glyph-name="B" unicode="B" horiz-adv-x="556" 
d="M190 434h68q57 0 79 23.5t22 66.5t-26.5 66.5t-74.5 23.5h-68v-180zM190 110h67q38 0 63.5 6t40.5 19t21.5 33.5t6.5 48.5q0 51 -33.5 79t-104.5 28h-61v-214zM66 724h208q45 -1 83.5 -14.5t66.5 -38.5t43.5 -62t15.5 -85q0 -21 -6.5 -44t-19.5 -42t-31 -32t-41 -16v-2
q68 -14 98 -62.5t30 -114.5q0 -48 -15 -86.5t-41.5 -66.5t-62.5 -43t-78 -15h-250v724z" />
    <glyph glyph-name="C" unicode="C" horiz-adv-x="611" 
d="M434 446q-5 95 -34.5 137.5t-89.5 42.5q-29 0 -56 -14.5t-47.5 -46t-33 -81.5t-12.5 -122q0 -73 11 -123t29.5 -81.5t44.5 -45.5t56 -14q28 0 50 8t38 27.5t26.5 52.5t17.5 83h124q-3 -60 -19.5 -111.5t-47.5 -89t-77 -59t-108 -21.5t-111.5 20.5t-84.5 65.5t-54 116
t-19 172q0 91 21 160.5t58 117t85.5 72t104.5 24.5q65 0 113 -24t79 -64t45.5 -92.5t14.5 -109.5h-124z" />
    <glyph glyph-name="D" unicode="D" horiz-adv-x="611" 
d="M190 110h93q37 0 67.5 15t52.5 46t34 78.5t12 112.5q0 67 -12.5 115t-34.5 78.5t-52.5 44.5t-66.5 14h-93v-504zM66 724h243q65 0 114.5 -28t82.5 -77t50 -115t17 -142q0 -86 -21.5 -153.5t-60.5 -114t-94 -70.5t-122 -24h-209v724z" />
    <glyph glyph-name="E" unicode="E" 
d="M66 0v724h372v-110h-248v-182h252v-110h-252v-212h254v-110h-378z" />
    <glyph glyph-name="F" unicode="F" horiz-adv-x="444" 
d="M58 0v724h356v-110h-232v-184h232v-110h-232v-320h-124z" />
    <glyph glyph-name="G" unicode="G" horiz-adv-x="611" 
d="M434 481q-14 78 -46 111.5t-80 33.5q-34 0 -61 -15t-46 -46.5t-29.5 -82t-10.5 -120.5q0 -141 40.5 -202.5t114.5 -61.5q66 0 95.5 47t29.5 128h-179v110h303v-95q0 -68 -15 -123t-46 -94.5t-78.5 -61t-111.5 -21.5t-115 22.5t-87 68.5t-55.5 116.5t-19.5 166.5
q0 85 18.5 154.5t54 118t87 75t117.5 26.5q56 0 100.5 -20t75.5 -54.5t48.5 -81t19.5 -99.5h-124z" />
    <glyph glyph-name="H" unicode="H" horiz-adv-x="611" 
d="M66 724h124v-290h231v290h124v-724h-124v324h-231v-324h-124v724z" />
    <glyph glyph-name="I" unicode="I" horiz-adv-x="278" 
d="M77 0v724h124v-724h-124z" />
    <glyph glyph-name="J" unicode="J" 
d="M134 232q0 -63 21.5 -95.5t72.5 -32.5q39 0 60.5 25t21.5 64v531h124v-546q0 -41 -13.5 -76t-40 -60.5t-66 -39.5t-91.5 -14q-60 0 -100.5 18.5t-65.5 51.5t-36 77.5t-11 96.5h124z" />
    <glyph glyph-name="K" unicode="K" horiz-adv-x="556" 
d="M66 0v724h124v-311h2l196 311h148l-196 -282l217 -442h-136l-166 344h-2l-63 -100v-244h-124z" />
    <glyph glyph-name="L" unicode="L" horiz-adv-x="444" 
d="M66 0v724h124v-614h230v-110h-354z" />
    <glyph glyph-name="M" unicode="M" horiz-adv-x="722" 
d="M66 724h174l119 -526h2l121 526h174v-724h-116v582h-2l-138 -582h-78l-138 582h-2v-582h-116v724z" />
    <glyph glyph-name="N" unicode="N" horiz-adv-x="611" 
d="M69 0v724h132l229 -469h2v469h110v-724h-108l-253 508h-2v-508h-110z" />
    <glyph glyph-name="O" unicode="O" horiz-adv-x="611" 
d="M449 362q0 70 -11.5 120t-31.5 82t-46 47t-55 15t-55 -15t-46 -47t-31.5 -82t-11.5 -120t11.5 -120t31.5 -82t46 -47t55 -15t55 15t46 47t31.5 82t11.5 120zM305 736q59 0 108.5 -26t85 -74t55 -117.5t19.5 -156.5t-19.5 -156.5t-55 -117.5t-85 -74t-108.5 -26t-108.5 26
t-85 74t-55 117.5t-19.5 156.5t19.5 156.5t55 117.5t85 74t108.5 26z" />
    <glyph glyph-name="P" unicode="P" horiz-adv-x="556" 
d="M196 380h90q30 0 51 9.5t34.5 25.5t19.5 37.5t6 45.5q0 49 -25.5 82.5t-85.5 33.5h-90v-234zM72 0v724h190q67 0 116 -17.5t81 -48t47 -72.5t15 -91q0 -50 -15 -91.5t-44 -71t-70.5 -46t-93.5 -16.5h-102v-270h-124z" />
    <glyph glyph-name="Q" unicode="Q" horiz-adv-x="611" 
d="M305 98q26 0 47 12q-33 34 -62.5 51t-67.5 17q-2 0 -9.5 -0.5t-15.5 -2.5q20 -40 48 -58.5t60 -18.5zM305 626q-29 0 -55 -15t-46 -47t-31.5 -82t-11.5 -120q0 -58 9 -103q21 10 38 12.5t36 2.5q27 0 49 -7.5t41.5 -21t38.5 -32.5l39 -41q17 32 27 79t10 111
q0 70 -11.5 120t-31.5 82t-46 47t-55 15zM569 -2q-14 -4 -30 -6t-39 -2q-17 0 -37 7t-37 24q-53 -33 -121 -33q-59 0 -108.5 26t-85 74t-55 117.5t-19.5 156.5t19.5 156.5t55 117.5t85 74t108.5 26t108.5 -26t85 -74t55 -117.5t19.5 -156.5q0 -81 -16.5 -146t-48.5 -113
q7 -2 11 -2h7q28 0 43 7v-110z" />
    <glyph glyph-name="R" unicode="R" horiz-adv-x="556" 
d="M190 386h72q57 0 90 22.5t33 83.5q0 36 -10 60t-27 37.5t-41.5 19t-52.5 5.5h-64v-228zM66 0v724h218q59 0 101.5 -19.5t70 -52t40.5 -73.5t13 -84q0 -41 -10 -76t-31 -62t-52 -44.5t-73 -23.5l201 -289h-146l-205 318h-2v-318h-125z" />
    <glyph glyph-name="S" unicode="S" 
d="M143 225q3 -25 9 -48t18 -40.5t31 -28t48 -10.5q44 0 72 28.5t28 73.5q0 42 -23 64.5t-57 37t-74 27.5t-74 36.5t-57 64t-23 110.5q0 45 16 81t43.5 61.5t65 39.5t81.5 14q50 0 87 -16t62.5 -44.5t39.5 -68t17 -85.5h-115q-3 21 -9.5 39.5t-18.5 33t-29 23t-39 8.5
q-42 0 -63.5 -26.5t-21.5 -66.5q0 -38 23 -57.5t57 -32.5t74 -25.5t74 -36t57 -64t23 -109.5q0 -50 -15.5 -90.5t-44 -69.5t-69 -44.5t-90.5 -15.5q-53 0 -93.5 18t-68.5 50t-42.5 75t-14.5 94h116z" />
    <glyph glyph-name="T" unicode="T" horiz-adv-x="444" 
d="M14 608v116h416v-116h-146v-608h-124v608h-146z" />
    <glyph glyph-name="U" unicode="U" horiz-adv-x="611" 
d="M188 724v-498q0 -63 26 -92.5t91 -29.5t91 29.5t26 92.5v498h124v-530q0 -41 -14.5 -78t-44 -65.5t-75 -45.5t-107.5 -17t-107.5 17t-75 45.5t-44 65.5t-14.5 78v530h124z" />
    <glyph glyph-name="V" unicode="V" horiz-adv-x="556" 
d="M422 724h125l-211 -724h-115l-212 724h129l139 -528h2z" />
    <glyph glyph-name="W" unicode="W" horiz-adv-x="833" 
d="M471 724l121 -530h2l107 530h129l-181 -724h-114l-117 524h-2l-119 -524h-114l-181 724h128l110 -530h2l116 530h113z" />
    <glyph glyph-name="X" unicode="X" 
d="M318 388l188 -388h-132l-123 278l-126 -278h-131l189 388l-162 336h131l99 -229l102 229h132z" />
    <glyph glyph-name="Y" unicode="Y" 
d="M187 292l-187 432h132l118 -302l118 302h132l-189 -432v-292h-124v292z" />
    <glyph glyph-name="Z" unicode="Z" horiz-adv-x="444" 
d="M21 0v112l253 496h-230v116h368v-114l-248 -494h255v-116h-398z" />
    <glyph glyph-name="bracketleft" unicode="[" horiz-adv-x="389" 
d="M80 -208v932h252v-84h-142v-764h145v-84h-255z" />
    <glyph glyph-name="backslash" unicode="\" horiz-adv-x="278" 
d="M207 -12l-247 748h111l247 -748h-111z" />
    <glyph glyph-name="bracketright" unicode="]" horiz-adv-x="389" 
d="M54 -208v84h145v764h-142v84h252v-932h-255z" />
    <glyph glyph-name="asciicircum" unicode="^" horiz-adv-x="600" 
d="M52 326l191 398h114l191 -398h-116l-132 280l-132 -280h-116z" />
    <glyph glyph-name="underscore" unicode="_" 
d="M0 -125v50h500v-50h-500z" />
    <glyph glyph-name="quoteleft" unicode="&#x2018;" horiz-adv-x="222" 
d="M145 736l67 -228h-92l-98 228h123z" />
    <glyph glyph-name="a" unicode="a" 
d="M316 349q0 59 -17 91t-55 32q-44 0 -67 -42.5t-23 -143.5t23 -143.5t67 -42.5q38 0 55 32t17 91v126zM330 0v70h-2q-14 -32 -38.5 -56t-70.5 -24q-36 0 -70.5 15.5t-60.5 50t-42 89.5t-16 133q0 84 16 142t42 94t60.5 52t70.5 16q34 0 60.5 -16t48.5 -58h2v64h102v-572
h-102z" />
    <glyph glyph-name="b" unicode="b" 
d="M176 223q0 -59 21 -91t59 -32q44 0 67 42.5t23 143.5t-23 143.5t-67 42.5q-38 0 -59 -32t-21 -91v-126zM60 0v724h116v-206h2q17 34 43 49t60 15q36 0 70.5 -16t60.5 -52t42 -94t16 -142q0 -78 -16 -133t-42 -89.5t-60.5 -50t-70.5 -15.5q-53 0 -80.5 25t-36.5 55h-2v-70
h-102z" />
    <glyph glyph-name="c" unicode="c" horiz-adv-x="444" 
d="M310 368q-3 32 -9.5 53t-16 33t-22.5 17t-29 5q-19 0 -34 -8.5t-25 -29.5t-15 -57t-5 -91q0 -57 5.5 -94.5t15.5 -59.5t25 -31t33 -9q34 0 54 27t23 84h110q0 -44 -13 -83.5t-37.5 -69t-60 -47t-80.5 -17.5q-51 0 -88 24.5t-62 65t-37 94t-12 112.5q0 67 12 122t37 93.5
t62 59.5t88 21q46 0 81.5 -17.5t60 -46.5t37 -68t12.5 -82h-110z" />
    <glyph glyph-name="d" unicode="d" 
d="M324 349q0 59 -21 91t-59 32q-44 0 -67 -42.5t-23 -143.5t23 -143.5t67 -42.5q38 0 59 32t21 91v126zM338 0v70h-2q-11 -35 -37 -57.5t-80 -22.5q-36 0 -70.5 15.5t-60.5 50t-42 89.5t-16 133q0 84 16 142t42 94t60.5 52t70.5 16q83 0 103 -64h2v206h116v-724h-102z" />
    <glyph glyph-name="e" unicode="e" 
d="M340 346q-3 73 -26.5 101.5t-69.5 28.5q-77 0 -89 -130h185zM453 194q-6 -44 -22 -81.5t-42 -64.5t-61 -42.5t-78 -15.5q-57 0 -98.5 25t-68.5 66t-40 94.5t-13 110.5t13 110.5t40 94.5t68.5 66t98.5 25q50 0 88.5 -19.5t64.5 -54.5t39.5 -84t13.5 -108v-68h-302
q2 -33 7.5 -61t16.5 -48t28.5 -31.5t42.5 -11.5q21 0 36 8t24.5 21.5t15.5 31.5t11 37h117z" />
    <glyph glyph-name="f" unicode="f" horiz-adv-x="278" 
d="M16 462v110h58v42q0 56 36.5 89t114.5 33q27 0 46 -4v-106h-20q-26 0 -43.5 -10.5t-17.5 -33.5v-10h76v-110h-76v-462h-116v462h-58z" />
    <glyph glyph-name="g" unicode="g" 
d="M324 349q0 59 -21 91t-59 32q-44 0 -67 -42.5t-23 -143.5t23 -143.5t67 -42.5q38 0 59 32t21 91v126zM159 -28q12 -34 34 -47t53 -13q42 0 62 26.5t20 73.5v50h-2q-14 -39 -43.5 -55.5t-63.5 -16.5q-36 0 -70.5 16t-60.5 52t-42 94t-16 142q0 78 16 132.5t42 89
t60.5 50.5t70.5 16q54 0 80 -22.5t37 -57.5h2v70h102v-566q0 -62 -18 -101.5t-46 -62t-62 -31.5t-66 -9q-42 0 -78 12t-63 34t-44 53.5t-21 70.5h117z" />
    <glyph glyph-name="h" unicode="h" 
d="M60 0v724h116v-200h2q8 27 37.5 42.5t66.5 15.5q34 0 63 -11t50 -32t33 -51t12 -67v-421h-116v398q0 40 -17 59t-48 19q-37 0 -60 -24.5t-23 -70.5v-381h-116z" />
    <glyph glyph-name="i" unicode="i" horiz-adv-x="222" 
d="M53 626v110h116v-110h-116zM53 0v572h116v-572h-116z" />
    <glyph glyph-name="j" unicode="j" horiz-adv-x="222" 
d="M53 626v110h116v-110h-116zM-32 -78q8 -1 17 -1.5t17 -0.5q32 0 41.5 16t9.5 60v576h116v-605q0 -38 -6.5 -66.5t-22 -47.5t-43 -29t-69.5 -10h-60v108z" />
    <glyph glyph-name="k" unicode="k" horiz-adv-x="444" 
d="M60 0v724h116v-377h2l131 225h132l-145 -216l157 -356h-124l-106 266h-2l-45 -74v-192h-116z" />
    <glyph glyph-name="l" unicode="l" horiz-adv-x="222" 
d="M53 0v724h116v-724h-116z" />
    <glyph glyph-name="m" unicode="m" horiz-adv-x="778" 
d="M60 572h107v-60h2q16 41 46.5 55.5t67.5 14.5q46 0 77.5 -16t49.5 -54q30 40 60 55t70 15q39 0 71.5 -12.5t56 -34.5t37 -52t13.5 -66v-417h-116v397q0 41 -20.5 60t-51.5 19q-37 0 -60 -24.5t-23 -70.5v-381h-116v398q0 40 -20.5 59t-51.5 19q-37 0 -60 -24.5t-23 -70.5
v-381h-116v572z" />
    <glyph glyph-name="n" unicode="n" 
d="M60 0v572h106v-60h2q16 36 46.5 53t67.5 17q34 0 63 -11t50 -32t33 -51t12 -67v-421h-116v398q0 40 -17 59t-48 19q-37 0 -60 -24.5t-23 -70.5v-381h-116z" />
    <glyph glyph-name="o" unicode="o" 
d="M346 286q0 53 -6.5 89.5t-18.5 59t-30 32t-41 9.5t-41 -9.5t-30 -32t-18.5 -59t-6.5 -89.5t6.5 -89.5t18.5 -59t30 -32t41 -9.5t41 9.5t30 32t18.5 59t6.5 89.5zM470 286q0 -57 -13 -110.5t-40 -94.5t-68.5 -66t-98.5 -25t-98.5 25t-68.5 66t-40 94.5t-13 110.5t13 110.5
t40 94.5t68.5 66t98.5 25t98.5 -25t68.5 -66t40 -94.5t13 -110.5z" />
    <glyph glyph-name="p" unicode="p" 
d="M176 223q0 -59 21 -91t59 -32q44 0 67 42.5t23 143.5t-23 143.5t-67 42.5q-38 0 -59 -32t-21 -91v-126zM162 572v-70h2q11 35 37 57.5t80 22.5q36 0 70.5 -16t60.5 -50.5t42 -89t16 -132.5q0 -84 -16 -142t-42 -94t-60.5 -52t-70.5 -16q-34 0 -60 15t-43 49h-2v-240h-116
v758h102z" />
    <glyph glyph-name="q" unicode="q" 
d="M324 349q0 59 -21 91t-59 32q-44 0 -67 -42.5t-23 -143.5t23 -143.5t67 -42.5q38 0 59 32t21 91v126zM440 572v-758h-116v240h-2q-17 -34 -43 -49t-60 -15q-36 0 -70.5 16t-60.5 52t-42 94t-16 142q0 78 16 132.5t42 89t60.5 50.5t70.5 16q46 0 73 -22t44 -58h2v70h102z
" />
    <glyph glyph-name="r" unicode="r" horiz-adv-x="278" 
d="M50 0v572h106v-82h2q10 22 20 40t22.5 31t29.5 20.5t42 8.5v-128q-23 0 -42 -6.5t-33.5 -21.5t-22.5 -39t-8 -59v-336h-116z" />
    <glyph glyph-name="s" unicode="s" horiz-adv-x="444" 
d="M144 172q1 -34 19.5 -55t55.5 -21q34 0 57 14.5t23 51.5q0 29 -19.5 43.5t-48.5 23.5t-63.5 17.5t-63.5 27.5t-48.5 52.5t-19.5 91.5q0 38 13.5 68.5t37.5 51.5t56 32.5t68 11.5q39 0 72.5 -12t58.5 -34t40 -53.5t17 -71.5h-114q-7 35 -24.5 50t-54.5 15q-26 0 -40 -15
t-14 -41q0 -28 19.5 -41t48.5 -22t63.5 -18t63.5 -28t48.5 -52t19.5 -90q0 -44 -15.5 -77.5t-42 -56t-62 -34t-76.5 -11.5t-75 13t-59.5 37t-40.5 57.5t-16 74.5h116z" />
    <glyph glyph-name="t" unicode="t" horiz-adv-x="278" 
d="M75 572v121h116v-121h80v-110h-80v-462h-116v462h-63v110h63z" />
    <glyph glyph-name="u" unicode="u" 
d="M440 572v-572h-106v68h-2q-16 -42 -46.5 -60t-67.5 -18q-35 0 -64 11t-50 32t-32.5 51t-11.5 67v421h116v-398q0 -40 17 -59t48 -19q37 0 60 24.5t23 70.5v381h116z" />
    <glyph glyph-name="v" unicode="v" horiz-adv-x="444" 
d="M438 572l-159 -572h-113l-160 572h125l92 -410h2l90 410h123z" />
    <glyph glyph-name="w" unicode="w" horiz-adv-x="667" 
d="M380 572l82 -392h2l80 392h117l-135 -572h-112l-80 354h-2l-80 -354h-112l-135 572h117l80 -392h2l82 392h94z" />
    <glyph glyph-name="x" unicode="x" horiz-adv-x="444" 
d="M222 396l81 176h135l-148 -275l158 -297h-136l-90 192l-92 -192h-134l158 297l-143 275h136z" />
    <glyph glyph-name="y" unicode="y" horiz-adv-x="444" 
d="M159 27l-153 545h123l89 -380h2l95 380h123l-225 -770h-128z" />
    <glyph glyph-name="z" unicode="z" horiz-adv-x="444" 
d="M44 466v106h368v-108l-257 -358h259v-106h-392v108l259 358h-237z" />
    <glyph glyph-name="braceleft" unicode="{" horiz-adv-x="389" 
d="M329 652h-99q-26 0 -33 -12t-7 -42v-264q0 -20 -5.5 -33.5t-15 -22.5t-21 -13.5t-23.5 -7.5v-3q24 -5 44.5 -21t20.5 -56v-265q0 -30 7 -42t33 -12h99v-84h-135q-60 0 -87 28t-27 78v256q0 22 -7 36t-17 22t-22 11t-22 3v94q10 0 22 3t22 11t17 22t7 36v256q0 50 27 78
t87 28h135v-84z" />
    <glyph glyph-name="bar" unicode="|" horiz-adv-x="222" 
d="M56 736h110v-748h-110v748z" />
    <glyph glyph-name="braceright" unicode="}" horiz-adv-x="389" 
d="M60 -142h99q26 0 33 12t7 42v264q0 40 20.5 56t44.5 21v3q-12 3 -23.5 7.5t-21 13.5t-15 22.5t-5.5 33.5v265q0 30 -7 42t-33 12h-99v84h135q60 0 87 -28t27 -78v-256q0 -22 7 -36t17 -22t22 -11t22 -3v-94q-10 0 -22 -3t-22 -11t-17 -22t-7 -36v-256q0 -50 -27 -78
t-87 -28h-135v84z" />
    <glyph glyph-name="asciitilde" unicode="~" horiz-adv-x="600" 
d="M554 247q-12 -16 -25.5 -31.5t-30 -27.5t-36.5 -19.5t-45 -7.5q-31 0 -58 9.5t-55 23.5q-26 14 -57 24.5t-69 10.5q-18 0 -32 -6.5t-25.5 -16.5t-20 -23t-14.5 -26l-40 102q9 16 21.5 31.5t29 27.5t38 19.5t48.5 7.5q29 0 60 -9.5t63 -22.5l59.5 -24t52.5 -12
q16 0 30 6.5t25.5 16.5t21.5 23l20 26z" />
    <glyph glyph-name="exclamdown" unicode="&#xa1;" horiz-adv-x="278" 
d="M77 448v124h124v-124h-124zM201 -152h-124v530h124v-530z" />
    <glyph glyph-name="cent" unicode="&#xa2;" horiz-adv-x="556" 
d="M356 442q0 45 -22.5 72.5t-55.5 27.5q-47 0 -67.5 -40.5t-20.5 -139.5t20.5 -139.5t67.5 -40.5q75 0 78 100h116q0 -35 -8 -70t-25 -65t-43.5 -50.5t-63.5 -24.5v-92h-104v92q-35 6 -65.5 25t-53 53.5t-35 86.5t-12.5 125t12.5 125t35 86.5t53 53.5t65.5 25v84h104v-84
q37 -5 63.5 -25t43.5 -50t25 -65.5t8 -69.5h-116z" />
    <glyph glyph-name="sterling" unicode="&#xa3;" horiz-adv-x="556" 
d="M374 530q-14 44 -40.5 67t-73.5 23q-49 0 -78.5 -33t-29.5 -85q0 -18 6 -39.5t20 -41.5h185v-106h-114q21 -24 35.5 -50.5t14.5 -58.5q0 -29 -6 -50.5l-11 -39.5h40q41 0 69 24.5t28 64.5q0 14 -2 26.5t-5 25.5h118q3 -7 4 -19.5t1 -23.5q0 -103 -56 -158.5t-162 -55.5
h-282v116h120q8 18 14 38t6 40q0 33 -18.5 62.5t-43.5 58.5h-104v104h44q-12 26 -18.5 47.5t-6.5 47.5q0 46 17.5 86.5t48 70.5t71 47.5t86.5 17.5q47 0 89.5 -14t75 -40.5t53.5 -65t26 -86.5h-121z" />
    <glyph glyph-name="fraction" unicode="&#x2044;" horiz-adv-x="167" 
d="M-75 -12h-92l409 748h92z" />
    <glyph glyph-name="fraction" unicode="&#x2215;" horiz-adv-x="167" 
d="M-75 -12h-92l409 748h92z" />
    <glyph glyph-name="yen" unicode="&#xa5;" horiz-adv-x="556" 
d="M519 380h-145l-35 -67v-3h180v-106h-180v-204h-124v204h-180v106h180v3l-34 67h-146v106h91l-122 238h132l142 -281l142 281h132l-124 -238h91v-106z" />
    <glyph glyph-name="florin" unicode="&#x192;" horiz-adv-x="556" 
d="M88 342l9 106h124q3 79 17.5 134t39.5 89.5t59.5 49.5t78.5 15q34 0 66 -7.5t64 -16.5l-31 -107l-30 13t-31 8q-27 0 -46.5 -8.5t-32 -29t-19 -54.5t-7.5 -86h139l-9 -106h-136q-3 -140 -12 -241.5t-32 -168t-64.5 -98.5t-108.5 -32q-29 0 -58.5 3.5t-57.5 14.5l32 112
q28 -14 63 -14q20 0 35 4.5t26 20t18.5 43.5t13 75.5t9.5 116t8 164.5h-127z" />
    <glyph glyph-name="section" unicode="&#xa7;" horiz-adv-x="444" 
d="M324 269q0 9 -9 26t-24 36.5t-33.5 39.5t-37.5 36t-37 26.5t-30 10.5q-18 0 -26 -15t-8 -31q0 -17 21 -45.5t48.5 -56t53 -48t34.5 -20.5q28 0 38 14.5t10 26.5zM306 603q-8 8 -16.5 17.5t-17.5 17.5t-19.5 13t-23.5 5q-23 0 -37 -12.5t-14 -35.5q0 -19 18 -41t44.5 -47
l57.5 -54t57.5 -60.5t44.5 -66.5t18 -73q0 -42 -31 -69t-76 -35q27 -26 40.5 -56.5t13.5 -68.5q0 -28 -18 -53.5t-41 -39.5q-21 -14 -43.5 -18t-47.5 -4q-46 0 -85.5 23.5t-68.5 58.5l70 54q14 -22 33.5 -39t48.5 -17q20 0 39 10.5t19 32.5q0 19 -18 43.5t-45.5 53
l-59.5 59.5t-59.5 63.5t-45.5 64.5t-18 63q0 47 29.5 77t72.5 41q-17 23 -30 49.5t-13 56.5q0 33 12.5 55.5t33.5 37t48 21t55 6.5t49.5 -9t38 -21.5t29.5 -27t24 -25.5z" />
    <glyph glyph-name="currency" unicode="&#xa4;" horiz-adv-x="556" 
d="M414 362q0 33 -10.5 59t-28.5 44.5t-43 28t-54 9.5t-54 -9.5t-43 -28t-28.5 -44.5t-10.5 -59t10.5 -59t28.5 -44.5t43 -28t54 -9.5t54 9.5t43 28t28.5 44.5t10.5 59zM538 560l-53 -52q20 -29 30.5 -66t10.5 -80t-10.5 -79.5t-30.5 -65.5l53 -53l-64 -64l-53 54
q-63 -40 -143 -40q-82 0 -142 40l-54 -54l-64 64l53 53q-20 30 -30.5 66.5t-10.5 78.5q0 43 10.5 79.5t30.5 65.5l-53 53l64 64l55 -53q29 19 64.5 29t76.5 10q80 0 142 -39l54 53z" />
    <glyph glyph-name="quotesingle" unicode="'" horiz-adv-x="222" 
d="M62 724h98v-256h-98v256z" />
    <glyph glyph-name="quotedblleft" unicode="&#x201c;" horiz-adv-x="389" 
d="M306 736l67 -228h-92l-98 228h123zM139 736l67 -228h-92l-98 228h123z" />
    <glyph glyph-name="guillemotleft" unicode="&#xab;" horiz-adv-x="444" 
d="M296 286l124 -183h-105l-125 183l125 183h105zM130 286l124 -183h-105l-125 183l125 183h105z" />
    <glyph glyph-name="guilsinglleft" unicode="&#x2039;" horiz-adv-x="278" 
d="M130 286l124 -183h-105l-125 183l125 183h105z" />
    <glyph glyph-name="guilsinglright" unicode="&#x203a;" horiz-adv-x="278" 
d="M24 469h105l125 -183l-125 -183h-105l124 183z" />
    <glyph glyph-name="fi" unicode="&#xfb01;" 
d="M331 626v110h116v-110h-116zM331 0v572h116v-572h-116zM16 462v110h58v42q0 56 36.5 89t114.5 33q27 0 46 -4v-106h-20q-26 0 -43.5 -10.5t-17.5 -33.5v-10h76v-110h-76v-462h-116v462h-58z" />
    <glyph glyph-name="fl" unicode="&#xfb02;" 
d="M331 0v724h116v-724h-116zM16 462v110h58v42q0 56 36.5 89t114.5 33q27 0 46 -4v-106h-20q-26 0 -43.5 -10.5t-17.5 -33.5v-10h76v-110h-76v-462h-116v462h-58z" />
    <glyph glyph-name="endash" unicode="&#x2013;" 
d="M0 244v84h500v-84h-500z" />
    <glyph glyph-name="dagger" unicode="&#x2020;" horiz-adv-x="444" 
d="M280 724l-40 -204l168 39v-113l-168 38l40 -163l-40 -411h-36l-40 411l40 163l-168 -38v113l168 -39l-40 204h116z" />
    <glyph glyph-name="daggerdbl" unicode="&#x2021;" horiz-adv-x="444" 
d="M408 446l-168 38l40 -167l-40 -167l168 38v-113l-168 39l40 -204h-116l40 204l-168 -39v113l168 -38l-40 167l40 167l-168 -38v113l168 -39l-40 204h116l-40 -204l168 39v-113z" />
    <glyph glyph-name="periodcentered" unicode="&#xb7;" horiz-adv-x="278" 
d="M139 319q28 0 47 -20t19 -46t-19 -46t-47 -20t-47 20t-19 46t19 46t47 20z" />
    <glyph glyph-name="periodcentered" unicode="&#x2219;" horiz-adv-x="278" 
d="M139 319q28 0 47 -20t19 -46t-19 -46t-47 -20t-47 20t-19 46t19 46t47 20z" />
    <glyph glyph-name="paragraph" unicode="&#xb6;" horiz-adv-x="620" 
d="M231 371q-108 0 -165.5 46t-57.5 127q0 53 18.5 88t51.5 55.5t77.5 28.5t96.5 8h302v-814h-110v730h-103v-730h-110v461z" />
    <glyph glyph-name="bullet" unicode="&#x2022;" 
d="M69 362q0 37 13.5 70t38 58t58 39t71.5 14t71.5 -14t58 -39t38 -58t13.5 -70q0 -38 -13.5 -70.5t-38 -57.5t-58 -39t-71.5 -14t-71.5 14t-58 39t-38 57.5t-13.5 70.5z" />
    <glyph glyph-name="quotesinglbase" unicode="&#x201a;" horiz-adv-x="222" 
d="M200 130l-98 -228h-92l67 228h123z" />
    <glyph glyph-name="quotedblbase" unicode="&#x201e;" horiz-adv-x="389" 
d="M206 130l-98 -228h-92l67 228h123zM373 130l-98 -228h-92l67 228h123z" />
    <glyph glyph-name="quotedblright" unicode="&#x201d;" horiz-adv-x="389" 
d="M206 736l-98 -228h-92l67 228h123zM373 736l-98 -228h-92l67 228h123z" />
    <glyph glyph-name="guillemotright" unicode="&#xbb;" horiz-adv-x="444" 
d="M24 469h105l125 -183l-125 -183h-105l124 183zM190 469h105l125 -183l-125 -183h-105l124 183z" />
    <glyph glyph-name="ellipsis" unicode="&#x2026;" horiz-adv-x="1000" 
d="M442 0v130h116v-130h-116zM775 0v130h116v-130h-116zM109 0v130h116v-130h-116z" />
    <glyph glyph-name="perthousand" unicode="&#x2030;" horiz-adv-x="1000" 
d="M159 660q-35 0 -56 -27t-21 -76t21 -76t56 -27t56 27t21 76t-21 76t-56 27zM841 270q-35 0 -56 -27t-21 -76t21 -76t56 -27t56 27t21 76t-21 76t-56 27zM490 270q-35 0 -56 -27t-21 -76t21 -76t56 -27t56 27t21 76t-21 76t-56 27zM202 -12h-72l316 748h72zM490 346
q35 0 63.5 -13t49 -37t31.5 -57t11 -72t-11 -72t-31.5 -57t-49 -37t-63.5 -13t-63.5 13t-49 37t-31.5 57t-11 72t11 72t31.5 57t49 37t63.5 13zM841 346q35 0 63.5 -13t49 -37t31.5 -57t11 -72t-11 -72t-31.5 -57t-49 -37t-63.5 -13t-63.5 13t-49 37t-31.5 57t-11 72t11 72
t31.5 57t49 37t63.5 13zM159 736q35 0 63.5 -13t49 -37t31.5 -57t11 -72t-11 -72t-31.5 -57t-49 -37t-63.5 -13t-63.5 13t-49 37t-31.5 57t-11 72t11 72t31.5 57t49 37t63.5 13z" />
    <glyph glyph-name="questiondown" unicode="&#xbf;" 
d="M332 572v-126h-124v126h124zM334 400v-124q0 -30 -11.5 -52t-29 -40t-38 -33.5t-38 -32t-29.5 -36.5t-12 -47q0 -38 23 -60.5t61 -22.5q48 0 67 27t19 90h124q0 -57 -12 -101t-38 -73t-68.5 -44t-103.5 -15q-41 0 -76.5 15t-62 41t-42 62t-15.5 77q0 46 11.5 78
t29.5 54.5t38 39l38 31t29.5 30t11.5 36.5v100h124z" />
    <glyph glyph-name="grave" unicode="`" horiz-adv-x="222" 
d="M96 776l90 -144h-82l-142 144h134z" />
    <glyph glyph-name="acute" unicode="&#xb4;" horiz-adv-x="222" 
d="M118 632h-82l90 144h134z" />
    <glyph glyph-name="circumflex" unicode="&#x2c6;" horiz-adv-x="222" 
d="M40 632h-92l107 144h111l108 -144h-93l-70 89z" />
    <glyph glyph-name="tilde" unicode="&#x2dc;" horiz-adv-x="222" 
d="M288 762q-4 -23 -12 -44t-21.5 -37t-33 -25.5t-45.5 -9.5q-17 0 -35.5 5.5t-37.5 12.5t-37 12.5t-34 5.5q-19 0 -28.5 -13t-11.5 -29h-58q1 19 9 40t21.5 37.5t32 27.5t41.5 11t42 -6t37 -13q17 -7 33.5 -13t33.5 -6q21 0 31 13t15 31h58z" />
    <glyph glyph-name="macron" unicode="&#xaf;" horiz-adv-x="222" 
d="M-52 670v64h326v-64h-326z" />
    <glyph glyph-name="macron" unicode="&#x2c9;" horiz-adv-x="222" 
d="M-52 670v64h326v-64h-326z" />
    <glyph glyph-name="breve" unicode="&#x2d8;" horiz-adv-x="222" 
d="M6 779q6 -34 32.5 -54.5t60.5 -20.5q45 0 74 14t42 61h57q-5 -67 -49 -104t-110 -37q-73 0 -115 33t-48 108h56z" />
    <glyph glyph-name="dotaccent" unicode="&#x2d9;" horiz-adv-x="222" 
d="M55 646v106h112v-106h-112z" />
    <glyph glyph-name="dieresis" unicode="&#xa8;" horiz-adv-x="222" 
d="M-32 646v106h112v-106h-112zM254 752v-106h-112v106h112z" />
    <glyph glyph-name="ring" unicode="&#x2da;" horiz-adv-x="222" 
d="M111 794q-24 0 -41.5 -17t-17.5 -42t17.5 -42t41.5 -17t41.5 17t17.5 42t-17.5 42t-41.5 17zM111 838q21 0 39.5 -8t33 -22t22.5 -33t8 -40t-8 -40t-22.5 -33t-33 -22t-39.5 -8t-39.5 8t-33 22t-22.5 33t-8 40t8 40t22.5 33t33 22t39.5 8z" />
    <glyph glyph-name="cedilla" unicode="&#xb8;" horiz-adv-x="222" 
d="M16 -161q14 -6 32 -11t33 -5q10 0 21 1.5t20 6t14.5 12.5t5.5 21q0 20 -15 27.5t-33 7.5q-22 0 -37 -6l-22 18l66 89h48l-44 -61q7 2 13.5 3t13.5 1q17 0 33 -5t29 -14.5t20.5 -23.5t7.5 -33q0 -26 -11.5 -44t-29.5 -29t-41 -16t-45 -5q-9 0 -22.5 2t-27 6t-26 8.5
t-20.5 9.5z" />
    <glyph glyph-name="hungarumlaut" unicode="&#x2dd;" horiz-adv-x="222" 
d="M26 632h-74l74 144h130zM198 632h-82l90 144h134z" />
    <glyph glyph-name="ogonek" unicode="&#x2db;" horiz-adv-x="222" 
d="M223 9q-20 -8 -44.5 -19t-45.5 -26t-35.5 -35t-14.5 -45q0 -23 14.5 -36t36.5 -13q24 0 50 14.5t46 27.5l20 -36q-34 -23 -71.5 -41.5t-79.5 -18.5q-43 0 -73.5 23.5t-30.5 68.5q0 39 24.5 65.5t60 43t74.5 25.5t69 14v-12z" />
    <glyph glyph-name="caron" unicode="&#x2c7;" horiz-adv-x="222" 
d="M111 687l70 89h93l-108 -144h-111l-107 144h92z" />
    <glyph glyph-name="emdash" unicode="&#x2014;" horiz-adv-x="1000" 
d="M0 244v84h1000v-84h-1000z" />
    <glyph glyph-name="AE" unicode="&#xc6;" horiz-adv-x="833" 
d="M403 302v306h-2l-140 -306h142zM403 192h-182l-90 -192h-139l349 724h430v-110h-244v-182h248v-110h-248v-212h250v-110h-374v192z" />
    <glyph glyph-name="ordfeminine" unicode="&#xaa;" horiz-adv-x="300" 
d="M189 596q0 29 -10.5 47.5t-31.5 18.5q-23 0 -39 -24.5t-16 -78.5q0 -57 16 -81t39 -24q21 0 31.5 18t10.5 49v75zM203 386v42h-2q-8 -19 -24.5 -33.5t-46.5 -14.5q-24 0 -46 9.5t-39 30t-27 53.5t-10 80q0 50 10 85t27 56.5t39 31.5t46 10q23 0 40 -10t31 -35h2v38h66
v-343h-66z" />
    <glyph glyph-name="Oslash" unicode="&#xd8;" horiz-adv-x="611" 
d="M218 141q18 -22 40.5 -32.5t46.5 -10.5q29 0 55 15t46 47t31.5 82t11.5 120q0 74 -14 128zM392 583q-19 23 -41 33t-46 10q-29 0 -55 -15t-46 -47t-31.5 -82t-11.5 -120q0 -74 14 -128zM607 766l-94 -152q29 -48 44.5 -111t15.5 -141q0 -87 -19.5 -156.5t-55 -117.5
t-85 -74t-108.5 -26q-85 0 -149 53l-52 -83h-100l94 151q-29 48 -45 111.5t-16 141.5q0 87 19.5 156.5t55 117.5t85 74t108.5 26q43 0 80.5 -13.5t68.5 -39.5l52 83h101z" />
    <glyph glyph-name="OE" unicode="&#x152;" horiz-adv-x="889" 
d="M450 435q0 40 -8 73.5t-25.5 58.5t-44 39t-63.5 14q-40 0 -68 -18.5t-46 -52.5t-26 -81.5t-8 -105.5t8 -105.5t26 -81.5t46 -52.5t68 -18.5q37 0 63.5 15t44 41t25.5 60.5t8 74.5v140zM580 432h251v-110h-251v-212h253v-110h-363v104h-2q-8 -35 -25 -57t-39 -35.5
t-48 -18.5t-51 -5q-59 0 -108.5 26t-85 74t-55 117.5t-19.5 156.5t19.5 156.5t55 117.5t85 74t108.5 26q71 0 108 -27.5t55 -88.5h2v104h357v-110h-247v-182z" />
    <glyph glyph-name="ordmasculine" unicode="&#xba;" horiz-adv-x="300" 
d="M205 559q0 56 -15.5 79.5t-39.5 23.5q-25 0 -40 -23.5t-15 -79.5q0 -58 15 -81.5t40 -23.5q24 0 39.5 23.5t15.5 81.5zM293 559q0 -35 -8.5 -67.5t-26 -57t-44.5 -39.5t-64 -15t-64 15t-44.5 39.5t-26 57t-8.5 67.5q0 34 8.5 66t26 56.5t44.5 39.5t64 15t64 -15
t44.5 -39.5t26 -56.5t8.5 -66z" />
    <glyph glyph-name="ae" unicode="&#xe6;" horiz-adv-x="778" 
d="M628 346q-3 73 -25 101.5t-62 28.5q-43 0 -66.5 -28.5t-32.5 -101.5h186zM326 349q0 59 -22 91t-60 32q-44 0 -67 -42.5t-23 -143.5t23 -143.5t67 -42.5q38 0 60 32t22 91v126zM442 248q3 -74 23.5 -113t71.5 -39q21 0 36 8t24.5 21.5t15.5 31.5t11 37h117
q-6 -44 -21.5 -81.5t-39 -64.5t-52.5 -42.5t-62 -15.5q-54 0 -85 15t-45 47h-2v-52h-100v50h-2q-4 -10 -12 -20.5t-21.5 -19.5t-33 -14.5t-46.5 -5.5q-36 0 -70.5 15.5t-60.5 50t-42 89.5t-16 133q0 84 16 142t42 94t60.5 52t70.5 16q34 0 64.5 -14.5t48.5 -57.5h2v62h100
v-62h2q21 39 48.5 55.5t77.5 16.5q41 0 74.5 -19.5t57.5 -54.5t37 -84t13 -108v-68h-302z" />
    <glyph glyph-name="dotlessi" unicode="&#x131;" horiz-adv-x="222" 
d="M53 0v572h116v-572h-116z" />
    <glyph glyph-name="oslash" unicode="&#xf8;" 
d="M200 112q20 -16 50 -16q23 0 41 9.5t30 32t18.5 59t6.5 89.5q0 25 -1.5 45.5t-3.5 37.5h-2zM300 460q-19 16 -50 16q-23 0 -41 -9.5t-30 -32t-18.5 -59t-6.5 -89.5q0 -25 1.5 -45.5t3.5 -37.5h2zM489 642l-78 -143q30 -41 44.5 -96.5t14.5 -116.5q0 -57 -13 -110.5
t-40 -94.5t-68.5 -66t-98.5 -25q-30 0 -55 7t-47 20l-47 -87h-90l78 143q-31 43 -45 98t-14 115q0 57 13 110.5t40 94.5t68.5 66t98.5 25q58 0 102 -27l47 87h90z" />
    <glyph glyph-name="oe" unicode="&#x153;" horiz-adv-x="778" 
d="M628 346q-3 73 -24.5 101.5t-56.5 28.5q-39 0 -61.5 -29.5t-29.5 -100.5h172zM154 286q0 -53 6 -89.5t17 -59t26.5 -32t34.5 -9.5q23 0 40.5 9.5t29.5 32t18 59t6 89.5t-6 89.5t-18 59t-29.5 32t-40.5 9.5q-19 0 -34.5 -9.5t-26.5 -32t-17 -59t-6 -89.5zM456 248
q3 -30 8.5 -57.5t15.5 -48.5t25 -33.5t38 -12.5q19 0 32.5 8t22.5 21.5t15 31.5t11 37h117q-6 -44 -22.5 -81.5t-42.5 -64.5t-62 -42.5t-82 -15.5q-44 0 -81 16.5t-64 65.5q-20 -38 -53 -60t-84 -22q-57 0 -98.5 25t-68.5 66t-40 94.5t-13 110.5t13 110.5t40 94.5t68.5 66
t98.5 25q55 0 89.5 -20t54.5 -56q24 39 59.5 57.5t78.5 18.5q52 0 92 -19.5t66.5 -54.5t40 -84t13.5 -108v-68h-288z" />
    <glyph glyph-name="germandbls" unicode="&#xdf;" horiz-adv-x="556" 
d="M205 207q3 -48 27 -74.5t73 -26.5q21 0 38 8.5t29 22.5t18.5 32t6.5 38q0 35 -13.5 56.5t-35.5 33t-50 14.5t-57 2v106q26 0 47.5 5.5t37.5 18.5t24.5 34t8.5 52q0 42 -21 71.5t-66 29.5q-24 0 -42 -5t-30 -18.5t-18 -36.5t-6 -59v-304h29zM60 0v531q0 102 57.5 153.5
t166.5 51.5q39 0 75 -14.5t63.5 -40.5t44 -61.5t16.5 -76.5q0 -28 -6 -55t-19 -48t-34.5 -35t-52.5 -15v-2q38 -3 66 -18.5t47 -41t28 -58.5t9 -69q0 -49 -17.5 -88t-48 -66.5t-71.5 -42t-87 -14.5q-21 0 -41.5 6t-38.5 18t-30.5 29t-16.5 38h-2v-81h-108z" />
    <glyph glyph-name="logicalnot" unicode="&#xac;" horiz-adv-x="600" 
d="M443 308h-396v110h506v-330h-110v220z" />
    <glyph glyph-name="mu" unicode="&#xb5;" 
d="M440 572v-572h-106v68h-2q-16 -42 -46.5 -60t-67.5 -18q-11 0 -21 1.5t-21 3.5v-181h-116v758h116v-398q0 -40 17 -59t48 -19q37 0 60 24.5t23 70.5v381h116z" />
    <glyph glyph-name="mu" unicode="&#x3bc;" 
d="M440 572v-572h-106v68h-2q-16 -42 -46.5 -60t-67.5 -18q-11 0 -21 1.5t-21 3.5v-181h-116v758h116v-398q0 -40 17 -59t48 -19q37 0 60 24.5t23 70.5v381h116z" />
    <glyph glyph-name="trademark" unicode="&#x2122;" horiz-adv-x="1000" 
d="M369 614h-119v-316h-116v316h-118v110h353v-110zM669 466l96 258h158v-426h-110v290h-2l-101 -290h-83l-101 290h-2v-290h-110v426h158z" />
    <glyph glyph-name="plusminus" unicode="&#xb1;" horiz-adv-x="600" 
d="M47 110h506v-110h-506v110zM245 506h110v-127h198v-110h-198v-126h-110v126h-198v110h198v127z" />
    <glyph glyph-name="divide" unicode="&#xf7;" horiz-adv-x="600" 
d="M301 549q18 0 34 -7t28 -19t19 -28t7 -34t-7 -34t-19 -28t-28 -19t-34 -7t-34 7t-28 19t-19 28t-7 34t7 34t19 28t28 19t34 7zM301 133q18 0 34 -7t28 -19t19 -28t7 -34t-7 -34t-19 -28t-28 -19t-34 -7t-34 7t-28 19t-19 28t-7 34t7 34t19 28t28 19t34 7zM47 198v110h506
v-110h-506z" />
    <glyph glyph-name="degree" unicode="&#xb0;" horiz-adv-x="400" 
d="M200 506q15 0 30 7t27 19t19 27.5t7 33.5t-7 33.5t-19 27.5t-27 19t-30 7t-30 -7t-27 -19t-19 -27.5t-7 -33.5t7 -33.5t19 -27.5t27 -19t30 -7zM200 450q-30 0 -56 11t-45.5 30.5t-30.5 45.5t-11 56t11 56t30.5 45.5t45.5 30.5t56 11t56 -11t45.5 -30.5t30.5 -45.5
t11 -56t-11 -56t-30.5 -45.5t-45.5 -30.5t-56 -11z" />
    <glyph glyph-name="registered" unicode="&#xae;" horiz-adv-x="800" 
d="M414 399q30 0 47.5 9.5t17.5 44.5q0 22 -17.5 33.5t-47.5 11.5h-78v-99h78zM336 157h-88v411h154q81 0 125 -29t44 -96q0 -56 -29.5 -80.5t-72.5 -27.5l94 -178h-96l-89 172h-42v-172zM400 648q-56 0 -105 -21t-86 -58.5t-58.5 -90.5t-21.5 -116t21.5 -116t58.5 -90.5
t86 -58.5t105 -21q55 0 104.5 21t86.5 58.5t58.5 90.5t21.5 116t-21.5 116t-58.5 90.5t-86.5 58.5t-104.5 21zM400 736q76 0 146 -25.5t123.5 -73.5t85.5 -117.5t32 -157.5t-32 -157.5t-85.5 -117.5t-123.5 -73.5t-146 -25.5t-146 25.5t-123.5 73.5t-85.5 117.5t-32 157.5
t32 157.5t85.5 117.5t123.5 73.5t146 25.5z" />
    <glyph glyph-name="copyright" unicode="&#xa9;" horiz-adv-x="800" 
d="M595 304q-6 -38 -22.5 -67.5t-40.5 -49.5t-54 -30.5t-62 -10.5q-48 0 -87 17t-66 46t-42 69t-15 86q0 47 14 87t41 69t65.5 45.5t86.5 16.5q34 0 64 -9.5t53.5 -29t39 -48.5t21.5 -67h-87q-6 35 -32 50.5t-59 15.5q-50 0 -75.5 -34.5t-25.5 -93.5q0 -28 7 -52t20.5 -42
t33 -28t43.5 -10q36 0 60.5 17.5t27.5 52.5h91zM400 648q-56 0 -105 -21t-86 -58.5t-58.5 -90.5t-21.5 -116t21.5 -116t58.5 -90.5t86 -58.5t105 -21q55 0 104.5 21t86.5 58.5t58.5 90.5t21.5 116t-21.5 116t-58.5 90.5t-86.5 58.5t-104.5 21zM400 736q76 0 146 -25.5
t123.5 -73.5t85.5 -117.5t32 -157.5t-32 -157.5t-85.5 -117.5t-123.5 -73.5t-146 -25.5t-146 25.5t-123.5 73.5t-85.5 117.5t-32 157.5t32 157.5t85.5 117.5t123.5 73.5t146 25.5z" />
    <glyph glyph-name="Aacute" unicode="&#xc1;" horiz-adv-x="556" 
d="M276 536h-2l-62 -234h127zM285 765h-82l90 144h134zM222 724h109l225 -724h-127l-60 192h-182l-59 -192h-128z" />
    <glyph glyph-name="Acircumflex" unicode="&#xc2;" horiz-adv-x="556" 
d="M276 536h-2l-62 -234h127zM207 765h-92l107 144h111l108 -144h-93l-70 89zM222 724h109l225 -724h-127l-60 192h-182l-59 -192h-128z" />
    <glyph glyph-name="Adieresis" unicode="&#xc4;" horiz-adv-x="556" 
d="M135 779v106h112v-106h-112zM421 885v-106h-112v106h112zM276 536h-2l-62 -234h127zM222 724h109l225 -724h-127l-60 192h-182l-59 -192h-128z" />
    <glyph glyph-name="Agrave" unicode="&#xc0;" horiz-adv-x="556" 
d="M276 536h-2l-62 -234h127zM263 909l90 -144h-82l-142 144h134zM222 724h109l225 -724h-127l-60 192h-182l-59 -192h-128z" />
    <glyph glyph-name="Aring" unicode="&#xc5;" horiz-adv-x="556" 
d="M278 927q-24 0 -41.5 -17t-17.5 -42t17.5 -42t41.5 -17t41.5 17t17.5 42t-17.5 42t-41.5 17zM276 536h-2l-62 -234h127zM278 971q21 0 39.5 -8t33 -22t22.5 -33t8 -40t-8 -40t-22.5 -33t-33 -22t-39.5 -8t-39.5 8t-33 22t-22.5 33t-8 40t8 40t22.5 33t33 22t39.5 8z
M222 724h109l225 -724h-127l-60 192h-182l-59 -192h-128z" />
    <glyph glyph-name="Atilde" unicode="&#xc3;" horiz-adv-x="556" 
d="M276 536h-2l-62 -234h127zM455 895q-4 -23 -12 -44t-21.5 -37t-33 -25.5t-45.5 -9.5q-17 0 -35.5 5.5t-37.5 12.5t-37 12.5t-34 5.5q-19 0 -28.5 -13t-11.5 -29h-58q1 19 9 40t21.5 37.5t32 27.5t41.5 11t42 -6t37 -13q17 -7 33.5 -13t33.5 -6q21 0 31 13t15 31h58z
M222 724h109l225 -724h-127l-60 192h-182l-59 -192h-128z" />
    <glyph glyph-name="Ccedilla" unicode="&#xc7;" horiz-adv-x="611" 
d="M217 -161q14 -6 32 -11t33 -5q10 0 21 1.5t20 6t14.5 12.5t5.5 21q0 20 -15 27.5t-33 7.5q-22 0 -37 -6l-22 18l57 77q-59 2 -106.5 24t-80.5 67t-51 114.5t-18 168.5q0 91 21 160.5t58 117t85.5 72t104.5 24.5q65 0 113 -24t79 -64t45.5 -92.5t14.5 -109.5h-124
q-5 95 -34.5 137.5t-89.5 42.5q-29 0 -56 -14.5t-47.5 -46t-33 -81.5t-12.5 -122q0 -73 11 -123t29.5 -81.5t44.5 -45.5t56 -14q28 0 50 8t38 27.5t26.5 52.5t17.5 83h124q-3 -56 -17 -104t-40.5 -85t-66 -60.5t-91.5 -29.5l-37 -51q7 2 13.5 3t13.5 1q17 0 33 -5t29 -14.5
t20.5 -23.5t7.5 -33q0 -26 -11.5 -44t-29.5 -29t-41 -16t-45 -5q-9 0 -22.5 2t-27 6t-26 8.5t-20.5 9.5z" />
    <glyph glyph-name="Eacute" unicode="&#xc9;" 
d="M257 765h-82l90 144h134zM66 0v724h372v-110h-248v-182h252v-110h-252v-212h254v-110h-378z" />
    <glyph glyph-name="Ecircumflex" unicode="&#xca;" 
d="M179 765h-92l107 144h111l108 -144h-93l-70 89zM66 0v724h372v-110h-248v-182h252v-110h-252v-212h254v-110h-378z" />
    <glyph glyph-name="Edieresis" unicode="&#xcb;" 
d="M393 885v-106h-112v106h112zM107 779v106h112v-106h-112zM66 0v724h372v-110h-248v-182h252v-110h-252v-212h254v-110h-378z" />
    <glyph glyph-name="Egrave" unicode="&#xc8;" 
d="M235 909l90 -144h-82l-142 144h134zM66 0v724h372v-110h-248v-182h252v-110h-252v-212h254v-110h-378z" />
    <glyph glyph-name="Iacute" unicode="&#xcd;" horiz-adv-x="278" 
d="M146 765h-82l90 144h134zM77 0v724h124v-724h-124z" />
    <glyph glyph-name="Icircumflex" unicode="&#xce;" horiz-adv-x="278" 
d="M68 765h-92l107 144h111l108 -144h-93l-70 89zM77 0v724h124v-724h-124z" />
    <glyph glyph-name="Idieresis" unicode="&#xcf;" horiz-adv-x="278" 
d="M282 885v-106h-112v106h112zM-4 779v106h112v-106h-112zM77 0v724h124v-724h-124z" />
    <glyph glyph-name="Igrave" unicode="&#xcc;" horiz-adv-x="278" 
d="M124 909l90 -144h-82l-142 144h134zM77 0v724h124v-724h-124z" />
    <glyph glyph-name="Ntilde" unicode="&#xd1;" horiz-adv-x="611" 
d="M483 895q-4 -23 -12 -44t-21.5 -37t-33 -25.5t-45.5 -9.5q-17 0 -35.5 5.5t-37.5 12.5t-37 12.5t-34 5.5q-19 0 -28.5 -13t-11.5 -29h-58q1 19 9 40t21.5 37.5t32 27.5t41.5 11t42 -6t37 -13q17 -7 33.5 -13t33.5 -6q21 0 31 13t15 31h58zM69 0v724h132l229 -469h2v469
h110v-724h-108l-253 508h-2v-508h-110z" />
    <glyph glyph-name="Oacute" unicode="&#xd3;" horiz-adv-x="611" 
d="M313 765h-82l90 144h134zM449 362q0 70 -11.5 120t-31.5 82t-46 47t-55 15t-55 -15t-46 -47t-31.5 -82t-11.5 -120t11.5 -120t31.5 -82t46 -47t55 -15t55 15t46 47t31.5 82t11.5 120zM305 736q59 0 108.5 -26t85 -74t55 -117.5t19.5 -156.5t-19.5 -156.5t-55 -117.5
t-85 -74t-108.5 -26t-108.5 26t-85 74t-55 117.5t-19.5 156.5t19.5 156.5t55 117.5t85 74t108.5 26z" />
    <glyph glyph-name="Ocircumflex" unicode="&#xd4;" horiz-adv-x="611" 
d="M235 765h-92l107 144h111l108 -144h-93l-70 89zM449 362q0 70 -11.5 120t-31.5 82t-46 47t-55 15t-55 -15t-46 -47t-31.5 -82t-11.5 -120t11.5 -120t31.5 -82t46 -47t55 -15t55 15t46 47t31.5 82t11.5 120zM305 736q59 0 108.5 -26t85 -74t55 -117.5t19.5 -156.5
t-19.5 -156.5t-55 -117.5t-85 -74t-108.5 -26t-108.5 26t-85 74t-55 117.5t-19.5 156.5t19.5 156.5t55 117.5t85 74t108.5 26z" />
    <glyph glyph-name="Odieresis" unicode="&#xd6;" horiz-adv-x="611" 
d="M163 779v106h112v-106h-112zM449 885v-106h-112v106h112zM449 362q0 70 -11.5 120t-31.5 82t-46 47t-55 15t-55 -15t-46 -47t-31.5 -82t-11.5 -120t11.5 -120t31.5 -82t46 -47t55 -15t55 15t46 47t31.5 82t11.5 120zM305 736q59 0 108.5 -26t85 -74t55 -117.5
t19.5 -156.5t-19.5 -156.5t-55 -117.5t-85 -74t-108.5 -26t-108.5 26t-85 74t-55 117.5t-19.5 156.5t19.5 156.5t55 117.5t85 74t108.5 26z" />
    <glyph glyph-name="Ograve" unicode="&#xd2;" horiz-adv-x="611" 
d="M291 909l90 -144h-82l-142 144h134zM449 362q0 70 -11.5 120t-31.5 82t-46 47t-55 15t-55 -15t-46 -47t-31.5 -82t-11.5 -120t11.5 -120t31.5 -82t46 -47t55 -15t55 15t46 47t31.5 82t11.5 120zM305 736q59 0 108.5 -26t85 -74t55 -117.5t19.5 -156.5t-19.5 -156.5
t-55 -117.5t-85 -74t-108.5 -26t-108.5 26t-85 74t-55 117.5t-19.5 156.5t19.5 156.5t55 117.5t85 74t108.5 26z" />
    <glyph glyph-name="Otilde" unicode="&#xd5;" horiz-adv-x="611" 
d="M483 895q-4 -23 -12 -44t-21.5 -37t-33 -25.5t-45.5 -9.5q-17 0 -35.5 5.5t-37.5 12.5t-37 12.5t-34 5.5q-19 0 -28.5 -13t-11.5 -29h-58q1 19 9 40t21.5 37.5t32 27.5t41.5 11t42 -6t37 -13q17 -7 33.5 -13t33.5 -6q21 0 31 13t15 31h58zM449 362q0 70 -11.5 120
t-31.5 82t-46 47t-55 15t-55 -15t-46 -47t-31.5 -82t-11.5 -120t11.5 -120t31.5 -82t46 -47t55 -15t55 15t46 47t31.5 82t11.5 120zM305 736q59 0 108.5 -26t85 -74t55 -117.5t19.5 -156.5t-19.5 -156.5t-55 -117.5t-85 -74t-108.5 -26t-108.5 26t-85 74t-55 117.5
t-19.5 156.5t19.5 156.5t55 117.5t85 74t108.5 26z" />
    <glyph glyph-name="Uacute" unicode="&#xda;" horiz-adv-x="611" 
d="M313 765h-82l90 144h134zM188 724v-498q0 -63 26 -92.5t91 -29.5t91 29.5t26 92.5v498h124v-530q0 -41 -14.5 -78t-44 -65.5t-75 -45.5t-107.5 -17t-107.5 17t-75 45.5t-44 65.5t-14.5 78v530h124z" />
    <glyph glyph-name="Ucircumflex" unicode="&#xdb;" horiz-adv-x="611" 
d="M235 765h-92l107 144h111l108 -144h-93l-70 89zM188 724v-498q0 -63 26 -92.5t91 -29.5t91 29.5t26 92.5v498h124v-530q0 -41 -14.5 -78t-44 -65.5t-75 -45.5t-107.5 -17t-107.5 17t-75 45.5t-44 65.5t-14.5 78v530h124z" />
    <glyph glyph-name="Udieresis" unicode="&#xdc;" horiz-adv-x="611" 
d="M449 885v-106h-112v106h112zM163 779v106h112v-106h-112zM188 724v-498q0 -63 26 -92.5t91 -29.5t91 29.5t26 92.5v498h124v-530q0 -41 -14.5 -78t-44 -65.5t-75 -45.5t-107.5 -17t-107.5 17t-75 45.5t-44 65.5t-14.5 78v530h124z" />
    <glyph glyph-name="Ugrave" unicode="&#xd9;" horiz-adv-x="611" 
d="M291 909l90 -144h-82l-142 144h134zM188 724v-498q0 -63 26 -92.5t91 -29.5t91 29.5t26 92.5v498h124v-530q0 -41 -14.5 -78t-44 -65.5t-75 -45.5t-107.5 -17t-107.5 17t-75 45.5t-44 65.5t-14.5 78v530h124z" />
    <glyph glyph-name="Ydieresis" unicode="&#x178;" 
d="M399 885v-106h-112v106h112zM113 779v106h112v-106h-112zM187 292l-187 432h132l118 -302l118 302h132l-189 -432v-292h-124v292z" />
    <glyph glyph-name="aacute" unicode="&#xe1;" 
d="M249 632h-82l90 144h134zM316 349q0 59 -17 91t-55 32q-44 0 -67 -42.5t-23 -143.5t23 -143.5t67 -42.5q38 0 55 32t17 91v126zM330 0v70h-2q-14 -32 -38.5 -56t-70.5 -24q-36 0 -70.5 15.5t-60.5 50t-42 89.5t-16 133q0 84 16 142t42 94t60.5 52t70.5 16q34 0 60.5 -16
t48.5 -58h2v64h102v-572h-102z" />
    <glyph glyph-name="acircumflex" unicode="&#xe2;" 
d="M171 632h-92l107 144h111l108 -144h-93l-70 89zM316 349q0 59 -17 91t-55 32q-44 0 -67 -42.5t-23 -143.5t23 -143.5t67 -42.5q38 0 55 32t17 91v126zM330 0v70h-2q-14 -32 -38.5 -56t-70.5 -24q-36 0 -70.5 15.5t-60.5 50t-42 89.5t-16 133q0 84 16 142t42 94t60.5 52
t70.5 16q34 0 60.5 -16t48.5 -58h2v64h102v-572h-102z" />
    <glyph glyph-name="adieresis" unicode="&#xe4;" 
d="M99 646v106h112v-106h-112zM385 752v-106h-112v106h112zM316 349q0 59 -17 91t-55 32q-44 0 -67 -42.5t-23 -143.5t23 -143.5t67 -42.5q38 0 55 32t17 91v126zM330 0v70h-2q-14 -32 -38.5 -56t-70.5 -24q-36 0 -70.5 15.5t-60.5 50t-42 89.5t-16 133q0 84 16 142t42 94
t60.5 52t70.5 16q34 0 60.5 -16t48.5 -58h2v64h102v-572h-102z" />
    <glyph glyph-name="agrave" unicode="&#xe0;" 
d="M227 776l90 -144h-82l-142 144h134zM316 349q0 59 -17 91t-55 32q-44 0 -67 -42.5t-23 -143.5t23 -143.5t67 -42.5q38 0 55 32t17 91v126zM330 0v70h-2q-14 -32 -38.5 -56t-70.5 -24q-36 0 -70.5 15.5t-60.5 50t-42 89.5t-16 133q0 84 16 142t42 94t60.5 52t70.5 16
q34 0 60.5 -16t48.5 -58h2v64h102v-572h-102z" />
    <glyph glyph-name="aring" unicode="&#xe5;" 
d="M242 794q-24 0 -41.5 -17t-17.5 -42t17.5 -42t41.5 -17t41.5 17t17.5 42t-17.5 42t-41.5 17zM242 838q21 0 39.5 -8t33 -22t22.5 -33t8 -40t-8 -40t-22.5 -33t-33 -22t-39.5 -8t-39.5 8t-33 22t-22.5 33t-8 40t8 40t22.5 33t33 22t39.5 8zM316 349q0 59 -17 91t-55 32
q-44 0 -67 -42.5t-23 -143.5t23 -143.5t67 -42.5q38 0 55 32t17 91v126zM330 0v70h-2q-14 -32 -38.5 -56t-70.5 -24q-36 0 -70.5 15.5t-60.5 50t-42 89.5t-16 133q0 84 16 142t42 94t60.5 52t70.5 16q34 0 60.5 -16t48.5 -58h2v64h102v-572h-102z" />
    <glyph glyph-name="atilde" unicode="&#xe3;" 
d="M419 762q-4 -23 -12 -44t-21.5 -37t-33 -25.5t-45.5 -9.5q-17 0 -35.5 5.5t-37.5 12.5t-37 12.5t-34 5.5q-19 0 -28.5 -13t-11.5 -29h-58q1 19 9 40t21.5 37.5t32 27.5t41.5 11t42 -6t37 -13q17 -7 33.5 -13t33.5 -6q21 0 31 13t15 31h58zM316 349q0 59 -17 91t-55 32
q-44 0 -67 -42.5t-23 -143.5t23 -143.5t67 -42.5q38 0 55 32t17 91v126zM330 0v70h-2q-14 -32 -38.5 -56t-70.5 -24q-36 0 -70.5 15.5t-60.5 50t-42 89.5t-16 133q0 84 16 142t42 94t60.5 52t70.5 16q34 0 60.5 -16t48.5 -58h2v64h102v-572h-102z" />
    <glyph glyph-name="ccedilla" unicode="&#xe7;" horiz-adv-x="444" 
d="M127 -161q14 -6 32 -11t33 -5q10 0 21 1.5t20 6t14.5 12.5t5.5 21q0 20 -15 27.5t-33 7.5q-22 0 -37 -6l-22 18l60 81q-45 5 -78 31t-54.5 66t-32.5 91t-11 106q0 67 12 122t37 93.5t62 59.5t88 21q46 0 81.5 -17.5t60 -46.5t37 -68t12.5 -82h-110q-3 32 -9.5 53t-16 33
t-22.5 17t-29 5q-19 0 -34 -8.5t-25 -29.5t-15 -57t-5 -91q0 -57 5.5 -94.5t15.5 -59.5t25 -31t33 -9q34 0 54 27t23 84h110q0 -41 -11 -78t-32.5 -66t-52.5 -48t-71 -23l-37 -53q7 2 13.5 3t13.5 1q17 0 33 -5t29 -14.5t20.5 -23.5t7.5 -33q0 -26 -11.5 -44t-29.5 -29
t-41 -16t-45 -5q-9 0 -22.5 2t-27 6t-26 8.5t-20.5 9.5z" />
    <glyph glyph-name="eacute" unicode="&#xe9;" 
d="M257 632h-82l90 144h134zM340 346q-3 73 -26.5 101.5t-69.5 28.5q-77 0 -89 -130h185zM453 194q-6 -44 -22 -81.5t-42 -64.5t-61 -42.5t-78 -15.5q-57 0 -98.5 25t-68.5 66t-40 94.5t-13 110.5t13 110.5t40 94.5t68.5 66t98.5 25q50 0 88.5 -19.5t64.5 -54.5t39.5 -84
t13.5 -108v-68h-302q2 -33 7.5 -61t16.5 -48t28.5 -31.5t42.5 -11.5q21 0 36 8t24.5 21.5t15.5 31.5t11 37h117z" />
    <glyph glyph-name="ecircumflex" unicode="&#xea;" 
d="M340 346q-3 73 -26.5 101.5t-69.5 28.5q-77 0 -89 -130h185zM179 632h-92l107 144h111l108 -144h-93l-70 89zM453 194q-6 -44 -22 -81.5t-42 -64.5t-61 -42.5t-78 -15.5q-57 0 -98.5 25t-68.5 66t-40 94.5t-13 110.5t13 110.5t40 94.5t68.5 66t98.5 25q50 0 88.5 -19.5
t64.5 -54.5t39.5 -84t13.5 -108v-68h-302q2 -33 7.5 -61t16.5 -48t28.5 -31.5t42.5 -11.5q21 0 36 8t24.5 21.5t15.5 31.5t11 37h117z" />
    <glyph glyph-name="edieresis" unicode="&#xeb;" 
d="M107 646v106h112v-106h-112zM393 752v-106h-112v106h112zM340 346q-3 73 -26.5 101.5t-69.5 28.5q-77 0 -89 -130h185zM453 194q-6 -44 -22 -81.5t-42 -64.5t-61 -42.5t-78 -15.5q-57 0 -98.5 25t-68.5 66t-40 94.5t-13 110.5t13 110.5t40 94.5t68.5 66t98.5 25
q50 0 88.5 -19.5t64.5 -54.5t39.5 -84t13.5 -108v-68h-302q2 -33 7.5 -61t16.5 -48t28.5 -31.5t42.5 -11.5q21 0 36 8t24.5 21.5t15.5 31.5t11 37h117z" />
    <glyph glyph-name="egrave" unicode="&#xe8;" 
d="M235 776l90 -144h-82l-142 144h134zM340 346q-3 73 -26.5 101.5t-69.5 28.5q-77 0 -89 -130h185zM453 194q-6 -44 -22 -81.5t-42 -64.5t-61 -42.5t-78 -15.5q-57 0 -98.5 25t-68.5 66t-40 94.5t-13 110.5t13 110.5t40 94.5t68.5 66t98.5 25q50 0 88.5 -19.5t64.5 -54.5
t39.5 -84t13.5 -108v-68h-302q2 -33 7.5 -61t16.5 -48t28.5 -31.5t42.5 -11.5q21 0 36 8t24.5 21.5t15.5 31.5t11 37h117z" />
    <glyph glyph-name="iacute" unicode="&#xed;" horiz-adv-x="222" 
d="M118 632h-82l90 144h134zM53 0v572h116v-572h-116z" />
    <glyph glyph-name="icircumflex" unicode="&#xee;" horiz-adv-x="222" 
d="M40 632h-92l107 144h111l108 -144h-93l-70 89zM53 0v572h116v-572h-116z" />
    <glyph glyph-name="idieresis" unicode="&#xef;" horiz-adv-x="222" 
d="M254 752v-106h-112v106h112zM-32 646v106h112v-106h-112zM53 0v572h116v-572h-116z" />
    <glyph glyph-name="igrave" unicode="&#xec;" horiz-adv-x="222" 
d="M96 776l90 -144h-82l-142 144h134zM53 0v572h116v-572h-116z" />
    <glyph glyph-name="ntilde" unicode="&#xf1;" 
d="M427 762q-4 -23 -12 -44t-21.5 -37t-33 -25.5t-45.5 -9.5q-17 0 -35.5 5.5t-37.5 12.5t-37 12.5t-34 5.5q-19 0 -28.5 -13t-11.5 -29h-58q1 19 9 40t21.5 37.5t32 27.5t41.5 11t42 -6t37 -13q17 -7 33.5 -13t33.5 -6q21 0 31 13t15 31h58zM60 0v572h106v-60h2
q16 36 46.5 53t67.5 17q34 0 63 -11t50 -32t33 -51t12 -67v-421h-116v398q0 40 -17 59t-48 19q-37 0 -60 -24.5t-23 -70.5v-381h-116z" />
    <glyph glyph-name="oacute" unicode="&#xf3;" 
d="M257 632h-82l90 144h134zM346 286q0 53 -6.5 89.5t-18.5 59t-30 32t-41 9.5t-41 -9.5t-30 -32t-18.5 -59t-6.5 -89.5t6.5 -89.5t18.5 -59t30 -32t41 -9.5t41 9.5t30 32t18.5 59t6.5 89.5zM470 286q0 -57 -13 -110.5t-40 -94.5t-68.5 -66t-98.5 -25t-98.5 25t-68.5 66
t-40 94.5t-13 110.5t13 110.5t40 94.5t68.5 66t98.5 25t98.5 -25t68.5 -66t40 -94.5t13 -110.5z" />
    <glyph glyph-name="ocircumflex" unicode="&#xf4;" 
d="M179 632h-92l107 144h111l108 -144h-93l-70 89zM346 286q0 53 -6.5 89.5t-18.5 59t-30 32t-41 9.5t-41 -9.5t-30 -32t-18.5 -59t-6.5 -89.5t6.5 -89.5t18.5 -59t30 -32t41 -9.5t41 9.5t30 32t18.5 59t6.5 89.5zM470 286q0 -57 -13 -110.5t-40 -94.5t-68.5 -66t-98.5 -25
t-98.5 25t-68.5 66t-40 94.5t-13 110.5t13 110.5t40 94.5t68.5 66t98.5 25t98.5 -25t68.5 -66t40 -94.5t13 -110.5z" />
    <glyph glyph-name="odieresis" unicode="&#xf6;" 
d="M107 646v106h112v-106h-112zM393 752v-106h-112v106h112zM346 286q0 53 -6.5 89.5t-18.5 59t-30 32t-41 9.5t-41 -9.5t-30 -32t-18.5 -59t-6.5 -89.5t6.5 -89.5t18.5 -59t30 -32t41 -9.5t41 9.5t30 32t18.5 59t6.5 89.5zM470 286q0 -57 -13 -110.5t-40 -94.5t-68.5 -66
t-98.5 -25t-98.5 25t-68.5 66t-40 94.5t-13 110.5t13 110.5t40 94.5t68.5 66t98.5 25t98.5 -25t68.5 -66t40 -94.5t13 -110.5z" />
    <glyph glyph-name="ograve" unicode="&#xf2;" 
d="M235 776l90 -144h-82l-142 144h134zM346 286q0 53 -6.5 89.5t-18.5 59t-30 32t-41 9.5t-41 -9.5t-30 -32t-18.5 -59t-6.5 -89.5t6.5 -89.5t18.5 -59t30 -32t41 -9.5t41 9.5t30 32t18.5 59t6.5 89.5zM470 286q0 -57 -13 -110.5t-40 -94.5t-68.5 -66t-98.5 -25t-98.5 25
t-68.5 66t-40 94.5t-13 110.5t13 110.5t40 94.5t68.5 66t98.5 25t98.5 -25t68.5 -66t40 -94.5t13 -110.5z" />
    <glyph glyph-name="otilde" unicode="&#xf5;" 
d="M427 762q-4 -23 -12 -44t-21.5 -37t-33 -25.5t-45.5 -9.5q-17 0 -35.5 5.5t-37.5 12.5t-37 12.5t-34 5.5q-19 0 -28.5 -13t-11.5 -29h-58q1 19 9 40t21.5 37.5t32 27.5t41.5 11t42 -6t37 -13q17 -7 33.5 -13t33.5 -6q21 0 31 13t15 31h58zM346 286q0 53 -6.5 89.5
t-18.5 59t-30 32t-41 9.5t-41 -9.5t-30 -32t-18.5 -59t-6.5 -89.5t6.5 -89.5t18.5 -59t30 -32t41 -9.5t41 9.5t30 32t18.5 59t6.5 89.5zM470 286q0 -57 -13 -110.5t-40 -94.5t-68.5 -66t-98.5 -25t-98.5 25t-68.5 66t-40 94.5t-13 110.5t13 110.5t40 94.5t68.5 66t98.5 25
t98.5 -25t68.5 -66t40 -94.5t13 -110.5z" />
    <glyph glyph-name="uacute" unicode="&#xfa;" 
d="M257 632h-82l90 144h134zM440 572v-572h-106v68h-2q-16 -42 -46.5 -60t-67.5 -18q-35 0 -64 11t-50 32t-32.5 51t-11.5 67v421h116v-398q0 -40 17 -59t48 -19q37 0 60 24.5t23 70.5v381h116z" />
    <glyph glyph-name="ucircumflex" unicode="&#xfb;" 
d="M179 632h-92l107 144h111l108 -144h-93l-70 89zM440 572v-572h-106v68h-2q-16 -42 -46.5 -60t-67.5 -18q-35 0 -64 11t-50 32t-32.5 51t-11.5 67v421h116v-398q0 -40 17 -59t48 -19q37 0 60 24.5t23 70.5v381h116z" />
    <glyph glyph-name="udieresis" unicode="&#xfc;" 
d="M393 752v-106h-112v106h112zM107 646v106h112v-106h-112zM440 572v-572h-106v68h-2q-16 -42 -46.5 -60t-67.5 -18q-35 0 -64 11t-50 32t-32.5 51t-11.5 67v421h116v-398q0 -40 17 -59t48 -19q37 0 60 24.5t23 70.5v381h116z" />
    <glyph glyph-name="ugrave" unicode="&#xf9;" 
d="M235 776l90 -144h-82l-142 144h134zM440 572v-572h-106v68h-2q-16 -42 -46.5 -60t-67.5 -18q-35 0 -64 11t-50 32t-32.5 51t-11.5 67v421h116v-398q0 -40 17 -59t48 -19q37 0 60 24.5t23 70.5v381h116z" />
    <glyph glyph-name="ydieresis" unicode="&#xff;" horiz-adv-x="444" 
d="M365 752v-106h-112v106h112zM79 646v106h112v-106h-112zM159 27l-153 545h123l89 -380h2l95 380h123l-225 -770h-128z" />
    <glyph glyph-name="space" unicode=" " horiz-adv-x="278" 
 />
    <glyph glyph-name="space" unicode="&#xa0;" horiz-adv-x="278" 
 />
    <glyph glyph-name="Lslash" unicode="&#x141;" horiz-adv-x="444" 
d="M190 110h230v-110h-354v284l-76 -30v100l76 30v340h124v-290l162 64v-100l-162 -64v-224z" />
    <glyph glyph-name="lslash" unicode="&#x142;" horiz-adv-x="222" 
d="M169 0h-116v310l-56 -30v92l56 30v322h116v-261l56 29v-92l-56 -29v-371z" />
    <glyph glyph-name="onesuperior" unicode="&#xb9;" horiz-adv-x="333" 
d="M65 644v84h162v-434h-96v350h-66z" />
    <glyph glyph-name="Eth" unicode="&#xd0;" horiz-adv-x="611" 
d="M350 434v-110h-160v-214h93q37 0 67.5 15t52.5 46t34 78.5t12 112.5q0 67 -12.5 115t-34.5 78.5t-52.5 44.5t-66.5 14h-93v-180h160zM66 434v290h243q65 0 114.5 -28t82.5 -77t50 -115t17 -142q0 -86 -21.5 -153.5t-60.5 -114t-94 -70.5t-122 -24h-209v324h-64v110h64z
" />
    <glyph glyph-name="onehalf" unicode="&#xbd;" horiz-adv-x="834" 
d="M85 644v84h162v-434h-96v350h-66zM262 -12h-92l369 748h92zM499 0v82l165 147q15 14 25.5 34.5t10.5 40.5q0 21 -11.5 37.5t-34.5 16.5q-57 0 -63 -58h-88q1 66 40 104t111 38q68 0 105 -38t37 -97q0 -47 -15.5 -77.5t-45.5 -56.5l-103 -89h162v-84h-295z" />
    <glyph glyph-name="Thorn" unicode="&#xde;" horiz-adv-x="556" 
d="M196 256h90q30 0 51 9.5t34.5 25.5t19.5 37.5t6 45.5q0 49 -25.5 82.5t-85.5 33.5h-90v-234zM262 600q67 0 116 -17.5t81 -48t47 -72.5t15 -91q0 -50 -15 -91.5t-44 -71t-70.5 -46t-93.5 -16.5h-102v-146h-124v724h124v-124h66z" />
    <glyph glyph-name="onequarter" unicode="&#xbc;" horiz-adv-x="834" 
d="M571 172h78v118h-2zM85 644v84h162v-434h-96v350h-66zM286 -12h-92l369 748h92zM482 183l166 251h97v-262h51v-84h-51v-88h-96v88h-167v95z" />
    <glyph glyph-name="brokenbar" unicode="&#xa6;" horiz-adv-x="222" 
d="M56 736h110v-284h-110v284zM56 272h110v-284h-110v284z" />
    <glyph glyph-name="thorn" unicode="&#xfe;" 
d="M176 223q0 -59 21 -91t59 -32q44 0 67 42.5t23 143.5t-23 143.5t-67 42.5q-38 0 -59 -32t-21 -91v-126zM176 724v-207h2q11 29 36 47t67 18q36 0 70.5 -16t60.5 -50.5t42 -89t16 -132.5q0 -84 -16 -142t-42 -94t-60.5 -52t-70.5 -16q-34 0 -60 15t-43 49h-2v-240h-116
v910h116z" />
    <glyph glyph-name="threequarters" unicode="&#xbe;" horiz-adv-x="834" 
d="M571 172h78v118h-2zM302 -12h-92l369 748h92zM116 436q3 -29 18 -47.5t51 -18.5q26 0 41.5 15.5t14.5 36.5q-1 36 -22 47.5t-51 11.5h-23v84h23q26 0 41.5 12t15.5 35q0 14 -13.5 27t-37.5 13q-23 0 -36.5 -13t-17.5 -33h-88q1 60 42.5 95t107.5 35q26 0 51 -7
t44.5 -21.5t31.5 -35t12 -47.5q0 -33 -10.5 -57.5t-37.5 -37.5v-1q31 -10 47.5 -40t16.5 -66q0 -33 -12 -58.5t-33.5 -43t-50.5 -26.5t-63 -9q-69 0 -109 41t-41 109h88zM482 183l166 251h97v-262h51v-84h-51v-88h-96v88h-167v95z" />
    <glyph glyph-name="twosuperior" unicode="&#xb2;" horiz-adv-x="333" 
d="M18 294v82l165 147q15 14 25.5 34.5t10.5 40.5q0 21 -11.5 37.5t-34.5 16.5q-57 0 -63 -58h-88q1 66 40 104t111 38q68 0 105 -38t37 -97q0 -47 -15.5 -77.5t-45.5 -56.5l-103 -89h162v-84h-295z" />
    <glyph glyph-name="minus" unicode="&#x2212;" horiz-adv-x="600" 
d="M47 198v110h506v-110h-506z" />
    <glyph glyph-name="eth" unicode="&#xf0;" 
d="M154 233q0 -65 24.5 -101t71.5 -36t71.5 36t24.5 101q0 61 -24.5 98.5t-71.5 37.5t-71.5 -37.5t-24.5 -98.5zM172 736q54 -24 102 -63l86 61l46 -60l-75 -53q66 -72 102.5 -167.5t36.5 -207.5q0 -49 -14 -95t-42 -82t-69 -57.5t-95 -21.5t-95 21.5t-69 56t-42 78
t-14 87.5q0 43 14 86.5t42 78t69 56t95 21.5q14 0 25.5 -1t32.5 -8q-25 52 -62 95l-82 -59l-46 60l74 53q-17 14 -34.5 27t-37.5 24z" />
    <glyph glyph-name="multiply" unicode="&#xd7;" horiz-adv-x="600" 
d="M475 506l78 -78l-175 -175l175 -175l-78 -78l-175 175l-175 -175l-78 78l175 175l-175 175l78 78l175 -175z" />
    <glyph glyph-name="threesuperior" unicode="&#xb3;" horiz-adv-x="333" 
d="M96 436q3 -29 18 -47.5t51 -18.5q26 0 41.5 15.5t14.5 36.5q-1 36 -22 47.5t-51 11.5h-23v84h23q26 0 41.5 12t15.5 35q0 14 -13.5 27t-37.5 13q-23 0 -36.5 -13t-17.5 -33h-88q1 60 42.5 95t107.5 35q26 0 51 -7t44.5 -21.5t31.5 -35t12 -47.5q0 -33 -10.5 -57.5
t-37.5 -37.5v-1q31 -10 47.5 -40t16.5 -66q0 -33 -12 -58.5t-33.5 -43t-50.5 -26.5t-63 -9q-69 0 -109 41t-41 109h88z" />
    <glyph glyph-name="Scaron" unicode="&#x160;" 
d="M256 820l70 89h93l-108 -144h-111l-107 144h92zM143 225q3 -25 9 -48t18 -40.5t31 -28t48 -10.5q44 0 72 28.5t28 73.5q0 42 -23 64.5t-57 37t-74 27.5t-74 36.5t-57 64t-23 110.5q0 45 16 81t43.5 61.5t65 39.5t81.5 14q50 0 87 -16t62.5 -44.5t39.5 -68t17 -85.5h-115
q-3 21 -9.5 39.5t-18.5 33t-29 23t-39 8.5q-42 0 -63.5 -26.5t-21.5 -66.5q0 -38 23 -57.5t57 -32.5t74 -25.5t74 -36t57 -64t23 -109.5q0 -50 -15.5 -90.5t-44 -69.5t-69 -44.5t-90.5 -15.5q-53 0 -93.5 18t-68.5 50t-42.5 75t-14.5 94h116z" />
    <glyph glyph-name="Yacute" unicode="&#xdd;" 
d="M263 765h-82l90 144h134zM187 292l-187 432h132l118 -302l118 302h132l-189 -432v-292h-124v292z" />
    <glyph glyph-name="Zcaron" unicode="&#x17d;" horiz-adv-x="444" 
d="M228 820l70 89h93l-108 -144h-111l-107 144h92zM21 0v112l253 496h-230v116h368v-114l-248 -494h255v-116h-398z" />
    <glyph glyph-name="scaron" unicode="&#x161;" horiz-adv-x="444" 
d="M222 687l70 89h93l-108 -144h-111l-107 144h92zM144 172q1 -34 19.5 -55t55.5 -21q34 0 57 14.5t23 51.5q0 29 -19.5 43.5t-48.5 23.5t-63.5 17.5t-63.5 27.5t-48.5 52.5t-19.5 91.5q0 38 13.5 68.5t37.5 51.5t56 32.5t68 11.5q39 0 72.5 -12t58.5 -34t40 -53.5t17 -71.5
h-114q-7 35 -24.5 50t-54.5 15q-26 0 -40 -15t-14 -41q0 -28 19.5 -41t48.5 -22t63.5 -18t63.5 -28t48.5 -52t19.5 -90q0 -44 -15.5 -77.5t-42 -56t-62 -34t-76.5 -11.5t-75 13t-59.5 37t-40.5 57.5t-16 74.5h116z" />
    <glyph glyph-name="yacute" unicode="&#xfd;" horiz-adv-x="444" 
d="M229 632h-82l90 144h134zM159 27l-153 545h123l89 -380h2l95 380h123l-225 -770h-128z" />
    <glyph glyph-name="zcaron" unicode="&#x17e;" horiz-adv-x="444" 
d="M222 687l70 89h93l-108 -144h-111l-107 144h92zM44 466v106h368v-108l-257 -358h259v-106h-392v108l259 358h-237z" />
    <glyph glyph-name="Euro" horiz-adv-x="556" 
d="M85 488q5 37 19 78.5t37 73.5q21 29 44.5 47.5t49 29.5t52 15t51.5 4q19 0 42.5 -2.5t48.5 -10.5t51 -23t50 -40l-51 -106q-25 32 -59.5 49t-73.5 17q-44 0 -69 -16.5t-38 -36.5q-9 -14 -17 -36t-12 -43h241l-32 -80h-218q-1 -11 -1 -23v-23v-14t1 -14h188l-32 -80h-150
q2 -23 8 -47t17 -44q10 -18 22 -29.5t23.5 -18t22.5 -9t20 -2.5q34 0 62 24t32 70h126q-6 -44 -24.5 -82.5t-47 -67t-67.5 -44.5t-85 -16q-32 0 -58 7.5t-47 19.5t-37 27t-28 30q-29 38 -45 87t-18 95h-73l32 80h35q-1 7 -1 14v14v23t1 23h-67l32 80h43z" />
    <glyph glyph-name="Euro" unicode="&#x20ac;" horiz-adv-x="556" 
d="M85 488q5 37 19 78.5t37 73.5q21 29 44.5 47.5t49 29.5t52 15t51.5 4q19 0 42.5 -2.5t48.5 -10.5t51 -23t50 -40l-51 -106q-25 32 -59.5 49t-73.5 17q-44 0 -69 -16.5t-38 -36.5q-9 -14 -17 -36t-12 -43h241l-32 -80h-218q-1 -11 -1 -23v-23v-14t1 -14h188l-32 -80h-150
q2 -23 8 -47t17 -44q10 -18 22 -29.5t23.5 -18t22.5 -9t20 -2.5q34 0 62 24t32 70h126q-6 -44 -24.5 -82.5t-47 -67t-67.5 -44.5t-85 -16q-32 0 -58 7.5t-47 19.5t-37 27t-28 30q-29 38 -45 87t-18 95h-73l32 80h35q-1 7 -1 14v14v23t1 23h-67l32 80h43z" />
    <glyph glyph-name="nonbreakingspace" horiz-adv-x="278" 
 />
    <glyph glyph-name="hyphenminus" horiz-adv-x="333" 
d="M44 236v100h245v-100h-245z" />
    </font>
</defs>
</svg>
