<?xml version="1.0" encoding="utf-8"?>
<!-- Generator: Adobe Illustrator 19.0.0, SVG Export Plug-In . SVG Version: 6.00 Build 0)  -->
<svg version="1.1" id="Layer_1" xmlns="http://www.w3.org/2000/svg" xmlns:xlink="http://www.w3.org/1999/xlink" x="0px" y="0px"
	 viewBox="0 0 1732.1 532.3" style="enable-background:new 0 0 1732.1 532.3;" xml:space="preserve">
<style type="text/css">
	.st0{fill:none;stroke:#F17E21;stroke-width:0.882;}
	.st1{clip-path:url(#SVGID_2_);fill:none;stroke:#F17E21;stroke-width:0.882;}
	.st2{clip-path:url(#SVGID_4_);fill:none;stroke:#F17E21;stroke-width:0.882;}
	.st3{clip-path:url(#SVGID_6_);fill:none;stroke:#F17E21;stroke-width:0.882;}
	.st4{clip-path:url(#SVGID_8_);fill:none;stroke:#F17E21;stroke-width:0.882;}
	.st5{clip-path:url(#SVGID_10_);fill:none;stroke:#F17E21;stroke-width:0.882;}
</style>
<polygon class="st0" points="611.6,116 641.1,93.8 611.6,71.5 611.4,88 536.9,88 536.9,99.5 611.4,99.5 "/>
<polygon class="st0" points="870.6,500.5 900.2,478.2 870.6,455.9 870.4,472.5 796,472.5 796,483.9 870.4,483.9 "/>
<polygon class="st0" points="301.9,470.9 331.4,448.6 301.9,426.3 301.7,442.9 227.2,442.9 227.2,454.3 301.7,454.3 "/>
<polygon class="st0" points="552,234.1 611.3,187.1 552,140 551.6,175 401.8,175 401.8,199.1 551.6,199.1 "/>
<polygon class="st0" points="822.9,447.4 882.3,400.3 822.9,353.3 822.5,388.3 672.8,388.3 672.8,412.4 822.5,412.4 "/>
<polygon class="st0" points="558.3,461.1 647.5,390.1 558.3,319.1 557.7,371.9 332.6,371.9 332.6,408.3 557.7,408.3 "/>
<g>
	<defs>
		<rect id="SVGID_1_" width="1732.1" height="532.3"/>
	</defs>
	<clipPath id="SVGID_2_">
		<use xlink:href="#SVGID_1_"  style="overflow:visible;"/>
	</clipPath>
	<polygon class="st1" points="263.5,253.3 367.5,170.4 263.5,87.5 262.8,149.1 0.4,149.1 0.4,191.6 262.8,191.6 	"/>
</g>
<polygon class="st0" points="485.1,308.4 531.2,271.7 485.1,235.1 484.8,262.4 368.6,262.4 368.6,281.1 484.8,281.1 "/>
<polygon class="st0" points="477.3,508.4 523.4,471.7 477.3,435.1 477,462.4 360.8,462.4 360.8,481.1 477,481.1 "/>
<polygon class="st0" points="459.9,100 506,63.4 459.9,26.7 459.6,54 343.5,54 343.5,72.8 459.6,72.8 "/>
<polygon class="st0" points="305.6,354.5 351.7,317.8 305.6,281.1 305.3,308.4 189.1,308.4 189.1,327.2 305.3,327.2 "/>
<polygon class="st0" points="621.2,279.3 641.1,263.9 621.2,248.5 621,260 570.6,260 570.6,267.9 621,267.9 "/>
<polygon class="st0" points="295.2,46.4 315.1,31 295.2,15.5 295,27 244.6,27 244.6,34.9 295,34.9 "/>
<polygon class="st0" points="439.2,339.8 459.1,324.4 439.2,308.9 439,320.4 388.6,320.4 388.6,328.3 439,328.3 "/>
<polygon class="st0" points="663.3,487.2 683.3,471.7 663.3,456.3 663.2,467.8 612.8,467.8 612.8,475.7 663.2,475.7 "/>
<polygon class="st0" points="757,463.7 777,448.3 757,432.9 756.9,444.3 706.5,444.3 706.5,452.2 756.9,452.2 "/>
<polygon class="st0" points="259.3,405.5 279.3,390.1 259.3,374.7 259.2,386.2 208.8,386.2 208.8,394.1 259.2,394.1 "/>
<polygon class="st0" points="498.8,156 523.3,136.9 498.8,117.8 498.6,132 436.6,132 436.6,141.8 498.6,141.8 "/>
<g>
	<defs>
		<rect id="SVGID_3_" width="1732.1" height="532.3"/>
	</defs>
	<clipPath id="SVGID_4_">
		<use xlink:href="#SVGID_3_"  style="overflow:visible;"/>
	</clipPath>
	<polygon class="st2" points="327.1,531.4 351.7,512.3 327.1,493.2 326.9,507.4 265,507.4 265,517.2 326.9,517.2 	"/>
</g>
<polygon class="st0" points="1120.5,393.3 1091,415.6 1120.5,437.9 1120.7,421.3 1195.2,421.3 1195.2,409.9 1120.7,409.9 "/>
<polygon class="st0" points="1430.2,38.4 1400.7,60.7 1430.2,83 1430.4,66.5 1504.9,66.5 1504.9,55 1430.4,55 "/>
<g>
	<defs>
		<rect id="SVGID_5_" width="1732.1" height="532.3"/>
	</defs>
	<clipPath id="SVGID_6_">
		<use xlink:href="#SVGID_5_"  style="overflow:visible;"/>
	</clipPath>
	<polygon class="st3" points="1341.5,486.8 1312,509.1 1341.5,531.4 1341.7,514.9 1416.2,514.9 1416.2,503.4 1341.7,503.4 	"/>
</g>
<polygon class="st0" points="1180.2,275.2 1120.9,322.2 1180.2,369.3 1180.6,334.3 1330.3,334.3 1330.3,310.2 1180.6,310.2 "/>
<polygon class="st0" points="1173.8,48.2 1084.6,119.2 1173.8,190.2 1174.4,137.4 1399.5,137.4 1399.5,101 1174.4,101 "/>
<g>
	<defs>
		<rect id="SVGID_7_" width="1732.1" height="532.3"/>
	</defs>
	<clipPath id="SVGID_8_">
		<use xlink:href="#SVGID_7_"  style="overflow:visible;"/>
	</clipPath>
	<polygon class="st4" points="1468.6,256 1364.6,339 1468.6,421.9 1469.3,360.2 1731.7,360.2 1731.7,317.7 1469.3,317.7 	"/>
</g>
<polygon class="st0" points="1247,200.9 1201,237.6 1247,274.2 1247.3,247 1363.5,247 1363.5,228.2 1247.3,228.2 "/>
<polygon class="st0" points="967,423.7 921,460.3 967,497 967.3,469.7 1083.5,469.7 1083.5,450.9 967.3,450.9 "/>
<g>
	<defs>
		<rect id="SVGID_9_" width="1732.1" height="532.3"/>
	</defs>
	<clipPath id="SVGID_10_">
		<use xlink:href="#SVGID_9_"  style="overflow:visible;"/>
	</clipPath>
	<polygon class="st5" points="1254.8,0.9 1208.8,37.6 1254.8,74.2 1255.1,47 1371.3,47 1371.3,28.2 1255.1,28.2 	"/>
</g>
<polygon class="st0" points="1272.2,409.3 1226.1,445.9 1272.2,482.6 1272.5,455.3 1388.7,455.3 1388.7,436.5 1272.5,436.5 "/>
<polygon class="st0" points="1426.5,154.9 1380.5,191.5 1426.5,228.2 1426.8,200.9 1543,200.9 1543,182.1 1426.8,182.1 "/>
<polygon class="st0" points="1089.7,233.5 1069.7,248.9 1089.7,264.3 1089.8,252.9 1140.2,252.9 1140.2,245 1089.8,245 "/>
<polygon class="st0" points="1089.7,184.6 1069.7,200 1089.7,215.4 1089.8,204 1140.2,204 1140.2,196 1089.8,196 "/>
<polygon class="st0" points="1149.3,454.2 1129.3,469.7 1149.3,485.1 1149.4,473.6 1199.8,473.6 1199.8,465.7 1149.4,465.7 "/>
<polygon class="st0" points="930.5,363.5 910.5,378.9 930.5,394.4 930.6,382.9 981,382.9 981,375 930.6,375 "/>
<polygon class="st0" points="1446.5,451.8 1426.5,467.2 1446.5,482.6 1446.6,471.1 1497,471.1 1497,463.2 1446.6,463.2 "/>
<polygon class="st0" points="1293,169.5 1273,184.9 1293,200.4 1293.1,188.9 1343.5,188.9 1343.5,181 1293.1,181 "/>
<polygon class="st0" points="1472.8,103.8 1452.8,119.2 1472.8,134.6 1472.9,123.2 1523.3,123.2 1523.3,115.2 1472.9,115.2 "/>
<polygon class="st0" points="1233.4,353.3 1208.8,372.4 1233.4,391.5 1233.5,377.3 1295.5,377.3 1295.5,367.5 1233.5,367.5 "/>
<polygon class="st0" points="1050.3,339.8 1025.7,359 1050.3,378.1 1050.5,363.8 1112.4,363.8 1112.4,354.1 1050.5,354.1 "/>
<g id="XMLID_14_">
</g>
<g id="XMLID_15_">
</g>
<g id="XMLID_16_">
</g>
<g id="XMLID_17_">
</g>
<g id="XMLID_18_">
</g>
<g id="XMLID_19_">
</g>
</svg>
