<?xml version="1.0" encoding="utf-8"?>
<!-- Generator: Adobe Illustrator 19.0.0, SVG Export Plug-In . SVG Version: 6.00 Build 0)  -->
<svg version="1.1" id="Layer_1" xmlns="http://www.w3.org/2000/svg" xmlns:xlink="http://www.w3.org/1999/xlink" x="0px" y="0px"
	 viewBox="0 0 70.1 70.1" style="enable-background:new 0 0 70.1 70.1;" xml:space="preserve">
<style type="text/css">
	.st0{clip-path:url(#SVGID_2_);fill:#F57E20;}
	.st1{clip-path:url(#SVGID_2_);fill:none;stroke:#FFFFFF;stroke-width:10.802;stroke-miterlimit:10;}
	.st2{clip-path:url(#SVGID_2_);fill:#FFFFFF;}
</style>
<g>
	<defs>
		<rect id="SVGID_1_" width="70.1" height="70.1"/>
	</defs>
	<clipPath id="SVGID_2_">
		<use xlink:href="#SVGID_1_"  style="overflow:visible;"/>
	</clipPath>
	<path class="st0" d="M70.1,65.6c0,2.5-2,4.5-4.5,4.5H4.5c-2.5,0-4.5-2-4.5-4.5V4.5C0,2,2,0,4.5,0h61.2c2.5,0,4.5,2,4.5,4.5V65.6z"
		/>
	<path class="st1" d="M5,29.6c1.5,0,2.9,0.1,4.4,0.3c17,2,30.4,15.7,32,32.8c0.1,1.1,0.2,2.3,0.2,3.5 M3.7,10.8
		c1.8,0,3.7,0.1,5.4,0.3c26.8,2.6,47.9,24.3,49.7,51.3c0.1,1.2,0.1,2.5,0.1,3.7"/>
	<path class="st2" d="M24.5,55c0,4.9-4,8.9-8.9,8.9c-4.9,0-8.9-4-8.9-8.9s4-8.9,8.9-8.9C20.5,46,24.5,50,24.5,55"/>
</g>
<g id="XMLID_14_">
</g>
<g id="XMLID_15_">
</g>
<g id="XMLID_16_">
</g>
<g id="XMLID_17_">
</g>
<g id="XMLID_18_">
</g>
<g id="XMLID_19_">
</g>
</svg>
