<?xml version="1.0" encoding="utf-8"?>
<!-- Generator: Adobe Illustrator 19.0.0, SVG Export Plug-In . SVG Version: 6.00 Build 0)  -->
<svg version="1.1" id="Layer_1" xmlns="http://www.w3.org/2000/svg" xmlns:xlink="http://www.w3.org/1999/xlink" x="0px" y="0px"
	 viewBox="0 0 63.4 110.9" style="enable-background:new 0 0 63.4 110.9;" xml:space="preserve">
<style type="text/css">
	.st0{clip-path:url(#SVGID_2_);}
	.st1{fill:#414042;}
	.st2{fill:#F57E20;}
	.st3{fill:#58595B;}
	.st4{fill:#FFFFFF;}
	.st5{clip-path:url(#SVGID_4_);fill:#58595B;}
</style>
<g>
	<defs>
		<rect id="SVGID_1_" width="63.4" height="110.9"/>
	</defs>
	<clipPath id="SVGID_2_">
		<use xlink:href="#SVGID_1_"  style="overflow:visible;"/>
	</clipPath>
	<path class="st0" d="M63.4,43.3V103c0,4.4-3.5,7.9-7.9,7.9H7.9c-4.4,0-7.9-3.5-7.9-7.9v-95C0,3.5,3.5,0,7.9,0h47.5
		c4.4,0,7.9,3.5,7.9,7.9V43.3"/>
</g>
<rect x="4.2" y="8.7" class="st1" width="55.2" height="93.2"/>
<rect x="5.7" y="85.1" class="st2" width="52" height="12"/>
<rect x="2.8" y="13.6" width="57.4" height="19.4"/>
<rect x="5.7" y="34.4" class="st3" width="16.7" height="11.7"/>
<g id="XMLID_138_">
	<path id="XMLID_139_" class="st4" d="M14,43.2v-4.8l-0.9,0.4v-0.4l0.9-0.5h0.4v5.3H14z"/>
</g>
<rect x="23.3" y="34.4" class="st3" width="16.7" height="11.7"/>
<g id="XMLID_135_">
	<path id="XMLID_136_" class="st4" d="M33.2,42.8v0.4h-3.1v-0.4c0-1,2.6-2.6,2.6-3.5c0-0.4-0.1-1.1-1.1-1.1c-1.1,0-1.1,0.8-1.1,0.9
		h-0.4c0-0.4,0.2-1.2,1.4-1.2c0.6,0,1.5,0.3,1.5,1.4c0,1.2-2.6,2.6-2.6,3.5H33.2z"/>
</g>
<rect x="41" y="34.4" class="st3" width="16.7" height="11.7"/>
<g id="XMLID_132_">
	<path id="XMLID_133_" class="st4" d="M50.9,41.6c0,0.5-0.2,0.9-0.6,1.2c-0.3,0.2-0.8,0.4-1.2,0.4c-0.5,0-0.9-0.1-1.2-0.4
		c-0.3-0.3-0.3-0.7-0.3-0.8v0H48v0c0,0.3,0.2,0.9,1.2,0.9c0.6,0,1.4-0.4,1.4-1.3c0-0.4-0.3-0.7-0.6-0.9c-0.3-0.2-0.7-0.3-0.9-0.3h0
		v0c0-0.1,0-0.1,0-0.1c0,0,0-0.1,0-0.1v0h0c0.2,0,0.4-0.1,0.6-0.3c0.2-0.2,0.4-0.5,0.4-0.7c0-0.5-0.4-0.8-1-0.8
		c-0.3,0-0.5,0.1-0.7,0.2c-0.2,0.1-0.3,0.2-0.3,0.4v0h-0.3v0c0-0.2,0.1-0.5,0.4-0.6c0.3-0.2,0.6-0.3,1-0.3c0.2,0,0.6,0,0.9,0.2
		c0.3,0.2,0.5,0.5,0.5,1c0,0.5-0.4,1-0.7,1.1c0.2,0.1,0.4,0.2,0.6,0.4C50.8,40.8,50.9,41.2,50.9,41.6z"/>
</g>
<rect x="5.7" y="47" class="st3" width="16.7" height="11.7"/>
<g id="XMLID_128_">
	<path id="XMLID_129_" class="st4" d="M14.3,55.8v-2h-2.4v-0.4l2.3-2.8h0.4v2.9h1v0.4h-1v2H14.3z M14.3,53.4V51l-2,2.4H14.3z"/>
</g>
<rect x="23.3" y="47" class="st3" width="16.7" height="11.7"/>
<g id="XMLID_125_">
	<path id="XMLID_126_" class="st4" d="M33.4,54c0,1-0.7,1.8-1.8,1.8c-1.2,0-1.7-0.8-1.7-1.2h0.4c0,0.4,0.6,0.9,1.3,0.9
		c0.9,0,1.5-0.6,1.5-1.4c0-0.8-0.6-1.4-1.5-1.4c-0.6,0-1.1,0.3-1.1,0.3h-0.4v-2.4h2.6v0.4h-2.3v1.6c0,0,0.4-0.2,1.1-0.2
		C32.7,52.3,33.4,53.1,33.4,54z"/>
</g>
<rect x="41" y="47" class="st3" width="16.7" height="11.7"/>
<g id="XMLID_121_">
	<path id="XMLID_122_" class="st4" d="M51,54.1c0,0.9-0.7,1.7-1.7,1.7c-1.4,0-1.8-0.9-1.8-2.6c0-1.7,0.8-2.6,1.8-2.6
		c1.2,0,1.6,0.8,1.6,1.1c0,0-0.3,0-0.4,0c0,0-0.2-0.8-1.2-0.8c-1.5,0-1.4,2.4-1.4,2.4s0.1-0.8,1.5-0.8C50.3,52.4,51,53.2,51,54.1z
		 M50.7,54.1c0-0.7-0.5-1.3-1.3-1.3c-1,0-1.4,0.6-1.4,1.3c0,0.7,0.5,1.3,1.4,1.3C50.1,55.4,50.7,54.8,50.7,54.1z"/>
</g>
<rect x="5.7" y="59.5" class="st3" width="16.7" height="11.7"/>
<g id="XMLID_118_">
	<path id="XMLID_119_" class="st4" d="M15.8,63v0.3l0,0l-2.6,4.9h-0.4l2.7-4.9h-3V63H15.8z"/>
</g>
<rect x="23.3" y="59.5" class="st3" width="16.7" height="11.7"/>
<g id="XMLID_113_">
	<path id="XMLID_114_" class="st4" d="M33.4,66.8c0,0.9-0.6,1.5-1.8,1.5c-1,0-1.8-0.4-1.8-1.4c0-1.2,1.4-1.5,1.4-1.5s-1-0.2-1.1-1.2
		c0-0.6,0.4-1.1,1.4-1.1s1.4,0.5,1.4,1.1c0,1-1.1,1.2-1.1,1.2S33.4,65.6,33.4,66.8z M33.1,66.8c0-1-1.5-1.3-1.5-1.3
		s-1.4,0.3-1.4,1.4c0,0.9,0.9,1.1,1.4,1.1C32.1,67.9,33.1,67.7,33.1,66.8z M31.6,65.1c0,0,1.1-0.2,1.1-1c0-0.6-0.6-0.8-1.1-0.8
		c-0.5,0-1.1,0.2-1.1,0.8C30.5,64.9,31.6,65.1,31.6,65.1z"/>
</g>
<rect x="41" y="59.5" class="st3" width="16.7" height="11.7"/>
<g id="XMLID_109_">
	<path id="XMLID_110_" class="st4" d="M47.5,64.7c0-0.9,0.7-1.7,1.7-1.7c1.4,0,1.8,0.9,1.8,2.6c0,1.7-0.8,2.6-1.8,2.6
		c-1.2,0-1.6-0.8-1.6-1.1c0,0,0.3,0,0.4,0c0,0,0.2,0.8,1.2,0.8c1.5,0,1.4-2.4,1.4-2.4s-0.1,0.8-1.5,0.8
		C48.2,66.3,47.5,65.6,47.5,64.7z M47.9,64.7c0,0.7,0.5,1.3,1.3,1.3c1,0,1.4-0.6,1.4-1.3c0-0.7-0.5-1.3-1.4-1.3
		C48.4,63.3,47.9,64,47.9,64.7z"/>
</g>
<rect x="23.3" y="72.2" class="st3" width="16.7" height="11.7"/>
<g id="XMLID_105_">
	<path id="XMLID_106_" class="st4" d="M33.8,78.5c0,1.6-0.9,2.6-2.1,2.6c-1.2,0-2.1-1.1-2.1-2.7c0-1.5,0.9-2.6,2.1-2.6
		C32.9,75.9,33.8,77,33.8,78.5z M33.4,78.5c0-1.4-0.7-2.3-1.8-2.3c-1.1,0-1.8,0.9-1.8,2.3c0,1.4,0.7,2.3,1.8,2.3
		C32.8,80.8,33.4,79.9,33.4,78.5z"/>
</g>
<rect x="41" y="72.2" class="st3" width="16.7" height="11.7"/>
<g id="XMLID_101_">
	<path id="XMLID_102_" class="st4" d="M50.4,77.5L50,78.9h0.9l-0.1,0.5h-0.9l-0.3,1.4h-0.4l0.3-1.4h-1.4l-0.3,1.4h-0.4l0.3-1.4h-0.9
		l0.1-0.5h0.9l0.3-1.4h-0.9l0.1-0.5h0.9l0.3-1.4h0.4L48.7,77h1.4l0.3-1.4h0.4L50.5,77h0.9l-0.1,0.5H50.4z M50,77.5h-1.4l-0.3,1.4
		h1.4L50,77.5z"/>
</g>
<rect x="5.7" y="72.2" class="st3" width="16.7" height="11.7"/>
<g id="XMLID_98_">
	<path id="XMLID_99_" class="st4" d="M14.6,76.5l-1.1,1.4v0l1.7-0.2v0.8l-1.7-0.2v0l1.1,1.3L13.9,80l-0.7-1.6h0L12.5,80l-0.6-0.4
		l1.1-1.4v0l-1.7,0.2v-0.8l1.6,0.2v0l-1.1-1.4l0.7-0.4l0.7,1.6h0l0.7-1.6L14.6,76.5z"/>
</g>
<g>
	<defs>
		<rect id="SVGID_3_" width="63.4" height="110.9"/>
	</defs>
	<clipPath id="SVGID_4_">
		<use xlink:href="#SVGID_3_"  style="overflow:visible;"/>
	</clipPath>
	<path class="st5" d="M38.2,4.4c0,0.4-0.2,0.8-0.5,0.8H25.7c-0.3,0-0.5-0.3-0.5-0.8c0-0.4,0.2-0.8,0.5-0.8h12.1
		C38,3.6,38.2,4,38.2,4.4"/>
</g>
<g id="XMLID_50_">
	<path id="XMLID_51_" class="st4" d="M15.5,27.1c0,0.8-0.6,1.4-1.4,1.4c-0.7,0-0.7,0-0.7,0v-2.7c0,0,0,0,0.7,0
		C15,25.7,15.5,26.2,15.5,27.1z M15.3,27.1c0-0.7-0.5-1.1-1.2-1.1h-0.6v2.4h0.6C14.8,28.3,15.3,27.8,15.3,27.1z"/>
	<path id="XMLID_54_" class="st4" d="M17.3,26.8L17.2,27c-0.1-0.1-0.1-0.1-0.3-0.1c-0.4,0-0.5,0.3-0.5,0.5v1.1h-0.2v-1.7h0.2V27
		c0.1-0.2,0.3-0.3,0.5-0.3C17.1,26.7,17.2,26.8,17.3,26.8z"/>
	<path id="XMLID_56_" class="st4" d="M18.1,26.1c0.1,0,0.1,0.1,0.1,0.1c0,0.1-0.1,0.1-0.1,0.1c-0.1,0-0.1-0.1-0.1-0.1
		C18,26.1,18,26.1,18.1,26.1z M18.2,26.7H18v1.7h0.2V26.7z"/>
	<path id="XMLID_59_" class="st4" d="M18.9,26.7H19l0.6,1.5l0.6-1.5h0.2l-0.7,1.8h-0.2L18.9,26.7z"/>
	<path id="XMLID_61_" class="st4" d="M22.3,28c0,0-0.2,0.4-0.7,0.4s-0.8-0.3-0.8-0.9c0-0.7,0.4-0.9,0.7-0.9c0.3,0,0.7,0.2,0.7,0.8
		H21c0,0.4,0.1,0.7,0.6,0.7c0.3,0,0.5-0.3,0.5-0.3H22.3z M21,27.4h1.1c0-0.3-0.2-0.5-0.6-0.5S21,27.2,21,27.4z"/>
	<path id="XMLID_64_" class="st4" d="M24,26.8L23.9,27c-0.1-0.1-0.1-0.1-0.3-0.1c-0.4,0-0.5,0.3-0.5,0.5v1.1h-0.2v-1.7h0.2V27
		c0.1-0.2,0.3-0.3,0.5-0.3C23.8,26.7,24,26.8,24,26.8z"/>
	<path id="XMLID_66_" class="st4" d="M26,27.9c0,0.3-0.3,0.5-0.7,0.5c-0.3,0-0.7-0.1-0.7-0.4h0.2c0,0,0,0.3,0.5,0.3
		c0.1,0,0.5-0.1,0.5-0.3c0-0.4-1.1-0.3-1.1-0.8c0-0.4,0.4-0.5,0.6-0.5s0.6,0,0.6,0.4h-0.2c0,0,0.1-0.2-0.4-0.2
		c-0.4,0-0.4,0.2-0.4,0.3C24.9,27.5,26,27.4,26,27.9z"/>
	<path id="XMLID_68_" class="st4" d="M27.9,28.5v-2.7h0.2v2.7H27.9z"/>
	<path id="XMLID_70_" class="st4" d="M30.1,28.5h-0.2v-1.1c0-0.1,0-0.4-0.4-0.4c-0.4,0-0.5,0.3-0.5,0.5v1.1h-0.2v-1.7H29V27
		c0.1-0.2,0.3-0.3,0.5-0.3c0.4,0,0.6,0.4,0.6,0.6C30.1,27.5,30.1,28.4,30.1,28.5z"/>
	<path id="XMLID_72_" class="st4" d="M32.2,27.2H32c0,0-0.1-0.3-0.5-0.3c-0.3,0-0.6,0.2-0.6,0.7c0,0.4,0.2,0.7,0.6,0.7
		c0.3,0,0.5-0.3,0.5-0.3h0.2c0,0-0.2,0.4-0.7,0.4c-0.5,0-0.8-0.3-0.8-0.9s0.4-0.9,0.8-0.9C32,26.7,32.2,27.2,32.2,27.2z"/>
	<path id="XMLID_74_" class="st4" d="M34.5,27.6c0,0.4-0.4,0.9-0.8,0.9s-0.8-0.4-0.8-0.9s0.4-0.9,0.8-0.9S34.5,27.1,34.5,27.6z
		 M34.3,27.6c0-0.3-0.3-0.7-0.6-0.7S33,27.3,33,27.6s0.3,0.7,0.6,0.7S34.3,27.9,34.3,27.6z"/>
	<path id="XMLID_77_" class="st4" d="M36.2,26.8L36.1,27c-0.1-0.1-0.1-0.1-0.3-0.1c-0.4,0-0.5,0.3-0.5,0.5v1.1h-0.2v-1.7h0.2V27
		c0.1-0.2,0.3-0.3,0.5-0.3C36,26.7,36.1,26.8,36.2,26.8z"/>
	<path id="XMLID_79_" class="st4" d="M37.7,28.5c-0.4,0-0.6-0.4-0.6-0.4v1.8h-0.2v-3.1h0.2v0.4c0-0.1,0.3-0.4,0.6-0.4
		c0.5,0,0.8,0.4,0.8,0.9S38.1,28.5,37.7,28.5z M38.1,27.1c-0.1-0.1-0.3-0.2-0.5-0.2s-0.3,0.1-0.4,0.2c-0.1,0.1-0.1,0.2-0.2,0.4v0.2
		c0,0.1,0.1,0.3,0.2,0.4c0.1,0.1,0.3,0.2,0.4,0.2s0.4-0.1,0.5-0.2c0.1-0.1,0.2-0.3,0.2-0.5S38.3,27.2,38.1,27.1z"/>
	<path id="XMLID_82_" class="st4" d="M40.8,27.6c0,0.4-0.4,0.9-0.8,0.9s-0.8-0.4-0.8-0.9s0.4-0.9,0.8-0.9S40.8,27.1,40.8,27.6z
		 M40.6,27.6c0-0.3-0.3-0.7-0.6-0.7s-0.6,0.4-0.6,0.7s0.3,0.7,0.6,0.7S40.6,27.9,40.6,27.6z"/>
	<path id="XMLID_85_" class="st4" d="M42.5,26.8L42.4,27c-0.1-0.1-0.1-0.1-0.3-0.1c-0.4,0-0.5,0.3-0.5,0.5v1.1h-0.2v-1.7h0.2V27
		c0.1-0.2,0.3-0.3,0.5-0.3C42.3,26.7,42.5,26.8,42.5,26.8z"/>
	<path id="XMLID_87_" class="st4" d="M44.5,28.5h-0.2c0-0.1,0-0.2,0-0.3c0,0-0.2,0.3-0.6,0.3s-0.7-0.2-0.7-0.6
		c0-0.4,0.3-0.6,0.7-0.6c0.3,0,0.5,0.1,0.5,0.1c0-0.3-0.2-0.5-0.5-0.5c-0.4,0-0.5,0.2-0.5,0.3h-0.2c0-0.2,0.2-0.4,0.7-0.4
		c0.6,0,0.7,0.3,0.7,0.9C44.5,28.3,44.5,28.3,44.5,28.5z M44.3,27.9c0,0,0-0.4,0-0.4c-0.1,0-0.3-0.1-0.5-0.1c-0.5,0-0.6,0.3-0.6,0.4
		c0,0.3,0.2,0.4,0.5,0.4C44.1,28.3,44.3,28.1,44.3,27.9z"/>
	<path id="XMLID_90_" class="st4" d="M45.7,28.2v0.2c-0.1,0-0.1,0-0.2,0c-0.1,0-0.3-0.1-0.3-0.3v-1.3H45v-0.2h0.3v-0.4h0.2v0.4h0.3
		v0.2h-0.3v1.2c0,0.2,0.1,0.2,0.2,0.2C45.7,28.3,45.7,28.3,45.7,28.2z"/>
	<path id="XMLID_92_" class="st4" d="M47.7,28c0,0-0.2,0.4-0.7,0.4s-0.8-0.3-0.8-0.9c0-0.7,0.4-0.9,0.7-0.9c0.3,0,0.7,0.2,0.7,0.8
		h-1.3c0,0.4,0.1,0.7,0.6,0.7c0.3,0,0.5-0.3,0.5-0.3H47.7z M46.4,27.4h1.1c0-0.3-0.2-0.5-0.6-0.5C46.6,26.9,46.4,27.2,46.4,27.4z"/>
	<path id="XMLID_95_" class="st4" d="M49.8,27.1v-1.8h0.2v3.1h-0.2V28c0,0.1-0.3,0.4-0.6,0.4c-0.5,0-0.8-0.4-0.8-0.9
		s0.4-0.9,0.8-0.9C49.5,26.7,49.7,27,49.8,27.1z M49.1,28.3c0.2,0,0.3-0.1,0.5-0.2c0.2-0.3,0.2-0.7,0-1c-0.1-0.1-0.3-0.2-0.5-0.2
		c-0.2,0-0.3,0.1-0.5,0.2c-0.1,0.1-0.2,0.3-0.2,0.5s0,0.3,0.2,0.5C48.8,28.2,49,28.3,49.1,28.3z"/>
</g>
<g id="XMLID_40_">
	<path id="XMLID_41_" class="st4" d="M26.6,89.8l-0.3,0.1c0-0.1-0.2-0.3-0.4-0.5c-0.3-0.3-0.7-0.4-1.2-0.4c-1.2,0-2,0.9-2,2.2
		s0.8,2.2,2,2.2c0.5,0,0.9-0.1,1.2-0.4c0.3-0.2,0.4-0.5,0.4-0.5c0,0,0.3,0.1,0.3,0.1c0,0.1-0.5,1.2-1.9,1.2c-1.4,0-2.3-1.1-2.3-2.5
		c0-1.5,0.9-2.5,2.3-2.5C26.1,88.6,26.6,89.8,26.6,89.8z"/>
	<path id="XMLID_43_" class="st4" d="M31,91.9h-2.5l-0.7,1.8h-0.3l2.1-5.1h0.3l2.2,5.1h-0.3L31,91.9z M30.9,91.7L29.7,89l-1.1,2.7
		H30.9z"/>
	<path id="XMLID_46_" class="st4" d="M33.3,93.7v-5.1h0.3v4.7h2.9v0.3H33.3z"/>
	<path id="XMLID_48_" class="st4" d="M37.8,93.7v-5.1h0.3v4.7h2.9v0.3H37.8z"/>
</g>
<g id="XMLID_14_">
	<path id="XMLID_15_" class="st4" d="M9.9,18.6v0.3l0,0l-2.7,4.9H6.9l2.7-4.9h-3v-0.4H9.9z"/>
	<path id="XMLID_17_" class="st4" d="M15.4,21.2c0,1.6-0.9,2.7-2.1,2.7c-1.3,0-2.1-1.1-2.1-2.7c0-1.6,0.9-2.6,2.1-2.6
		C14.6,18.6,15.4,19.6,15.4,21.2z M15.1,21.2c0-1.4-0.7-2.3-1.8-2.3c-1.1,0-1.8,0.9-1.8,2.3c0,1.4,0.7,2.3,1.8,2.3
		C14.4,23.5,15.1,22.6,15.1,21.2z"/>
	<path id="XMLID_20_" class="st4" d="M20,22.3c0,0.5-0.2,0.9-0.6,1.2c-0.3,0.2-0.8,0.4-1.2,0.4c-0.5,0-0.9-0.2-1.2-0.4
		c-0.3-0.3-0.3-0.7-0.3-0.8v0H17v0c0,0.3,0.2,0.9,1.2,0.9c0.6,0,1.4-0.4,1.4-1.3c0-0.5-0.3-0.7-0.6-0.9c-0.3-0.2-0.7-0.3-0.9-0.3h0
		v0c0-0.1,0-0.1,0-0.2c0,0,0-0.1,0-0.1v0h0c0.2,0,0.4-0.1,0.6-0.3c0.2-0.2,0.4-0.5,0.4-0.7c0-0.5-0.4-0.8-1-0.8
		c-0.3,0-0.5,0.1-0.7,0.2c-0.2,0.1-0.3,0.2-0.3,0.4v0h-0.3v0c0-0.2,0.1-0.5,0.4-0.6c0.3-0.2,0.6-0.3,1-0.3c0.2,0,0.6,0,0.9,0.2
		c0.3,0.2,0.5,0.5,0.5,1c0,0.5-0.4,1-0.7,1.1c0.2,0.1,0.4,0.2,0.6,0.4C19.8,21.5,20,21.9,20,22.3z"/>
	<path id="XMLID_22_" class="st4" d="M24,20.2c0-0.9,0.7-1.7,1.7-1.7c1.4,0,1.8,0.9,1.8,2.7c0,1.7-0.8,2.7-1.8,2.7
		c-1.2,0-1.6-0.8-1.6-1.1c0,0,0.3,0,0.4,0c0,0,0.2,0.8,1.3,0.8c1.5,0,1.4-2.4,1.4-2.4s-0.1,0.8-1.5,0.8C24.7,21.9,24,21.2,24,20.2z
		 M24.3,20.2c0,0.7,0.5,1.3,1.3,1.3c1,0,1.4-0.6,1.4-1.3c0-0.7-0.5-1.3-1.4-1.3C24.9,18.9,24.3,19.5,24.3,20.2z"/>
	<path id="XMLID_25_" class="st4" d="M28.9,20.2c0-0.9,0.7-1.7,1.7-1.7c1.4,0,1.8,0.9,1.8,2.7c0,1.7-0.8,2.7-1.8,2.7
		c-1.2,0-1.6-0.8-1.6-1.1c0,0,0.3,0,0.4,0c0,0,0.2,0.8,1.3,0.8c1.5,0,1.4-2.4,1.4-2.4s-0.1,0.8-1.5,0.8
		C29.6,21.9,28.9,21.2,28.9,20.2z M29.2,20.2c0,0.7,0.5,1.3,1.3,1.3c1,0,1.4-0.6,1.4-1.3c0-0.7-0.5-1.3-1.4-1.3
		C29.8,18.9,29.2,19.5,29.2,20.2z"/>
	<path id="XMLID_28_" class="st4" d="M36.1,23.9v-2h-2.4v-0.4l2.3-2.8h0.4v2.9h1v0.4h-1v2H36.1z M36.1,21.5V19l-2,2.4H36.1z"/>
	<path id="XMLID_31_" class="st4" d="M44.7,22.3c0,0.5-0.2,0.9-0.6,1.2c-0.3,0.2-0.8,0.4-1.2,0.4c-0.5,0-0.9-0.2-1.2-0.4
		c-0.3-0.3-0.3-0.7-0.3-0.8v0h0.3v0c0,0.3,0.2,0.9,1.2,0.9c0.6,0,1.4-0.4,1.4-1.3c0-0.5-0.3-0.7-0.6-0.9c-0.3-0.2-0.7-0.3-0.9-0.3h0
		v0c0-0.1,0-0.1,0-0.2c0,0,0-0.1,0-0.1v0h0c0.2,0,0.4-0.1,0.6-0.3c0.2-0.2,0.4-0.5,0.4-0.7c0-0.5-0.4-0.8-1-0.8
		c-0.3,0-0.5,0.1-0.7,0.2c-0.2,0.1-0.3,0.2-0.3,0.4v0h-0.3v0c0-0.2,0.1-0.5,0.4-0.6c0.3-0.2,0.6-0.3,1-0.3c0.2,0,0.6,0,0.9,0.2
		c0.3,0.2,0.5,0.5,0.5,1c0,0.5-0.4,1-0.7,1.1c0.2,0.1,0.4,0.2,0.6,0.4C44.5,21.5,44.7,21.9,44.7,22.3z"/>
	<path id="XMLID_33_" class="st4" d="M46,20.2c0-0.9,0.7-1.7,1.7-1.7c1.4,0,1.8,0.9,1.8,2.7c0,1.7-0.8,2.7-1.8,2.7
		c-1.2,0-1.6-0.8-1.6-1.1c0,0,0.3,0,0.4,0c0,0,0.2,0.8,1.3,0.8c1.5,0,1.4-2.4,1.4-2.4s-0.1,0.8-1.5,0.8C46.7,21.9,46,21.2,46,20.2z
		 M46.4,20.2c0,0.7,0.5,1.3,1.3,1.3c1,0,1.4-0.6,1.4-1.3c0-0.7-0.5-1.3-1.4-1.3C46.9,18.9,46.4,19.5,46.4,20.2z"/>
	<path id="XMLID_36_" class="st4" d="M54.2,22.3c0,0.5-0.2,0.9-0.6,1.2c-0.3,0.2-0.8,0.4-1.2,0.4c-0.5,0-0.9-0.2-1.2-0.4
		c-0.3-0.3-0.3-0.7-0.3-0.8v0h0.3v0c0,0.3,0.2,0.9,1.2,0.9c0.6,0,1.4-0.4,1.4-1.3c0-0.5-0.3-0.7-0.6-0.9c-0.3-0.2-0.7-0.3-0.9-0.3h0
		v0c0-0.1,0-0.1,0-0.2c0,0,0-0.1,0-0.1v0h0c0.2,0,0.4-0.1,0.6-0.3c0.2-0.2,0.4-0.5,0.4-0.7c0-0.5-0.4-0.8-1-0.8
		c-0.3,0-0.5,0.1-0.7,0.2c-0.2,0.1-0.3,0.2-0.3,0.4v0H51v0c0-0.2,0.1-0.5,0.4-0.6c0.3-0.2,0.6-0.3,1-0.3c0.2,0,0.6,0,0.9,0.2
		c0.3,0.2,0.5,0.5,0.5,1c0,0.5-0.4,1-0.7,1.1c0.2,0.1,0.4,0.2,0.6,0.4C54,21.5,54.2,21.9,54.2,22.3z"/>
	<path id="XMLID_38_" class="st4" d="M56.4,23.9V19l-0.9,0.4V19l0.9-0.5h0.4v5.3H56.4z"/>
</g>
<rect x="21" y="20.8" class="st4" width="1.8" height="0.4"/>
<rect x="38.7" y="20.8" class="st4" width="1.8" height="0.4"/>
<g id="XMLID_141_">
</g>
<g id="XMLID_142_">
</g>
<g id="XMLID_143_">
</g>
<g id="XMLID_144_">
</g>
<g id="XMLID_145_">
</g>
<g id="XMLID_146_">
</g>
</svg>
