<?xml version="1.0" encoding="utf-8"?>
<!-- Generator: Adobe Illustrator 19.0.0, SVG Export Plug-In . SVG Version: 6.00 Build 0)  -->
<svg version="1.1" id="Layer_1" xmlns="http://www.w3.org/2000/svg" xmlns:xlink="http://www.w3.org/1999/xlink" x="0px" y="0px"
	 viewBox="0 0 612.2 195.1" style="enable-background:new 0 0 612.2 195.1;" xml:space="preserve">
<style type="text/css">
	.st0{clip-path:url(#XMLID_60_);fill:#FFFFFF;}
	.st1{clip-path:url(#XMLID_60_);}
	.st2{clip-path:url(#XMLID_60_);fill:#F37F20;}
	.st3{clip-path:url(#XMLID_60_);fill:#B0B0B0;}
	.st4{clip-path:url(#XMLID_60_);fill:#575757;}
	.st5{clip-path:url(#XMLID_60_);fill:#F17E21;}
</style>
<g id="XMLID_46_">
	<defs>
		<rect id="XMLID_1_" x="0" y="0" width="612.2" height="195.1"/>
	</defs>
	<clipPath id="XMLID_60_">
		<use xlink:href="#XMLID_1_"  style="overflow:visible;"/>
	</clipPath>
	<path id="XMLID_44_" class="st0" d="M374.9,53l13.4,11.1V70c0,0-41.1,9.2-42.2,9.2c-1.2,0-149.9-7.2-149.9-7.2l-43-19V42.7
		l12.5-8.5l60-9.6l55-1.4l63.6,16L374.9,53z"/>
	<path id="XMLID_43_" class="st0" d="M225.8,22.7c28.3-0.1,114.7-5.6,171,38.7c6-1.8,12.7-2.7,20.5-2.7
		c-51.9-27.1-79.1-34.2-132.5-35.8c-50.3-1.5-128.2,11.8-124.7,13.5C164.1,34.2,214.9,22.7,225.8,22.7"/>
	<path id="XMLID_87_" class="st1" d="M33.5,109.3c0.3,4.2,2.6,6,4.9,9.3c5.2,25.2,11.6,35.3,42,39.7c3.2,3.2,4.4,8.4,6.8,12.3
		c0.5,1.4,1.2,2.2,1.8,2.7h-1.8c-28.8,2.5-59.6,3.1-87.3,6.8c18.1,15.1,61.1,5.3,90,9.5c34.2,1.1,64.6-1.8,98.2-1.4
		c29.7-2.6,63.7-0.9,95.4-1.4h57.3c20-3.2,45.9-0.5,68.2-1.4c65.3-0.3,141.7,6.5,196.3-8.2c-5.7-3.8-18-1.1-24.5-4.1h-2.7
		c-7.4-1.7-22.2,4-23.2-4.1v-2.7h-4.1c34.7-83.2-92.4-120.2-111.8-40.9c-2.5,1.3-2.6,13-5.5,13.6c-5.3-0.6-29.7-1.9-39.5,0
		c-3.9-2-3.5-8.3-9.5-8.2c0.8,2.8-1.7,9,1.4,9.5c15.5,0,39.1-4.8,42,3.3c-28.7-8.8-42.6-0.5-70.1-5.6c4.1-0.9-15.9-0.6-14-3.7
		c-6.7-2.4-13.5-13.1-19.4-9.6c-0.2-2-11.3,3.4-13.1,3c-20,6.8-46.2,1.4-66-1.1c0.2,2.6-12.2,9.1-15.3,11.3c3.9,2.5,3.8-0.5,6,3.6
		c10.2,1.4-26.1-1.8-26.9,8.3c56.4,8.6,141.4,5.5,191.2,10.6c-77-3.5-123-5.6-207.5-4c14.3-64.2-90.1-99.9-122-47.4
		c-0.7,4.7-2.6,7.3-3,12.3c0.1,1.9,1.9,3.5,1.1,4.6c-7.1-5.6-14.2-24-30.3-16.9C36.9,107.2,31.9,111.3,33.5,109.3 M432.2,167.7
		c-61.4,5.8-151.9,1.7-218.2,2.7C288,166.5,354.4,168.6,432.2,167.7 M531.2,120.9c-4.2-11-5.8-11.8-18.7-19.7
		C519.9,101.7,529.5,114.7,531.2,120.9"/>
	<path id="XMLID_39_" class="st0" d="M40.9,87.3c2.2,2,7.3,3.3,12.7,4.4c9.3,1.2,12.6-7.7,13.2-15.3c-5-1.8-11.6-2-16.4-4.1
		c-1.2-0.6-4.6-0.1-5.5,0C40.2,73.7,39.8,84.8,40.9,87.3"/>
	<path id="XMLID_82_" class="st2" d="M29.5,117.5c2.2,8.9,8.2,26.1,17.5,34.1c6.6,6,14.4,7.1,24.7,5c-4.8-13.3-1-27.5-0.7-29.8
		c1.8-6.9,2.1-7.8,4.1-12.3c17.5-28.7,52.7-36.9,78.4-22.8c21.2,11.6,35.8,40.1,29.3,69.2c84.5-1.6,176.8,5,254.2-0.2
		c-0.9-5.1-1.5-8-1.6-12.3c0.1-7.9,0.6-11.4,3.7-22.9c11.2-43.7,59.9-50.1,89.8-29.8c20,13.6,29.2,40.7,22,70.7h4.1h1.4
		c8.2-4.1,25.9,1.4,34.1-2.7c1.5-1.7,2.4-4.1,4.1-7.6c2.6-7,4.2-10.8,6.8-19.7c1.3-4.5,1.5-4.1,2.1-7.5c0.5-1.3,1.6-7.9,2-10.1
		c0.8-3.9,2.4-6.9,5.5-14c-0.2,0.5-11.2-6.6-27.9-12.9c-23.5-8.9-56.5-19.1-71.8-19.1c-33.3-4.3-67.5-6.9-103.6-8.6
		c3.6-2.8,9.8-2.9,16.4-2.7c-0.3-2.8-6-0.4-6.8-2.7c-7.7,0-14.5,1-20.5,2.7C318.8,0,168.6,18.7,79.1,57.3
		c-12.3,5.3-17.6,12-35.9,2.9c0.4,0.8,4.8,3.5,4.7,7.1c-0.4,2-1,2.6-2.8,4.9c4.7,2.1,16.8,2.3,21.8,4.1c-0.6,7.6-7,13.8-25.9,10.9
		C27.3,92.7,27.7,109.4,29.5,117.5 M310.9,64.1c-3.8-1.5-120.3,7.6-147.3-21.8c35.5-12.1,85.3-23.2,132.3-15
		c33.7,7.6,62.7,20,85.9,38.2h-15C361.2,64.1,316,64.1,310.9,64.1 M391.7,92.5c0.2-3.4-2.6-0.1-1.8,0.3c0-1.4,0.9-2.6,0.6-3.7
		c4.9-0.3,2,2.4,7.8,1.6c0-0.5-0.5-2.1-0.5-2.5c10-1,27.3-2.6,36.6,2.9c10.2-1.1,6.5,1.8,0.2,1.6c0,0.5-1.1,0.4-1.1,0.9
		C420.1,99.9,400.3,97.4,391.7,92.5"/>
	<path id="XMLID_35_" class="st3" d="M116.9,141.7c0.1,0.1,0.2,0.1,0.3,0.2c0-0.2-0.1-0.5-0.1-0.7
		C117.1,141.3,117,141.5,116.9,141.7"/>
	<path id="XMLID_34_" class="st4" d="M145.8,102.7c11,7.1,18.4,16.2,21.8,30C169.4,115.9,158.2,104.5,145.8,102.7"/>
	<path id="XMLID_33_" class="st1" d="M170.9,42.8c9.3,21.3,130,19.2,141.5,19.2c11.9,0,39.8,0.5,54.4,2.1h10.9
		c-26.8-16.2-48.7-27.7-84-34.6C250.4,21.4,206.5,34.5,170.9,42.8"/>
	<path id="XMLID_32_" class="st1" d="M334.6,60c8.2-1.4,18.9,7.1,18.9,7.1c2.1,0.1,9.9,0.4,12.4,0.4c-0.2-2.5-4.8-3.4-7.4-4.2
		c-8.5-2.2-12.9-1.3-16.3-6.1C333.2,54.6,336,60,334.6,60"/>
	<path id="XMLID_31_" class="st1" d="M389.9,91.4c-1.3-1-1.6,0-2.4,1.1c6.5,7.6,36.7,8.1,50.1,1.7c0,0,1.8-0.9,1.8-1.4
		C423.8,92.1,407,90.7,389.9,91.4"/>
	<path id="XMLID_30_" class="st0" d="M388.6,88.7c-0.2,0.7-0.9,2.2,1.4,2.7c17-0.7,32,0.7,47.7,1.4c6.3,0.2,11.5-3.8,1.4-2.7
		c-13.2-1.7-28.6-1.4-43.6-1.4C392.2,88.6,389.4,87,388.6,88.7"/>
	<path id="XMLID_29_" class="st1" d="M395.4,87.3c0,0-3.7,0.4-3.7,0.9c2.9,1.6,34,0.1,47.3,1.9C429.8,84.6,405.4,86.3,395.4,87.3"/>
	<path id="XMLID_28_" class="st0" d="M424,61.4c-6.5-0.1-20.3-0.1-23.9,2.7c36.1,1.7,98,6.5,111.1,9.5c13.1,3,35,6.5,53.4,11.9
		c5.1,1.1,32,14,46.1,19.5c0.5-0.8,1.1-1.6,1.4-2.7C560.5,64.1,432,61.4,424,61.4"/>
	<path id="XMLID_27_" class="st4" d="M501.7,96.8c14.7,6.6,25.3,13,31.4,30C531.7,103.6,515.4,97.4,501.7,96.8"/>
	<path id="XMLID_26_" class="st5" d="M332.5,44.4c0,0,15,3.9,13.5,10.2c-1.4,6.2-16.9,5.5-16.9,5.5s-13-2-13.8-3.6
		c-0.9-1.6-2.3-11.6,2.7-13.5C320,42.3,328.2,42.8,332.5,44.4"/>
	<path id="XMLID_25_" class="st0" d="M453.8,138.4c0,20.7,16.8,37.5,37.5,37.5c20.7,0,37.5-16.8,37.5-37.5s-16.8-37.5-37.5-37.5
		C470.6,100.9,453.8,117.7,453.8,138.4"/>
	<path id="XMLID_24_" class="st0" d="M88.6,141.8c0,20.7,16.8,37.5,37.5,37.5c20.7,0,37.5-16.8,37.5-37.5
		c0-20.7-16.8-37.5-37.5-37.5C105.4,104.3,88.6,121.1,88.6,141.8"/>
	<path id="XMLID_23_" class="st0" d="M603.8,107.1c0,0-37.3-19.9-54.1-21.1c0,0-3,0.5,7.1,6.7s24.5,13.8,25.9,14.4
		C584.1,107.7,601.5,108,603.8,107.1"/>
	<path id="XMLID_22_" class="st4" d="M461.9,137.4c0,16.8,13.6,30.3,30.3,30.3c16.8,0,30.3-13.6,30.3-30.3
		c0-16.8-13.6-30.3-30.3-30.3C475.5,107,461.9,120.6,461.9,137.4"/>
	<path id="XMLID_21_" class="st0" d="M483.8,140.4c0,4,3.2,7.2,7.2,7.2c4,0,7.2-3.2,7.2-7.2c0-4-3.2-7.2-7.2-7.2
		C487,133.2,483.8,136.4,483.8,140.4"/>
	<path id="XMLID_20_" class="st0" d="M499.5,116.7c0,4.9,4,9,9,9c4.9,0,9-4,9-9c0-4.9-4-9-9-9C503.5,107.7,499.5,111.7,499.5,116.7"
		/>
	<polygon id="XMLID_19_" class="st0" points="488,145.3 472.2,167.1 469.1,164.2 486.6,143.6 	"/>
	<polygon id="XMLID_18_" class="st0" points="491,146.7 489.2,171.6 480.9,169.4 488,145.3 	"/>
	<polygon id="XMLID_17_" class="st0" points="493.7,145.3 503.9,171.6 495.6,171.6 492.3,145.3 	"/>
	<polygon id="XMLID_16_" class="st0" points="496.1,143.6 521.9,158.4 523.1,151 498.1,141.7 	"/>
	<polygon id="XMLID_15_" class="st0" points="498.2,140.4 525.7,147.6 525.7,138.9 496.1,138.2 	"/>
	<polygon id="XMLID_14_" class="st0" points="473.6,108.8 491,137.2 491,135.1 480.9,105.3 	"/>
	<polygon id="XMLID_13_" class="st0" points="469.1,112.1 488,137.2 486.8,138.2 464.4,118.8 	"/>
	<polygon id="XMLID_12_" class="st0" points="461.5,150.1 483.8,140.4 486,142.9 464.4,158.4 	"/>
	<path id="XMLID_11_" class="st4" d="M97.8,140.1c0,16.8,13.6,30.3,30.3,30.3c16.8,0,30.3-13.6,30.3-30.3
		c0-16.8-13.6-30.3-30.3-30.3C111.4,109.8,97.8,123.4,97.8,140.1"/>
	<path id="XMLID_10_" class="st0" d="M118.9,141.1c0,4,3.2,7.2,7.2,7.2c4,0,7.2-3.2,7.2-7.2c0-4-3.2-7.2-7.2-7.2
		C122.1,133.9,118.9,137.1,118.9,141.1"/>
	<polygon id="XMLID_9_" class="st0" points="130.2,136.7 137.3,108.3 130.2,105.9 128.1,135.3 	"/>
	<polygon id="XMLID_8_" class="st0" points="126.1,135.7 124.6,105.9 116.4,108.3 123.5,135.7 	"/>
	<polygon id="XMLID_7_" class="st0" points="119.4,138.4 94.5,131.6 95.3,138.4 121.2,139.8 	"/>
	<polygon id="XMLID_6_" class="st0" points="128.1,146.7 137.3,172.6 144.8,169.4 129.3,146.7 	"/>
	<polygon id="XMLID_5_" class="st0" points="130.2,146.7 148.7,166.7 153.1,160.9 131.8,145.6 	"/>
	<polygon id="XMLID_4_" class="st0" points="132.7,141.1 161.8,142.8 160.1,133.9 132.7,139.8 	"/>
	<polygon id="XMLID_3_" class="st0" points="124.9,146.7 113,170.1 107.9,166 123.1,146.7 	"/>
	<polygon id="XMLID_2_" class="st0" points="122.4,145.6 103.1,160.9 100.6,158.4 121.2,144.7 	"/>
</g>
</svg>
