<?xml version="1.0" encoding="utf-8"?>
<!-- Generator: Adobe Illustrator 19.0.0, SVG Export Plug-In . SVG Version: 6.00 Build 0)  -->
<svg version="1.1" id="Layer_1" xmlns="http://www.w3.org/2000/svg" xmlns:xlink="http://www.w3.org/1999/xlink" x="0px" y="0px"
	 viewBox="0 0 441.4 215.1" style="enable-background:new 0 0 441.4 215.1;" xml:space="preserve">
<style type="text/css">
	.st0{clip-path:url(#SVGID_2_);fill:#FFFFFF;}
	.st1{clip-path:url(#SVGID_2_);fill:none;stroke:#DA7D30;stroke-width:1.657;}
	.st2{clip-path:url(#SVGID_2_);fill:#F47D33;}
	.st3{fill:#FFFFFF;}
	.st4{clip-path:url(#SVGID_4_);fill:#FFFFFF;}
	.st5{clip-path:url(#SVGID_6_);}
	.st6{fill:#081019;}
	.st7{fill:#041019;}
	.st8{clip-path:url(#SVGID_6_);fill:#F47D33;}
</style>
<g>
	<defs>
		<rect id="SVGID_1_" width="441.4" height="215.1"/>
	</defs>
	<clipPath id="SVGID_2_">
		<use xlink:href="#SVGID_1_"  style="overflow:visible;"/>
	</clipPath>
	<path class="st0" d="M105,209.2c57.5,0,104.2-46.6,104.2-104.2C209.2,47.5,162.5,0.8,105,0.8S0.8,47.5,0.8,105
		C0.8,162.5,47.5,209.2,105,209.2"/>
	<circle class="st1" cx="105" cy="105" r="104.2"/>
	<path class="st2" d="M165.9,75.5l-38,15.8c-4.6-7.9-13.2-13.2-22.9-13.2c-9.8,0-18.3,5.3-22.9,13.2l-38-15.8
		C55,52.7,78.2,37,105,37C131.8,37,155,52.7,165.9,75.5 M37.4,105c0-4,0.4-7.9,1-11.8l40.4,16.8c1.8,9.3,8.3,16.9,16.9,20.1v42.2
		C62.8,167.8,37.4,139.4,37.4,105 M114.2,172.4v-42.2c8.6-3.2,15.2-10.8,16.9-20.1l40.4-16.8c0.7,3.8,1,7.7,1,11.8
		C172.5,139.4,147.2,167.8,114.2,172.4 M196.8,105c0-51-41.1-92.4-91.8-92.4C54.3,12.6,13.2,54,13.2,105s41.1,92.4,91.8,92.4
		C155.7,197.4,196.8,156,196.8,105"/>
</g>
<g id="XMLID_234_">
	<path id="XMLID_235_" class="st3" d="M32.5,155.3l11.3-9.1l1.6,1.9L34,157.3L32.5,155.3z"/>
</g>
<g id="XMLID_231_">
	<path id="XMLID_232_" class="st3" d="M38.4,162.9l9.9-10.6l1.9,1.8l-3.1,10l0,0l6.4-6.9l1.6,1.5l-9.9,10.6l-1.6-1.5L47,157l0,0
		l-7,7.5L38.4,162.9z"/>
</g>
<g id="XMLID_228_">
	<path id="XMLID_229_" class="st3" d="M61.7,170.6c0.6-1.1,1-2,0.9-2.7c0-0.7-0.4-1.3-1-1.7c-0.3-0.2-0.7-0.3-1.1-0.4
		c-0.4,0-0.8,0-1.3,0.2c-0.5,0.2-0.9,0.5-1.5,1c-0.5,0.5-1,1.1-1.6,1.9c-0.5,0.8-0.9,1.5-1.2,2.2c-0.2,0.6-0.4,1.2-0.4,1.7
		c0,0.5,0.1,0.9,0.2,1.3c0.2,0.3,0.4,0.6,0.8,0.9c0.3,0.2,0.6,0.3,0.9,0.4c0.3,0.1,0.6,0.1,0.9,0s0.7-0.3,1-0.6
		c0.4-0.3,0.8-0.7,1.2-1.2l2.1,1.4c-0.5,0.6-1,1.2-1.6,1.7c-0.6,0.5-1.2,0.8-1.8,1c-0.6,0.2-1.3,0.2-1.9,0.1c-0.7-0.1-1.4-0.4-2-0.8
		c-0.7-0.5-1.2-1-1.6-1.6s-0.6-1.3-0.7-2c-0.1-0.8,0.1-1.6,0.4-2.5c0.3-0.9,0.8-2,1.6-3.1c0.7-1,1.4-1.8,2.1-2.5
		c0.7-0.6,1.5-1.1,2.3-1.3s1.5-0.3,2.2-0.3c0.7,0.1,1.4,0.3,2,0.7c0.7,0.5,1.3,1,1.6,1.7c0.4,0.6,0.6,1.3,0.6,1.9
		c0.1,0.7,0,1.4-0.3,2.1c-0.2,0.7-0.5,1.4-1,2L61.7,170.6z"/>
</g>
<g id="XMLID_224_">
	<path id="XMLID_225_" class="st3" d="M74.6,171c0.7,0.3,1.3,0.7,1.8,1.3c0.5,0.6,0.8,1.2,1,2c0.2,0.8,0.2,1.6,0.1,2.6
		c-0.1,1-0.4,2-0.8,3.1s-1,2-1.6,2.8c-0.6,0.8-1.2,1.4-1.9,1.8c-0.7,0.4-1.4,0.7-2.1,0.7c-0.7,0.1-1.5,0-2.2-0.3s-1.3-0.7-1.8-1.3
		c-0.5-0.6-0.8-1.2-1-2s-0.2-1.6-0.1-2.6c0.1-1,0.4-2,0.8-3.1s1-2,1.6-2.8c0.6-0.8,1.2-1.4,1.9-1.8c0.7-0.4,1.4-0.7,2.1-0.7
		C73.1,170.6,73.8,170.7,74.6,171z M74.4,179.1c0.4-0.9,0.6-1.6,0.7-2.3c0.1-0.7,0.1-1.3,0-1.8c-0.1-0.5-0.3-0.9-0.5-1.2
		s-0.5-0.6-0.9-0.7c-0.4-0.1-0.7-0.2-1.1-0.1c-0.4,0.1-0.8,0.2-1.2,0.5c-0.4,0.3-0.8,0.7-1.2,1.3c-0.4,0.6-0.8,1.3-1.1,2.1
		c-0.4,0.9-0.6,1.6-0.7,2.3s-0.1,1.3,0,1.8c0.1,0.5,0.3,0.9,0.5,1.2c0.2,0.3,0.5,0.6,0.9,0.7c0.4,0.1,0.7,0.2,1.1,0.1
		c0.4-0.1,0.8-0.2,1.2-0.5c0.4-0.3,0.8-0.7,1.2-1.3C73.7,180.7,74,179.9,74.4,179.1z"/>
</g>
<g id="XMLID_220_">
	<path id="XMLID_221_" class="st3" d="M79.9,189l3.1-14.2l4.3,0.9c0.8,0.2,1.4,0.4,1.9,0.8s0.9,0.8,1.2,1.3c0.3,0.5,0.4,1,0.5,1.6
		c0.1,0.6,0,1.1-0.1,1.7c-0.1,0.5-0.3,1-0.5,1.4c-0.2,0.4-0.5,0.8-0.9,1.1c-0.4,0.3-0.8,0.5-1.2,0.7c-0.5,0.1-1,0.2-1.5,0.2l2.7,6.5
		l-2.9-0.6l-2.7-7.1l0,0l-1.4,6.2L79.9,189z M84,181.9l1.4,0.3c0.7,0.2,1.4,0.1,1.9-0.1c0.5-0.2,0.8-0.7,1-1.5
		c0.1-0.5,0.1-0.9,0.1-1.2c-0.1-0.3-0.2-0.6-0.4-0.9c-0.2-0.2-0.4-0.4-0.7-0.5c-0.3-0.1-0.6-0.3-1-0.3l-1.3-0.3L84,181.9z"/>
</g>
<g id="XMLID_216_">
	<path id="XMLID_217_" class="st3" d="M95.1,192.2l0.6-14.5l3.8,0.1c0.9,0,1.7,0.2,2.3,0.4c0.6,0.3,1.2,0.6,1.6,1
		c0.4,0.4,0.7,0.9,0.9,1.5c0.2,0.6,0.3,1.2,0.2,1.8c0,0.7-0.1,1.3-0.4,1.8c-0.2,0.5-0.5,1-0.9,1.4c-0.4,0.4-0.9,0.7-1.5,0.9
		c-0.6,0.2-1.2,0.3-1.9,0.3l-2-0.1l-0.2,5.4L95.1,192.2z M97.9,184.6l1.8,0.1c0.4,0,0.7,0,1-0.2s0.5-0.3,0.7-0.5
		c0.2-0.2,0.3-0.5,0.4-0.7c0.1-0.3,0.1-0.6,0.2-0.9c0-0.7-0.1-1.2-0.4-1.7c-0.3-0.5-0.9-0.7-1.7-0.7l-1.8-0.1L97.9,184.6z"/>
</g>
<g id="XMLID_212_">
	<path id="XMLID_213_" class="st3" d="M113.5,177.4c0.8-0.1,1.5,0,2.2,0.3c0.7,0.3,1.3,0.7,1.9,1.3c0.5,0.6,1,1.3,1.4,2.2
		s0.6,1.9,0.7,3.1c0.1,1.2,0.1,2.2,0,3.2c-0.2,1-0.4,1.8-0.8,2.5c-0.4,0.7-0.9,1.3-1.5,1.7c-0.6,0.4-1.3,0.7-2.1,0.8
		c-0.8,0.1-1.5,0-2.2-0.3c-0.7-0.3-1.3-0.7-1.9-1.3c-0.5-0.6-1-1.3-1.4-2.2c-0.4-0.9-0.6-1.9-0.7-3.1c-0.1-1.2-0.1-2.2,0-3.2
		c0.2-1,0.4-1.8,0.8-2.5c0.4-0.7,0.9-1.2,1.5-1.7C112,177.7,112.7,177.4,113.5,177.4z M117.2,184.5c-0.1-0.9-0.3-1.7-0.5-2.4
		s-0.5-1.2-0.8-1.6c-0.3-0.4-0.7-0.7-1-0.8c-0.4-0.2-0.7-0.2-1.1-0.2c-0.4,0-0.7,0.2-1.1,0.4c-0.3,0.2-0.6,0.6-0.8,1
		c-0.2,0.5-0.4,1-0.4,1.7c-0.1,0.7-0.1,1.5,0,2.4s0.3,1.7,0.5,2.4c0.2,0.6,0.5,1.2,0.8,1.6c0.3,0.4,0.7,0.7,1,0.8
		c0.4,0.2,0.7,0.2,1.1,0.2c0.4,0,0.7-0.2,1.1-0.4s0.6-0.6,0.8-1c0.2-0.5,0.4-1,0.4-1.7S117.3,185.4,117.2,184.5z"/>
</g>
<g id="XMLID_208_">
	<path id="XMLID_209_" class="st3" d="M126.7,190.3l-4.1-13.9l4.2-1.2c0.8-0.2,1.4-0.3,2.1-0.2c0.6,0.1,1.2,0.3,1.6,0.6
		c0.5,0.3,0.9,0.7,1.2,1.2s0.6,1,0.7,1.5c0.2,0.5,0.2,1,0.2,1.5c0,0.5-0.1,0.9-0.2,1.4c-0.2,0.4-0.4,0.8-0.7,1.2s-0.8,0.6-1.3,0.9
		l5.5,4.4l-2.8,0.8l-5.8-5l0,0l1.8,6.1L126.7,190.3z M126.9,182.1l1.4-0.4c0.7-0.2,1.3-0.5,1.6-0.9c0.3-0.4,0.4-1,0.2-1.8
		c-0.1-0.5-0.3-0.8-0.5-1.1c-0.2-0.3-0.5-0.5-0.7-0.6s-0.6-0.2-0.9-0.1c-0.3,0-0.7,0.1-1,0.2l-1.2,0.4L126.9,182.1z"/>
</g>
<g id="XMLID_204_">
	<path id="XMLID_205_" class="st3" d="M137.7,171.1l2-1l10.5,11l-2.3,1.1l-2.8-2.9l-3.3,1.6l0.7,4l-2.3,1.1L137.7,171.1z M140.3,174
		L140.3,174l0.9,4.8l2.3-1.1L140.3,174z"/>
</g>
<g id="XMLID_201_">
	<path id="XMLID_202_" class="st3" d="M146.3,169.5l-1.4-1.9l6.8-4.9l1.4,1.9l-2.4,1.7l7.2,9.9l-2,1.5l-7.2-9.9L146.3,169.5z"/>
</g>
<g id="XMLID_198_">
	<path id="XMLID_199_" class="st3" d="M165,171l-10.2-10.4l5.3-5.2l1.5,1.6l-3.6,3.5l2.6,2.6l3.6-3.5l1.5,1.6l-3.6,3.5l3,3l3.7-3.6
		l1.5,1.6L165,171z"/>
</g>
<g id="XMLID_194_">
	<path id="XMLID_195_" class="st3" d="M163.5,152.1l3-3.9c0.5-0.7,1.1-1.2,1.8-1.5s1.4-0.4,2.2-0.4c0.8,0,1.6,0.3,2.4,0.6
		c0.8,0.4,1.7,0.8,2.5,1.5c0.9,0.7,1.6,1.4,2.2,2.2c0.5,0.8,0.9,1.6,1.1,2.4s0.2,1.6,0,2.4c-0.2,0.8-0.6,1.5-1.1,2.2l-2.6,3.3
		L163.5,152.1z M174.8,157.6l1.1-1.5c0.3-0.4,0.5-0.8,0.6-1.3s0.1-0.9-0.1-1.4s-0.4-1-0.8-1.5c-0.4-0.5-1-1-1.6-1.6
		c-0.7-0.5-1.4-0.9-2-1.2c-0.6-0.3-1.2-0.4-1.7-0.4c-0.5,0-1,0.1-1.4,0.3c-0.4,0.2-0.7,0.5-1,0.9l-1.1,1.5L174.8,157.6z"/>
</g>
<g id="XMLID_190_">
	<path id="XMLID_191_" class="st3" d="M54.8,31.6l4.4-2.1c0.8-0.4,1.6-0.5,2.3-0.5c0.8,0.1,1.5,0.3,2.2,0.7c0.7,0.4,1.3,1,1.9,1.7
		c0.6,0.7,1.1,1.5,1.5,2.4c0.5,1,0.8,2,0.9,3c0.1,0.9,0.1,1.8-0.1,2.6c-0.2,0.8-0.6,1.5-1.1,2.1c-0.5,0.6-1.2,1.1-2,1.5L61,44.8
		L54.8,31.6z M62.3,41.7l1.7-0.8c0.4-0.2,0.8-0.5,1.1-0.9c0.3-0.4,0.5-0.8,0.6-1.3s0.1-1.1-0.1-1.7c-0.1-0.6-0.4-1.4-0.8-2.1
		c-0.4-0.8-0.8-1.5-1.2-2c-0.4-0.5-0.9-0.9-1.3-1.1c-0.4-0.2-0.9-0.4-1.3-0.4c-0.4,0-0.9,0.1-1.3,0.3L58,32.6L62.3,41.7z"/>
</g>
<g id="XMLID_186_">
	<path id="XMLID_187_" class="st3" d="M76.1,38l-3.9-14l4.2-1.2c0.8-0.2,1.5-0.3,2.1-0.2c0.6,0.1,1.2,0.3,1.6,0.6
		c0.5,0.3,0.9,0.7,1.2,1.2c0.3,0.5,0.5,1,0.7,1.6c0.1,0.5,0.2,1,0.2,1.5c0,0.5-0.1,0.9-0.3,1.4s-0.4,0.8-0.8,1.1
		c-0.3,0.3-0.8,0.6-1.3,0.8l5.4,4.5l-2.8,0.8l-5.7-5.1l0,0l1.7,6.2L76.1,38z M76.4,29.9l1.4-0.4c0.7-0.2,1.3-0.5,1.6-0.9
		c0.3-0.4,0.4-1,0.2-1.8c-0.1-0.5-0.3-0.8-0.5-1.1c-0.2-0.3-0.5-0.5-0.7-0.6c-0.3-0.1-0.6-0.2-0.9-0.1c-0.3,0-0.7,0.1-1,0.2
		l-1.2,0.3L76.4,29.9z"/>
</g>
<g id="XMLID_183_">
	<path id="XMLID_184_" class="st3" d="M91.2,34.3l-1.7-14.4l2.5-0.3L93.7,34L91.2,34.3z"/>
</g>
<g id="XMLID_180_">
	<path id="XMLID_181_" class="st3" d="M108,18.6l2.5,0l-4.4,14.5l-2.3,0l-4.1-14.6l2.6,0l2.7,10.6h0L108,18.6z"/>
</g>
<g id="XMLID_177_">
	<path id="XMLID_178_" class="st3" d="M116.2,33.5l2.7-14.3l7.3,1.4l-0.4,2.2l-4.9-0.9l-0.7,3.6l5,0.9l-0.4,2.2l-5-0.9l-0.8,4.2
		l5,0.9l-0.4,2.2L116.2,33.5z"/>
</g>
<g id="XMLID_173_">
	<path id="XMLID_174_" class="st3" d="M130.2,36.3l4.7-13.8l4.1,1.4c0.7,0.3,1.3,0.6,1.8,1c0.5,0.4,0.8,0.9,1,1.4
		c0.2,0.5,0.3,1.1,0.3,1.7c0,0.6-0.1,1.1-0.3,1.7c-0.2,0.5-0.4,1-0.7,1.4c-0.3,0.4-0.6,0.7-1,1c-0.4,0.2-0.8,0.4-1.3,0.5
		c-0.5,0.1-1,0.1-1.5,0l1.9,6.8l-2.8-1l-1.8-7.4l0,0l-2.1,6L130.2,36.3z M135.1,29.7l1.4,0.5c0.7,0.2,1.3,0.3,1.9,0.2
		c0.5-0.1,0.9-0.6,1.2-1.4c0.2-0.5,0.2-0.9,0.2-1.2c0-0.3-0.1-0.6-0.3-0.9c-0.2-0.2-0.4-0.5-0.7-0.6s-0.6-0.3-1-0.4l-1.2-0.4
		L135.1,29.7z"/>
</g>
<g id="XMLID_170_">
	<path id="XMLID_171_" class="st3" d="M148,38.4c-0.1,0.3-0.2,0.6-0.3,0.9c-0.1,0.3-0.1,0.6-0.1,0.9c0,0.3,0.1,0.5,0.3,0.8
		c0.2,0.2,0.4,0.5,0.8,0.6c0.5,0.3,1,0.3,1.5,0.2c0.5-0.2,0.9-0.5,1.2-1.1c0.3-0.5,0.3-1,0.2-1.4c-0.1-0.4-0.4-0.8-0.7-1.2
		c-0.3-0.4-0.7-0.8-1.1-1.2s-0.7-0.8-1-1.3c-0.3-0.5-0.4-1-0.4-1.7c0-0.6,0.2-1.4,0.6-2.2c0.3-0.5,0.6-1,1-1.3
		c0.4-0.3,0.9-0.6,1.3-0.7c0.5-0.1,1-0.2,1.5-0.1s1.1,0.2,1.6,0.5c0.6,0.3,1.1,0.7,1.4,1.1c0.3,0.4,0.6,0.9,0.7,1.4
		c0.1,0.5,0.2,1,0.1,1.6c-0.1,0.6-0.2,1.1-0.5,1.7l-2.1-1.1c0.1-0.3,0.2-0.5,0.2-0.8c0-0.3,0-0.5,0-0.8c-0.1-0.2-0.2-0.5-0.3-0.7
		s-0.4-0.4-0.6-0.5c-0.5-0.3-1-0.3-1.4-0.1s-0.8,0.5-1,1c-0.2,0.5-0.3,0.9-0.1,1.2c0.2,0.4,0.4,0.7,0.7,1.1c0.3,0.4,0.7,0.7,1.1,1.1
		c0.4,0.4,0.7,0.8,1,1.3c0.3,0.5,0.4,1,0.4,1.7c0,0.6-0.2,1.3-0.6,2.2c-0.3,0.6-0.7,1.1-1.1,1.5c-0.4,0.4-0.9,0.7-1.4,0.8
		c-0.5,0.2-1.1,0.2-1.6,0.2c-0.6-0.1-1.2-0.3-1.8-0.6c-0.6-0.3-1.1-0.7-1.5-1.2c-0.4-0.5-0.6-1-0.8-1.5s-0.2-1.1-0.1-1.7
		c0.1-0.6,0.3-1.2,0.6-1.8L148,38.4z"/>
</g>
<g>
	<defs>
		<rect id="SVGID_3_" width="441.4" height="215.1"/>
	</defs>
	<clipPath id="SVGID_4_">
		<use xlink:href="#SVGID_3_"  style="overflow:visible;"/>
	</clipPath>
	<path class="st4" d="M336.9,209.1c57.7,0,104.5-46.8,104.5-104.5S394.6,0,336.9,0S232.4,46.8,232.4,104.5S279.2,209.1,336.9,209.1"
		/>
</g>
<g>
	<defs>
		<path id="SVGID_5_" d="M238.9,104.5c0,54.1,43.9,98,98,98c54.1,0,98-43.9,98-98c0-54.1-43.9-98-98-98
			C282.8,6.5,238.9,50.4,238.9,104.5"/>
	</defs>
	<clipPath id="SVGID_6_">
		<use xlink:href="#SVGID_5_"  style="overflow:visible;"/>
	</clipPath>
	<g id="XMLID_157_" class="st5">
		<path id="XMLID_158_" class="st6" d="M287.7,43.9h9.6c1.7,0,3.2,0.4,4.5,1.1c1.3,0.7,2.4,1.8,3.3,3.1c0.9,1.3,1.5,2.8,2,4.6
			c0.4,1.7,0.7,3.6,0.7,5.6c0,2.3-0.3,4.3-0.9,6.1c-0.6,1.8-1.4,3.3-2.4,4.5c-1,1.2-2.3,2.2-3.7,2.8c-1.5,0.6-3.1,1-4.8,1h-8.3V43.9
			z M292.6,68.3h3.7c1,0,1.9-0.2,2.7-0.6c0.8-0.4,1.5-1,2.1-1.8c0.6-0.8,1-1.9,1.3-3.1c0.3-1.3,0.5-2.7,0.5-4.5
			c0-1.8-0.2-3.3-0.5-4.6c-0.3-1.3-0.8-2.3-1.4-3.1c-0.6-0.8-1.3-1.4-2.1-1.8c-0.8-0.4-1.7-0.6-2.6-0.6h-3.7V68.3z"/>
		<path id="XMLID_161_" class="st6" d="M311.9,72.6V43.9h8.6c1.6,0,2.9,0.3,4,0.8c1.1,0.5,2,1.2,2.8,2.1c0.7,0.9,1.3,1.8,1.6,2.9
			c0.3,1.1,0.5,2.2,0.5,3.3c0,1.1-0.1,2.1-0.4,3s-0.7,1.7-1.2,2.5c-0.6,0.7-1.2,1.3-2.1,1.8s-1.8,0.8-2.9,0.9l8,11.5h-5.8L317,60
			h-0.1v12.6H311.9z M316.9,57.3h2.9c1.5,0,2.7-0.3,3.6-0.9c0.9-0.6,1.3-1.7,1.3-3.3c0-1-0.1-1.7-0.4-2.4c-0.3-0.6-0.6-1.1-1.1-1.5
			c-0.5-0.4-1-0.6-1.6-0.8c-0.6-0.1-1.3-0.2-2.1-0.2h-2.5V57.3z"/>
		<path id="XMLID_164_" class="st6" d="M334.4,72.6V43.9h4.9v28.7H334.4z"/>
		<path id="XMLID_166_" class="st6" d="M345.2,72.6V43.9h5.2l9.1,18.6h0.1V43.9h4.4v28.7h-4.3l-10-20.2h-0.1v20.2H345.2z"/>
		<path id="XMLID_168_" class="st6" d="M369.3,72.6V43.9h4.9v12.3h0.1l7.8-12.3h5.9l-7.8,11.2l8.6,17.5h-5.4L376.8,59h-0.1l-2.5,4
			v9.7H369.3z"/>
	</g>
	<g id="XMLID_144_" class="st5">
		<path id="XMLID_145_" class="st6" d="M289.9,106.6h9.6c1.7,0,3.2,0.4,4.5,1.1c1.3,0.7,2.4,1.8,3.3,3.1c0.9,1.3,1.5,2.8,2,4.6
			c0.4,1.7,0.7,3.6,0.7,5.6c0,2.3-0.3,4.3-0.9,6.1s-1.4,3.3-2.4,4.5c-1,1.2-2.3,2.2-3.7,2.8c-1.5,0.6-3.1,1-4.8,1h-8.3V106.6z
			 M294.8,130.9h3.7c1,0,1.9-0.2,2.7-0.6c0.8-0.4,1.5-1,2.1-1.8c0.6-0.8,1-1.9,1.3-3.1c0.3-1.3,0.5-2.7,0.5-4.5
			c0-1.8-0.2-3.3-0.5-4.6c-0.3-1.3-0.8-2.3-1.4-3.1c-0.6-0.8-1.3-1.4-2.1-1.8c-0.8-0.4-1.7-0.6-2.6-0.6h-3.7V130.9z"/>
		<path id="XMLID_148_" class="st6" d="M314.2,135.3v-28.7h8.6c1.6,0,2.9,0.3,4,0.8c1.1,0.5,2,1.2,2.8,2.1c0.7,0.9,1.3,1.8,1.6,2.9
			c0.3,1.1,0.5,2.2,0.5,3.3c0,1.1-0.1,2.1-0.4,3s-0.7,1.7-1.2,2.5c-0.6,0.7-1.2,1.3-2.1,1.8s-1.8,0.8-2.9,0.9l8,11.5h-5.8l-8.1-12.6
			h-0.1v12.6H314.2z M319.1,120h2.9c1.5,0,2.7-0.3,3.6-0.9c0.9-0.6,1.3-1.7,1.3-3.3c0-1-0.1-1.7-0.4-2.4c-0.3-0.6-0.6-1.1-1.1-1.5
			c-0.5-0.4-1-0.6-1.6-0.8c-0.6-0.1-1.3-0.2-2.1-0.2h-2.5V120z"/>
		<path id="XMLID_151_" class="st6" d="M336.7,135.3v-28.7h4.9v28.7H336.7z"/>
		<path id="XMLID_153_" class="st6" d="M361.4,106.6h5l-8.4,28.7h-4.6l-8.4-28.7h5.1l5.5,20.9h0.1L361.4,106.6z"/>
		<path id="XMLID_155_" class="st6" d="M369.3,135.3v-28.7h14.8v4.4h-9.8v7.2h10v4.4h-10v8.4h10.1v4.4H369.3z"/>
	</g>
	<g id="XMLID_121_" class="st5">
		<path id="XMLID_122_" d="M302.1,28.4h0.5c-0.9,2-2,3-3.4,3c-0.6,0-1-0.2-1.4-0.6s-0.5-0.9-0.5-1.6c0-0.9,0.2-1.8,0.7-2.9
			c0.5-1.1,1.1-2,2-2.8c0.9-0.8,1.6-1.2,2.2-1.2c0.4,0,0.7,0.1,0.9,0.4c0.2,0.2,0.3,0.6,0.3,0.9c0,0.8-0.4,1.5-1.1,2.2
			s-1.9,1.4-3.4,2c-0.2,0.6-0.3,1.2-0.3,1.7c0,0.4,0.1,0.8,0.3,1c0.2,0.2,0.4,0.3,0.8,0.3C300.5,30.7,301.3,30,302.1,28.4z
			 M299,27.2c0.9-0.4,1.7-1,2.4-1.7c0.7-0.7,1.1-1.4,1.1-1.9c0-0.3-0.1-0.5-0.2-0.6c-0.1-0.1-0.3-0.2-0.5-0.2
			c-0.4,0-0.9,0.4-1.5,1.2S299.3,25.9,299,27.2z"/>
		<path id="XMLID_125_" d="M312.9,29.1h0.5c-0.4,0.8-0.8,1.3-1.3,1.7c-0.4,0.4-0.9,0.6-1.3,0.6c-0.3,0-0.6-0.1-0.8-0.3
			c-0.2-0.2-0.3-0.5-0.3-0.8c0-0.3,0.2-0.9,0.5-1.9l1.1-3.2c0.3-0.9,0.4-1.4,0.4-1.7c0-0.2-0.1-0.4-0.2-0.5
			c-0.1-0.1-0.3-0.2-0.5-0.2c-0.5,0-1.2,0.6-2.1,1.9c-0.9,1.2-1.6,2.9-2.2,4.9l-0.5,1.7h-1.3l1.8-5.9c0.3-1.1,0.5-1.7,0.5-1.9
			c0-0.1,0-0.2-0.1-0.3c0-0.1-0.1-0.1-0.2-0.1c-0.4,0-0.9,0.5-1.5,1.5h-0.5c0.9-1.6,1.7-2.4,2.5-2.4c0.3,0,0.5,0.1,0.6,0.2
			s0.2,0.4,0.2,0.7c0,0.6-0.2,1.5-0.7,2.8c1.3-2.5,2.5-3.8,3.7-3.8c0.4,0,0.7,0.1,1,0.4s0.4,0.6,0.4,1.1c0,0.3-0.1,0.9-0.4,1.8
			l-1.1,3.3c-0.3,0.9-0.4,1.4-0.4,1.5c0,0.1,0,0.2,0.1,0.3c0.1,0.1,0.2,0.1,0.3,0.1c0.2,0,0.5-0.1,0.8-0.4S312.6,29.6,312.9,29.1z"
			/>
		<path id="XMLID_127_" d="M316.1,25h-0.5c0.3-0.8,0.6-1.4,1.1-2s0.9-0.8,1.4-0.8c0.3,0,0.6,0.1,0.8,0.4c0.2,0.3,0.3,0.6,0.3,1
			c0,0.4-0.2,1.4-0.6,2.8l-1.1,4.2c-0.6,2.4-1.4,3.9-2.1,4.6c-0.8,0.7-1.6,1-2.4,1c-0.6,0-1.1-0.2-1.5-0.5c-0.4-0.3-0.6-0.6-0.6-1
			c0-0.2,0.1-0.3,0.2-0.5c0.1-0.1,0.3-0.2,0.4-0.2c0.2,0,0.3,0.1,0.4,0.2c0.1,0.1,0.2,0.4,0.3,0.7c0.2,0.5,0.5,0.8,0.9,0.8
			c0.4,0,0.8-0.2,1.2-0.5c0.4-0.3,0.7-0.8,0.9-1.5s0.6-1.8,1-3.3l1.2-4.4c0.4-1.6,0.6-2.4,0.6-2.6c0-0.2,0-0.3-0.1-0.4
			c-0.1-0.1-0.1-0.1-0.3-0.1c-0.2,0-0.5,0.2-0.8,0.5C316.7,23.8,316.4,24.3,316.1,25z M318.7,17.6c0-0.2,0.1-0.5,0.3-0.6
			s0.4-0.3,0.7-0.3c0.2,0,0.5,0.1,0.6,0.3c0.2,0.2,0.3,0.4,0.3,0.6c0,0.3-0.1,0.5-0.3,0.7c-0.2,0.2-0.4,0.3-0.6,0.3
			s-0.5-0.1-0.6-0.3S318.7,17.9,318.7,17.6z"/>
		<path id="XMLID_130_" d="M321.9,28.3c0-0.8,0.2-1.7,0.6-2.7c0.4-1,0.9-1.8,1.7-2.4s1.4-0.9,2.1-0.9c0.6,0,1.1,0.3,1.5,0.8
			c0.4,0.5,0.6,1.2,0.6,2.1c0,1.1-0.2,2.1-0.7,3.1c-0.4,1-1,1.7-1.7,2.2c-0.7,0.5-1.3,0.8-2,0.8c-0.6,0-1.1-0.2-1.5-0.7
			C322.1,30.2,321.9,29.4,321.9,28.3z M323,29.5c0,0.4,0.1,0.7,0.3,1c0.2,0.3,0.5,0.4,0.8,0.4c0.9,0,1.7-0.9,2.3-2.6
			c0.6-1.8,0.9-3.1,0.9-4c0-0.5-0.1-0.8-0.3-1.1c-0.2-0.2-0.5-0.4-0.8-0.4c-0.9,0-1.6,0.8-2.2,2.5C323.3,26.8,323,28.3,323,29.5z"/>
		<path id="XMLID_133_" d="M331.6,25.1h-0.4c0.1-1,0.3-1.7,0.7-2.2c0.4-0.4,0.7-0.7,1.1-0.7c0.5,0,0.9,0.3,1.2,0.9s0.5,1.6,0.5,2.9
			c0,1.7-0.2,3.2-0.6,4.6c0.7-0.7,1.3-1.7,2-2.8c0.6-1.1,1-2.1,1-2.9c0-0.4-0.1-0.8-0.3-1.1c-0.2-0.4-0.3-0.6-0.3-0.8
			c0-0.2,0.1-0.3,0.2-0.5c0.1-0.1,0.2-0.2,0.4-0.2c0.3,0,0.5,0.1,0.6,0.4s0.2,0.7,0.2,1.3c0,0.8-0.3,1.9-0.8,3s-1.3,2.4-2.2,3.6
			s-2,2.2-2.9,3.2s-1.8,1.6-2.5,2c-0.7,0.4-1.4,0.6-2.1,0.6c-0.9,0-1.3-0.3-1.3-0.8c0-0.2,0.1-0.4,0.3-0.5c0.2-0.1,0.4-0.2,0.6-0.2
			c0.2,0,0.4,0,0.8,0.1c0.4,0.1,0.8,0.2,1.1,0.2c0.4,0,0.8-0.1,1.2-0.3s0.9-0.6,1.5-1.2c0.6-0.6,1-1.1,1.2-1.5s0.4-1.2,0.6-2.3
			c0.2-1.1,0.3-2.3,0.3-3.6c0-1-0.1-1.7-0.3-2.3s-0.4-0.8-0.7-0.8C332,23.1,331.7,23.8,331.6,25.1z"/>
		<path id="XMLID_135_" d="M352.4,22.5l-0.1,0.5h-1.6l-1.4,4.6c-0.5,1.5-0.7,2.4-0.7,2.6c0,0.2,0,0.3,0.1,0.4s0.2,0.1,0.3,0.1
			c0.3,0,0.6-0.2,1-0.7c0.4-0.5,0.8-1.1,1.1-1.8h0.5c-0.4,1-0.9,1.8-1.5,2.4c-0.5,0.5-1,0.8-1.5,0.8c-0.4,0-0.6-0.1-0.8-0.4
			c-0.2-0.3-0.3-0.6-0.3-0.9c0-0.3,0.2-1.2,0.6-2.6l1.3-4.4H348l0.1-0.5h1.4l1-3.2h1.2l-1,3.2H352.4z"/>
		<path id="XMLID_137_" d="M354.5,31.2h-1.2l3.7-12c0.2-0.7,0.3-1.1,0.3-1.2c0-0.2,0-0.3-0.1-0.3s-0.3-0.1-0.7-0.1h-0.3l0.1-0.4
			c1.1,0,1.9-0.2,2.5-0.4h0.3l-2.4,7.8c1.3-1.5,2.4-2.3,3.4-2.3c0.5,0,0.8,0.1,1,0.3s0.3,0.5,0.3,0.9c0,0.3-0.2,1.1-0.6,2.2
			l-0.9,2.6c-0.4,1-0.5,1.6-0.5,1.8c0,0.2,0,0.3,0.1,0.4c0.1,0.1,0.2,0.1,0.3,0.1c0.2,0,0.5-0.1,0.8-0.4c0.3-0.3,0.6-0.7,0.8-1.1
			h0.5c-0.4,0.7-0.8,1.3-1.3,1.7s-0.9,0.6-1.4,0.6c-0.3,0-0.6-0.1-0.8-0.4c-0.2-0.2-0.3-0.5-0.3-0.9c0-0.4,0.2-1.2,0.6-2.2l0.9-2.4
			c0.4-1.1,0.6-1.8,0.6-2.1c0-0.2,0-0.3-0.1-0.4s-0.2-0.1-0.4-0.1c-0.3,0-0.7,0.1-1.1,0.4s-0.9,0.7-1.3,1.3c-0.5,0.6-0.8,1.2-1,1.7
			c-0.2,0.5-0.5,1.4-0.8,2.5L354.5,31.2z"/>
		<path id="XMLID_139_" d="M368,28.8h0.5c-0.3,0.7-0.8,1.3-1.3,1.8c-0.5,0.5-1,0.8-1.5,0.8c-0.3,0-0.6-0.1-0.9-0.3
			c-0.2-0.2-0.4-0.6-0.4-1c0-0.4,0.2-1.1,0.6-2.1l1.2-3.2c0.3-0.7,0.4-1.2,0.4-1.4c0-0.1,0-0.2-0.1-0.3c-0.1-0.1-0.2-0.1-0.3-0.1
			c-0.3,0-0.6,0.2-1,0.6c-0.4,0.4-0.6,0.8-0.8,1.1h-0.5c0.4-0.8,0.8-1.4,1.3-1.8c0.5-0.4,0.9-0.7,1.4-0.7c0.3,0,0.6,0.1,0.8,0.3
			c0.2,0.2,0.3,0.5,0.3,0.9c0,0.4-0.2,1-0.6,2l-1,2.7c-0.4,1-0.6,1.6-0.6,1.8c0,0.2,0,0.4,0.1,0.5c0.1,0.1,0.2,0.2,0.3,0.2
			C366.7,30.6,367.3,30,368,28.8z M367.3,17.6c0-0.3,0.1-0.5,0.3-0.6c0.2-0.2,0.4-0.3,0.6-0.3s0.5,0.1,0.6,0.3
			c0.2,0.2,0.3,0.4,0.3,0.6c0,0.2-0.1,0.5-0.3,0.6c-0.2,0.2-0.4,0.3-0.6,0.3c-0.3,0-0.5-0.1-0.6-0.3S367.3,17.9,367.3,17.6z"/>
		<path id="XMLID_142_" d="M375.4,28.8c0,0.6-0.2,1.2-0.7,1.8c-0.5,0.5-1.2,0.8-2.2,0.8c-0.7,0-1.3-0.2-1.6-0.5
			c-0.4-0.3-0.5-0.7-0.5-1c0-0.2,0.1-0.4,0.2-0.5c0.1-0.1,0.2-0.2,0.4-0.2c0.4,0,0.6,0.2,0.6,0.6c0,0.1,0,0.2-0.1,0.4
			c0,0.1,0,0.1,0,0.2c0,0.2,0.1,0.3,0.3,0.4c0.2,0.1,0.5,0.2,0.8,0.2c0.5,0,0.9-0.1,1.3-0.4c0.4-0.3,0.6-0.7,0.6-1.2
			c0-0.5-0.3-1.2-0.8-2.1c-0.6-1.1-0.9-1.9-0.9-2.5c0-0.7,0.3-1.2,0.8-1.7c0.5-0.5,1.1-0.7,1.8-0.7c0.5,0,0.9,0.1,1.3,0.4
			s0.5,0.5,0.5,0.8c0,0.4-0.2,0.6-0.5,0.6c-0.2,0-0.4-0.2-0.5-0.6c-0.1-0.5-0.4-0.7-0.9-0.7c-0.4,0-0.7,0.1-1,0.3
			c-0.3,0.2-0.4,0.5-0.4,0.8c0,0.5,0.2,1.1,0.7,1.9c0.4,0.8,0.7,1.3,0.9,1.7C375.3,27.9,375.4,28.4,375.4,28.8z"/>
	</g>
	<g id="XMLID_109_" class="st5">
		<path id="XMLID_110_" d="M318.7,94.6h0.5c-0.7,1.9-1.6,2.8-2.7,2.8c-0.4,0-0.7-0.1-0.9-0.4c-0.2-0.3-0.3-0.6-0.3-1
			c0-0.4,0.2-1.3,0.7-2.8l2.4-8c0.2-0.7,0.3-1.1,0.3-1.2c0-0.2,0-0.3-0.1-0.4s-0.3-0.1-0.7-0.1h-0.4l0.1-0.4c1.1,0,2-0.1,2.5-0.4
			h0.3l-3.4,11c0,0.2-0.2,0.5-0.3,0.9c-0.2,0.6-0.3,1.1-0.3,1.4c0,0.2,0,0.4,0.1,0.5c0.1,0.1,0.2,0.2,0.4,0.2c0.2,0,0.5-0.2,0.9-0.5
			S318.4,95.4,318.7,94.6z"/>
		<path id="XMLID_112_" d="M326.1,94.4h0.5c-0.9,2-2,3-3.4,3c-0.6,0-1-0.2-1.4-0.6c-0.4-0.4-0.5-0.9-0.5-1.6c0-0.9,0.2-1.8,0.7-2.9
			s1.1-2,2-2.8c0.9-0.8,1.6-1.2,2.2-1.2c0.4,0,0.7,0.1,0.9,0.4c0.2,0.2,0.3,0.6,0.3,0.9c0,0.8-0.4,1.5-1.1,2.2
			c-0.8,0.7-1.9,1.4-3.4,2c-0.2,0.6-0.3,1.2-0.3,1.7c0,0.4,0.1,0.8,0.3,1c0.2,0.2,0.4,0.3,0.8,0.3C324.6,96.7,325.4,96,326.1,94.4z
			 M323,93.2c0.9-0.4,1.7-1,2.4-1.7s1.1-1.4,1.1-1.9c0-0.3-0.1-0.5-0.2-0.6c-0.1-0.1-0.3-0.2-0.5-0.2c-0.4,0-0.9,0.4-1.5,1.2
			S323.4,91.9,323,93.2z"/>
		<path id="XMLID_115_" d="M334.6,88.5l-0.1,0.5h-1.6l-1.4,4.6c-0.5,1.5-0.7,2.4-0.7,2.6c0,0.2,0,0.3,0.1,0.4s0.2,0.1,0.3,0.1
			c0.3,0,0.6-0.2,1-0.7c0.4-0.5,0.8-1.1,1.1-1.8h0.5c-0.4,1-0.9,1.8-1.5,2.4c-0.5,0.5-1,0.8-1.5,0.8c-0.4,0-0.6-0.1-0.8-0.4
			c-0.2-0.3-0.3-0.6-0.3-0.9c0-0.3,0.2-1.2,0.6-2.6l1.3-4.4h-1.4l0.1-0.5h1.4l1-3.2h1.2l-1,3.2H334.6z"/>
		<path id="XMLID_117_" d="M350.5,94.9h0.4c-0.6,1.6-1.4,2.4-2.4,2.4c-0.3,0-0.6-0.1-0.8-0.3c-0.2-0.2-0.3-0.5-0.3-0.8
			c0-0.5,0.2-1.4,0.6-2.5c-1.2,2.4-2.4,3.7-3.6,3.7c-0.4,0-0.8-0.1-1-0.4c-0.2-0.3-0.4-0.6-0.4-1c0-0.4,0.2-1.1,0.5-2l1.3-3.7
			c0.2-0.6,0.3-0.9,0.3-1c0-0.2-0.1-0.3-0.3-0.3c-0.4,0-0.9,0.6-1.4,1.8h-0.5c0.3-0.7,0.6-1.3,1.1-1.8c0.5-0.5,0.9-0.7,1.3-0.7
			c0.3,0,0.5,0.1,0.7,0.3c0.2,0.2,0.3,0.4,0.3,0.8c0,0.2-0.1,0.7-0.4,1.5l-1.3,3.9c-0.2,0.8-0.4,1.2-0.4,1.5c0,0.2,0,0.4,0.1,0.5
			c0.1,0.1,0.2,0.2,0.4,0.2c0.6,0,1.3-0.6,2.2-1.9c0.8-1.3,1.6-3.2,2.4-5.8l0.2-0.6h1.3l-1.8,6c-0.3,1-0.4,1.6-0.4,1.8
			c0,0.2,0,0.3,0.1,0.4s0.2,0.1,0.3,0.1C349.6,96.6,350.1,96.1,350.5,94.9z"/>
		<path id="XMLID_119_" d="M358,94.8c0,0.6-0.2,1.2-0.7,1.8c-0.5,0.5-1.2,0.8-2.2,0.8c-0.7,0-1.3-0.2-1.6-0.5
			c-0.4-0.3-0.5-0.7-0.5-1c0-0.2,0.1-0.4,0.2-0.5c0.1-0.1,0.2-0.2,0.4-0.2c0.4,0,0.6,0.2,0.6,0.6c0,0.1,0,0.2-0.1,0.4
			c0,0.1,0,0.1,0,0.2c0,0.2,0.1,0.3,0.3,0.4c0.2,0.1,0.5,0.2,0.8,0.2c0.5,0,0.9-0.1,1.3-0.4c0.4-0.3,0.6-0.7,0.6-1.2
			c0-0.5-0.3-1.2-0.8-2.1c-0.6-1.1-0.9-1.9-0.9-2.5c0-0.7,0.3-1.2,0.8-1.7c0.5-0.5,1.1-0.7,1.8-0.7c0.5,0,0.9,0.1,1.3,0.4
			s0.5,0.5,0.5,0.8c0,0.4-0.2,0.6-0.5,0.6c-0.2,0-0.4-0.2-0.5-0.6c-0.1-0.5-0.4-0.7-0.9-0.7c-0.4,0-0.7,0.1-1,0.3
			c-0.3,0.2-0.4,0.5-0.4,0.8c0,0.5,0.2,1.1,0.7,1.9c0.4,0.8,0.7,1.3,0.9,1.7C358,93.9,358,94.4,358,94.8z"/>
	</g>
	<g id="XMLID_106_" class="st5">
		<path id="XMLID_107_" class="st7" d="M292,180.9l0.8-1.5l6,3.2l-0.8,1.6l-7.4,6.8l-1.8-1l7.5-6.8L292,180.9z"/>
	</g>
	<g id="XMLID_102_" class="st5">
		<path id="XMLID_103_" class="st7" d="M305.1,191.4c-0.3,0.7-0.6,1.4-1,2c-0.4,0.6-0.8,1.1-1.3,1.5c-0.5,0.4-1,0.6-1.6,0.7
			s-1.1,0-1.8-0.2c-0.6-0.3-1.1-0.6-1.4-1.1c-0.3-0.5-0.5-1-0.6-1.6c-0.1-0.6-0.1-1.3,0.1-2c0.1-0.7,0.3-1.4,0.6-2.1s0.6-1.4,1-2
			c0.4-0.6,0.8-1.1,1.3-1.5c0.5-0.4,1-0.6,1.6-0.7c0.6-0.1,1.1,0,1.8,0.2c0.6,0.3,1.1,0.6,1.4,1.1c0.3,0.5,0.5,1,0.6,1.6
			c0.1,0.6,0.1,1.3-0.1,2S305.4,190.6,305.1,191.4z M303.3,190.6c0.5-1.2,0.7-2.2,0.7-3c-0.1-0.7-0.3-1.2-0.9-1.4
			c-0.5-0.2-1.1-0.1-1.6,0.4c-0.6,0.5-1.1,1.4-1.6,2.6c-0.5,1.2-0.7,2.2-0.7,3c0.1,0.7,0.3,1.2,0.9,1.4c0.5,0.2,1.1,0.1,1.6-0.4
			C302.3,192.7,302.8,191.9,303.3,190.6z"/>
	</g>
	<g id="XMLID_99_" class="st5">
		<path id="XMLID_100_" class="st7" d="M307.8,194.5c-0.1,0.6-0.1,1.1,0.1,1.5s0.6,0.7,1.1,0.8c0.5,0.2,1,0.1,1.3-0.2
			c0.4-0.3,0.6-0.6,0.7-1.1c0.1-0.3,0.1-0.6,0.1-0.9s-0.1-0.5-0.3-0.6c-0.1-0.2-0.3-0.3-0.5-0.4c-0.2-0.1-0.5-0.2-0.7-0.3l-0.5-0.2
			l0.5-1.7l0.5,0.2c0.5,0.2,0.9,0.2,1.3,0.1c0.3-0.1,0.5-0.4,0.7-0.9c0.1-0.4,0.1-0.7,0-1c-0.1-0.3-0.4-0.5-0.8-0.6
			c-0.4-0.1-0.8-0.1-1.1,0.1c-0.3,0.2-0.5,0.5-0.7,0.9l-1.8-0.5c0.1-0.5,0.3-0.8,0.6-1.2c0.3-0.3,0.6-0.6,1-0.8
			c0.4-0.2,0.8-0.3,1.2-0.3s0.9,0,1.3,0.2c0.4,0.1,0.8,0.3,1.1,0.5c0.3,0.2,0.6,0.5,0.9,0.9c0.2,0.3,0.4,0.7,0.4,1.1
			c0.1,0.4,0,0.9-0.1,1.3c-0.2,0.6-0.4,1-0.7,1.3c-0.3,0.3-0.7,0.4-1.3,0.5l0,0c0.3,0.2,0.5,0.4,0.7,0.6c0.2,0.2,0.3,0.5,0.4,0.8
			c0.1,0.3,0.1,0.6,0.1,0.9c0,0.3-0.1,0.6-0.2,0.9c-0.2,0.5-0.4,1-0.7,1.4c-0.3,0.4-0.7,0.6-1.1,0.8s-0.9,0.3-1.4,0.3
			c-0.5,0-1-0.1-1.5-0.2c-0.5-0.2-1-0.4-1.3-0.7c-0.4-0.3-0.7-0.6-0.9-1.1c-0.2-0.4-0.3-0.8-0.4-1.3c0-0.5,0-1,0.2-1.5L307.8,194.5z
			"/>
	</g>
	<g id="XMLID_96_" class="st5">
		<path id="XMLID_97_" class="st7" d="M315.3,196.4l0.3-1.5l3.7,0.8l-0.3,1.5L315.3,196.4z"/>
	</g>
	<g id="XMLID_92_" class="st5">
		<path id="XMLID_93_" class="st7" d="M322.9,198.8c0,0.4,0.1,0.7,0.3,0.9c0.2,0.2,0.6,0.4,1,0.4c0.3,0,0.6,0,0.8-0.2
			s0.5-0.3,0.7-0.6c0.2-0.3,0.4-0.6,0.5-1c0.1-0.4,0.2-0.9,0.3-1.4l0,0c-0.3,0.5-0.7,0.8-1,0.9s-0.8,0.2-1.3,0.2
			c-0.5-0.1-1-0.2-1.4-0.5c-0.4-0.3-0.7-0.6-0.9-1c-0.2-0.4-0.4-0.8-0.5-1.3c-0.1-0.5-0.1-1,0-1.5c0.1-0.5,0.2-1,0.4-1.5
			c0.2-0.5,0.5-0.9,0.8-1.2s0.7-0.6,1.2-0.7s1-0.2,1.6-0.1c0.7,0.1,1.2,0.3,1.7,0.6c0.5,0.3,0.8,0.7,1.1,1.3
			c0.3,0.5,0.4,1.2,0.5,1.9s0.1,1.5,0,2.4c-0.2,2-0.8,3.4-1.6,4.3c-0.8,0.9-1.9,1.2-3.3,1.1c-0.9-0.1-1.6-0.4-2.1-1
			c-0.5-0.6-0.7-1.3-0.7-2.3L322.9,198.8z M325.2,192.1c-0.3,0-0.5,0-0.7,0.1c-0.2,0.1-0.4,0.2-0.6,0.4c-0.2,0.2-0.3,0.4-0.4,0.6
			s-0.2,0.5-0.2,0.8c0,0.3,0,0.5,0,0.8c0,0.3,0.1,0.5,0.2,0.7c0.1,0.2,0.3,0.4,0.4,0.5c0.2,0.1,0.4,0.2,0.7,0.2c0.3,0,0.5,0,0.7-0.1
			c0.2-0.1,0.4-0.2,0.6-0.4c0.2-0.2,0.3-0.4,0.4-0.6c0.1-0.2,0.2-0.5,0.2-0.8c0-0.3,0-0.5,0-0.8c0-0.3-0.1-0.5-0.2-0.7
			c-0.1-0.2-0.3-0.4-0.5-0.5S325.5,192.2,325.2,192.1z"/>
	</g>
	<g id="XMLID_88_" class="st5">
		<path id="XMLID_89_" class="st7" d="M332.3,199.7c0,0.4,0.2,0.7,0.4,0.9c0.3,0.2,0.6,0.3,1,0.3c0.3,0,0.6-0.1,0.8-0.2
			c0.2-0.2,0.4-0.4,0.6-0.7c0.2-0.3,0.3-0.6,0.4-1.1c0.1-0.4,0.2-0.9,0.2-1.4l0,0c-0.3,0.5-0.6,0.8-0.9,1c-0.4,0.2-0.8,0.3-1.3,0.3
			c-0.5,0-1-0.1-1.4-0.3c-0.4-0.2-0.8-0.5-1-0.9c-0.3-0.4-0.5-0.8-0.6-1.2c-0.1-0.5-0.2-1-0.2-1.5c0-0.5,0.1-1.1,0.3-1.5
			c0.2-0.5,0.4-0.9,0.7-1.2s0.7-0.6,1.1-0.8c0.5-0.2,1-0.3,1.6-0.3c0.7,0,1.2,0.2,1.7,0.4c0.5,0.3,0.9,0.7,1.2,1.2
			c0.3,0.5,0.5,1.1,0.7,1.8c0.1,0.7,0.2,1.5,0.2,2.4c0,2-0.4,3.5-1.1,4.4c-0.7,0.9-1.8,1.4-3.2,1.4c-0.9,0-1.6-0.3-2.1-0.8
			c-0.5-0.5-0.8-1.3-0.9-2.2L332.3,199.7z M334,192.9c-0.3,0-0.5,0.1-0.7,0.2c-0.2,0.1-0.4,0.3-0.5,0.5c-0.1,0.2-0.2,0.4-0.3,0.7
			c-0.1,0.3-0.1,0.5-0.1,0.8s0,0.5,0.1,0.8c0.1,0.3,0.2,0.5,0.3,0.7c0.1,0.2,0.3,0.3,0.5,0.5c0.2,0.1,0.4,0.2,0.7,0.2
			c0.3,0,0.5-0.1,0.7-0.2c0.2-0.1,0.4-0.3,0.5-0.5c0.1-0.2,0.2-0.4,0.3-0.7c0.1-0.3,0.1-0.5,0.1-0.8s0-0.5-0.1-0.8
			c-0.1-0.3-0.2-0.5-0.3-0.7c-0.1-0.2-0.3-0.3-0.5-0.5C334.5,192.9,334.2,192.9,334,192.9z"/>
	</g>
	<g id="XMLID_84_" class="st5">
		<path id="XMLID_85_" class="st7" d="M339.6,198.2l3.6-7.2l2-0.1l0.5,7.1l1.3-0.1l0.1,1.7l-1.3,0.1l0.2,2.4l-1.9,0.1l-0.2-2.4
			l-4.2,0.3L339.6,198.2z M341.6,198.3l2.2-0.1l-0.3-4l0,0L341.6,198.3z"/>
	</g>
	<g id="XMLID_81_" class="st5">
		<path id="XMLID_82_" class="st7" d="M349.2,198.1l-0.3-1.5l3.8-0.6l0.3,1.5L349.2,198.1z"/>
	</g>
	<g id="XMLID_78_" class="st5">
		<path id="XMLID_79_" class="st7" d="M356.8,197c0.2,0.6,0.5,1,0.8,1.2c0.4,0.2,0.8,0.3,1.4,0.2c0.5-0.1,0.9-0.4,1.1-0.8
			c0.2-0.4,0.2-0.8,0.1-1.3c-0.1-0.3-0.2-0.6-0.4-0.8c-0.2-0.2-0.3-0.3-0.5-0.4c-0.2-0.1-0.4-0.1-0.7-0.1c-0.2,0-0.5,0.1-0.8,0.1
			l-0.5,0.1l-0.4-1.8l0.5-0.1c0.5-0.1,0.9-0.3,1.1-0.6c0.2-0.3,0.3-0.6,0.1-1.1c-0.1-0.4-0.3-0.7-0.5-0.9c-0.3-0.2-0.6-0.2-1-0.1
			c-0.4,0.1-0.7,0.3-0.9,0.6c-0.2,0.3-0.2,0.7-0.2,1.1l-1.9,0.5c-0.1-0.5-0.1-0.9-0.1-1.3c0.1-0.4,0.2-0.8,0.5-1.2
			c0.2-0.3,0.5-0.6,0.9-0.9c0.4-0.2,0.8-0.4,1.2-0.5c0.4-0.1,0.8-0.1,1.3-0.1s0.8,0.1,1.2,0.3c0.4,0.2,0.7,0.4,1,0.8
			c0.3,0.3,0.5,0.7,0.6,1.2c0.1,0.6,0.2,1.1,0,1.5c-0.1,0.4-0.4,0.8-0.9,1.1l0,0c0.3,0,0.6,0.1,0.9,0.2c0.3,0.1,0.5,0.3,0.7,0.5
			c0.2,0.2,0.4,0.4,0.5,0.7c0.1,0.3,0.2,0.6,0.3,0.9c0.1,0.5,0.2,1.1,0.1,1.5c-0.1,0.5-0.3,0.9-0.5,1.3c-0.3,0.4-0.6,0.7-1,1
			c-0.4,0.3-0.9,0.5-1.4,0.6c-0.5,0.1-1,0.2-1.5,0.1s-0.9-0.2-1.3-0.5c-0.4-0.2-0.7-0.6-1-1s-0.5-0.9-0.6-1.4L356.8,197z"/>
	</g>
	<g id="XMLID_74_" class="st5">
		<path id="XMLID_75_" class="st7" d="M366.3,195.1c0.2,0.4,0.4,0.6,0.7,0.7c0.3,0.1,0.7,0.1,1.1-0.1c0.3-0.1,0.5-0.3,0.7-0.5
			c0.2-0.2,0.3-0.5,0.3-0.9c0.1-0.3,0.1-0.7,0-1.1c0-0.4-0.1-0.9-0.3-1.4l0,0c-0.1,0.5-0.3,1-0.5,1.3s-0.6,0.6-1.1,0.7
			c-0.5,0.2-1,0.2-1.5,0.2c-0.5-0.1-0.9-0.2-1.3-0.4c-0.4-0.2-0.7-0.6-1-0.9c-0.3-0.4-0.5-0.8-0.7-1.3c-0.2-0.5-0.3-1-0.3-1.5
			c0-0.5,0.1-1,0.2-1.4c0.2-0.4,0.4-0.8,0.8-1.2c0.4-0.3,0.8-0.6,1.4-0.8c0.6-0.2,1.2-0.3,1.8-0.2c0.5,0.1,1.1,0.3,1.5,0.7
			c0.5,0.4,0.9,0.9,1.3,1.5c0.4,0.6,0.7,1.3,1,2.2c0.7,1.9,0.8,3.4,0.5,4.5c-0.4,1.1-1.2,1.9-2.5,2.4c-0.8,0.3-1.6,0.3-2.3,0
			s-1.2-0.9-1.6-1.7L366.3,195.1z M365.5,188.2c-0.3,0.1-0.5,0.2-0.6,0.4c-0.1,0.2-0.3,0.4-0.3,0.6c-0.1,0.2-0.1,0.5-0.1,0.7
			c0,0.3,0.1,0.5,0.2,0.8c0.1,0.3,0.2,0.5,0.4,0.7c0.1,0.2,0.3,0.4,0.5,0.5c0.2,0.1,0.4,0.2,0.6,0.3c0.2,0,0.5,0,0.7-0.1
			c0.3-0.1,0.5-0.2,0.6-0.4c0.2-0.2,0.3-0.4,0.3-0.6s0.1-0.5,0.1-0.7c0-0.3-0.1-0.5-0.2-0.8s-0.2-0.5-0.4-0.7
			c-0.1-0.2-0.3-0.4-0.5-0.5c-0.2-0.1-0.4-0.2-0.6-0.3C366,188.1,365.8,188.1,365.5,188.2z"/>
	</g>
	<g id="XMLID_71_" class="st5">
		<path id="XMLID_72_" class="st7" d="M374.6,191.2c0.3,0.5,0.6,0.9,1.1,1c0.4,0.2,0.9,0.1,1.4-0.1c0.5-0.2,0.8-0.6,0.9-1
			c0.1-0.4,0-0.9-0.2-1.3c-0.1-0.3-0.3-0.6-0.5-0.7c-0.2-0.2-0.4-0.3-0.6-0.3s-0.4,0-0.7,0c-0.2,0.1-0.5,0.2-0.8,0.3l-0.5,0.2
			l-0.8-1.6l0.5-0.2c0.5-0.2,0.8-0.5,1-0.8c0.2-0.3,0.1-0.7-0.1-1.1c-0.2-0.4-0.4-0.6-0.7-0.7c-0.3-0.1-0.7-0.1-1,0.1
			c-0.4,0.2-0.7,0.5-0.8,0.8c-0.1,0.3-0.1,0.7,0,1.1l-1.7,0.8c-0.2-0.4-0.3-0.9-0.3-1.3c0-0.4,0.1-0.8,0.2-1.2
			c0.2-0.4,0.4-0.7,0.7-1c0.3-0.3,0.7-0.6,1.1-0.8c0.4-0.2,0.8-0.3,1.2-0.3c0.4,0,0.8,0,1.2,0.1c0.4,0.1,0.8,0.3,1.1,0.6
			s0.6,0.6,0.8,1.1c0.3,0.6,0.4,1,0.3,1.4c0,0.4-0.3,0.8-0.7,1.2l0,0c0.3-0.1,0.6-0.1,0.9,0c0.3,0.1,0.5,0.2,0.8,0.3
			c0.2,0.2,0.4,0.4,0.6,0.6c0.2,0.2,0.4,0.5,0.5,0.8c0.2,0.5,0.4,1,0.4,1.5s-0.1,0.9-0.3,1.3c-0.2,0.4-0.5,0.8-0.8,1.1
			c-0.4,0.3-0.8,0.6-1.3,0.8c-0.5,0.2-1,0.4-1.5,0.4c-0.5,0-0.9,0-1.3-0.2s-0.8-0.4-1.1-0.7c-0.3-0.3-0.6-0.7-0.9-1.2L374.6,191.2z"
			/>
	</g>
	<g id="XMLID_68_" class="st5">
		<path id="XMLID_69_" class="st7" d="M379.5,182.1l-0.9-1.5l3.2-1.9l5.7,9.7l-1.7,1l-4.9-8.2L379.5,182.1z"/>
	</g>
	<g id="XMLID_42_" class="st5">
		<path id="XMLID_43_" d="M293.2,150.8H293l-1.7-4.7l-1.5,4.7h-0.2l-1.4-4.4c-0.1-0.4-0.2-0.7-0.3-0.8c-0.1-0.1-0.1-0.2-0.2-0.3
			c-0.1-0.1-0.2-0.1-0.4-0.1V145h2.1v0.2c-0.3,0-0.4,0.1-0.5,0.1c-0.1,0.1-0.1,0.1-0.1,0.2c0,0.1,0.1,0.3,0.2,0.7l1,3.3l1.5-4.5h0.2
			l1.7,4.5l0.9-3c0.1-0.4,0.2-0.7,0.2-0.8c0-0.4-0.2-0.6-0.6-0.6V145h1.5v0.2c-0.2,0-0.4,0.1-0.5,0.3c-0.1,0.2-0.3,0.5-0.4,1.1
			L293.2,150.8z"/>
		<path id="XMLID_45_" d="M298.7,148.4h-2.4c0,0.2,0,0.3,0,0.4c0,0.6,0.1,1.1,0.3,1.4c0.2,0.3,0.5,0.5,0.8,0.5
			c0.5,0,0.9-0.2,1.1-0.7h0.2c-0.1,0.3-0.3,0.5-0.5,0.7c-0.3,0.2-0.6,0.2-0.9,0.2c-0.3,0-0.6-0.1-0.8-0.2c-0.3-0.1-0.5-0.4-0.6-0.6
			c-0.2-0.3-0.2-0.6-0.2-1c0-0.5,0.2-1,0.5-1.3s0.7-0.5,1.2-0.5c0.4,0,0.8,0.1,1,0.4S298.7,148.1,298.7,148.4z M298,148.2
			c0-0.1,0-0.1,0-0.2c0-0.2-0.1-0.4-0.2-0.6c-0.1-0.1-0.3-0.2-0.5-0.2c-0.5,0-0.8,0.3-0.9,0.9H298z"/>
		<path id="XMLID_48_" d="M305.6,147.6v-1.3c0-0.4,0-0.6,0-0.7s0-0.2-0.1-0.2s-0.2-0.1-0.4-0.1H305v-0.2c0.3,0,0.7-0.1,1.1-0.2h0.1
			v4.6c0,0.4,0,0.6,0,0.7s0.1,0.2,0.1,0.2c0.1,0,0.2,0.1,0.4,0.1v0.2c-0.4,0-0.8,0-1.1,0.1c0-0.1-0.1-0.3-0.1-0.6
			c-0.2,0.2-0.4,0.4-0.6,0.5c-0.2,0.1-0.4,0.2-0.7,0.2c-0.4,0-0.8-0.2-1.1-0.5c-0.3-0.4-0.5-0.8-0.5-1.3c0-0.6,0.2-1,0.5-1.3
			s0.7-0.5,1.2-0.5c0.2,0,0.4,0,0.7,0.1C305.2,147.3,305.4,147.4,305.6,147.6z M305.6,147.9c-0.2-0.2-0.4-0.3-0.6-0.4
			c-0.2-0.1-0.4-0.1-0.6-0.1c-0.3,0-0.6,0.1-0.8,0.4c-0.2,0.2-0.3,0.6-0.3,1.2c0,0.6,0.1,1,0.3,1.2c0.2,0.3,0.5,0.4,0.8,0.4
			c0.2,0,0.4-0.1,0.6-0.2c0.2-0.1,0.3-0.2,0.5-0.5V147.9z"/>
		<path id="XMLID_51_" d="M308.8,148c0.1-0.2,0.2-0.5,0.5-0.6s0.4-0.3,0.6-0.3c0.2,0,0.3,0.1,0.4,0.2c0.1,0.1,0.2,0.2,0.2,0.4
			c0,0.1,0,0.2-0.1,0.2c-0.1,0.1-0.1,0.1-0.2,0.1c-0.1,0-0.2-0.1-0.3-0.3c0-0.1-0.1-0.2-0.2-0.2c-0.1,0-0.3,0.1-0.4,0.2
			c-0.2,0.2-0.3,0.3-0.3,0.5c0,0.2-0.1,0.4-0.1,0.7v0.6c0,0.4,0,0.6,0,0.7c0,0.1,0,0.2,0.1,0.2c0.1,0,0.2,0.1,0.4,0.1h0.1v0.2h-1.8
			v-0.2h0.1c0.2,0,0.3,0,0.4-0.1s0.1-0.1,0.1-0.2c0-0.1,0-0.3,0-0.7v-1c0-0.4,0-0.6,0-0.7c0-0.1,0-0.2-0.1-0.2
			c-0.1-0.1-0.2-0.1-0.4-0.1h-0.1v-0.2c0.3,0,0.6-0.1,1-0.2C308.8,147.3,308.8,147.6,308.8,148z"/>
		<path id="XMLID_53_" d="M312.5,147.1v2.4c0,0.4,0,0.6,0,0.7c0,0.1,0.1,0.2,0.1,0.2c0.1,0,0.2,0.1,0.4,0.1h0.1v0.2h-1.8v-0.2h0.1
			c0.2,0,0.3,0,0.4-0.1s0.1-0.1,0.1-0.2c0-0.1,0-0.3,0-0.7v-1c0-0.4,0-0.6-0.1-0.7c0-0.1-0.1-0.1-0.2-0.2c-0.1,0-0.2,0-0.3,0h-0.1
			v-0.2C311.7,147.3,312.1,147.2,312.5,147.1L312.5,147.1z M311.7,145.4c0-0.1,0-0.2,0.1-0.3c0.1-0.1,0.2-0.1,0.3-0.1
			c0.1,0,0.2,0,0.3,0.1c0.1,0.1,0.1,0.2,0.1,0.3c0,0.1,0,0.2-0.1,0.3c-0.1,0.1-0.2,0.1-0.3,0.1c-0.1,0-0.2,0-0.3-0.1
			C311.7,145.6,311.7,145.5,311.7,145.4z"/>
		<path id="XMLID_56_" d="M315.9,150.8h-0.2l-1.2-2.7c-0.1-0.3-0.2-0.4-0.3-0.5c-0.1-0.1-0.2-0.1-0.3-0.1v-0.2h1.5v0.2
			c-0.2,0-0.3,0-0.3,0c-0.1,0-0.1,0.1-0.1,0.2c0,0.1,0.1,0.2,0.2,0.4l0.9,2.1l0.8-1.8c0.1-0.3,0.2-0.5,0.2-0.6
			c0-0.2-0.1-0.3-0.4-0.3v-0.2h1.2v0.2c-0.1,0-0.3,0.1-0.4,0.2c-0.1,0.1-0.2,0.4-0.4,0.7L315.9,150.8z"/>
		<path id="XMLID_58_" d="M321.6,148.4h-2.4c0,0.2,0,0.3,0,0.4c0,0.6,0.1,1.1,0.3,1.4c0.2,0.3,0.5,0.5,0.8,0.5
			c0.5,0,0.9-0.2,1.1-0.7h0.2c-0.1,0.3-0.3,0.5-0.5,0.7c-0.3,0.2-0.6,0.2-0.9,0.2c-0.3,0-0.6-0.1-0.8-0.2c-0.3-0.1-0.5-0.4-0.6-0.6
			c-0.2-0.3-0.2-0.6-0.2-1c0-0.5,0.2-1,0.5-1.3s0.7-0.5,1.2-0.5c0.4,0,0.8,0.1,1,0.4S321.6,148.1,321.6,148.4z M320.9,148.2
			c0-0.1,0-0.1,0-0.2c0-0.2-0.1-0.4-0.2-0.6c-0.1-0.1-0.3-0.2-0.5-0.2c-0.5,0-0.8,0.3-0.9,0.9H320.9z"/>
		<path id="XMLID_61_" d="M327.5,150l0.8-1.9c0.1-0.3,0.2-0.4,0.2-0.5c0-0.1-0.2-0.2-0.5-0.2v-0.2h1.2v0.2c-0.2,0-0.3,0.1-0.4,0.1
			c-0.1,0.1-0.2,0.3-0.3,0.6l-1.5,3.7c-0.1,0.4-0.3,0.6-0.4,0.7c-0.1,0.1-0.2,0.2-0.4,0.2c-0.2,0-0.3-0.1-0.3-0.2
			c0-0.2,0.1-0.3,0.4-0.5c0.2-0.1,0.3-0.1,0.3-0.2c0.1-0.1,0.1-0.1,0.2-0.3l0.3-0.8l-1.3-2.8c-0.1-0.2-0.2-0.4-0.3-0.5
			c-0.1-0.1-0.2-0.1-0.4-0.1v-0.2h1.6v0.2c-0.3,0-0.4,0.1-0.4,0.2c0,0,0.1,0.2,0.2,0.4L327.5,150z"/>
		<path id="XMLID_63_" d="M329.8,148.9c0-0.5,0.2-1,0.5-1.3c0.4-0.4,0.8-0.5,1.3-0.5c0.5,0,0.9,0.2,1.3,0.5s0.5,0.8,0.5,1.3
			c0,0.6-0.2,1-0.5,1.4c-0.4,0.3-0.8,0.5-1.3,0.5c-0.5,0-0.9-0.2-1.3-0.5S329.8,149.5,329.8,148.9z M330.5,149c0,0.6,0.1,1,0.3,1.3
			s0.5,0.4,0.8,0.4c0.4,0,0.6-0.1,0.8-0.4s0.3-0.7,0.3-1.3c0-0.6-0.1-1-0.3-1.3c-0.2-0.3-0.5-0.4-0.8-0.4c-0.4,0-0.6,0.1-0.8,0.4
			C330.6,147.9,330.5,148.4,330.5,149z"/>
		<path id="XMLID_66_" d="M338.1,147.2v2.2c0,0.4,0,0.6,0,0.7s0.1,0.2,0.1,0.2c0.1,0,0.2,0.1,0.4,0.1v0.2c-0.4,0-0.7,0-0.9,0.1h-0.1
			c-0.1-0.2-0.1-0.4-0.1-0.8c-0.2,0.3-0.4,0.5-0.6,0.6c-0.2,0.1-0.5,0.2-0.7,0.2c-0.2,0-0.4-0.1-0.6-0.2c-0.2-0.1-0.3-0.2-0.4-0.4
			s-0.1-0.4-0.1-0.7v-1.2c0-0.4,0-0.6,0-0.7c0-0.1-0.1-0.2-0.1-0.2c-0.1,0-0.2-0.1-0.4-0.1v-0.2h1.2v2.4c0,0.2,0,0.4,0,0.5
			c0,0.1,0.1,0.2,0.2,0.3c0.1,0.1,0.2,0.1,0.4,0.1c0.2,0,0.4-0.1,0.6-0.2c0.2-0.1,0.3-0.3,0.4-0.4c0.1-0.2,0.1-0.4,0.1-0.7v-0.8
			c0-0.4,0-0.6,0-0.7c0-0.1,0-0.2-0.1-0.2c-0.1-0.1-0.2-0.1-0.4-0.1h-0.1v-0.2H338.1z"/>
	</g>
	<g id="XMLID_33_" class="st5">
		<path id="XMLID_34_" d="M345.1,147.2h0.5l-0.7,2.4c-0.1,0.4-0.2,0.6-0.2,0.6c0,0.1,0,0.1,0,0.1s0.1,0,0.1,0c0.2,0,0.4-0.2,0.7-0.7
			h0.2c-0.1,0.2-0.3,0.5-0.5,0.7c-0.2,0.2-0.4,0.3-0.6,0.3c-0.1,0-0.2,0-0.3-0.1s-0.1-0.2-0.1-0.4c0-0.1,0-0.3,0.1-0.4
			c-0.1,0.2-0.3,0.4-0.5,0.6c-0.2,0.2-0.5,0.3-0.7,0.3c-0.2,0-0.4-0.1-0.5-0.2c-0.1-0.2-0.2-0.4-0.2-0.7c0-0.4,0.1-0.8,0.3-1.2
			c0.2-0.4,0.5-0.8,0.8-1.1c0.3-0.3,0.6-0.4,0.9-0.4c0.1,0,0.3,0,0.3,0.1c0.1,0.1,0.1,0.2,0.2,0.3L345.1,147.2z M342.9,150
			c0,0.2,0,0.3,0.1,0.4s0.1,0.1,0.3,0.1c0.2,0,0.4-0.1,0.7-0.4c0.3-0.3,0.5-0.7,0.7-1.2c0.2-0.6,0.3-0.9,0.3-1.1
			c0-0.1,0-0.2-0.1-0.3s-0.1-0.1-0.3-0.1c-0.3,0-0.7,0.3-1.1,1S342.9,149.6,342.9,150z"/>
		<path id="XMLID_37_" d="M349.6,149.9h0.2c-0.2,0.3-0.3,0.5-0.5,0.7s-0.4,0.2-0.5,0.2c-0.1,0-0.2,0-0.3-0.1s-0.1-0.2-0.1-0.3
			c0-0.1,0.1-0.4,0.2-0.7l0.4-1.3c0.1-0.3,0.2-0.6,0.2-0.7c0-0.1,0-0.2-0.1-0.2c0,0-0.1-0.1-0.2-0.1c-0.2,0-0.5,0.2-0.8,0.7
			c-0.3,0.5-0.6,1.1-0.9,2l-0.2,0.7h-0.5l0.7-2.4c0.1-0.4,0.2-0.7,0.2-0.8c0,0,0-0.1,0-0.1s0,0-0.1,0c-0.2,0-0.4,0.2-0.6,0.6h-0.2
			c0.3-0.6,0.7-0.9,1-0.9c0.1,0,0.2,0,0.2,0.1c0.1,0.1,0.1,0.2,0.1,0.3c0,0.2-0.1,0.6-0.3,1.1c0.5-1,1-1.5,1.5-1.5
			c0.2,0,0.3,0.1,0.4,0.2c0.1,0.1,0.2,0.2,0.2,0.4c0,0.1-0.1,0.4-0.2,0.7l-0.4,1.3c-0.1,0.4-0.2,0.6-0.2,0.6c0,0.1,0,0.1,0,0.1
			s0.1,0,0.1,0c0.1,0,0.2-0.1,0.3-0.2S349.5,150.1,349.6,149.9z"/>
		<path id="XMLID_39_" d="M353.8,149.9h0.2c-0.1,0.2-0.3,0.4-0.5,0.6s-0.4,0.3-0.5,0.3c-0.1,0-0.3,0-0.3-0.1s-0.1-0.2-0.1-0.4
			c0-0.1,0-0.2,0-0.2c-0.4,0.5-0.8,0.8-1.1,0.8c-0.2,0-0.4-0.1-0.5-0.2c-0.1-0.2-0.2-0.4-0.2-0.7c0-0.4,0.1-0.8,0.3-1.3
			s0.5-0.8,0.8-1.1c0.3-0.3,0.6-0.4,0.9-0.4c0.1,0,0.2,0,0.3,0.1c0.1,0.1,0.2,0.1,0.2,0.3l0.5-1.7c0.1-0.2,0.1-0.3,0.1-0.4
			c0-0.1,0-0.1-0.1-0.1c0,0-0.1,0-0.3,0h-0.1l0.1-0.2c0.4,0,0.7,0,1-0.2h0.1l-1.3,4.4c-0.2,0.5-0.2,0.9-0.2,1c0,0.1,0,0.1,0,0.2
			c0,0,0.1,0.1,0.1,0.1c0.1,0,0.2,0,0.3-0.1S353.7,150.1,353.8,149.9z M351.3,150.1c0,0.2,0,0.3,0.1,0.4c0.1,0.1,0.1,0.1,0.2,0.1
			c0.2,0,0.4-0.1,0.6-0.4c0.2-0.3,0.5-0.7,0.7-1.3c0.2-0.6,0.3-1,0.3-1.1c0-0.1,0-0.2-0.1-0.3c-0.1-0.1-0.2-0.1-0.3-0.1
			c-0.2,0-0.4,0.1-0.6,0.3c-0.2,0.2-0.4,0.6-0.7,1.1C351.4,149.3,351.3,149.7,351.3,150.1z"/>
	</g>
	<g id="XMLID_14_" class="st5">
		<path id="XMLID_15_" d="M359.7,150l0.8-1.9c0.1-0.3,0.2-0.4,0.2-0.5c0-0.1-0.2-0.2-0.5-0.2v-0.2h1.2v0.2c-0.2,0-0.3,0.1-0.4,0.1
			c-0.1,0.1-0.2,0.3-0.3,0.6l-1.5,3.7c-0.1,0.4-0.3,0.6-0.4,0.7c-0.1,0.1-0.2,0.2-0.4,0.2c-0.2,0-0.3-0.1-0.3-0.2
			c0-0.2,0.1-0.3,0.4-0.5c0.2-0.1,0.3-0.1,0.3-0.2c0.1-0.1,0.1-0.1,0.2-0.3l0.3-0.8l-1.3-2.8c-0.1-0.2-0.2-0.4-0.3-0.5
			c-0.1-0.1-0.2-0.1-0.4-0.1v-0.2h1.6v0.2c-0.3,0-0.4,0.1-0.4,0.2c0,0,0.1,0.2,0.2,0.4L359.7,150z"/>
		<path id="XMLID_17_" d="M362.1,148.9c0-0.5,0.2-1,0.5-1.3c0.4-0.4,0.8-0.5,1.3-0.5c0.5,0,0.9,0.2,1.3,0.5s0.5,0.8,0.5,1.3
			c0,0.6-0.2,1-0.5,1.4c-0.4,0.3-0.8,0.5-1.3,0.5c-0.5,0-0.9-0.2-1.3-0.5S362.1,149.5,362.1,148.9z M362.8,149c0,0.6,0.1,1,0.3,1.3
			s0.5,0.4,0.8,0.4c0.4,0,0.6-0.1,0.8-0.4s0.3-0.7,0.3-1.3c0-0.6-0.1-1-0.3-1.3c-0.2-0.3-0.5-0.4-0.8-0.4c-0.4,0-0.6,0.1-0.8,0.4
			C362.9,147.9,362.8,148.4,362.8,149z"/>
		<path id="XMLID_20_" d="M370.3,147.2v2.2c0,0.4,0,0.6,0,0.7s0.1,0.2,0.1,0.2c0.1,0,0.2,0.1,0.4,0.1v0.2c-0.4,0-0.7,0-0.9,0.1h-0.1
			c-0.1-0.2-0.1-0.4-0.1-0.8c-0.2,0.3-0.4,0.5-0.6,0.6c-0.2,0.1-0.5,0.2-0.7,0.2c-0.2,0-0.4-0.1-0.6-0.2c-0.2-0.1-0.3-0.2-0.4-0.4
			s-0.1-0.4-0.1-0.7v-1.2c0-0.4,0-0.6,0-0.7c0-0.1-0.1-0.2-0.1-0.2c-0.1,0-0.2-0.1-0.4-0.1v-0.2h1.2v2.4c0,0.2,0,0.4,0,0.5
			c0,0.1,0.1,0.2,0.2,0.3c0.1,0.1,0.2,0.1,0.4,0.1c0.2,0,0.4-0.1,0.6-0.2c0.2-0.1,0.3-0.3,0.4-0.4c0.1-0.2,0.1-0.4,0.1-0.7v-0.8
			c0-0.4,0-0.6,0-0.7c0-0.1,0-0.2-0.1-0.2c-0.1-0.1-0.2-0.1-0.4-0.1h-0.1v-0.2H370.3z"/>
		<path id="XMLID_22_" d="M373.1,148c0.1-0.2,0.2-0.5,0.5-0.6s0.4-0.3,0.6-0.3c0.2,0,0.3,0.1,0.4,0.2c0.1,0.1,0.2,0.2,0.2,0.4
			c0,0.1,0,0.2-0.1,0.2c-0.1,0.1-0.1,0.1-0.2,0.1c-0.1,0-0.2-0.1-0.3-0.3c0-0.1-0.1-0.2-0.2-0.2c-0.1,0-0.3,0.1-0.4,0.2
			c-0.2,0.2-0.3,0.3-0.3,0.5c0,0.2-0.1,0.4-0.1,0.7v0.6c0,0.4,0,0.6,0,0.7c0,0.1,0,0.2,0.1,0.2c0.1,0,0.2,0.1,0.4,0.1h0.1v0.2h-1.8
			v-0.2h0.1c0.2,0,0.3,0,0.4-0.1s0.1-0.1,0.1-0.2c0-0.1,0-0.3,0-0.7v-1c0-0.4,0-0.6,0-0.7c0-0.1,0-0.2-0.1-0.2
			c-0.1-0.1-0.2-0.1-0.4-0.1h-0.1v-0.2c0.3,0,0.6-0.1,1-0.2C373,147.3,373.1,147.6,373.1,148z"/>
		<path id="XMLID_24_" d="M381.4,149.8h0.2c-0.2,0.6-0.7,1-1.4,1c-0.5,0-0.9-0.2-1.2-0.5c-0.3-0.3-0.5-0.8-0.5-1.3
			c0-0.6,0.2-1,0.5-1.4s0.8-0.5,1.3-0.5c0.3,0,0.6,0.1,0.8,0.2c0.2,0.1,0.4,0.3,0.4,0.5c0,0.1,0,0.1-0.1,0.2c0,0.1-0.1,0.1-0.2,0.1
			c-0.2,0-0.3-0.1-0.3-0.3c0-0.2-0.1-0.3-0.2-0.3c-0.1-0.1-0.2-0.1-0.4-0.1c-0.4,0-0.7,0.1-0.8,0.4c-0.2,0.3-0.3,0.6-0.3,1.2
			c0,0.5,0.1,1,0.3,1.3c0.2,0.3,0.5,0.5,0.9,0.5C380.9,150.6,381.2,150.3,381.4,149.8z"/>
		<path id="XMLID_26_" d="M386.1,150h0.2c0,0.5-0.3,0.7-0.7,0.7c-0.2,0-0.3-0.1-0.4-0.2c-0.1-0.1-0.2-0.2-0.2-0.4
			c-0.3,0.2-0.5,0.3-0.8,0.4c-0.2,0.1-0.4,0.2-0.6,0.2c-0.2,0-0.4-0.1-0.6-0.2c-0.2-0.1-0.3-0.3-0.3-0.5c0-0.3,0.1-0.5,0.4-0.8
			c0.3-0.2,0.7-0.4,1.2-0.6l0.6-0.3v-0.2c0-0.2,0-0.4,0-0.5c0-0.1-0.1-0.2-0.2-0.3c-0.1-0.1-0.3-0.1-0.5-0.1c-0.4,0-0.6,0.1-0.7,0.4
			c0,0.3-0.2,0.4-0.4,0.4c-0.2,0-0.3-0.1-0.3-0.2c0-0.2,0.1-0.3,0.3-0.5c0.2-0.2,0.6-0.3,1.1-0.3c0.4,0,0.6,0.1,0.8,0.2
			c0.2,0.1,0.3,0.2,0.4,0.4c0.1,0.1,0.1,0.4,0.1,0.7v1.4c0,0.3,0,0.5,0,0.6s0.1,0.1,0.2,0.1C385.9,150.4,386.1,150.3,386.1,150z
			 M384.9,148.6l-0.5,0.2c-0.7,0.3-1.1,0.7-1.1,1.1c0,0.2,0,0.3,0.1,0.4c0.1,0.1,0.2,0.2,0.4,0.2c0.1,0,0.3,0,0.5-0.1
			c0.2-0.1,0.4-0.2,0.6-0.4V148.6z"/>
		<path id="XMLID_29_" d="M388.4,148c0.1-0.2,0.2-0.5,0.5-0.6s0.4-0.3,0.6-0.3c0.2,0,0.3,0.1,0.4,0.2c0.1,0.1,0.2,0.2,0.2,0.4
			c0,0.1,0,0.2-0.1,0.2c-0.1,0.1-0.1,0.1-0.2,0.1c-0.1,0-0.2-0.1-0.3-0.3c0-0.1-0.1-0.2-0.2-0.2c-0.1,0-0.3,0.1-0.4,0.2
			c-0.2,0.2-0.3,0.3-0.3,0.5c0,0.2-0.1,0.4-0.1,0.7v0.6c0,0.4,0,0.6,0,0.7c0,0.1,0,0.2,0.1,0.2c0.1,0,0.2,0.1,0.4,0.1h0.1v0.2h-1.8
			v-0.2h0.1c0.2,0,0.3,0,0.4-0.1s0.1-0.1,0.1-0.2c0-0.1,0-0.3,0-0.7v-1c0-0.4,0-0.6,0-0.7c0-0.1,0-0.2-0.1-0.2
			c-0.1-0.1-0.2-0.1-0.4-0.1h-0.1v-0.2c0.3,0,0.6-0.1,1-0.2C388.3,147.3,388.4,147.6,388.4,148z"/>
		<path id="XMLID_31_" d="M390.4,150.4c0-0.1,0-0.2,0.1-0.3c0.1-0.1,0.2-0.1,0.3-0.1c0.1,0,0.2,0,0.3,0.1s0.1,0.2,0.1,0.3
			c0,0.1,0,0.2-0.1,0.3c-0.1,0.1-0.2,0.1-0.3,0.1c-0.1,0-0.2,0-0.3-0.1C390.4,150.6,390.4,150.5,390.4,150.4z"/>
	</g>
	<path class="st8" d="M343.7,167.6l-4.2,1.8c-0.5-0.9-1.5-1.5-2.5-1.5s-2,0.6-2.5,1.5l-4.2-1.8c1.2-2.6,3.8-4.4,6.8-4.4
		C339.9,163.1,342.5,165,343.7,167.6 M329.4,171c0-0.5,0-0.9,0.1-1.3l4.5,1.9c0.2,1.1,0.9,1.9,1.9,2.3v4.8
		C332.3,178.2,329.4,174.9,329.4,171 M338,178.7v-4.8c1-0.4,1.7-1.2,1.9-2.3l4.5-1.9c0.1,0.4,0.1,0.9,0.1,1.3
		C344.4,174.9,341.6,178.2,338,178.7 M347.1,171c0-5.9-4.6-10.6-10.2-10.6c-5.6,0-10.2,4.8-10.2,10.6c0,5.9,4.6,10.6,10.2,10.6
		C342.6,181.6,347.1,176.8,347.1,171"/>
</g>
<g id="XMLID_237_">
</g>
<g id="XMLID_238_">
</g>
<g id="XMLID_239_">
</g>
<g id="XMLID_240_">
</g>
<g id="XMLID_241_">
</g>
<g id="XMLID_242_">
</g>
</svg>
