<?xml version="1.0" encoding="utf-8"?>
<!-- Generator: Adobe Illustrator 19.0.0, SVG Export Plug-In . SVG Version: 6.00 Build 0)  -->
<svg version="1.1" id="Layer_1" xmlns="http://www.w3.org/2000/svg" xmlns:xlink="http://www.w3.org/1999/xlink" x="0px" y="0px"
	 viewBox="0 0 228.2 330.1" style="enable-background:new 0 0 228.2 330.1;" xml:space="preserve">
<style type="text/css">
	.st0{fill:none;stroke:#FFFFFF;stroke-width:4;stroke-miterlimit:10;}
	.st1{clip-path:url(#SVGID_2_);fill:#D7D5D3;}
	.st2{clip-path:url(#SVGID_2_);fill:#E9E8E7;}
	.st3{clip-path:url(#SVGID_2_);fill:#FFFFFF;}
	.st4{clip-path:url(#SVGID_2_);fill:#FCFDFB;}
	.st5{clip-path:url(#SVGID_2_);fill:#F69D1F;}
	.st6{clip-path:url(#SVGID_2_);fill:#342A4F;}
	.st7{clip-path:url(#SVGID_2_);fill:#D47428;}
	.st8{clip-path:url(#SVGID_2_);fill:#EC6424;}
	.st9{clip-path:url(#SVGID_2_);fill:#E76824;}
	.st10{clip-path:url(#SVGID_2_);fill:#151032;}
	.st11{clip-path:url(#SVGID_2_);fill:#A85E3B;}
	.st12{clip-path:url(#SVGID_2_);fill:#D86727;}
	.st13{clip-path:url(#SVGID_2_);fill:#D3872A;}
	.st14{clip-path:url(#SVGID_2_);fill:#EC6F23;}
</style>
<polyline class="st0" points="74,176.6 102.7,7.9 154.2,154 "/>
<g>
	<defs>
		<rect id="SVGID_1_" y="0" width="228.2" height="330.1"/>
	</defs>
	<clipPath id="SVGID_2_">
		<use xlink:href="#SVGID_1_"  style="overflow:visible;"/>
	</clipPath>
	<path class="st1" d="M2.8,276.9c0,0,3,9.6,12.5,17.7c9.5,8,37.6,33,37.6,33s6.7,5.7,16.2,0c9.4-5.7,54.9-26.6,54.9-26.6
		s7.4-0.8,7.1-11.1c-0.3-10.4-2.3-9.6-2.3-9.6s-25.8-32.2-47-33.5C60.6,245.4,2.8,276.9,2.8,276.9"/>
	<path class="st2" d="M0,226.9c0,0,0.7,37,1.2,44.5S7.6,282,7.6,282s69.5-31.5,75.8-32.8c6.3-1.3,2.5-3.7,2.9-7.5
		c0.4-3.8-3.2-33.4-3.2-40.2c0-6.8,4.2-21.7-1.3-25.4c-5.5-3.7-12.7,0.4-12.7,0.4S7.4,210.7,3.9,215C0.3,219.2-0.1,221.9,0,226.9"/>
	<path class="st3" d="M99.4,193.4c0,0-16.7-17.5-18-18.2c-1.2-0.7-2.7-0.5-2.7-0.5l3.1,74.9c0,0,47.4,49.2,49.1,44.8
		c1.7-4.4,0.1-27.3,0.1-27.3L99.4,193.4z"/>
	<path class="st3" d="M205,206.8c0-3.1-5.9-12.7-8.9-13.7c-1.8-0.6-4.7-1.2-4.1,2.1c1.1,5.9,4.2,10.9,9.3,14.2
		C203.6,210.8,205.2,209.9,205,206.8 M148.8,151.9c0.4-0.9,0.8-1.8,1.2-2.7c0.6-0.2,1.2-0.5,1.8-0.7c2.9,0,2-0.7,4.9-0.7
		c0.6,0.5,2.5,0.3,5.6,2.3c3.1,2,34.9,30.9,41.4,37.8c5.3,5.5,14.6,12.8,16.6,20.6c0.4,1.5,1.4,9,1.8,10.9c1.2,4.8,2,9.7,3,14.5
		c1.1,5.2,2.3,10.2,2.6,15.6c0.4,5.9,1.3,8.6-3.8,12.3c-0.9,0.6-7.4,6.4-8.3,5.2c-0.1-0.8,2.5-8.8,1.7-9.2c-0.4-2.8-0.1,2.1-3.2,0.7
		c-3.6-1.6-6.5,1.3-9.3-1.2c-2.6-2.4-1.1-7.2-4.2-8.3c-6.3-2.1-8.2-4.6-13.1-8.9c-2.3-2.1-1.9-4.6-4.2-5.6c-5.6-2.3-8.4,0.8-10.8-4
		c-0.7,0.5-4.7-4.6-5.6-4.3c-1.3,0.6-9.6,2.8-10.6,1c-1.1-2-6.1-13.9-4.3-14.4c3.2-1,5.5-7.9,4.5-9.8c-1.3-2.6,5.9-8.6,6.8-11
		c2-5.3-0.8-7.9-2.4-12c-1.8-4.6,0-10,0-16c0.1-0.3,0.2-0.6,0.4-0.9c0.9-1.9,0.1-2.2-0.1-5.6c-0.1-2.2-2.3-4.2-3.8-6.1
		c-0.7-0.8-2.2-0.5-3,0.6C152.8,151.9,150.8,151.9,148.8,151.9"/>
	<path class="st1" d="M95.2,253.6c0,0-1,4.1,16,18.3c17,14.2,34.5,31.4,41.3,35.1c6.8,3.7,11.2,4.4,19.1-1.9
		c7.9-6.3,51.5-35.4,51.5-35.4s11.2-10.6-2.1-19.7c-15.1-10.2-44.8-35-44.8-35s-12.7-10.8-20-4.9C148.9,216,95.2,253.6,95.2,253.6"
		/>
	<path class="st4" d="M145.8,132.2c-0.2-0.4-0.5-0.8-0.7-1.2C145.3,131.4,145.5,131.8,145.8,132.2"/>
	<path class="st4" d="M227.7,245.5c-0.2-0.5-0.3-0.9-0.5-1.4C227.4,244.5,227.6,245,227.7,245.5"/>
	<path class="st4" d="M180.8,164.9c-0.4-0.3-0.7-0.6-1.1-0.9C180.1,164.3,180.5,164.6,180.8,164.9"/>
	<path class="st5" d="M118.8,178.8c-0.3,1.1-0.8,2.1-0.9,3.3c-0.2,2.2,0.2,4.8-2.6,5.7c-2.8,0.9-4-1.4-5.5-3
		C112,181.8,116,181.2,118.8,178.8"/>
	<path class="st6" d="M205,206.8c0.1,3.1-1.5,4.1-3.7,2.6c-5.1-3.3-8.2-8.3-9.3-14.2c-0.6-3.3,2.3-2.7,4.1-2.1
		C199.1,194.1,205.1,203.7,205,206.8"/>
	<path class="st6" d="M29,226c1.4-2.5,4.1-5,5.7-5.6c1.8-0.6,4.6,0.4,4.9,2.5c0.2,1.5-0.6,3.1-1.4,4.4c-1.6,2.5-5.7,6.4-8.8,4
		C27.7,230,27.9,228,29,226"/>
	<path class="st6" d="M53.6,206.6c-2.6,2.1-6.3,3.9-8,0.5c-1.4-2.8,0.5-5.2,2.7-6.8c2.1-1.7,4.9-3.4,7.6-1.9
		c2.6,1.5,1.4,4.5-0.2,6.2C55.2,205.2,54.5,205.9,53.6,206.6"/>
	<path class="st6" d="M58.3,227.4c-0.4,1.3-1.5,2.5-2.4,3.7c-1.7,2.2-7.5,6-8.6,1.2c-1-4.2,1.9-6.7,5.1-8.6c1.9-1.1,4.5-1.3,5.6,1
		C58.6,225.6,58.6,226.5,58.3,227.4"/>
	<path class="st6" d="M11,225c1-1.3,2.3-2.3,3.7-3.1c1.8-1.1,3.2-1.2,4.8,0.3c0.6,0.5,0.9,1.2,1,2c0.1,2.1-1.8,4.1-3.3,5.2
		c-1.6,1.1-4,2.2-5.9,1.1c-1.6-0.9-1.7-2.9-0.9-4.5C10.5,225.7,10.8,225.3,11,225"/>
	<path class="st7" d="M181.4,288.6c0.1,0.1,0.2,0.3,0.2,0.4c0,0.1-0.2,0.2-0.3,0.4C181.3,289.1,181.3,288.8,181.4,288.6"/>
	<path class="st7" d="M187.9,287.9c0.1,0.1,0.3,0.2,0.4,0.2C188.1,288.1,188,288,187.9,287.9L187.9,287.9z"/>
	<path class="st8" d="M158.8,190.9c0.8,0.1,1.6,0.3,2,1.2c1.4,3.3-1.3,15.2-3.9,17.7c-1.1,1-2.1,2.1-3.1,3.1
		c-3.2-0.6-3.7,2.9-5.9,3.9c-5.5,2.5-9.7,7-14.2,10.9c-1.1,0.9-2.5,4.3-4.9,1.2c0.1-0.1,0.1-0.3,0.2-0.4c-0.1,0.1-0.2,0.3-0.2,0.4
		c-5,0.3-5.6,6.7-10.4,7.6c-1.2,0.2-5.8,1.1-2.9,5c0.1,0.1-0.5,1.1-0.7,1.1c-4.2-0.6-3.6,3.3-5,5.3c-1.9,0.8-4.7,1.1-5.4,2.5
		c-1.9,3.7-4.8,5.6-8.3,4.2c-3.2-1.3-4.4-5-4.2-8.7c2.5,0.7,2.8-2.6,4.1-2.7c5-0.1,4.5-2.8,3.9-6.2c-0.4-2.3,0.5-3.4,3.2-2.6
		c2.9,1,3.5-1.1,3.3-3.3c-0.1-1.3-0.9-3,1.1-3.1c4,0,3.4-2.7,3.4-5.2c2.9-0.3,3.5,1.7,4,4c0.6,2.7,2.7,2.5,3.3,0.7
		c1.1-3.1,3.7-2.2,5.5-3.2c1.3-0.8,4.2,1.7,3.8-1.1c-0.3-2.1-0.9-5.5-4.6-5.3c-0.7,0-1.3,0-2,0c-0.2-4.4,0.3-9.2-4.9-11.5
		c-0.1,0-0.1-0.3-0.1-0.5c2.3,0.3,6.2,2.9,4.3-3.1c-0.6-1.8,1.9-3.1,2.7-2.4c2.9,2.4,3.6,0.5,4.9-1.6c1.1-1.7,2.7,0.3,4.1,0.1
		c-0.3,1.1-0.8,2.2-0.8,3.3c0,1.3-1.4,2.9,0.4,3.9c1.7,1,3.5,1.2,4.9-0.4c1.2-1.3,3.3-1.6,3.5-3.8l0,0c1-0.1,1.7-0.4,1.8-1.6l0-0.3
		l0.2-0.2c0.3-0.4,0.6-0.8,0.9-1.1c0-0.3,0.2-0.6,0.5-0.8c0.5,0,1.1,0,1.6-0.1c3.1,0,3.5-3.1,5.4-4.6c1.5-1.2-0.5-1.9-1.5-2.7
		c-1.2-0.9-0.8-2,0.1-2.9c0.8-0.7,2.3-1,2.5,0.1C152.3,192.6,156.1,190.4,158.8,190.9"/>
	<path class="st9" d="M110.8,223c0,2.4,0.6,5.1-3.4,5.2c-2,0-1.2,1.7-1.1,3.1c0.2,2.2-0.3,4.3-3.3,3.3c-2.7-0.9-3.6,0.3-3.2,2.6
		c0.6,3.4,1.1,6.2-3.9,6.2c-1.4,0-1.7,3.3-4.1,2.7c1.4-3-0.7-6,0-9c6.4,0.9,6.9,0.5,5.5-6c-0.9-4.1-2.5-8,0.3-12.1
		c0.9-1.3,0.3-3.4-0.8-4.7c-1.6-2-2.2-4.2-1.1-7.6c-2.1,1.4-2.1,3.7-3.9,3.5c0-0.3,0-0.7,0-1c2-3.6,8.2-7,10.9-6
		c0.2,1.5-0.6,3.5,1.5,4.3c1.6,0.6,2.7-0.9,3.9-1.6c1.1-0.7,1.7-2.1,3.3-1.9c1.6,0.5,4-0.6,4.4,2.2c0,0.2,0,0.4,0.1,0.5
		c5.2,2.3,4.7,7.1,4.9,11.5c-1.4-0.6-2.3-2.1-4.1-2c0-1.5,1.7-3.3-0.4-4.5c-1.7-1-3.2,0.1-4.6,1c-1.7,1.1-3.1,2.4-4.3,4.1
		c-1.1,1.5-2.3,3.1-1.2,5c1.2,2,3,0.3,4.5,0.3C110.8,222.2,110.8,222.6,110.8,223"/>
	<path class="st8" d="M156.8,160.9c0,0.3,0,0.7,0,1c-0.9,1.4-1.5,3-2.7,4c-1.8,1.5-4,3.5-5.4-0.8c-0.7-2.1-4.2-1.9-5.3-4.8
		c1.9-0.3,3.5-1.1,4-3.3c0.4-1.9,2.2-2.8,4.1-3c2.6-0.2,1.9,2.1,2.7,3.4C154.9,158.7,155.9,159.8,156.8,160.9"/>
	<path class="st2" d="M105.1,188c0,0-15.6,9.8-15.4,36.4c0.1,26.6,3.1,40.4,22,25.3c21.3-17,50.7-40.7,50.7-40.7s5.2-1.3,2.6-30.1
		c-2.5-28.8-3.8-28-3.8-28s-5.5-9.4-18.9,4.7L105.1,188z"/>
	<path class="st6" d="M143.3,177.3c0.1,3.1-6.3,9.4-9.4,9.3c-1.7,0-2.4-0.9-2.4-2.5c-0.1-3.3,5.9-9.2,9.3-9.2
		C142.5,175,143.3,175.8,143.3,177.3"/>
	<path class="st6" d="M141.9,200c-0.6,0.8-1.4,1.6-2.2,2.1c-1.7,0.9-3.8,3-5.9,2c-2.4-1-0.9-5,0.5-6.3c1-0.9,2-1.9,3-2.9
		c1.1-1,4.3-2.5,5.7-1.4c1.3,1,0.4,4-0.2,5.1C142.5,199.1,142.2,199.5,141.9,200"/>
	<path class="st6" d="M111.1,203.4c-0.4,0.4-0.8,0.7-1.3,0.9c-1.2,0.6-1.9,1.6-3,2.3c-1.1,0.7-2.6,1-3.6-0.1c-1-1.2-0.8-3.4-0.1-4.7
		c0.9-1.5,2.3-2.6,3.6-3.8c1.3-1.2,3-2,4.7-1.5c1.6,0.4,2.5,1.7,1.9,3.4C112.9,201.3,112.1,202.5,111.1,203.4"/>
	<path class="st6" d="M12.7,246c2-3.2,6.4-5.4,9.6-3c0.9,0.6,1.3,1.5,1.4,2.6c0.1,2.4-1.6,4.8-3.5,6c-1.8,1.1-4.4,1.9-6.5,1.2
		c-2.2-0.8-2.4-3.2-1.8-5.2C12.1,247,12.4,246.5,12.7,246"/>
	<path class="st9" d="M17.8,228.8c-0.4,0.3-0.8,0.7-1.3,1C16.9,229.5,17.3,229.1,17.8,228.8"/>
	<path class="st10" d="M161.9,277c0.4,0.3,0.8,0.6,1.1,1c2.9,3.7-1,9.8-5.3,10.1c-2.5,0.2-5.8-1.1-7.3-3.2c-1.1-1.4-1.6-3.5-1.1-5.3
		c0.9-2.8,3.5-3.7,6.2-3.8C157.5,275.8,160.1,275.8,161.9,277"/>
	<path class="st11" d="M152.9,276c-0.4,0.2-0.7,0.5-1.1,0.8C152.1,276.5,152.5,276.2,152.9,276"/>
	<path class="st12" d="M161.8,274.9c-0.3-0.3-0.6-0.6-1-1C161.1,274.3,161.4,274.6,161.8,274.9"/>
	<path class="st13" d="M177.8,284.9c0.1-0.1,0.1-0.3,0.2-0.4C178,284.7,177.9,284.8,177.8,284.9L177.8,284.9z"/>
	<path class="st10" d="M70.8,272c1.5-1.2,3.7-1.3,5.5-1.3c2.3,0,4.9,0.5,6.4,2.5c0.6,0.9,0.7,2,0.4,3c-1.3,5.4-8.7,5.8-12.1,2.4
		c-1.4-1.4-2.3-3.7-1.2-5.5C70.2,272.6,70.5,272.3,70.8,272"/>
	<path class="st10" d="M59.1,298.7c-0.8-0.7-1.2-2-1.1-3.1c0.3-4.7,7.2-7.3,10.9-5.2c1,0.5,1.7,1.4,2.1,2.4c0.5,1.1,1.1,2.5,0.7,3.7
		c-0.4,1.1-1.6,2.3-2.7,2.8c-1,0.5-2.2,0.5-3.3,0.6c-2.1,0.3-4.7,0.3-6.4-1.1C59.2,298.8,59.1,298.8,59.1,298.7"/>
	<path class="st10" d="M57.1,307.3c1.8-0.8,4.2-0.7,6.1-0.4c2.4,0.4,3.6,1.3,4.4,3.6c0.3,0.9,0.3,1.7-0.2,2.6c-1,2-3.7,3-5.8,3.4
		c-2.1,0.4-4.7,0.4-6.3-1.3c-1.5-1.6-1.5-4.2-0.4-6C55.5,308.3,56.3,307.7,57.1,307.3"/>
	<path class="st14" d="M128.8,228.9c0.1-0.1,0.2-0.3,0.2-0.4C129,228.7,128.9,228.8,128.8,228.9
		C128.8,228.9,128.8,228.9,128.8,228.9"/>
	<path class="st6" d="M116.5,215.7c-0.7,1.1-1.7,2.1-2.2,2.7c-0.9,0.9-1.7,1.7-2.6,2.6c-1.2,1.2-4.3,2.3-5.4,0.5
		c-1.1-1.9,0.1-3.5,1.2-5c1.2-1.7,2.6-3,4.3-4.1c1.4-0.9,2.9-2,4.6-1C118.1,212.4,117.6,214.2,116.5,215.7"/>
	<path class="st10" d="M167.9,252.7c-3.9,0.1-8.3-3.2-8.4-6.3c-0.1-3.3,3.1-6.1,7-6.3c4.1-0.2,8.1,2.8,8.3,6.2
		C175,249.4,171.6,252.6,167.9,252.7"/>
	<path class="st7" d="M158.8,269c-0.1,0.1-0.2,0.3-0.2,0.4C158.7,269.2,158.8,269.1,158.8,269L158.8,269z"/>
</g>
<g id="XMLID_14_">
</g>
<g id="XMLID_15_">
</g>
<g id="XMLID_16_">
</g>
<g id="XMLID_17_">
</g>
<g id="XMLID_18_">
</g>
<g id="XMLID_19_">
</g>
</svg>
