<?xml version="1.0" encoding="utf-8"?>
<!-- Generator: Adobe Illustrator 19.0.0, SVG Export Plug-In . SVG Version: 6.00 Build 0)  -->
<svg version="1.1" id="Layer_1" xmlns="http://www.w3.org/2000/svg" xmlns:xlink="http://www.w3.org/1999/xlink" x="0px" y="0px"
	 viewBox="0 0 63.4 63.4" style="enable-background:new 0 0 63.4 63.4;" xml:space="preserve">
<style type="text/css">
	.st0{fill:#F47D33;}
	.st1{clip-path:url(#SVGID_2_);}
	.st2{fill:#4A4B4C;}
</style>
<rect class="st0" width="63.4" height="63.4"/>
<g>
	<defs>
		<rect id="SVGID_1_" width="63.4" height="63.4"/>
	</defs>
	<clipPath id="SVGID_2_">
		<use xlink:href="#SVGID_1_"  style="overflow:visible;"/>
	</clipPath>
	<g id="XMLID_14_" class="st1">
		<path id="XMLID_15_" class="st2" d="M53.2,9.2c0.5,0,1.2,0.1,2,0.2v7.7c-0.5-0.1-1.4-0.1-2.7-0.2c-1.3,0-2.1,0.2-2.6,0.8
			s-0.7,1.2-0.7,2c0,0.7,0,1.7,0,3.1h6.2v6.7h-6.2v29.3h-9.4V29.5h-5.3v-6.7h5.2v-2.3c0-3.9,0.7-6.6,2-8c1.4-2.2,4.7-3.3,10-3.3
			C52.2,9.1,52.7,9.1,53.2,9.2z"/>
	</g>
</g>
<g id="XMLID_17_">
</g>
<g id="XMLID_18_">
</g>
<g id="XMLID_19_">
</g>
<g id="XMLID_20_">
</g>
<g id="XMLID_21_">
</g>
<g id="XMLID_22_">
</g>
</svg>
