<?xml version="1.0" encoding="utf-8"?>
<!-- Generator: Adobe Illustrator 19.0.0, SVG Export Plug-In . SVG Version: 6.00 Build 0)  -->
<svg version="1.1" id="Layer_1" xmlns="http://www.w3.org/2000/svg" xmlns:xlink="http://www.w3.org/1999/xlink" x="0px" y="0px"
	 viewBox="0 0 720 193" style="enable-background:new 0 0 720 193;" xml:space="preserve">
<style type="text/css">
	.st0{clip-path:url(#SVGID_2_);fill:none;stroke:#F17E21;}
	.st1{fill:none;stroke:#F17E21;}
	.st2{clip-path:url(#XMLID_98_);}
	.st3{fill:#FFFFFF;}
</style>
<g>
	<defs>
		<rect id="SVGID_1_" x="0.9" y="3.6" width="719.1" height="182.1"/>
	</defs>
	<clipPath id="SVGID_2_">
		<use xlink:href="#SVGID_1_"  style="overflow:visible;"/>
	</clipPath>
	<rect x="294.2" y="22.4" class="st0" width="425.3" height="95.8"/>
</g>
<rect x="132.7" y="145.4" class="st1" width="145" height="32.2"/>
<g>
	<defs>
		<polygon id="XMLID_17_" points="0,193 719.1,193 720,0 0.9,0 		"/>
	</defs>
	<clipPath id="XMLID_98_">
		<use xlink:href="#XMLID_17_"  style="overflow:visible;"/>
	</clipPath>
	<g id="XMLID_86_" class="st2">
		<path id="XMLID_87_" class="st3" d="M343.5,153.2l18.7,23.4l-13.3,11.3l-16.2-20c-1.1,1.4-2.8,3.3-4.9,5.5
			c-2.2,2.3-4.8,4.5-7.9,6.6c-3.1,2.2-6.7,4-10.7,5.5c-4,1.5-8.4,2.3-13.3,2.3c-4.9,0-9.3-0.9-13.2-2.6c-3.9-1.7-7.1-4.2-9.6-7.2
			c-2.6-3.1-4.4-6.7-5.4-10.8c-1-4.1-1.1-8.6-0.3-13.4c0.6-3.3,1.7-6.5,3.2-9.7c1.5-3.2,3.4-6.2,5.7-9c2.3-2.8,5.1-5.4,8.3-7.8
			c3.2-2.4,6.8-4.4,10.7-6c-1.1-1.5-2.2-3.1-3.2-4.6c-1-1.5-1.9-3.2-2.6-5c-0.7-1.8-1.2-3.8-1.3-5.9c-0.2-2.1,0-4.5,0.5-7.2
			c0.7-4.2,2.2-8.1,4.3-11.7c2.2-3.6,4.8-6.7,7.9-9.2c3.1-2.6,6.6-4.6,10.3-6c3.8-1.4,7.6-2.2,11.6-2.2c3.8,0,7.3,0.7,10.4,2.2
			c3.1,1.4,5.8,3.4,7.9,5.9c2.1,2.5,3.6,5.5,4.5,9.1c0.9,3.5,1,7.5,0.2,11.8c-0.4,2.4-1.1,4.8-2.2,7.2c-1,2.5-2.5,4.9-4.5,7.3
			c-2,2.4-4.4,4.7-7.2,6.9c-2.9,2.2-6.3,4.2-10.3,6l12.3,14.8l17.1-25.1h18L343.5,153.2z M304.2,132.5c-1.6,0.5-3.5,1.3-5.6,2.3
			c-2.1,1-4.1,2.4-6.1,4c-2,1.6-3.7,3.7-5.2,6.2c-1.5,2.5-2.6,5.4-3.2,8.8c-0.4,2.4-0.4,4.7-0.1,6.9c0.4,2.3,1.2,4.3,2.4,6
			c1.2,1.7,2.9,3.2,4.9,4.2c2.1,1.1,4.6,1.6,7.6,1.6c3.4,0,6.5-0.7,9.3-2c2.8-1.3,5.3-2.9,7.3-4.8c2.1-1.8,3.8-3.7,5.2-5.5
			c1.4-1.8,2.5-3.2,3.1-4.1L304.2,132.5z M311.9,114.8c4.7-2.3,8.6-4.6,11.6-6.9c3-2.4,4.9-5.7,5.6-9.9c0.5-2.4,0.5-4.4,0.1-6
			c-0.5-1.6-1.2-3-2.2-4.1c-1-1.1-2.1-1.9-3.5-2.4c-1.3-0.5-2.6-0.8-3.9-0.8c-1.4,0-2.9,0.3-4.5,0.8c-1.5,0.6-3,1.4-4.3,2.6
			c-1.3,1.2-2.5,2.6-3.5,4.4c-1,1.7-1.8,3.8-2.2,6c-0.2,1.1-0.3,2.3-0.3,3.5c0,1.2,0.3,2.4,0.8,3.7c0.5,1.3,1.3,2.6,2.3,4.1
			C309,111.3,310.3,112.9,311.9,114.8z"/>
	</g>
	<g id="XMLID_69_" class="st2">
		<path id="XMLID_70_" class="st3" d="M5.9,3.6h13.5c2.4,0,4.5,0.5,6.4,1.6c1.8,1,3.4,2.5,4.6,4.3c1.2,1.8,2.2,4,2.8,6.4
			c0.6,2.4,0.9,5.1,0.9,7.9c0,3.2-0.4,6-1.2,8.5c-0.8,2.5-1.9,4.6-3.4,6.3c-1.4,1.7-3.2,3-5.2,3.9c-2,0.9-4.3,1.3-6.8,1.3H5.9V3.6z
			 M12.8,37.7H18c1.4,0,2.6-0.3,3.8-0.8c1.1-0.6,2.1-1.4,2.9-2.6c0.8-1.1,1.4-2.6,1.9-4.4c0.4-1.8,0.7-3.8,0.7-6.3
			c0-2.5-0.2-4.6-0.7-6.4c-0.5-1.8-1.1-3.2-1.9-4.4c-0.8-1.1-1.8-2-2.9-2.5C20.6,10,19.3,9.7,18,9.7h-5.2V37.7z"/>
		<path id="XMLID_73_" class="st3" d="M51.6,43.9V3.6h12.1c2.2,0,4.1,0.4,5.6,1.1c1.6,0.7,2.9,1.7,3.9,2.9c1,1.2,1.8,2.6,2.3,4.1
			c0.5,1.5,0.7,3.1,0.7,4.7c0,1.5-0.2,2.9-0.6,4.2C75.3,21.8,74.7,23,74,24c-0.8,1-1.7,1.8-2.9,2.5c-1.2,0.6-2.5,1.1-4.1,1.3
			l11.2,16.1h-8.1L58.7,26.2h-0.1v17.7H51.6z M58.5,22.4h4c2.1,0,3.8-0.4,5-1.3c1.2-0.8,1.8-2.4,1.8-4.6c0-1.3-0.2-2.4-0.6-3.3
			c-0.4-0.9-0.9-1.6-1.5-2.1c-0.6-0.5-1.4-0.9-2.3-1.1c-0.9-0.2-1.9-0.3-2.9-0.3h-3.6V22.4z"/>
		<path id="XMLID_76_" class="st3" d="M94.8,43.9V3.6h6.9v40.3H94.8z"/>
		<path id="XMLID_78_" class="st3" d="M141.1,3.6h7l-11.7,40.3h-6.4L118.1,3.6h7.2L133,33h0.1L141.1,3.6z"/>
		<path id="XMLID_80_" class="st3" d="M164.4,43.9V3.6h6.9v40.3H164.4z"/>
		<path id="XMLID_82_" class="st3" d="M191.1,43.9V3.6h7.3l12.7,26.1h0.1V3.6h6.1v40.3h-6l-14.1-28.3h-0.1v28.3H191.1z"/>
		<path id="XMLID_84_" class="st3" d="M257.1,17.1c-0.5-2.9-1.4-5-2.6-6.2C253.3,9.7,251.8,9,250,9c-1.3,0-2.4,0.3-3.4,0.8
			s-1.9,1.4-2.6,2.6c-0.7,1.2-1.3,2.7-1.6,4.6c-0.4,1.9-0.6,4.1-0.6,6.7c0,5.2,0.8,9,2.3,11.3c1.5,2.3,3.6,3.4,6.4,3.4
			c2.4,0,4.2-0.9,5.3-2.6c1.1-1.7,1.6-4.1,1.6-7.1h-10v-6.1h16.9v5.3c0,2.5-0.3,4.8-0.8,6.8c-0.6,2-1.4,3.8-2.6,5.3
			c-1.1,1.5-2.6,2.6-4.4,3.4c-1.8,0.8-3.8,1.2-6.2,1.2c-2.4,0-4.5-0.4-6.4-1.3c-1.9-0.8-3.5-2.1-4.8-3.8c-1.3-1.7-2.4-3.9-3.1-6.5
			c-0.7-2.6-1.1-5.7-1.1-9.3c0-3.2,0.3-6,1-8.6c0.7-2.6,1.7-4.8,3-6.6c1.3-1.8,2.9-3.2,4.8-4.2c1.9-1,4.1-1.5,6.5-1.5
			c2.1,0,3.9,0.4,5.6,1.1c1.6,0.7,3.1,1.8,4.2,3c1.1,1.3,2,2.8,2.7,4.5c0.6,1.7,1,3.6,1.1,5.5H257.1z"/>
	</g>
	<g id="XMLID_68_" class="st2">
	</g>
</g>
<g id="XMLID_60_">
	<path id="XMLID_61_" class="st3" d="M158.4,94.4l-10.4-24h7.3l6.6,16.8l6.6-16.8h7.3l-10.5,24v16.2h-6.9V94.4z"/>
	<path id="XMLID_63_" class="st3" d="M204.4,69.7c2.2,0,4.2,0.5,6,1.4c1.8,1,3.4,2.3,4.7,4.1c1.3,1.8,2.3,4,3.1,6.5s1.1,5.5,1.1,8.7
		s-0.4,6.1-1.1,8.7c-0.7,2.6-1.7,4.8-3.1,6.5c-1.3,1.8-2.9,3.2-4.7,4.1c-1.8,1-3.8,1.4-6,1.4c-2.2,0-4.2-0.5-6-1.4
		c-1.8-1-3.4-2.3-4.7-4.1c-1.3-1.8-2.3-4-3.1-6.5c-0.7-2.6-1.1-5.5-1.1-8.7s0.4-6.1,1.1-8.7s1.7-4.8,3.1-6.5
		c1.3-1.8,2.9-3.2,4.7-4.1C200.2,70.2,202.2,69.7,204.4,69.7z M212.4,90.5c0-2.6-0.2-4.8-0.6-6.7c-0.4-1.9-1-3.4-1.8-4.6
		c-0.7-1.2-1.6-2.1-2.6-2.6c-1-0.6-2-0.8-3.1-0.8c-1.1,0-2.1,0.3-3.1,0.8c-1,0.6-1.8,1.4-2.6,2.6c-0.7,1.2-1.3,2.7-1.8,4.6
		c-0.4,1.9-0.6,4.1-0.6,6.7c0,2.6,0.2,4.8,0.6,6.7c0.4,1.9,1,3.4,1.8,4.6c0.7,1.2,1.6,2.1,2.6,2.6c1,0.6,2,0.8,3.1,0.8
		c1.1,0,2.1-0.3,3.1-0.8c1-0.6,1.8-1.4,2.6-2.6c0.7-1.2,1.3-2.7,1.8-4.6C212.2,95.3,212.4,93.1,212.4,90.5z"/>
	<path id="XMLID_66_" class="st3" d="M243.5,70.3V98c0,2.3,0.5,4.1,1.4,5.1c1,1.1,2.7,1.6,5.1,1.6c2.4,0,4.1-0.5,5.1-1.6
		c1-1.1,1.4-2.8,1.4-5.1V70.3h6.9v29.5c0,1.5-0.3,3-0.8,4.3c-0.5,1.4-1.4,2.6-2.4,3.6c-1.1,1.1-2.5,1.9-4.2,2.5
		c-1.7,0.6-3.7,0.9-6,0.9c-2.3,0-4.3-0.3-6-0.9c-1.7-0.6-3.1-1.5-4.2-2.5c-1.1-1.1-1.9-2.3-2.4-3.6c-0.5-1.4-0.8-2.8-0.8-4.3V70.3
		H243.5z"/>
</g>
<g id="XMLID_16_">
	<path id="XMLID_42_" class="st3" d="M383,94.9l-10.4-24h7.3l6.6,16.8l6.6-16.8h7.3l-10.5,24v16.2H383V94.9z"/>
	<path id="XMLID_44_" class="st3" d="M429,70.2c2.2,0,4.2,0.5,6,1.4c1.8,1,3.4,2.3,4.7,4.1s2.3,4,3.1,6.5c0.7,2.6,1.1,5.5,1.1,8.7
		s-0.4,6.1-1.1,8.7c-0.7,2.6-1.7,4.8-3.1,6.5s-2.9,3.2-4.7,4.1c-1.8,1-3.8,1.4-6,1.4c-2.2,0-4.2-0.5-6-1.4c-1.8-1-3.4-2.3-4.7-4.1
		c-1.3-1.8-2.3-4-3.1-6.5c-0.7-2.6-1.1-5.5-1.1-8.7s0.4-6.1,1.1-8.7c0.7-2.6,1.7-4.8,3.1-6.5c1.3-1.8,2.9-3.2,4.7-4.1
		C424.8,70.7,426.8,70.2,429,70.2z M437,91c0-2.6-0.2-4.8-0.6-6.7c-0.4-1.9-1-3.4-1.8-4.6c-0.7-1.2-1.6-2.1-2.6-2.6
		c-1-0.6-2-0.8-3.1-0.8c-1.1,0-2.1,0.3-3.1,0.8c-1,0.6-1.8,1.4-2.6,2.6s-1.3,2.7-1.8,4.6c-0.4,1.9-0.6,4.1-0.6,6.7
		c0,2.6,0.2,4.8,0.6,6.7c0.4,1.9,1,3.4,1.8,4.6c0.7,1.2,1.6,2.1,2.6,2.6c1,0.6,2,0.8,3.1,0.8c1.1,0,2.1-0.3,3.1-0.8
		c1-0.6,1.8-1.4,2.6-2.6c0.7-1.2,1.3-2.7,1.8-4.6C436.8,95.8,437,93.6,437,91z"/>
	<path id="XMLID_47_" class="st3" d="M468.2,70.8v27.7c0,2.3,0.5,4.1,1.4,5.1c1,1.1,2.7,1.6,5.1,1.6c2.4,0,4.1-0.5,5.1-1.6
		c1-1.1,1.4-2.8,1.4-5.1V70.8h6.9v29.5c0,1.5-0.3,3-0.8,4.3c-0.5,1.4-1.4,2.6-2.4,3.6c-1.1,1.1-2.5,1.9-4.2,2.5
		c-1.7,0.6-3.7,0.9-6,0.9c-2.3,0-4.3-0.3-6-0.9c-1.7-0.6-3.1-1.5-4.2-2.5c-1.1-1.1-1.9-2.3-2.4-3.6c-0.5-1.4-0.8-2.8-0.8-4.3V70.8
		H468.2z"/>
	<path id="XMLID_49_" class="st3" d="M507,111.1V70.8h12.1c2.2,0,4.1,0.4,5.6,1.1c1.6,0.7,2.9,1.7,3.9,2.9c1,1.2,1.8,2.6,2.3,4.1
		c0.5,1.5,0.7,3.1,0.7,4.7c0,1.5-0.2,2.9-0.6,4.2c-0.4,1.3-0.9,2.4-1.7,3.4c-0.8,1-1.7,1.8-2.9,2.5c-1.1,0.6-2.5,1.1-4.1,1.3
		l11.2,16.1h-8.1l-11.4-17.7H514v17.7H507z M513.9,89.6h4c2.1,0,3.8-0.4,5-1.3c1.2-0.8,1.8-2.4,1.8-4.6c0-1.3-0.2-2.4-0.6-3.3
		c-0.4-0.9-0.9-1.6-1.5-2.1c-0.6-0.5-1.4-0.9-2.3-1.1c-0.9-0.2-1.9-0.3-2.9-0.3h-3.6V89.6z"/>
	<path id="XMLID_52_" class="st3" d="M597.2,86.3c-0.2-3.5-0.8-6.1-1.9-7.6s-2.8-2.4-5-2.4c-1.1,0-2.1,0.3-3.1,0.8
		c-1,0.5-1.9,1.4-2.6,2.6c-0.8,1.2-1.4,2.7-1.8,4.5c-0.5,1.9-0.7,4.1-0.7,6.8c0,2.7,0.2,5,0.6,6.8s1,3.4,1.6,4.5
		c0.7,1.2,1.5,2,2.5,2.5c1,0.5,2,0.8,3.1,0.8c1,0,2-0.1,2.8-0.4c0.8-0.3,1.5-0.8,2.1-1.5c0.6-0.7,1.1-1.7,1.5-2.9s0.7-2.8,1-4.6h6.9
		c-0.1,2.2-0.5,4.3-1.1,6.2c-0.6,1.9-1.5,3.6-2.6,5c-1.2,1.4-2.6,2.5-4.3,3.3s-3.7,1.2-6,1.2c-2.3,0-4.4-0.4-6.2-1.1s-3.4-2-4.7-3.6
		s-2.3-3.8-3-6.5c-0.7-2.6-1.1-5.8-1.1-9.6c0-3.4,0.4-6.4,1.2-8.9c0.8-2.6,1.9-4.7,3.2-6.5c1.4-1.8,3-3.1,4.8-4
		c1.8-0.9,3.7-1.4,5.8-1.4c2.4,0,4.5,0.4,6.3,1.3c1.8,0.9,3.2,2.1,4.4,3.6c1.1,1.5,2,3.2,2.5,5.1c0.5,1.9,0.8,4,0.8,6.1H597.2z"/>
	<path id="XMLID_54_" class="st3" d="M631.1,70.8h6.1l12.5,40.3h-7.1l-3.3-10.7h-10.1l-3.3,10.7h-7.1L631.1,70.8z M634.1,81.3H634
		l-3.4,13h7.1L634.1,81.3z"/>
	<path id="XMLID_57_" class="st3" d="M664.9,111.1V70.8h12.1c2.2,0,4.1,0.4,5.6,1.1c1.6,0.7,2.9,1.7,3.9,2.9c1,1.2,1.8,2.6,2.3,4.1
		c0.5,1.5,0.7,3.1,0.7,4.7c0,1.5-0.2,2.9-0.6,4.2c-0.4,1.3-0.9,2.4-1.7,3.4c-0.8,1-1.7,1.8-2.9,2.5c-1.1,0.6-2.5,1.1-4.1,1.3
		l11.2,16.1h-8.1L672,93.4h-0.1v17.7H664.9z M671.8,89.6h4c2.1,0,3.8-0.4,5-1.3c1.2-0.8,1.8-2.4,1.8-4.6c0-1.3-0.2-2.4-0.6-3.3
		c-0.4-0.9-0.9-1.6-1.5-2.1c-0.6-0.5-1.4-0.9-2.3-1.1c-0.9-0.2-1.9-0.3-2.9-0.3h-3.6V89.6z"/>
</g>
<g id="XMLID_91_">
</g>
<g id="XMLID_92_">
</g>
<g id="XMLID_93_">
</g>
<g id="XMLID_94_">
</g>
<g id="XMLID_95_">
</g>
<g id="XMLID_96_">
</g>
</svg>
