<?xml version="1.0" encoding="utf-8"?>
<!-- Generator: Adobe Illustrator 19.0.0, SVG Export Plug-In . SVG Version: 6.00 Build 0)  -->
<svg version="1.1" id="Layer_1" xmlns="http://www.w3.org/2000/svg" xmlns:xlink="http://www.w3.org/1999/xlink" x="0px" y="0px"
	 viewBox="0 0 73.1 47.3" style="enable-background:new 0 0 73.1 47.3;" xml:space="preserve">
<style type="text/css">
	.st0{clip-path:url(#SVGID_2_);fill:#FFFFFF;}
	.st1{clip-path:url(#SVGID_2_);fill:none;stroke:#808285;stroke-width:2.479;stroke-miterlimit:10;}
	.st2{clip-path:url(#SVGID_2_);fill:none;stroke:#818285;stroke-width:2.479;stroke-miterlimit:10;}
</style>
<g>
	<defs>
		<rect id="SVGID_1_" width="73.1" height="47.3"/>
	</defs>
	<clipPath id="SVGID_2_">
		<use xlink:href="#SVGID_1_"  style="overflow:visible;"/>
	</clipPath>
	<path class="st0" d="M71.9,43.6c0,1.4-1.1,2.5-2.5,2.5H3.7c-1.4,0-2.5-1.1-2.5-2.5V3.7c0-1.4,1.1-2.5,2.5-2.5h65.7
		c1.4,0,2.5,1.1,2.5,2.5V43.6z"/>
	<path class="st1" d="M71.9,43.6c0,1.4-1.1,2.5-2.5,2.5H3.7c-1.4,0-2.5-1.1-2.5-2.5V3.7c0-1.4,1.1-2.5,2.5-2.5h65.7
		c1.4,0,2.5,1.1,2.5,2.5V43.6z"/>
	<path class="st2" d="M41.2,24.8l30.1,20.6 M31.7,24.8L2,45.4 M70.9,1.9L36.5,27.7L2,1.9"/>
</g>
<g id="XMLID_14_">
</g>
<g id="XMLID_15_">
</g>
<g id="XMLID_16_">
</g>
<g id="XMLID_17_">
</g>
<g id="XMLID_18_">
</g>
<g id="XMLID_19_">
</g>
</svg>
