<?xml version="1.0" encoding="utf-8"?>
<!-- Generator: Adobe Illustrator 19.0.0, SVG Export Plug-In . SVG Version: 6.00 Build 0)  -->
<svg version="1.1" id="Layer_1" xmlns="http://www.w3.org/2000/svg" xmlns:xlink="http://www.w3.org/1999/xlink" x="0px" y="0px"
	 viewBox="0 0 692.9 515.7" style="enable-background:new 0 0 692.9 515.7;" xml:space="preserve">
<style type="text/css">
	.st0{fill:#FFFFFF;}
	.st1{clip-path:url(#SVGID_2_);fill:none;stroke:#FFFFFF;stroke-width:3.142;stroke-dasharray:11.769,11.769;}
	.st2{clip-path:url(#SVGID_2_);fill:none;stroke:#FFFFFF;stroke-width:3.142;}
	.st3{clip-path:url(#SVGID_2_);}
	.st4{clip-path:url(#SVGID_2_);fill:#FFFFFF;}
	.st5{fill:none;stroke:#FFFFFF;stroke-width:3.142;}
	.st6{clip-path:url(#SVGID_4_);fill:none;stroke:#FFFFFF;stroke-width:3.142;}
	.st7{clip-path:url(#SVGID_6_);fill:none;stroke:#FFFFFF;stroke-width:3.142;}
	.st8{clip-path:url(#SVGID_8_);fill:none;stroke:#FFFFFF;stroke-width:3.142;}
	.st9{fill:none;stroke:#FFFFFF;stroke-dasharray:2.988,1.988;}
	.st10{fill:#F17E21;}
	.st11{fill:none;stroke:#000000;stroke-dasharray:2.956,1.956;}
</style>
<g id="XMLID_71_">
	<path id="XMLID_72_" class="st0" d="M10.4,177.4v-13h2.2v13H10.4z"/>
	<path id="XMLID_74_" class="st0" d="M19,177.4v-13h2.4l4.1,8.4h0v-8.4h2v13h-1.9l-4.6-9.1h0v9.1H19z"/>
	<path id="XMLID_76_" class="st0" d="M35.1,173.3c0,0.3,0.1,0.6,0.2,0.9c0.1,0.3,0.2,0.5,0.3,0.7s0.3,0.4,0.6,0.5
		c0.2,0.1,0.5,0.2,0.9,0.2c0.5,0,1-0.2,1.3-0.5c0.3-0.3,0.5-0.8,0.5-1.3c0-0.5-0.1-0.9-0.4-1.2c-0.3-0.3-0.6-0.5-1-0.7
		c-0.4-0.2-0.9-0.3-1.3-0.5s-0.9-0.4-1.3-0.7c-0.4-0.3-0.8-0.7-1-1.2c-0.3-0.5-0.4-1.1-0.4-2c0-0.5,0.1-1,0.3-1.5
		c0.2-0.4,0.5-0.8,0.8-1.1c0.3-0.3,0.7-0.5,1.2-0.7s0.9-0.3,1.5-0.3c0.6,0,1.1,0.1,1.6,0.3c0.4,0.2,0.8,0.5,1.1,0.8s0.5,0.8,0.7,1.2
		c0.2,0.5,0.3,1,0.3,1.5h-2.1c0-0.3-0.1-0.5-0.2-0.7c-0.1-0.2-0.2-0.4-0.3-0.6s-0.3-0.3-0.5-0.4c-0.2-0.1-0.4-0.2-0.7-0.2
		c-0.5,0-0.9,0.2-1.1,0.5c-0.3,0.3-0.4,0.7-0.4,1.2c0,0.5,0.1,0.8,0.4,1c0.3,0.2,0.6,0.4,1,0.6c0.4,0.2,0.9,0.3,1.3,0.5
		c0.5,0.1,0.9,0.4,1.3,0.6c0.4,0.3,0.7,0.7,1,1.2c0.3,0.5,0.4,1.1,0.4,2c0,0.6-0.1,1.1-0.3,1.6c-0.2,0.5-0.4,0.9-0.8,1.3
		c-0.3,0.3-0.8,0.6-1.2,0.8c-0.5,0.2-1,0.3-1.6,0.3c-0.6,0-1.2-0.1-1.7-0.3c-0.5-0.2-0.9-0.5-1.2-0.9c-0.3-0.4-0.6-0.8-0.8-1.4
		c-0.2-0.5-0.3-1.1-0.3-1.7H35.1z"/>
	<path id="XMLID_78_" class="st0" d="M46.7,177.4v-13h2.2v13H46.7z"/>
	<path id="XMLID_80_" class="st0" d="M55.3,164.4h4.4c0.8,0,1.5,0.2,2.1,0.5c0.6,0.3,1.1,0.8,1.5,1.4s0.7,1.3,0.9,2.1
		s0.3,1.6,0.3,2.6c0,1-0.1,2-0.4,2.8c-0.3,0.8-0.6,1.5-1.1,2.1c-0.5,0.6-1,1-1.7,1.3c-0.7,0.3-1.4,0.4-2.2,0.4h-3.8V164.4z
		 M57.5,175.4h1.7c0.4,0,0.8-0.1,1.2-0.3c0.4-0.2,0.7-0.5,0.9-0.8c0.3-0.4,0.5-0.8,0.6-1.4c0.1-0.6,0.2-1.2,0.2-2
		c0-0.8-0.1-1.5-0.2-2.1s-0.4-1-0.6-1.4s-0.6-0.6-0.9-0.8c-0.4-0.2-0.8-0.3-1.2-0.3h-1.7V175.4z"/>
	<path id="XMLID_83_" class="st0" d="M70,177.4v-13h6.7v2h-4.5v3.3h4.5v2h-4.5v3.8h4.6v2H70z"/>
</g>
<g id="XMLID_64_">
	<path id="XMLID_65_" class="st0" d="M18.8,185.7c0.7,0,1.3,0.2,1.8,0.5c0.5,0.3,0.9,0.8,1.1,1.3c0.2,0.6,0.3,1.3,0.3,2.1
		s-0.2,1.8-0.6,2.8c-0.3,1-0.8,2-1.3,2.8s-1.1,1.5-1.7,2.1c-0.6,0.6-1.3,1-2,1.3c-0.7,0.3-1.4,0.5-2.1,0.5s-1.3-0.2-1.8-0.5
		s-0.9-0.8-1.1-1.3c-0.2-0.6-0.3-1.3-0.3-2.1c0-0.8,0.2-1.8,0.6-2.8c0.3-1,0.8-2,1.3-2.8c0.5-0.8,1.1-1.5,1.7-2.1
		c0.6-0.6,1.3-1,2-1.3C17.4,185.9,18.1,185.7,18.8,185.7z M19.2,192.5c0.3-0.8,0.4-1.6,0.5-2.2c0.1-0.6,0-1.1-0.1-1.5
		s-0.3-0.7-0.6-0.8c-0.3-0.2-0.6-0.3-0.9-0.3c-0.3,0-0.7,0.1-1.1,0.3c-0.4,0.2-0.7,0.5-1.1,0.8s-0.7,0.9-1,1.5s-0.6,1.3-0.9,2.2
		c-0.3,0.8-0.4,1.6-0.5,2.2c-0.1,0.6,0,1.1,0.1,1.5s0.3,0.7,0.6,0.8c0.3,0.2,0.6,0.3,0.9,0.3c0.3,0,0.7-0.1,1.1-0.3
		c0.4-0.2,0.7-0.5,1.1-0.8s0.7-0.9,1-1.5C18.6,194,18.9,193.3,19.2,192.5z"/>
	<path id="XMLID_68_" class="st0" d="M24.9,199l4.2-13h3.9c0.7,0,1.3,0.1,1.7,0.4c0.4,0.2,0.8,0.5,1,0.9c0.2,0.4,0.3,0.8,0.3,1.3
		c0,0.5-0.1,1-0.3,1.5c-0.2,0.5-0.4,0.9-0.6,1.4c-0.3,0.4-0.6,0.8-0.9,1.1s-0.8,0.6-1.2,0.8c-0.4,0.2-0.9,0.4-1.5,0.4l1.9,5.2h-2.6
		l-1.8-5.7h0l-1.9,5.7H24.9z M29.4,192h1.3c0.7,0,1.3-0.1,1.8-0.4c0.5-0.3,0.8-0.8,1.1-1.5c0.1-0.4,0.2-0.8,0.2-1.1
		c0-0.3-0.1-0.5-0.3-0.7s-0.4-0.3-0.6-0.3c-0.3-0.1-0.6-0.1-0.9-0.1h-1.2L29.4,192z"/>
</g>
<g id="XMLID_53_">
	<path id="XMLID_54_" class="st0" d="M14.5,207.3c0.7,0,1.4,0.2,2,0.5c0.6,0.3,1.1,0.8,1.5,1.3c0.4,0.6,0.8,1.3,1,2.1
		s0.4,1.8,0.4,2.8s-0.1,2-0.4,2.8s-0.6,1.5-1,2.1c-0.4,0.6-0.9,1-1.5,1.3c-0.6,0.3-1.2,0.5-2,0.5c-0.7,0-1.4-0.2-2-0.5
		c-0.6-0.3-1.1-0.8-1.5-1.3s-0.8-1.3-1-2.1s-0.4-1.8-0.4-2.8s0.1-2,0.4-2.8s0.6-1.5,1-2.1s0.9-1,1.5-1.3
		C13.1,207.5,13.8,207.3,14.5,207.3z M17.1,214.1c0-0.8-0.1-1.6-0.2-2.2c-0.1-0.6-0.3-1.1-0.6-1.5c-0.2-0.4-0.5-0.7-0.8-0.8
		s-0.6-0.3-1-0.3c-0.3,0-0.7,0.1-1,0.3s-0.6,0.5-0.8,0.8c-0.2,0.4-0.4,0.9-0.6,1.5c-0.1,0.6-0.2,1.3-0.2,2.2s0.1,1.6,0.2,2.2
		c0.1,0.6,0.3,1.1,0.6,1.5s0.5,0.7,0.8,0.8c0.3,0.2,0.6,0.3,1,0.3c0.3,0,0.7-0.1,1-0.3c0.3-0.2,0.6-0.5,0.8-0.8
		c0.2-0.4,0.4-0.9,0.6-1.5C17,215.6,17.1,214.9,17.1,214.1z"/>
	<path id="XMLID_57_" class="st0" d="M27.1,207.6v9c0,0.8,0.2,1.3,0.5,1.7c0.3,0.4,0.9,0.5,1.6,0.5c0.8,0,1.3-0.2,1.6-0.5
		c0.3-0.4,0.5-0.9,0.5-1.7v-9h2.2v9.5c0,0.5-0.1,1-0.3,1.4s-0.4,0.8-0.8,1.2s-0.8,0.6-1.4,0.8s-1.2,0.3-1.9,0.3
		c-0.7,0-1.4-0.1-1.9-0.3c-0.5-0.2-1-0.5-1.4-0.8c-0.4-0.3-0.6-0.7-0.8-1.2c-0.2-0.4-0.3-0.9-0.3-1.4v-9.5H27.1z"/>
	<path id="XMLID_59_" class="st0" d="M38.8,209.6v-2.1h7.5v2.1h-2.6v10.9h-2.2v-10.9H38.8z"/>
	<path id="XMLID_61_" class="st0" d="M51.7,207.6h2.2v9.5h-2.2V207.6z M53.9,218.4v2.2h-2.2v-2.2H53.9z"/>
</g>
<g>
	<defs>
		<rect id="SVGID_1_" width="692.9" height="515.7"/>
	</defs>
	<clipPath id="SVGID_2_">
		<use xlink:href="#SVGID_1_"  style="overflow:visible;"/>
	</clipPath>
	<path class="st1" d="M461.4,482.4c112-8.7,201-99.5,206.8-212.3"/>
	<path class="st1" d="M667.8,240.7c-8.7-112-99.5-201-212.3-206.8"/>
	<path class="st1" d="M426.1,34.3c-112,8.7-201,99.5-206.8,212.3"/>
	<path class="st1" d="M219.7,276c8.7,112,99.5,201,212.3,206.8"/>
	<path class="st2" d="M437.9,483c2,0.1,3.9,0.1,5.9,0.1c2,0,3.9,0,5.9-0.1 M219.1,252.5c-0.1,2-0.1,3.9-0.1,5.9c0,2,0,3.9,0.1,5.9
		 M449.6,33.7c-2,0-3.9-0.1-5.9-0.1c-2,0-3.9,0-5.9,0.1 M668.4,264.3c0-2,0.1-3.9,0.1-5.9c0-2,0-3.9-0.1-5.9"/>
	<g id="XMLID_44_" class="st3">
		<path id="XMLID_45_" class="st0" d="M406.4,12.1L413.5,0h3.6v12.4h2.3v3h-2.3v4.2h-3.4v-4.2h-7.3V12.1z M409.8,12.4h3.9v-7h-0.1
			L409.8,12.4z"/>
		<path id="XMLID_48_" class="st0" d="M430.9,14.8c0.1,0.7,0.3,1.2,0.8,1.5s1.1,0.5,1.8,0.5c0.5,0,1-0.1,1.4-0.4
			c0.4-0.3,0.8-0.7,1.1-1.2s0.5-1.1,0.7-1.9c0.2-0.7,0.3-1.5,0.3-2.4h-0.1c-0.5,0.9-1,1.5-1.6,1.8c-0.6,0.4-1.3,0.6-2.2,0.6
			c-1,0-1.8-0.2-2.5-0.5c-0.7-0.4-1.3-0.8-1.8-1.5c-0.5-0.6-0.9-1.3-1.1-2.1c-0.2-0.8-0.4-1.7-0.4-2.5c0-1,0.1-1.9,0.4-2.7
			c0.3-0.8,0.7-1.6,1.2-2.2s1.2-1.1,2-1.5c0.8-0.4,1.7-0.5,2.7-0.5c1.2,0,2.2,0.2,3,0.7c0.9,0.5,1.6,1.1,2.1,2s1,1.9,1.2,3.2
			s0.4,2.6,0.4,4.2c0,3.5-0.6,6.1-1.9,7.8c-1.2,1.7-3.1,2.5-5.6,2.5c-1.6,0-2.8-0.5-3.8-1.4c-1-0.9-1.5-2.2-1.6-3.8H430.9z
			 M433.6,2.8c-0.5,0-0.9,0.1-1.2,0.3c-0.3,0.2-0.6,0.5-0.9,0.8c-0.2,0.3-0.4,0.7-0.5,1.2c-0.1,0.4-0.2,0.9-0.2,1.4
			c0,0.5,0.1,1,0.2,1.4c0.1,0.4,0.3,0.8,0.5,1.2c0.2,0.3,0.5,0.6,0.9,0.8c0.3,0.2,0.8,0.3,1.2,0.3c0.5,0,0.9-0.1,1.2-0.3
			c0.4-0.2,0.7-0.5,0.9-0.8c0.2-0.3,0.4-0.7,0.5-1.2c0.1-0.4,0.2-0.9,0.2-1.4c0-0.5-0.1-1-0.2-1.4c-0.1-0.4-0.3-0.8-0.5-1.2
			c-0.2-0.3-0.5-0.6-0.9-0.8C434.5,2.9,434.1,2.8,433.6,2.8z"/>
		<path id="XMLID_51_" class="st0" d="M451.5,13.8c0,0.4,0.1,0.8,0.2,1.1c0.1,0.4,0.3,0.7,0.5,0.9c0.2,0.3,0.5,0.5,0.9,0.7
			c0.4,0.2,0.8,0.2,1.2,0.2c1,0,1.7-0.4,2.3-1.1c0.6-0.7,0.8-1.8,0.8-3.1c0-0.5,0-1-0.1-1.4c-0.1-0.5-0.3-0.9-0.5-1.2
			s-0.5-0.6-0.9-0.9c-0.4-0.2-0.8-0.3-1.4-0.3c-0.7,0-1.2,0.2-1.6,0.5s-0.8,0.8-1,1.4h-3.5L449.1,0h10.7v3.1h-7.7l-0.4,4.7l0.1,0.1
			c0.3-0.8,0.7-1.3,1.2-1.7c0.6-0.4,1.2-0.5,2.1-0.5c1,0,1.9,0.2,2.6,0.6s1.3,1,1.8,1.7c0.5,0.7,0.8,1.5,1,2.3s0.3,1.8,0.3,2.7
			c0,1-0.2,1.9-0.5,2.7c-0.3,0.9-0.8,1.6-1.3,2.2c-0.6,0.6-1.3,1.1-2.1,1.5c-0.8,0.4-1.7,0.6-2.7,0.6c-0.9,0-1.8-0.1-2.6-0.4
			c-0.8-0.3-1.4-0.7-2-1.2c-0.6-0.5-1-1.2-1.3-1.9c-0.3-0.8-0.5-1.6-0.5-2.6H451.5z"/>
	</g>
	<path class="st4" d="M442.3,302.5c0-3.7-6.5-11.1-12-5.5c-5.5,5.5,5.5,12.9,0,12.9c-5.5,0-12.9-14.8-20.3-25.9
		c-7.4-11.1-3.7-12.1-11.1-16.6c-7.4-4.6-22.2-5.5-44.3-12.9c-22.2-7.4-9.2-14.8-24-25.9c-14.8-11.1-18.5-27.7-18.5-27.7L430.3,84.5
		L631.7,284L458,457.6c0,0,1.8-7.4-3.7-12.9c-5.5-5.5-1.8-33.2,1.8-49.9c3.7-16.6,12.9-38.8,12.9-38.8s-7.4,5.5-14.8-14.8
		c-7.4-20.3-12-29.6-12-29.6C428.5,300.6,442.3,306.2,442.3,302.5"/>
	<path class="st4" d="M662.9,130.9c0,0-81,146-102.5,186.8"/>
	<path class="st2" d="M662.9,130.9c0,0-81,146-102.5,186.8"/>
	<line class="st2" x1="692.9" y1="207.5" x2="619.1" y2="211.1"/>
</g>
<line class="st5" x1="225.4" y1="123.1" x2="362.8" y2="243.1"/>
<polyline class="st5" points="401.5,258.4 277.1,271.4 188.3,243.9 "/>
<line class="st5" x1="283.1" y1="270.7" x2="188.7" y2="291.8"/>
<line class="st5" x1="460" y1="318.3" x2="315.8" y2="484.9"/>
<g>
	<defs>
		<rect id="SVGID_3_" width="692.9" height="515.7"/>
	</defs>
	<clipPath id="SVGID_4_">
		<use xlink:href="#SVGID_3_"  style="overflow:visible;"/>
	</clipPath>
	<line class="st6" x1="459.9" y1="454" x2="471.3" y2="515.4"/>
</g>
<line class="st5" x1="529.5" y1="358.1" x2="649.3" y2="412.2"/>
<g>
	<defs>
		<rect id="SVGID_5_" width="692.9" height="515.7"/>
	</defs>
	<clipPath id="SVGID_6_">
		<use xlink:href="#SVGID_5_"  style="overflow:visible;"/>
	</clipPath>
	<path class="st7" d="M393.4,12.9c0,0-35.1,6.8-56.7,21.2"/>
</g>
<polyline class="st0" points="338.3,21.2 326.7,38.1 347.1,38.7 "/>
<g>
	<defs>
		<rect id="SVGID_7_" width="692.9" height="515.7"/>
	</defs>
	<clipPath id="SVGID_8_">
		<use xlink:href="#SVGID_7_"  style="overflow:visible;"/>
	</clipPath>
	<path class="st8" d="M485.9,13c0,0,35.2,5.9,57.2,19.8"/>
</g>
<polyline class="st0" points="541.3,19.8 553.3,36.4 532.9,37.5 "/>
<g id="XMLID_14_">
	<path id="XMLID_15_" class="st0" d="M448,62.1l-2.2,1l-0.3,0.1l-0.9,0.5l-0.3,0.1l-1,0.4l-0.3,0.1l-0.9,0.5l-0.3,0.1l-1,0.3
		l-0.3,0.1l-0.9,0.5l-0.3,0.1l-1,0.4l-0.3,0.1l-0.9,0.5l-0.3,0.1l-0.9,0.5l-0.2,0.1h-0.1l-0.1-0.1l-0.8-0.9l-0.9-1.1l-0.1-0.2l0-0.2
		l0.3-0.9l0.1-0.2l0.4-0.9l0.1-0.2l0.4-0.9l0.1-0.2l0.4-0.9l0.1-0.3l0.4-0.9l0.1-0.2l0,0l-0.2,0.1l-0.9,0.4l-0.2,0.1l-0.9,0.3
		l-0.2,0.1l-0.9,0.5l-0.2,0.1l-0.9,0.4l-0.3,0.1l-0.9,0.4l-0.2,0.1l-0.2-0.1l-0.7-0.9l-0.2-0.2l-0.9-0.7l-0.1-0.2l0.1-0.2l0.3-1
		l0.1-0.3l0.5-0.9l0.1-0.3l0.4-1l0.1-0.3l0.4-1l0.1-0.3l0.5-0.9l0.1-0.3l1-2.2l0.1-0.3l0.5-0.9l0.1-0.3l0.3-1l0.1-0.3l0.4-1l0.1-0.2
		l0.2,0l0.2,0.1l0.2,0.2l0.5,0.5l0.2,0.2l0.9,0.9l0.7,0.7l0.2,0.2v0.1l-0.1,0.2l-0.5,1.1l-0.1,0.3l-0.6,1.1l-0.1,0.3l-0.4,1.1
		l-0.1,0.3l-0.5,1l-0.2,0.2l-0.6,1l-0.1,0.2l0.1,0.1l0.2,0l0.9-0.4l0.2-0.1l0.8-0.5l0.2-0.1l0.8-0.4l0.2-0.1l0.9-0.4l0.2-0.1
		l0.9-0.5l0.2-0.1l0.7-0.4l0.2-0.1h0.1l0.2,0.1l0.7,0.6l0.2,0.2l0.3,0.3l0.2,0.2l0.2,0.2l0.1,0.2l-0.1,0.2l-0.1,0.1l-0.1,0.3
		l-0.2,0.5l-0.1,0.2l-0.5,0.9l-0.1,0.2l-0.5,0.9l-0.1,0.2l-0.5,0.8l-0.1,0.2l-0.3,0.9l-0.1,0.2l-0.3,0.3l-0.2,0.2l-0.1,0.2l0,0.2
		l0.1,0.1l0.2-0.1l0.9-0.6l0.2-0.1l0.4-0.2l0.3-0.1l0.4-0.2l0.3-0.1l0.7-0.5l0.3-0.1l0.8-0.4l0.3-0.1l0.8-0.3l0.3-0.1l0.6-0.4
		l0.2-0.1l0.2,0l0.2,0.1l0.6,0.7l0.2,0.2l0.7,0.6l0.2,0.2l0.6,0.7l0.1,0.1l0,0.1L448,62.1z"/>
	<path id="XMLID_17_" class="st0" d="M451.6,82.8l-0.1,0.2l-0.2,0.1L451,83l-0.2-0.1l-0.2-0.2l-0.3-0.3l-0.2-0.2l-0.6-0.6l-0.8-0.7
		l-0.1-0.2l0-0.2l0.1-0.2l0.7-1.5l0-0.2l-0.1-0.1l-0.1-0.2l-0.7-0.8l-0.2-0.2l-0.9-1l-0.8-0.8l-0.2-0.2l-0.2-0.2l-0.6-0.6l-0.2-0.1
		l-0.2,0l-0.2,0.1l-1.2,0.6l-0.3,0.1l-0.3,0l-0.3-0.1l-0.2-0.2l-0.7-0.8l-0.2-0.2l-0.8-0.7l-0.2-0.2l-0.1-0.2l0-0.2l0.2-0.2l0.1-0.1
		l0.3-0.1l0.6-0.2l0.3-0.1l1-0.4l0.3-0.1l1-0.4l0.3-0.1l1-0.4l0.3-0.1l1.1-0.4l0.3-0.1l1.5-0.6l1.1-0.4l0.3-0.1l0.9-0.3l0.3-0.1
		l0.8-0.3l0.3-0.1l0.8-0.3l0.2-0.1l0.2,0.1l0.2,0.2l0.6,0.6l1,1l0.6,0.6l0.2,0.3l0,0.2l-0.1,0.2l-0.3,0.7l-0.1,0.3l-0.3,0.9
		l-0.1,0.3l-0.3,0.9l-0.1,0.3l-0.4,0.9l-0.1,0.3l-0.3,0.9l-0.1,0.3l-0.3,0.9l-0.1,0.3l-0.4,0.9l-0.1,0.3l-0.4,1.2l-0.3,0.9l-0.1,0.3
		l-0.5,1.1L451.6,82.8z M450.9,75l0.1-0.2l0.6-1.1l0.1-0.3l0.5-1l0.1-0.2l0-0.2l-0.1-0.2l-0.2-0.1h-0.3l-1.2,0.5l-0.3,0.1l-1.2,0.5
		l-0.2,0.2l-0.1,0.2l0.1,0.2l0.2,0.2l0.8,0.8l0.6,0.6l0.2,0.1l0.2,0L450.9,75z"/>
	<path id="XMLID_20_" class="st0" d="M465.4,91.7l-0.2,0.2l-0.2,0.2l-0.2,0.2l-0.3,0.2l-0.2,0.1l-0.4,0.1l-0.3,0.1l-0.4,0.1l-0.3,0
		h-0.3l-0.3,0l-0.4-0.1l-0.3-0.1l-0.3-0.1l-0.3-0.1l-0.4-0.2l-0.5-0.3l-0.2-0.2l-0.4-0.3l-0.2-0.2l-0.3-0.3l-0.2-0.2l-0.3-0.3
		l-0.6-0.6l-0.3-0.3l-0.2-0.2l-0.3-0.3l-0.2-0.2l-0.2-0.3l-0.1-0.3l-0.2-0.4l-0.1-0.3l-0.1-0.3l-0.1-0.3l-0.1-0.3l-0.1-0.7l0-0.3
		l-0.1-0.4l0-0.3v-0.3l0-0.2l0.1-0.1l0.2-0.1l0.1,0l0.3,0l0.7,0l0.3,0l0.5-0.1l0.3,0l0.3,0l0.2,0.1l0.1,0.2l0,0.2L459,86l0.1,0.3
		l0.1,0.3l0.2,0.4l0.1,0.3l0.1,0.3l0.2,0.2L460,88l0.2,0.2l0.9,0.8l0.2,0.2l0.1,0.1l0.3,0.1l0.3,0.1h0.3l0.2,0l0.3-0.1l0.2-0.2
		l0.1-0.1l0.1-0.3l0-0.1l0-0.3l-0.1-0.1l-0.1-0.3l-0.2-0.3l-0.2-0.3l-1.1-1.3l-0.3-0.5l-0.2-0.3l-0.2-0.4l-0.1-0.3l-0.1-0.3
		l-0.2-0.6l-0.1-0.3l-0.1-0.3l-0.1-0.3l0-0.4l0.1-0.3l0.1-0.3l0.1-0.3l0.2-0.4l0.2-0.2l0.2-0.3l0.4-0.4l0.2-0.2l0.3-0.3l0.2-0.2
		l0.2-0.1l0.3-0.1l0.4-0.2l0.3-0.1l0.3-0.1l0.3,0l0.4,0l0.3,0l0.3,0.1l0.3,0.1l0.4,0.1l0.5,0.2l0.3,0.1l0.3,0.2l0.2,0.2l0.4,0.3
		l0.3,0.2l0.2,0.2l0.2,0.2l0.2,0.2l0.3,0.4l0.2,0.2l0.1,0.1l0.2,0.2l0.4,0.5l0.2,0.3l0.1,0.3l0.2,0.3l0.1,0.3l0.1,0.3l0.1,0.3
		l0.1,0.4l0.1,0.3l0.1,0.3l0,0.2l-0.1,0.1l-0.2,0.1l-0.4,0.1l-0.3,0.1l-1.1,0.2l-0.3,0l-0.3,0l-0.1-0.1l-0.1-0.1l-0.1-0.2l-0.1-0.3
		l-0.1-0.3L467,85l-0.1-0.3l-0.1-0.1l-0.2-0.3l-0.2-0.4l-0.2-0.2l-0.3-0.4l-0.3-0.3l-0.2-0.2l-0.3-0.2l-0.3-0.1l-0.1,0l-0.3,0
		l-0.1,0l-0.3,0.1l-0.2,0.2l-0.1,0.2l-0.1,0.3l0,0.3l0.1,0.2l0.1,0.1l0.2,0.2l0.3,0.4l0.4,0.5l0.2,0.3l0.3,0.5l0.3,0.5l0.2,0.4
		l0.1,0.2l0.2,0.5l0.1,0.4l0.1,0.3l0.1,0.3l0.1,0.3l0.1,0.7l0,0.3l0,0.3l-0.1,0.4l-0.1,0.3l-0.1,0.3l-0.1,0.2l-0.2,0.3l-0.2,0.2
		L465.4,91.7z"/>
	<path id="XMLID_22_" class="st0" d="M476.2,105.9l-0.2,0.2l-0.3,0.3l-0.2,0.2l-0.2,0.2l-0.2,0.1l-0.2,0l-0.2-0.1l-0.2-0.2l-0.6-0.7
		l-0.2-0.2l-0.7-0.6l-0.2-0.2l-0.1-0.2l0-0.2l0.2-0.2l0.8-0.9l0.2-0.2l0.9-0.8l0.2-0.2l0.8-0.8l0.2-0.2l0.1-0.2l-0.1-0.2l-0.3-0.3
		L475,100l-0.2-0.2l-1-1l-0.6-0.7l-0.2-0.2l-0.2-0.1l-0.2,0.1l-0.2,0.2l-0.8,0.8l-0.2,0.2l-0.9,0.8l-0.2,0.2l-0.5,0.6l-0.3,0.3
		l-0.2,0.1l-0.2,0l-0.2-0.1l-0.2-0.2l-0.2-0.2L468,100l-0.2-0.2l-0.6-0.6L467,99l-0.1-0.1l-0.1-0.2l-0.1-0.2l0-0.1l0.1-0.2l0.1-0.1
		l0.2-0.2l0.4-0.4l1.1-1.1l0.7-0.6l0.2-0.2l0.7-0.7l0.2-0.2l0.6-0.7l0.2-0.2l0.7-0.7l0.9-0.9l0.2-0.2l0.7-0.6l0.2-0.2l0.7-0.7
		l0.2-0.2l0.4-0.5l0.3-0.3l0.2-0.1l0.2,0l0.2,0.1l0.2,0.2l0.2,0.2l0.5,0.6l0.2,0.2l0.5,0.5l0.2,0.2l0.2,0.2l0.1,0.2l0,0.2l-0.1,0.2
		l-0.1,0.1l-0.2,0.2l-0.6,0.5l-0.2,0.2l-0.8,0.8l-1,1l-0.1,0.2l-0.1,0.1l0,0.1l0.1,0.1l0.2,0.2l0.2,0.2l0.6,0.4l0.2,0.2l0.8,0.8
		l0.7,0.8l0.2,0.2l0.1,0.1l0.2,0.1l0.2-0.1l0.2-0.1l0.9-0.8l0.2-0.2l0.8-0.9l0.2-0.2l0.8-0.8l0.2-0.2l0.2,0l0.2,0.1l0.2,0.2l0.6,0.7
		l0.2,0.2l0.6,0.5l0.2,0.2l0.1,0.1l0.1,0.2l0,0.2l-0.1,0.2l-0.2,0.2l-0.5,0.5l-0.2,0.2l-0.6,0.7l-0.2,0.2l-0.7,0.7l-0.2,0.2
		l-0.6,0.7l-0.2,0.2l-0.7,0.6l-0.2,0.2l-0.7,0.6l-0.2,0.2l-0.7,0.7l-0.2,0.2l-0.7,0.7L476.2,105.9z"/>
	<path id="XMLID_24_" class="st0" d="M484.2,112.2l-0.2,0.2l-0.7,0.6l-0.2,0.2l-0.7,0.7l-0.1,0.1l-0.1,0L482,114l-0.2-0.2l-0.6-0.7
		l-0.8-0.8l-0.6-0.7l-0.1-0.1v-0.1l0.1-0.1l0.3-0.3l0.2-0.2l0.2-0.2l0.2-0.2l0.6-0.7l0.2-0.2l0.7-0.6l0.2-0.2l0.7-0.7l0.2-0.2
		l0.7-0.7l1.1-1.1l0.7-0.7l0.2-0.2l0.7-0.7l1.1-1.1l0.7-0.7l0.2-0.1l0.1,0l0.1,0.1l0.1,0.1l0.2,0.2l0.3,0.3l0.2,0.2l0.6,0.6l0.8,0.8
		l0.1,0.2l-0.1,0.1l-0.1,0.2l-0.3,0.4l-0.2,0.2l-1.2,1.2l-0.7,0.7l-0.2,0.2l-0.7,0.7l-0.2,0.2l-0.7,0.7l-0.2,0.2l-0.7,0.7l-1.1,1.1
		L484.2,112.2z"/>
	<path id="XMLID_26_" class="st0" d="M502.5,120.1l-0.2,0.2l-1.9,1.9l-0.7,0.8l-0.2,0.2l-1.7,1.7l-0.2,0.2l-0.1,0.1l-0.2,0.2
		l-0.6,0.6l-0.7,0.8l-0.2,0.2l-0.2,0.1l-0.2,0l-0.2,0l-0.2-0.1l-0.2-0.2l-0.7-0.6l-0.2-0.2l-0.3-0.3l-0.2-0.2l-0.1-0.2l-0.1-0.2
		l0-0.3l0.1-0.3l0.2-0.6l0.1-0.3l0.1-1.1l0-0.3l0.1-1.1l0.1-0.3l0.2-1.1l0-0.3l0.1-1.1l0-0.3l0.2-1.1l0-0.2l-0.1-0.1l-0.2,0.1
		l-0.7,0.6l-0.2,0.2l-0.6,0.7l-0.2,0.2l-0.7,0.7l-0.2,0.2l-0.8,0.7l-0.2,0.2l-0.4,0.6l-0.2,0.2l-0.2,0.1h-0.2l-0.1-0.1L489,121
		l-0.1-0.1l-0.2-0.2l-0.6-0.6l-0.2-0.2l-0.5-0.5l-0.2-0.2l-0.2-0.2l-0.1-0.2l0-0.2l0-0.1l0.1-0.2l0.1-0.1l0.2-0.2l0.4-0.4l0.2-0.2
		l0.6-0.7l0.2-0.2l1.6-1.5l0.2-0.2l0.7-0.6l0.2-0.2l0.9-0.9l0.6-0.7l0.2-0.2l0.7-0.6l0.2-0.2l0.6-0.7l0.2-0.2l0.3-0.3l0.2-0.2
		l0.2-0.2l0.2-0.1l0.1-0.1l0.1,0l0.2,0.1l0.4,0.4l0.4,0.4l1,1l0.1,0.2l0,0.1l0,0.2l0,1.1l0,0.3l-0.1,1.1l0,0.3l-0.2,1.1l0,0.3
		l-0.2,1.1l0,0.3l-0.1,1.1l0,0.3l-0.2,1.1l0,0.2l0.1,0.1l0.2,0l0.1-0.1l0.4-0.6l0.2-0.2l0.6-0.5l0.2-0.2l0.7-0.8l0.2-0.2l0.8-0.7
		l0.2-0.2l0.4-0.5l0.3-0.3l0.2-0.1l0.2-0.1l0.1,0l0.2,0.1l0.1,0.1l0.2,0.2l0.5,0.6l0.2,0.2l0.5,0.4l0.2,0.2l0.3,0.3l0.1,0.2l0,0.1
		l0,0.2l-0.2,0.2l-0.1,0.1l-0.2,0.2l-0.4,0.4l-0.2,0.2L502.5,120.1z"/>
	<path id="XMLID_28_" class="st0" d="M513.6,135.2l-0.2,0.2l-0.9,0.8l-1.2,1.2l-0.6,0.5l-0.8,0.8l-0.2,0.1l-0.2,0.1l-0.3,0.1
		l-0.3,0.1l-0.4,0l-0.3,0h-0.2l-0.3-0.1l-0.1,0l-0.3-0.1l-0.4-0.1l-0.3-0.1l-0.2-0.1l-0.4-0.2l-0.2-0.1l-0.2-0.2l-0.2-0.2l-0.3-0.3
		l-0.2-0.2l-0.2-0.2l-0.6-0.4l-0.2-0.2l-0.4-0.4l-0.3-0.3l-0.2-0.2l-0.2-0.2l-0.1-0.2l-0.3-0.6l-0.1-0.2l-0.1-0.3l-0.2-0.3l-0.1-0.3
		l-0.1-0.4l0-0.3l-0.1-0.3l0-0.3l0-0.3l0-0.3v-0.4l0-0.3l0.1-0.3l0.1-0.3l0.3-0.9l0.1-0.3l0.1-0.3l0.1-0.3l0.2-0.3l0.2-0.2l0.2-0.3
		l0.2-0.2l0.2-0.3l0.2-0.2l0.2-0.2l0.2-0.2l0.6-0.5l0.1-0.1l0.3-0.2l0.3-0.2l0.3-0.1l0.3-0.2l0.3-0.1l0.3-0.1l0.3-0.1l0.3-0.1
		l0.3-0.1l0.4-0.1l0.3,0l0.3,0l0.3,0l0.3,0l0.6,0.1l0.3,0l0.3,0l0.3,0.1l0.7,0.2l0.3,0.1l0.3,0.1l0.3,0.2l0.3,0.2l0.5,0.4l0.4,0.3
		l0.2,0.2l0.2,0.2l0.3,0.3l0.2,0.2l0.3,0.3l0.2,0.2l0.3,0.3l0.1,0.2l0.2,0.3l0.1,0.2l0.2,0.4l0.1,0.3l0.2,0.7l0.1,0.3l0.1,0.3l0,0.1
		l0.1,0.2l0,0.2v0.1l0,0.2l0,0.1l0,0.2l-0.1,0.1l-0.1,0.1l-0.2,0l-0.3,0.1l-0.3,0l-0.7,0l-0.4,0l-0.3,0l-0.2,0l-0.2,0l-0.1,0
		l-0.1-0.1l-0.1-0.2l-0.1-0.3l-0.1-0.3l-0.1-0.3l-0.1-0.3l-0.1-0.3l-0.2-0.3l-0.2-0.3l-0.6-0.6l-0.1-0.1l-0.2-0.2l-0.4-0.3l-0.3-0.2
		l-0.6-0.2l-0.3-0.1l-0.3,0h-0.3l-0.3,0l-0.3,0.1l-0.3,0.1l-0.3,0.1l-0.3,0.1l-0.2,0.1l-0.5,0.3l-0.2,0.2l-0.2,0.2l-0.2,0.2
		l-0.3,0.3l-0.2,0.2l-0.2,0.4l-0.1,0.3l-0.2,0.4l-0.1,0.3l-0.1,0.4l0,0.3l0,0.4l0,0.3l0.1,0.4l0.1,0.3l0.3,0.5l0.2,0.2l0.2,0.2
		l0.2,0.2l0.2,0.2l0.2,0.2l0.9,0.5l0.3,0.1l0.3,0.1l0.2,0l0.1,0l0.1-0.1l0.1-0.1l0.2-0.2l0.4-0.4l0.2-0.2l0-0.1l-0.1-0.2l-0.3-0.3
		l-0.2-0.2l-0.3-0.3l-0.2-0.2l-0.3-0.3l-0.2-0.2l-0.4-0.5l-0.1-0.1l0-0.1l0.1-0.2l0.1-0.1l0.2-0.2l0.3-0.3l0.4-0.4l0.2-0.2l0.3-0.3
		l0.2-0.1l0.1,0l0.2,0.1l0.4,0.3l0.2,0.2l0.6,0.6l0.9,0.8l1,1.1l0.2,0.2l0.6,0.5l0.2,0.2l0.1,0.1l0.2,0.2l0,0.1l-0.1,0.1l-0.1,0.2
		L513.6,135.2z"/>
	<path id="XMLID_30_" class="st0" d="M527.6,143.3l-0.2,0.2l-0.4,0.4l-0.2,0.2l-0.1,0.1l-0.2,0.1l-0.1,0.1l-0.1,0l-0.2-0.1l-0.2-0.2
		l-0.3-0.4l-0.2-0.2l-0.6-0.5l-0.2-0.2l-0.3-0.3L524,142l-0.1-0.1l-0.2-0.1l-0.1,0l-0.2,0.2l-0.8,0.7l-0.2,0.2l-0.7,0.8l-0.2,0.2
		l-0.8,0.7l-0.2,0.2l-0.7,0.8l-1.2,1.2l-0.8,0.7l-0.2,0.2l-0.5,0.6l-0.2,0.2l-0.2,0.1l-0.1,0l-0.2-0.1l-0.2-0.3l-0.3-0.4l-0.2-0.2
		l-0.6-0.5l-0.2-0.2l-0.5-0.6l-0.1-0.2l0-0.1l0.1-0.2l0.2-0.2l0.6-0.5l0.2-0.2l1-1l0.8-0.8l0.2-0.2l0.8-0.7l0.2-0.2l0.7-0.8l0.2-0.2
		l1-1l0.7-0.8l0.2-0.2l0.1-0.1l-0.1-0.2l-0.2-0.2l-0.4-0.4l-0.2-0.2l-0.3-0.4l-0.2-0.2l-0.2-0.2l-0.3-0.3l-0.2-0.2l-0.1-0.1
		l-0.1-0.2l0-0.1l0-0.1l0.1-0.2l0.1-0.1l0.2-0.2l0.4-0.4l0.2-0.2l0.4-0.5l0.2-0.2l0.2-0.1l0.1,0l0.1,0l0.2,0.1l0.3,0.3l0.4,0.5
		l0.2,0.2l0.8,0.7l0.2,0.2l0.7,0.8l0.2,0.2l1,0.9l0.7,0.8l0.2,0.2l1,0.9l0.9,0.9l0.4,0.4l0.2,0.2l0.1,0.1l0.1,0.2l0,0.1l0,0.2
		l-0.1,0.2l-0.1,0.1l-0.2,0.2L527.6,143.3z"/>
	<path id="XMLID_32_" class="st0" d="M537.7,160.3l-0.2,0.2l-0.3,0.3l-0.2,0.2l-0.5,0.3l-0.3,0.3l-0.2,0.2l-0.2,0.2l-0.2,0.1
		l-0.4,0.1l-0.3,0.1l-0.9,0.2l-0.3,0l-0.3,0l-0.3,0l-0.4,0l-0.3,0l-0.3,0l-0.3,0l-0.4-0.1l-0.3-0.1l-0.3-0.1l-0.3-0.1l-0.4-0.2
		l-0.2-0.1l-0.5-0.3l-0.3-0.2l-0.3-0.2l-0.3-0.2l-0.3-0.2l-0.2-0.2l-0.7-0.7l-0.4-0.5l-0.4-0.5l-0.1-0.2l-0.1-0.2l-0.5-0.9l-0.1-0.3
		l-0.1-0.3l-0.2-0.6l-0.1-0.3l-0.1-0.3l0-0.3l0-0.3l0-0.3l0-0.3l0-0.7l0-0.3l0-0.3l0.1-0.3l0.2-0.4l0.4-0.8l0.2-0.3l0.2-0.2l0.2-0.2
		l0.2-0.2l0.2-0.3l0.2-0.2l0.2-0.2l0.2-0.2l0.2-0.2l0.2-0.2l0.2-0.2l0.3-0.2l0.3-0.2l0.3-0.2l0.3-0.1l0.3-0.1l0.4-0.2l0.3-0.1
		l0.2-0.1l0.3-0.1l0.5-0.1l0.3-0.1l0.2,0h0.3l0.4,0l0.3,0l0.3,0l0.6,0.1l0.3,0.1l0.3,0.1l0.3,0.1l0.4,0.2l0.2,0.1l0.3,0.1l0.2,0.1
		l0.6,0.4l0.2,0.2l0.7,0.6l0.4,0.4l0.4,0.4l0.3,0.3l0.2,0.2l0.2,0.3l0.2,0.3l0.2,0.3l0.2,0.3l0.1,0.2l0.1,0.3l0.2,0.4l0.1,0.3
		l0.2,0.7l0.1,0.3l0,0.3l0,0.4l0,0.3v0.3l0,0.3l-0.1,0.4l-0.1,0.3l-0.1,0.3l-0.1,0.3l-0.1,0.4l-0.1,0.3l-0.1,0.3l-0.1,0.2l-0.2,0.4
		l-0.3,0.5l-0.2,0.2l-0.2,0.3L537.7,160.3z M532.9,158.8l0.3-0.1l0.4-0.2l0.3-0.1l0.4-0.2l0.2-0.2l0.3-0.3l0.2-0.2l0.2-0.2l0.2-0.2
		l0.3-0.5l0.1-0.2l0.1-0.4l0.1-0.3l0.1-0.4l0-0.3l0-0.4l0-0.3l-0.1-0.5l-0.1-0.3l-0.1-0.3l-0.2-0.2l-0.4-0.4l-0.2-0.2l-0.3-0.3
		l-0.2-0.2l-0.4-0.2l-0.3-0.1l-0.4-0.1l-0.3-0.1l-0.4,0l-0.3,0l-0.3,0.1l-0.3,0.1l-0.1,0l-0.4,0.2L531,152l-0.1,0.1l-0.2,0.1
		l-0.2,0.2l-0.2,0.2l-0.2,0.2l-0.2,0.2l-0.2,0.2l-0.2,0.2l-0.1,0.1l-0.1,0.2l-0.1,0.1L529,154l-0.1,0.2l-0.1,0.3l0,0.2l0,0.3l0,0.2
		v0.3l0,0.5l0.1,0.3l0.1,0.3l0.1,0.3l0.2,0.4l0.2,0.2l0.3,0.4l0.2,0.2l0.3,0.3l0.2,0.2l0.3,0.2l0.3,0.1l0.5,0.1l0.3,0l0.4,0l0.3,0
		L532.9,158.8z"/>
	<path id="XMLID_35_" class="st0" d="M552.8,170.4l-0.2,0.2l-1.9,1.9l-0.7,0.8l-0.2,0.2l-1.7,1.7l-0.2,0.2l-0.1,0.1l-0.2,0.2
		l-0.6,0.6l-0.7,0.8l-0.2,0.2l-0.2,0.1l-0.2,0l-0.2,0l-0.2-0.1L545,177l-0.7-0.6l-0.2-0.2l-0.3-0.3l-0.2-0.2l-0.1-0.2l-0.1-0.2
		l0-0.3l0.1-0.3l0.2-0.6l0.1-0.3l0.1-1.1l0-0.3l0.1-1.1l0.1-0.3l0.2-1.1l0-0.3l0.1-1.1l0-0.3l0.2-1.1l0-0.2l-0.1-0.1l-0.2,0.1
		l-0.7,0.6l-0.2,0.2l-0.6,0.6l-0.2,0.2l-0.7,0.7l-0.2,0.2l-0.8,0.7l-0.2,0.2l-0.4,0.6l-0.2,0.2l-0.2,0.1h-0.2l-0.1-0.1l-0.2-0.1
		l-0.1-0.1l-0.2-0.2l-0.6-0.6l-0.2-0.2l-0.5-0.5l-0.2-0.2l-0.2-0.2l-0.1-0.2l0-0.2l0-0.1l0.1-0.2l0.1-0.1l0.2-0.2l0.4-0.4l0.2-0.2
		l0.6-0.7l0.2-0.2l1.6-1.5l0.2-0.2l0.7-0.6l0.2-0.2l0.9-0.9l0.6-0.7l0.2-0.2l0.7-0.6l0.2-0.2l0.6-0.7l0.2-0.2l0.3-0.3l0.2-0.2
		l0.2-0.2l0.2-0.1l0.1-0.1l0.1,0l0.2,0.1l0.4,0.4l0.4,0.4l1,1l0.1,0.2l0,0.1l0,0.2l0,1.1l0,0.3l-0.1,1.1l0,0.3l-0.2,1.1l0,0.3
		l-0.2,1.1l0,0.3l-0.1,1.1l0,0.3l-0.2,1.1l0,0.2l0.1,0.1l0.2,0l0.1-0.1l0.4-0.6l0.2-0.2l0.6-0.5l0.2-0.2l0.7-0.8l0.2-0.2l0.8-0.7
		l0.2-0.2l0.4-0.5l0.3-0.3l0.2-0.1l0.2-0.1l0.1,0l0.2,0.1l0.1,0.1l0.2,0.2l0.5,0.6l0.2,0.2l0.5,0.4l0.2,0.2l0.3,0.3l0.1,0.2l0.1,0.1
		l0,0.2l-0.2,0.2l-0.1,0.1l-0.2,0.2l-0.4,0.4l-0.2,0.2L552.8,170.4z"/>
	<path id="XMLID_37_" class="st0" d="M552.6,183.1l-0.2,0.2l-0.1,0.1l-0.2,0.2l-0.4,0.2l-0.2,0.1l-0.3,0.2L551,184l-0.3,0.2
		l-0.3,0.2l-0.3,0.1l-0.1,0.1l-0.2,0.1l-0.1,0l-0.1,0l-0.1,0l-0.5-0.4l-0.2-0.2l-0.2-0.2l-0.1-0.1l-0.1-0.2l0-0.1v-0.1l0.1-0.1
		l0.2-0.1l0.2-0.1l0.3-0.2l0.3-0.2l0.4-0.3l0.2-0.1l0.1-0.1l0-0.1v-0.1l0-0.2l0-0.3l0.1-0.3l0.1-0.3l0.1-0.1l0.2-0.2l0.1-0.1
		l0.2-0.2l0.3-0.1l0.3-0.1h0.3l0.3,0.1l0.3,0.1l0.3,0.2l0.2,0.2l0.2,0.3l0.1,0.3l0.1,0.3l0,0.3l-0.1,0.3l-0.1,0.3l-0.2,0.2
		L552.6,183.1z"/>
	<path id="XMLID_39_" class="st0" d="M576.6,199.9l-0.2,0.2l-0.3,0.3l-0.2,0.2l-0.4,0.2l-0.3,0.1l-0.3,0.1l-0.3,0.1l-0.3,0.1
		l-0.3,0.1l-0.4,0.1l-0.3,0.1l-0.4,0l-0.3,0l-0.4,0h-0.6l-0.3,0l-0.4-0.1l-0.3-0.1l-0.4-0.1l-0.2-0.1l-0.4-0.2l-0.3-0.1l-0.3-0.2
		l-0.2-0.2l-0.9-0.7l-0.2-0.2l-0.3-0.3l-0.2-0.2L567,199l-0.3-0.4l-0.2-0.2l-0.4-0.4l-0.3-0.3l-0.2-0.2l-0.2-0.2l-0.9-0.9l-0.2-0.2
		l-0.5-0.6l-0.1-0.2v-0.1l0.1-0.2l0.2-0.2l0.1-0.1l0.4-0.4l0.2-0.2l0.3-0.3l0.2-0.2l0.2-0.2l0.2-0.2l0.7-0.7l0.2-0.2l0.6-0.7
		l0.2-0.2l0.3-0.3l0.2-0.2l0.2-0.2l0.2-0.2l0.3-0.4l0.2-0.2l0.1-0.1l0.2-0.2l0.7-0.6l0.2-0.2l0.7-0.7l0.2-0.2l0.6-0.7l0.5-0.5
		l0.2-0.2l0.2-0.2l0.2-0.1l0.1,0l0.2,0.1l0.2,0.2l0.2,0.2l0.2,0.2l1.1,1.1l0.2,0.2l0.6,0.6l0.1,0.1l0.2,0.2l0.6,0.5l0.2,0.2l0.2,0.2
		l0.3,0.3l0.4,0.4l0.2,0.2l0.3,0.4l0.2,0.2l0.1,0.2l0.3,0.6l0.1,0.3l0.1,0.3l0.1,0.3l0.1,0.7l0,0.3l0,0.3l0,0.5v0.3l0,0.3l-0.1,0.3
		l-0.1,0.4l-0.1,0.3l-0.1,0.3l-0.1,0.3l-0.1,0.3l-0.2,0.3l-0.2,0.3l-0.2,0.2l-0.2,0.3l-0.2,0.2l-0.3,0.3l-0.2,0.2L576.6,199.9z
		 M572.6,198.1l0.3-0.1l0.3-0.1l0.2-0.1l0.3-0.2l0.2-0.2l0.3-0.3l0.4-0.4l0.2-0.2l0.3-0.3l0.1-0.2l0.1-0.1l0.1-0.3l0.1-0.5v-0.1
		l0-0.3l0-0.3l0-0.3l-0.1-0.4l-0.1-0.3l-0.1-0.2l-0.2-0.2l-0.3-0.3l-0.2-0.2l-0.3-0.3l-0.3-0.3l-0.2-0.2l-0.3-0.2l-0.2-0.1H573
		l-0.2,0.1l-0.1,0.1l-0.2,0.2l-0.4,0.4l-0.2,0.2l-0.3,0.3l-0.2,0.2l-0.2,0.2l-0.2,0.2l-0.3,0.3l-0.6,0.6l-0.2,0.2l-0.2,0.2l-0.3,0.3
		l-0.2,0.2l-0.3,0.3l-0.2,0.2l-0.3,0.3l-0.1,0.2l0,0.1l0.1,0.2l1.3,1.1l0.3,0.3l0.2,0.2l0.3,0.2l0.3,0.1l0.3,0.1l0.3,0.1l0.4,0
		l0.3,0L572.6,198.1z"/>
	<path id="XMLID_42_" class="st0" d="M585.6,215.3h-0.2l-0.4,0l-0.3,0l-0.4-0.1l-0.3-0.1l-0.4-0.1l-0.3-0.1l-0.4-0.2l-0.3-0.1
		l-0.3-0.2l-0.3-0.2l-0.4-0.3l-0.5-0.4l-0.2-0.2l-0.3-0.3l-0.7-0.7l-0.2-0.2l-0.2-0.2l-0.2-0.3l-0.2-0.3l-0.1-0.3l-0.4-0.7l-0.2-0.4
		l-0.1-0.2l-0.1-0.4l0-0.3l-0.1-0.3l-0.1-0.3l-0.1-0.6l0-0.3l0-0.3l0.1-0.3l0.1-0.3l0.1-0.3l0.1-0.3l0.1-0.4l0.3-0.7l0.2-0.3
		l0.3-0.5l0.2-0.2l0.3-0.3l0.2-0.2l0.2-0.2l0.2-0.2l0.5-0.4l0.2-0.2l0.2-0.2l0.3-0.2l0.2-0.1l0.3-0.1l0.2-0.1l0.3-0.2l0.3-0.1
		l0.3-0.1l0.3-0.1l0.3-0.1l0.3-0.1l0.3,0l0.3,0l0.3,0l0.3,0l0.3,0l0.3,0l0.7,0.1l0.3,0.1l0.3,0.1l0.6,0.2l0.3,0.1l0.3,0.1l0.5,0.3
		l0.3,0.2l0.2,0.2l0.4,0.4l0.3,0.3l0.2,0.2l0.3,0.3l0.4,0.5l0.1,0.2l0.2,0.3l0.3,0.6l0.1,0.3l0.1,0.4l0.1,0.3l0.1,0.6l0.1,0.7l0,0.2
		l0,0.1v0.2l-0.1,0.1l-0.1,0.1l-0.2,0l-0.3,0l-0.3,0l-0.3,0l-0.3,0h-0.3l-0.5,0l-0.3,0h-0.1l-0.2,0l-0.1-0.1l-0.1-0.1l-0.1-0.1
		l-0.1-0.2l-0.1-0.4l-0.1-0.3l-0.2-0.4l-0.1-0.2l-0.2-0.4l-0.2-0.2l-0.3-0.3l-0.2-0.2l-0.3-0.3l-0.3-0.2l-0.4-0.2l-0.3-0.1l-0.2-0.1
		l-0.4-0.1l-0.3-0.1l-0.2,0l-0.3,0l-0.3,0.1l-0.3,0.1l-0.3,0.1l-0.3,0.1l-0.3,0.1l-0.3,0.2l-0.2,0.2l-0.4,0.4l-0.2,0.2l-0.3,0.3
		l-0.2,0.2l-0.2,0.4l-0.1,0.3l-0.1,0.3l-0.1,0.3l-0.1,0.5l0,0.3l0,0.4l0.1,0.3l0.1,0.4l0.1,0.3l0.2,0.4l0.2,0.2l0.3,0.3l0.3,0.3
		l0.2,0.1l0.1,0.1l0.3,0.1l0.4,0.2l0.3,0.1l0.3,0.1l0.3,0.1l0.4,0.1l0.3,0l0.2,0l0.1,0.1l0.1,0.1l0.1,0.2l0,0.3l0,0.1l0,0.3
		l-0.1,0.5l0,0.3l-0.1,0.7l0,0.3v0.1L585.6,215.3L585.6,215.3z"/>
</g>
<line class="st9" x1="319.8" y1="215.6" x2="112.8" y2="215.6"/>
<polygon class="st10" points="121.7,225.4 108.8,225.8 101.8,236.8 97.4,224.6 84.8,221.4 95,213.4 94.2,200.4 105,207.6 117,202.9 
	113.5,215.3 "/>
<line class="st11" x1="319.8" y1="215.6" x2="430.8" y2="215.6"/>
<polygon class="st10" points="452.8,227.4 439.8,227.8 432.9,238.8 428.4,226.6 415.8,223.4 426,215.4 425.2,202.4 436,209.6 
	448.1,204.9 444.5,217.3 "/>
<g id="XMLID_85_">
</g>
<g id="XMLID_86_">
</g>
<g id="XMLID_87_">
</g>
<g id="XMLID_88_">
</g>
<g id="XMLID_89_">
</g>
<g id="XMLID_90_">
</g>
</svg>
