<?xml version="1.0" encoding="utf-8"?>
<!-- Generator: Adobe Illustrator 19.0.0, SVG Export Plug-In . SVG Version: 6.00 Build 0)  -->
<svg version="1.1" id="Layer_1" xmlns="http://www.w3.org/2000/svg" xmlns:xlink="http://www.w3.org/1999/xlink" x="0px" y="0px"
	 viewBox="0 0 1204.3 390.9" style="enable-background:new 0 0 1204.3 390.9;" xml:space="preserve">
<style type="text/css">
	.st0{fill:#FFFFFF;}
	.st1{fill:#F17E21;}
</style>
<g id="XMLID_584_">
	<path id="XMLID_585_" class="st0" d="M784.5,205.2c0.3,2.7,1.3,4.6,3,5.9c1.7,1.3,4.1,1.9,7,1.9c2.1,0,4-0.6,5.6-1.7
		c1.6-1.1,3-2.7,4.1-4.7c1.1-2,2-4.4,2.6-7.2c0.6-2.8,1-5.9,1.2-9.3h-0.2c-1.8,3.3-3.9,5.7-6.2,7.1c-2.3,1.4-5.2,2.2-8.6,2.2
		c-3.7,0-7-0.7-9.8-2.1c-2.8-1.4-5.1-3.3-7-5.7c-1.9-2.4-3.3-5.1-4.3-8.3c-0.9-3.1-1.4-6.4-1.4-9.9c0-3.7,0.5-7.2,1.6-10.4
		s2.6-6.1,4.6-8.5c2-2.4,4.6-4.3,7.6-5.7c3-1.4,6.5-2.1,10.4-2.1c4.5,0,8.4,0.9,11.7,2.7c3.3,1.8,6,4.4,8.2,7.8
		c2.2,3.4,3.8,7.4,4.8,12.2c1,4.8,1.6,10.2,1.6,16.1c0,13.6-2.4,23.6-7.2,30c-4.8,6.4-12,9.7-21.5,9.7c-6,0-10.9-1.8-14.6-5.4
		c-3.7-3.6-5.8-8.5-6.2-14.6H784.5z M795.1,158.9c-1.8,0-3.4,0.4-4.7,1.2c-1.3,0.8-2.5,1.8-3.4,3.1c-0.9,1.3-1.6,2.8-2.1,4.5
		c-0.5,1.7-0.7,3.5-0.7,5.4c0,1.9,0.2,3.7,0.7,5.4c0.5,1.7,1.2,3.2,2.1,4.5c0.9,1.3,2.1,2.3,3.4,3.1c1.3,0.8,2.9,1.2,4.7,1.2
		c1.8,0,3.4-0.4,4.8-1.2c1.4-0.8,2.5-1.8,3.5-3.1c0.9-1.3,1.6-2.8,2.1-4.5c0.5-1.7,0.7-3.5,0.7-5.4c0-1.9-0.2-3.7-0.7-5.4
		c-0.5-1.7-1.2-3.2-2.1-4.5c-0.9-1.3-2.1-2.3-3.5-3.1C798.5,159.3,796.9,158.9,795.1,158.9z"/>
</g>
<g id="XMLID_581_">
	<path id="XMLID_582_" class="st0" d="M972.2,88.6V77.1h24.9v76h-13V88.6H972.2z"/>
</g>
<g id="XMLID_577_">
	<path id="XMLID_578_" class="st0" d="M1131.5,205.8l27.4-46.8h13.8v48.1h8.8v11.6h-8.8V235h-13v-16.4h-28.1V205.8z M1144.5,207.1
		h15.2V180h-0.2L1144.5,207.1z"/>
</g>
<g id="XMLID_573_">
	<path id="XMLID_574_" class="st0" d="M138.3,314.3l27.4-46.8h13.8v48.1h8.8v11.6h-8.8v16.4h-13v-16.4h-28.1V314.3z M151.3,315.5
		h15.2v-27.1h-0.2L151.3,315.5z"/>
</g>
<g id="XMLID_570_">
	<path id="XMLID_571_" class="st1" d="M45.8,126.6v-11.5h24.9v76h-13v-64.5H45.8z"/>
</g>
<g id="XMLID_566_">
	<path id="XMLID_567_" class="st0" d="M189.5,71.9c0,5.2-0.5,10.2-1.4,14.9c-0.9,4.8-2.5,8.9-4.5,12.5c-2.1,3.6-4.7,6.5-7.9,8.6
		c-3.2,2.1-7.1,3.2-11.5,3.2c-4.6,0-8.4-1.1-11.6-3.2c-3.2-2.1-5.8-5-7.9-8.6c-2.1-3.6-3.6-7.8-4.5-12.5c-0.9-4.8-1.4-9.7-1.4-14.9
		c0-5.2,0.5-10.1,1.4-14.9c0.9-4.8,2.4-8.9,4.5-12.5c2.1-3.6,4.7-6.5,7.9-8.6c3.2-2.1,7.1-3.2,11.6-3.2c4.5,0,8.3,1.1,11.5,3.2
		c3.2,2.1,5.9,5,7.9,8.6c2.1,3.6,3.6,7.8,4.5,12.5C189,61.8,189.5,66.7,189.5,71.9z M176.4,71.9c0-9-1.1-15.7-3.4-20.3
		c-2.2-4.5-5.2-6.8-9-6.8c-3.8,0-6.8,2.3-9,6.8c-2.2,4.6-3.4,11.3-3.4,20.3c0,9,1.1,15.7,3.4,20.3c2.2,4.6,5.2,6.8,9,6.8
		c3.8,0,6.8-2.3,9-6.8C175.3,87.6,176.4,80.9,176.4,71.9z"/>
</g>
<g id="XMLID_563_">
	<path id="XMLID_564_" class="st0" d="M466.1,240.1V228l28.5-27.9c0.8-0.8,1.6-1.8,2.3-2.8c0.7-1,1.3-2.1,1.8-3.3
		c0.5-1.2,0.9-2.3,1.3-3.5c0.3-1.2,0.5-2.3,0.5-3.5c0-3.6-0.8-6.5-2.5-8.7c-1.6-2.2-4.4-3.3-8.1-3.3c-3,0-5.4,1-7.1,3
		c-1.7,2-2.7,5.2-3.1,9.6h-13c0.1-3.6,0.7-7,1.8-10c1.2-3,2.8-5.6,4.9-7.8c2.1-2.2,4.7-3.9,7.7-5.1c3-1.2,6.3-1.8,10-1.8
		c3.6,0,6.9,0.6,9.8,1.7c2.9,1.2,5.3,2.8,7.2,4.9c2,2.1,3.4,4.6,4.5,7.5c1,2.9,1.5,6,1.5,9.5c0,2.7-0.3,5.1-0.8,7.2
		c-0.5,2.1-1.3,4.1-2.3,5.9c-1,1.9-2.3,3.6-3.7,5.2c-1.5,1.6-3.1,3.3-5,5.1l-19.7,18.7h31.3v11.5H466.1z"/>
</g>
<g id="XMLID_559_">
	<path id="XMLID_560_" class="st0" d="M66.1,281.8L93.5,235h13.8v48.1h8.8v11.6h-8.8V311h-13v-16.4H66.1V281.8z M79.1,283.1h15.2
		V256h-0.2L79.1,283.1z"/>
</g>
<g id="XMLID_556_">
	<path id="XMLID_557_" class="st0" d="M166.3,229.8c0.3,4,1.5,7.1,3.5,9.3c2,2.2,5,3.3,8.9,3.3c3.7,0,6.5-1.2,8.2-3.5
		c1.8-2.3,2.7-5.1,2.7-8.2c0-2.4-0.4-4.3-1.1-5.9c-0.7-1.5-1.7-2.7-2.9-3.6c-1.2-0.9-2.7-1.5-4.3-1.8c-1.6-0.3-3.4-0.5-5.4-0.5h-3.7
		v-12.2h3.7c3.7,0,6.5-0.7,8.3-2.1c1.8-1.4,2.7-3.8,2.7-7.2c0-2.7-0.7-4.9-2.2-6.6c-1.5-1.7-3.7-2.5-6.6-2.5c-3.1,0-5.4,0.9-7,2.6
		c-1.6,1.7-2.5,4-2.9,6.9h-13c0-3.2,0.6-6.2,1.8-8.8c1.2-2.7,2.8-4.9,4.9-6.8c2.1-1.9,4.5-3.4,7.2-4.4c2.8-1,5.7-1.6,8.9-1.6
		c2.9,0,5.7,0.5,8.4,1.4c2.7,0.9,5.1,2.2,7.2,4c2.1,1.8,3.8,3.9,5,6.5c1.3,2.6,1.9,5.5,1.9,8.8c0,4.1-0.7,7.4-2.1,9.8
		c-1.4,2.4-3.9,4.3-7.6,5.6v0.2c2.2,0.6,4,1.4,5.6,2.6c1.5,1.2,2.8,2.6,3.8,4.3c1,1.6,1.7,3.5,2.2,5.5c0.5,2,0.7,4,0.7,6.1
		c0,3.8-0.6,7.2-1.9,10.1c-1.3,3-3.1,5.5-5.4,7.5s-5,3.6-8.2,4.6c-3.1,1.1-6.5,1.6-10.2,1.6c-3.7,0-7.1-0.6-10-1.8
		c-3-1.2-5.5-2.9-7.6-5.1s-3.7-4.8-4.8-7.8c-1.1-3-1.7-6.3-1.8-10H166.3z"/>
</g>
<g id="XMLID_552_">
	<path id="XMLID_553_" class="st0" d="M525.1,42c-0.6-2.4-1.7-4.3-3.4-5.8c-1.7-1.5-3.8-2.3-6.3-2.3c-2.4,0-4.4,0.6-6,1.7
		c-1.6,1.1-3,2.7-4,4.7c-1.1,2-1.8,4.4-2.4,7.1c-0.5,2.8-0.8,5.8-0.9,9.2l0.2,0.2c1.4-2.7,3.4-4.9,5.9-6.5c2.5-1.6,5.6-2.4,9.1-2.4
		c3.6,0,6.8,0.8,9.5,2.3c2.7,1.5,4.9,3.5,6.7,5.9c1.7,2.4,3.1,5.1,3.9,8.1c0.9,3,1.3,5.9,1.3,8.9c0,4-0.5,7.6-1.6,11
		c-1.1,3.3-2.7,6.2-4.7,8.6c-2.1,2.4-4.6,4.2-7.6,5.6c-3,1.3-6.4,2-10.2,2c-4.3,0-8.1-0.8-11.3-2.5c-3.2-1.6-5.8-4-7.9-7.2
		c-2.1-3.1-3.7-7-4.7-11.5c-1.1-4.5-1.6-9.7-1.6-15.4c0-14.4,2.3-25,7-31.8c4.7-6.8,11.5-10.1,20.4-10.1c2.9,0,5.5,0.5,8,1.6
		c2.5,1.1,4.7,2.5,6.6,4.3c1.9,1.8,3.4,4,4.5,6.4c1.1,2.5,1.7,5.1,1.9,8H525.1z M514.9,60.2c-1.8,0-3.4,0.4-4.7,1.1
		c-1.3,0.7-2.5,1.7-3.4,3c-0.9,1.3-1.6,2.7-2.1,4.4c-0.5,1.7-0.7,3.5-0.7,5.5c0,2,0.2,3.8,0.7,5.5c0.5,1.7,1.2,3.1,2.1,4.4
		c0.9,1.3,2.1,2.3,3.4,3c1.3,0.7,2.9,1.1,4.7,1.1c1.7,0,3.3-0.4,4.7-1.1s2.5-1.7,3.5-3c0.9-1.3,1.6-2.7,2.1-4.4
		c0.5-1.7,0.7-3.5,0.7-5.5c0-2-0.2-3.8-0.7-5.5c-0.5-1.7-1.2-3.1-2.1-4.4c-0.9-1.3-2.1-2.3-3.5-3C518.2,60.5,516.6,60.2,514.9,60.2z
		"/>
</g>
<g id="XMLID_548_">
	<path id="XMLID_549_" class="st0" d="M1132.3,267.6c-0.6-2.4-1.7-4.3-3.4-5.8c-1.7-1.5-3.8-2.3-6.3-2.3c-2.4,0-4.4,0.6-6,1.7
		c-1.6,1.1-3,2.7-4,4.7c-1.1,2-1.8,4.4-2.4,7.1c-0.5,2.8-0.8,5.8-0.9,9.2l0.2,0.2c1.4-2.7,3.4-4.9,5.9-6.5c2.5-1.6,5.6-2.4,9.1-2.4
		c3.6,0,6.8,0.8,9.5,2.3c2.7,1.5,4.9,3.5,6.7,5.9c1.7,2.4,3.1,5.1,3.9,8.1c0.9,3,1.3,5.9,1.3,8.9c0,4-0.5,7.6-1.6,11
		c-1.1,3.3-2.7,6.2-4.7,8.6c-2.1,2.4-4.6,4.2-7.6,5.6c-3,1.3-6.4,2-10.2,2c-4.3,0-8.1-0.8-11.3-2.5c-3.2-1.6-5.8-4-7.9-7.2
		c-2.1-3.1-3.7-7-4.7-11.5c-1.1-4.5-1.6-9.7-1.6-15.4c0-14.4,2.3-25,7-31.8c4.7-6.8,11.5-10.1,20.4-10.1c2.9,0,5.5,0.5,8,1.6
		c2.5,1.1,4.7,2.5,6.6,4.3c1.9,1.8,3.4,4,4.5,6.4c1.1,2.5,1.7,5.1,1.9,8H1132.3z M1122,285.8c-1.8,0-3.4,0.4-4.7,1.1
		c-1.3,0.7-2.5,1.7-3.4,3c-0.9,1.3-1.6,2.7-2.1,4.4c-0.5,1.7-0.7,3.5-0.7,5.5c0,2,0.2,3.8,0.7,5.5c0.5,1.7,1.2,3.1,2.1,4.4
		c0.9,1.3,2.1,2.3,3.4,3c1.3,0.7,2.9,1.1,4.7,1.1c1.7,0,3.3-0.4,4.7-1.1s2.5-1.7,3.5-3c0.9-1.3,1.6-2.7,2.1-4.4
		c0.5-1.7,0.7-3.5,0.7-5.5c0-2-0.2-3.8-0.7-5.5c-0.5-1.7-1.2-3.1-2.1-4.4c-0.9-1.3-2.1-2.3-3.5-3
		C1125.3,286.2,1123.7,285.8,1122,285.8z"/>
</g>
<g id="XMLID_544_">
	<path id="XMLID_545_" class="st1" d="M1151.3,81.8c0.3,2.7,1.3,4.6,3,5.9c1.7,1.3,4.1,1.9,7,1.9c2.1,0,4-0.6,5.6-1.7
		c1.6-1.1,3-2.7,4.1-4.7c1.1-2,2-4.4,2.6-7.2c0.6-2.8,1-5.9,1.2-9.3h-0.2c-1.8,3.3-3.9,5.7-6.2,7.1c-2.3,1.4-5.2,2.2-8.6,2.2
		c-3.7,0-7-0.7-9.8-2.1c-2.8-1.4-5.1-3.3-7-5.7c-1.9-2.4-3.3-5.1-4.3-8.3c-0.9-3.1-1.4-6.4-1.4-9.9c0-3.7,0.5-7.2,1.6-10.4
		s2.6-6.1,4.6-8.5c2-2.4,4.6-4.3,7.6-5.7c3-1.4,6.5-2.1,10.4-2.1c4.5,0,8.4,0.9,11.7,2.7c3.3,1.8,6,4.4,8.2,7.8
		c2.2,3.4,3.8,7.4,4.8,12.2c1,4.8,1.6,10.2,1.6,16.1c0,13.6-2.4,23.6-7.2,30c-4.8,6.4-12,9.7-21.5,9.7c-6,0-10.9-1.8-14.6-5.4
		c-3.7-3.6-5.8-8.5-6.2-14.6H1151.3z M1161.9,35.5c-1.8,0-3.4,0.4-4.7,1.2c-1.3,0.8-2.5,1.8-3.4,3.1c-0.9,1.3-1.6,2.8-2.1,4.5
		c-0.5,1.7-0.7,3.5-0.7,5.4c0,1.9,0.2,3.7,0.7,5.4c0.5,1.7,1.2,3.2,2.1,4.5c0.9,1.3,2.1,2.3,3.4,3.1c1.3,0.8,2.9,1.2,4.7,1.2
		c1.8,0,3.4-0.4,4.8-1.2c1.4-0.8,2.5-1.8,3.5-3.1c0.9-1.3,1.6-2.8,2.1-4.5c0.5-1.7,0.7-3.5,0.7-5.4c0-1.9-0.2-3.7-0.7-5.4
		c-0.5-1.7-1.2-3.2-2.1-4.5c-0.9-1.3-2.1-2.3-3.5-3.1C1165.3,35.9,1163.7,35.5,1161.9,35.5z"/>
</g>
<g id="XMLID_540_">
	<path id="XMLID_541_" class="st0" d="M922.5,71.7c0.3,2.7,1.3,4.6,3,5.9c1.7,1.3,4.1,1.9,7,1.9c2.1,0,4-0.6,5.6-1.7
		c1.6-1.1,3-2.7,4.1-4.7c1.1-2,2-4.4,2.6-7.2c0.6-2.8,1-5.9,1.2-9.3h-0.2c-1.8,3.3-3.9,5.7-6.2,7.1c-2.3,1.4-5.2,2.2-8.6,2.2
		c-3.7,0-7-0.7-9.8-2.1c-2.8-1.4-5.1-3.3-7-5.7c-1.9-2.4-3.3-5.1-4.3-8.3c-0.9-3.1-1.4-6.4-1.4-9.9c0-3.7,0.5-7.2,1.6-10.4
		s2.6-6.1,4.6-8.5c2-2.4,4.6-4.3,7.6-5.7c3-1.4,6.5-2.1,10.4-2.1c4.5,0,8.4,0.9,11.7,2.7c3.3,1.8,6,4.4,8.2,7.8
		c2.2,3.4,3.8,7.4,4.8,12.2c1,4.8,1.6,10.2,1.6,16.1c0,13.6-2.4,23.6-7.2,30c-4.8,6.4-12,9.7-21.5,9.7c-6,0-10.9-1.8-14.6-5.4
		c-3.7-3.6-5.8-8.5-6.2-14.6H922.5z M933.1,25.4c-1.8,0-3.4,0.4-4.7,1.2c-1.3,0.8-2.5,1.8-3.4,3.1c-0.9,1.3-1.6,2.8-2.1,4.5
		c-0.5,1.7-0.7,3.5-0.7,5.4c0,1.9,0.2,3.7,0.7,5.4c0.5,1.7,1.2,3.2,2.1,4.5c0.9,1.3,2.1,2.3,3.4,3.1c1.3,0.8,2.9,1.2,4.7,1.2
		c1.8,0,3.4-0.4,4.8-1.2c1.4-0.8,2.5-1.8,3.5-3.1c0.9-1.3,1.6-2.8,2.1-4.5c0.5-1.7,0.7-3.5,0.7-5.4c0-1.9-0.2-3.7-0.7-5.4
		c-0.5-1.7-1.2-3.2-2.1-4.5c-0.9-1.3-2.1-2.3-3.5-3.1C936.5,25.8,934.9,25.4,933.1,25.4z"/>
</g>
<g id="XMLID_536_">
	<path id="XMLID_537_" class="st0" d="M227.7,348.3c0.3,2.7,1.3,4.6,3,5.9c1.7,1.3,4.1,1.9,7,1.9c2.1,0,4-0.6,5.6-1.7
		c1.6-1.1,3-2.7,4.1-4.7c1.1-2,2-4.4,2.6-7.2c0.6-2.8,1-5.9,1.2-9.3H251c-1.8,3.3-3.9,5.7-6.2,7.1c-2.3,1.4-5.2,2.2-8.6,2.2
		c-3.7,0-7-0.7-9.8-2.1c-2.8-1.4-5.1-3.3-7-5.7c-1.9-2.4-3.3-5.1-4.3-8.3c-0.9-3.1-1.4-6.4-1.4-9.9c0-3.7,0.5-7.2,1.6-10.4
		s2.6-6.1,4.6-8.5c2-2.4,4.6-4.3,7.6-5.7c3-1.4,6.5-2.1,10.4-2.1c4.5,0,8.4,0.9,11.7,2.7c3.3,1.8,6,4.4,8.2,7.8
		c2.2,3.4,3.8,7.4,4.8,12.2c1,4.8,1.6,10.2,1.6,16.1c0,13.6-2.4,23.6-7.2,30c-4.8,6.4-12,9.7-21.5,9.7c-6,0-10.9-1.8-14.6-5.4
		c-3.7-3.6-5.8-8.5-6.2-14.6H227.7z M238.3,302c-1.8,0-3.4,0.4-4.7,1.2c-1.3,0.8-2.5,1.8-3.4,3.1c-0.9,1.3-1.6,2.8-2.1,4.5
		c-0.5,1.7-0.7,3.5-0.7,5.4c0,1.9,0.2,3.7,0.7,5.4c0.5,1.7,1.2,3.2,2.1,4.5c0.9,1.3,2.1,2.3,3.4,3.1c1.3,0.8,2.9,1.2,4.7,1.2
		c1.8,0,3.4-0.4,4.8-1.2c1.4-0.8,2.5-1.8,3.5-3.1c0.9-1.3,1.6-2.8,2.1-4.5c0.5-1.7,0.7-3.5,0.7-5.4c0-1.9-0.2-3.7-0.7-5.4
		c-0.5-1.7-1.2-3.2-2.1-4.5c-0.9-1.3-2.1-2.3-3.5-3.1C241.7,302.4,240.1,302,238.3,302z"/>
</g>
<g id="XMLID_533_">
	<path id="XMLID_534_" class="st0" d="M110.5,141v-11.5h46.2v11.9l-22.5,64.2h-13.9l23.2-64.5H110.5z"/>
</g>
<g id="XMLID_530_">
	<path id="XMLID_531_" class="st0" d="M1038.3,56.7V45.2h46.2V57l-22.5,64.2h-13.9l23.2-64.5H1038.3z"/>
</g>
<g id="XMLID_525_">
	<path id="XMLID_526_" class="st0" d="M398.7,304.3c0,2.9-0.5,5.6-1.6,8.2c-1.1,2.6-2.7,4.9-4.8,6.9c-2.1,2-4.8,3.6-7.9,4.7
		c-3.1,1.2-6.7,1.7-10.8,1.7c-4.1,0-7.6-0.6-10.8-1.7c-3.1-1.2-5.7-2.7-7.9-4.7c-2.1-2-3.7-4.3-4.8-6.9c-1.1-2.6-1.6-5.4-1.6-8.2
		c0-5.2,0.9-9.4,2.6-12.5c1.7-3.2,4.8-5.5,9.2-7.1c-1.7-0.9-3.1-2-4.3-3.3c-1.2-1.3-2.1-2.7-2.8-4.1c-0.7-1.5-1.2-3-1.5-4.6
		c-0.3-1.6-0.5-3.1-0.5-4.7c0-2.5,0.4-4.9,1.3-7.4c0.8-2.4,2.2-4.7,4-6.6c1.8-2,4.1-3.6,7-4.8c2.8-1.2,6.2-1.8,10.2-1.8
		c3.9,0,7.3,0.6,10.1,1.8c2.8,1.2,5.1,2.8,6.9,4.8c1.8,2,3.1,4.2,4,6.6c0.8,2.5,1.3,4.9,1.3,7.4c0,1.5-0.2,3.1-0.5,4.7
		c-0.3,1.6-0.8,3.1-1.5,4.6c-0.7,1.5-1.6,2.9-2.8,4.1c-1.2,1.3-2.6,2.4-4.3,3.3c4.4,1.5,7.5,4,9.2,7.4
		C397.8,295.5,398.7,299.5,398.7,304.3z M373.6,291.1c-1.5,0-3,0.3-4.5,0.8c-1.4,0.5-2.7,1.3-3.8,2.3c-1.1,1-2,2.2-2.7,3.6
		c-0.7,1.4-1,2.9-1,4.6c0,1.7,0.3,3.2,1,4.6c0.7,1.4,1.6,2.6,2.7,3.6c1.1,1,2.4,1.8,3.8,2.3c1.4,0.5,2.9,0.8,4.5,0.8
		c1.5,0,3-0.3,4.5-0.8c1.4-0.5,2.7-1.3,3.8-2.3c1.1-1,2-2.2,2.7-3.6c0.7-1.4,1.1-2.9,1.1-4.6c0-1.7-0.4-3.2-1.1-4.6
		c-0.7-1.4-1.6-2.6-2.7-3.6c-1.1-1-2.4-1.8-3.8-2.3C376.7,291.3,375.2,291.1,373.6,291.1z M373.6,278.9c3.2,0,5.6-0.9,7.1-2.8
		c1.5-1.9,2.3-4.1,2.3-6.9s-0.8-5-2.3-6.9c-1.5-1.9-3.9-2.8-7.1-2.8c-3.2,0-5.6,0.9-7.1,2.8c-1.5,1.9-2.3,4.1-2.3,6.9s0.8,5,2.3,6.9
		C368,278,370.4,278.9,373.6,278.9z"/>
</g>
<g id="XMLID_522_">
	<path id="XMLID_523_" class="st0" d="M829.3,134.1v-12.2L857.8,94c0.8-0.8,1.6-1.8,2.3-2.8c0.7-1,1.3-2.1,1.8-3.3
		c0.5-1.2,0.9-2.3,1.3-3.5c0.3-1.2,0.5-2.3,0.5-3.5c0-3.6-0.8-6.5-2.5-8.7c-1.6-2.2-4.4-3.3-8.1-3.3c-3,0-5.4,1-7.1,3
		c-1.7,2-2.7,5.2-3.1,9.6h-13c0.1-3.6,0.7-7,1.8-10c1.2-3,2.8-5.6,4.9-7.8c2.1-2.2,4.7-3.9,7.7-5.1c3-1.2,6.3-1.8,10-1.8
		c3.6,0,6.9,0.6,9.8,1.7c2.9,1.2,5.3,2.8,7.2,4.9c2,2.1,3.4,4.6,4.5,7.5c1,2.9,1.5,6,1.5,9.5c0,2.7-0.3,5.1-0.8,7.2
		c-0.5,2.1-1.3,4.1-2.3,5.9c-1,1.9-2.3,3.6-3.7,5.2c-1.5,1.6-3.1,3.3-5,5.1l-19.7,18.7H877v11.5H829.3z"/>
</g>
<g id="XMLID_519_">
	<path id="XMLID_520_" class="st0" d="M575.9,238.7v-7.1h15.2v46.6h-8v-39.5H575.9z"/>
</g>
<g id="XMLID_514_">
	<path id="XMLID_515_" class="st0" d="M714.1,267.2c0,0.6-0.1,1.3-0.4,1.8c-0.2,0.6-0.6,1.1-1.1,1.5c-0.5,0.4-1.1,0.8-1.8,1.1
		c-0.7,0.3-1.5,0.4-2.4,0.4s-1.7-0.1-2.4-0.4c-0.7-0.3-1.3-0.6-1.8-1.1s-0.8-1-1.1-1.5c-0.2-0.6-0.4-1.2-0.4-1.8
		c0-1.2,0.2-2.1,0.6-2.8c0.4-0.7,1.1-1.2,2.1-1.6c-0.4-0.2-0.7-0.4-1-0.7c-0.3-0.3-0.5-0.6-0.6-0.9s-0.3-0.7-0.3-1
		c-0.1-0.4-0.1-0.7-0.1-1c0-0.5,0.1-1.1,0.3-1.6c0.2-0.5,0.5-1,0.9-1.5s0.9-0.8,1.6-1.1c0.6-0.3,1.4-0.4,2.3-0.4
		c0.9,0,1.6,0.1,2.2,0.4c0.6,0.3,1.1,0.6,1.5,1.1c0.4,0.4,0.7,0.9,0.9,1.5c0.2,0.5,0.3,1.1,0.3,1.6c0,0.3,0,0.7-0.1,1
		c-0.1,0.4-0.2,0.7-0.3,1c-0.2,0.3-0.4,0.6-0.6,0.9c-0.3,0.3-0.6,0.5-1,0.7c1,0.3,1.7,0.9,2.1,1.6
		C713.9,265.2,714.1,266.1,714.1,267.2z M708.5,264.2c-0.3,0-0.7,0.1-1,0.2s-0.6,0.3-0.9,0.5c-0.2,0.2-0.5,0.5-0.6,0.8
		c-0.2,0.3-0.2,0.7-0.2,1s0.1,0.7,0.2,1c0.2,0.3,0.4,0.6,0.6,0.8c0.2,0.2,0.5,0.4,0.9,0.5c0.3,0.1,0.7,0.2,1,0.2s0.7-0.1,1-0.2
		c0.3-0.1,0.6-0.3,0.9-0.5c0.2-0.2,0.5-0.5,0.6-0.8c0.2-0.3,0.2-0.7,0.2-1s-0.1-0.7-0.2-1c-0.2-0.3-0.4-0.6-0.6-0.8
		c-0.2-0.2-0.5-0.4-0.9-0.5C709.2,264.3,708.9,264.2,708.5,264.2z M708.5,261.5c0.7,0,1.2-0.2,1.6-0.6s0.5-0.9,0.5-1.5
		c0-0.6-0.2-1.1-0.5-1.5s-0.9-0.6-1.6-0.6s-1.2,0.2-1.6,0.6c-0.3,0.4-0.5,0.9-0.5,1.5c0,0.6,0.2,1.1,0.5,1.5
		C707.3,261.3,707.8,261.5,708.5,261.5z"/>
</g>
<g id="XMLID_511_">
	<path id="XMLID_512_" class="st0" d="M650.5,204.7v-2.6h10.3v2.6l-5,14.3h-3.1l5.2-14.4H650.5z"/>
</g>
<g id="XMLID_508_">
	<path id="XMLID_509_" class="st0" d="M446.6,148.4v-2.6h10.3v2.6l-5,14.3h-3.1l5.2-14.4H446.6z"/>
</g>
<g id="XMLID_505_">
	<path id="XMLID_506_" class="st0" d="M215.1,150.5v-2.6h10.3v2.6l-5,14.3h-3.1l5.2-14.4H215.1z"/>
</g>
<g id="XMLID_502_">
	<path id="XMLID_503_" class="st0" d="M390.9,262.7v-2.6h10.3v2.6l-5,14.3h-3.1l5.2-14.4H390.9z"/>
</g>
<g id="XMLID_499_">
	<path id="XMLID_500_" class="st0" d="M753.2,67v-2.6h10.3V67l-5,14.3h-3.1l5.2-14.4H753.2z"/>
</g>
<g id="XMLID_496_">
	<path id="XMLID_497_" class="st0" d="M1014.9,153.7v-2.6h10.3v2.6l-5,14.3h-3.1l5.2-14.4H1014.9z"/>
</g>
<g id="XMLID_493_">
	<path id="XMLID_494_" class="st0" d="M1177.6,127.5v-2.6h10.3v2.6l-5,14.3h-3.1l5.2-14.4H1177.6z"/>
</g>
<g id="XMLID_490_">
	<path id="XMLID_491_" class="st0" d="M840.1,273.6V271h10.3v2.6l-5,14.3h-3.1l5.2-14.4H840.1z"/>
</g>
<g id="XMLID_487_">
	<path id="XMLID_488_" class="st0" d="M878.2,139.9v-2.6h10.3v2.6l-5,14.3h-3.1l5.2-14.4H878.2z"/>
</g>
<g id="XMLID_484_">
	<path id="XMLID_485_" class="st0" d="M775.2,274.2v-2.6h10.3v2.6l-5,14.3h-3.1l5.2-14.4H775.2z"/>
</g>
<g id="XMLID_480_">
	<path id="XMLID_481_" class="st0" d="M493.7,106.4c-0.1-0.5-0.4-1-0.7-1.3c-0.4-0.3-0.8-0.5-1.4-0.5c-0.5,0-1,0.1-1.3,0.4
		s-0.7,0.6-0.9,1c-0.2,0.4-0.4,1-0.5,1.6c-0.1,0.6-0.2,1.3-0.2,2l0,0c0.3-0.6,0.7-1.1,1.3-1.4s1.2-0.5,2-0.5c0.8,0,1.5,0.2,2.1,0.5
		c0.6,0.3,1.1,0.8,1.5,1.3c0.4,0.5,0.7,1.1,0.9,1.8c0.2,0.7,0.3,1.3,0.3,2c0,0.9-0.1,1.7-0.4,2.4c-0.2,0.7-0.6,1.4-1.1,1.9
		c-0.5,0.5-1,0.9-1.7,1.2s-1.4,0.4-2.3,0.4c-1,0-1.8-0.2-2.5-0.5c-0.7-0.4-1.3-0.9-1.8-1.6c-0.5-0.7-0.8-1.6-1.1-2.6
		c-0.2-1-0.4-2.2-0.4-3.4c0-3.2,0.5-5.6,1.6-7.1c1-1.5,2.6-2.3,4.5-2.3c0.6,0,1.2,0.1,1.8,0.4c0.6,0.2,1,0.6,1.5,1s0.8,0.9,1,1.4
		s0.4,1.1,0.4,1.8H493.7z M491.5,110.5c-0.4,0-0.8,0.1-1.1,0.2c-0.3,0.2-0.5,0.4-0.8,0.7c-0.2,0.3-0.4,0.6-0.5,1s-0.2,0.8-0.2,1.2
		s0.1,0.8,0.2,1.2s0.3,0.7,0.5,1c0.2,0.3,0.5,0.5,0.8,0.7c0.3,0.2,0.6,0.2,1.1,0.2c0.4,0,0.7-0.1,1-0.2c0.3-0.2,0.6-0.4,0.8-0.7
		c0.2-0.3,0.4-0.6,0.5-1c0.1-0.4,0.2-0.8,0.2-1.2s-0.1-0.8-0.2-1.2c-0.1-0.4-0.3-0.7-0.5-1c-0.2-0.3-0.5-0.5-0.8-0.7
		C492.2,110.5,491.8,110.5,491.5,110.5z"/>
</g>
<g id="XMLID_476_">
	<path id="XMLID_477_" class="st1" d="M704.5,45.3c-0.1-0.5-0.4-1-0.7-1.3c-0.4-0.3-0.8-0.5-1.4-0.5c-0.5,0-1,0.1-1.3,0.4
		s-0.7,0.6-0.9,1c-0.2,0.4-0.4,1-0.5,1.6c-0.1,0.6-0.2,1.3-0.2,2l0,0c0.3-0.6,0.7-1.1,1.3-1.4s1.2-0.5,2-0.5c0.8,0,1.5,0.2,2.1,0.5
		c0.6,0.3,1.1,0.8,1.5,1.3c0.4,0.5,0.7,1.1,0.9,1.8c0.2,0.7,0.3,1.3,0.3,2c0,0.9-0.1,1.7-0.4,2.4c-0.2,0.7-0.6,1.4-1.1,1.9
		c-0.5,0.5-1,0.9-1.7,1.2s-1.4,0.4-2.3,0.4c-1,0-1.8-0.2-2.5-0.5c-0.7-0.4-1.3-0.9-1.8-1.6c-0.5-0.7-0.8-1.6-1.1-2.6
		c-0.2-1-0.4-2.2-0.4-3.4c0-3.2,0.5-5.6,1.6-7.1c1-1.5,2.6-2.3,4.5-2.3c0.6,0,1.2,0.1,1.8,0.4c0.6,0.2,1,0.6,1.5,1s0.8,0.9,1,1.4
		s0.4,1.1,0.4,1.8H704.5z M702.3,49.4c-0.4,0-0.8,0.1-1.1,0.2c-0.3,0.2-0.5,0.4-0.8,0.7c-0.2,0.3-0.4,0.6-0.5,1s-0.2,0.8-0.2,1.2
		s0.1,0.8,0.2,1.2s0.3,0.7,0.5,1c0.2,0.3,0.5,0.5,0.8,0.7c0.3,0.2,0.6,0.2,1.1,0.2c0.4,0,0.7-0.1,1-0.2c0.3-0.2,0.6-0.4,0.8-0.7
		c0.2-0.3,0.4-0.6,0.5-1c0.1-0.4,0.2-0.8,0.2-1.2s-0.1-0.8-0.2-1.2c-0.1-0.4-0.3-0.7-0.5-1c-0.2-0.3-0.5-0.5-0.8-0.7
		C703,49.5,702.6,49.4,702.3,49.4z"/>
</g>
<g id="XMLID_472_">
	<path id="XMLID_473_" class="st0" d="M1022.9,249.6c-0.1-0.5-0.4-1-0.7-1.3c-0.4-0.3-0.8-0.5-1.4-0.5c-0.5,0-1,0.1-1.3,0.4
		s-0.7,0.6-0.9,1c-0.2,0.4-0.4,1-0.5,1.6c-0.1,0.6-0.2,1.3-0.2,2l0,0c0.3-0.6,0.7-1.1,1.3-1.4s1.2-0.5,2-0.5c0.8,0,1.5,0.2,2.1,0.5
		c0.6,0.3,1.1,0.8,1.5,1.3c0.4,0.5,0.7,1.1,0.9,1.8c0.2,0.7,0.3,1.3,0.3,2c0,0.9-0.1,1.7-0.4,2.4c-0.2,0.7-0.6,1.4-1.1,1.9
		c-0.5,0.5-1,0.9-1.7,1.2s-1.4,0.4-2.3,0.4c-1,0-1.8-0.2-2.5-0.5c-0.7-0.4-1.3-0.9-1.8-1.6c-0.5-0.7-0.8-1.6-1.1-2.6
		c-0.2-1-0.4-2.2-0.4-3.4c0-3.2,0.5-5.6,1.6-7.1c1-1.5,2.6-2.3,4.5-2.3c0.6,0,1.2,0.1,1.8,0.4c0.6,0.2,1,0.6,1.5,1s0.8,0.9,1,1.4
		s0.4,1.1,0.4,1.8H1022.9z M1020.6,253.7c-0.4,0-0.8,0.1-1.1,0.2c-0.3,0.2-0.5,0.4-0.8,0.7c-0.2,0.3-0.4,0.6-0.5,1s-0.2,0.8-0.2,1.2
		s0.1,0.8,0.2,1.2s0.3,0.7,0.5,1c0.2,0.3,0.5,0.5,0.8,0.7c0.3,0.2,0.6,0.2,1.1,0.2c0.4,0,0.7-0.1,1-0.2c0.3-0.2,0.6-0.4,0.8-0.7
		c0.2-0.3,0.4-0.6,0.5-1c0.1-0.4,0.2-0.8,0.2-1.2s-0.1-0.8-0.2-1.2c-0.1-0.4-0.3-0.7-0.5-1c-0.2-0.3-0.5-0.5-0.8-0.7
		C1021.3,253.7,1021,253.7,1020.6,253.7z"/>
</g>
<g id="XMLID_468_">
	<path id="XMLID_469_" class="st0" d="M1051.9,147.2c-0.1-0.5-0.4-1-0.7-1.3c-0.4-0.3-0.8-0.5-1.4-0.5c-0.5,0-1,0.1-1.3,0.4
		s-0.7,0.6-0.9,1c-0.2,0.4-0.4,1-0.5,1.6c-0.1,0.6-0.2,1.3-0.2,2l0,0c0.3-0.6,0.7-1.1,1.3-1.4s1.2-0.5,2-0.5c0.8,0,1.5,0.2,2.1,0.5
		c0.6,0.3,1.1,0.8,1.5,1.3c0.4,0.5,0.7,1.1,0.9,1.8c0.2,0.7,0.3,1.3,0.3,2c0,0.9-0.1,1.7-0.4,2.4c-0.2,0.7-0.6,1.4-1.1,1.9
		c-0.5,0.5-1,0.9-1.7,1.2s-1.4,0.4-2.3,0.4c-1,0-1.8-0.2-2.5-0.5c-0.7-0.4-1.3-0.9-1.8-1.6c-0.5-0.7-0.8-1.6-1.1-2.6
		c-0.2-1-0.4-2.2-0.4-3.4c0-3.2,0.5-5.6,1.6-7.1c1-1.5,2.6-2.3,4.5-2.3c0.6,0,1.2,0.1,1.8,0.4c0.6,0.2,1,0.6,1.5,1s0.8,0.9,1,1.4
		s0.4,1.1,0.4,1.8H1051.9z M1049.6,151.2c-0.4,0-0.8,0.1-1.1,0.2c-0.3,0.2-0.5,0.4-0.8,0.7c-0.2,0.3-0.4,0.6-0.5,1s-0.2,0.8-0.2,1.2
		s0.1,0.8,0.2,1.2s0.3,0.7,0.5,1c0.2,0.3,0.5,0.5,0.8,0.7c0.3,0.2,0.6,0.2,1.1,0.2c0.4,0,0.7-0.1,1-0.2c0.3-0.2,0.6-0.4,0.8-0.7
		c0.2-0.3,0.4-0.6,0.5-1c0.1-0.4,0.2-0.8,0.2-1.2s-0.1-0.8-0.2-1.2c-0.1-0.4-0.3-0.7-0.5-1c-0.2-0.3-0.5-0.5-0.8-0.7
		C1050.4,151.3,1050,151.2,1049.6,151.2z"/>
</g>
<g id="XMLID_464_">
	<path id="XMLID_465_" class="st0" d="M1190.2,257c-0.1-0.5-0.4-1-0.7-1.3c-0.4-0.3-0.8-0.5-1.4-0.5c-0.5,0-1,0.1-1.3,0.4
		s-0.7,0.6-0.9,1c-0.2,0.4-0.4,1-0.5,1.6c-0.1,0.6-0.2,1.3-0.2,2l0,0c0.3-0.6,0.7-1.1,1.3-1.4s1.2-0.5,2-0.5c0.8,0,1.5,0.2,2.1,0.5
		c0.6,0.3,1.1,0.8,1.5,1.3c0.4,0.5,0.7,1.1,0.9,1.8c0.2,0.7,0.3,1.3,0.3,2c0,0.9-0.1,1.7-0.4,2.4c-0.2,0.7-0.6,1.4-1.1,1.9
		c-0.5,0.5-1,0.9-1.7,1.2s-1.4,0.4-2.3,0.4c-1,0-1.8-0.2-2.5-0.5c-0.7-0.4-1.3-0.9-1.8-1.6c-0.5-0.7-0.8-1.6-1.1-2.6
		c-0.2-1-0.4-2.2-0.4-3.4c0-3.2,0.5-5.6,1.6-7.1c1-1.5,2.6-2.3,4.5-2.3c0.6,0,1.2,0.1,1.8,0.4c0.6,0.2,1,0.6,1.5,1s0.8,0.9,1,1.4
		s0.4,1.1,0.4,1.8H1190.2z M1187.9,261.1c-0.4,0-0.8,0.1-1.1,0.2c-0.3,0.2-0.5,0.4-0.8,0.7c-0.2,0.3-0.4,0.6-0.5,1s-0.2,0.8-0.2,1.2
		s0.1,0.8,0.2,1.2s0.3,0.7,0.5,1c0.2,0.3,0.5,0.5,0.8,0.7c0.3,0.2,0.6,0.2,1.1,0.2c0.4,0,0.7-0.1,1-0.2c0.3-0.2,0.6-0.4,0.8-0.7
		c0.2-0.3,0.4-0.6,0.5-1c0.1-0.4,0.2-0.8,0.2-1.2s-0.1-0.8-0.2-1.2c-0.1-0.4-0.3-0.7-0.5-1c-0.2-0.3-0.5-0.5-0.8-0.7
		C1188.6,261.1,1188.3,261.1,1187.9,261.1z"/>
</g>
<g id="XMLID_460_">
	<path id="XMLID_461_" class="st0" d="M903.1,217.5c-0.1-0.5-0.4-1-0.7-1.3c-0.4-0.3-0.8-0.5-1.4-0.5c-0.5,0-1,0.1-1.3,0.4
		s-0.7,0.6-0.9,1c-0.2,0.4-0.4,1-0.5,1.6c-0.1,0.6-0.2,1.3-0.2,2l0,0c0.3-0.6,0.7-1.1,1.3-1.4s1.2-0.5,2-0.5c0.8,0,1.5,0.2,2.1,0.5
		c0.6,0.3,1.1,0.8,1.5,1.3c0.4,0.5,0.7,1.1,0.9,1.8c0.2,0.7,0.3,1.3,0.3,2c0,0.9-0.1,1.7-0.4,2.4c-0.2,0.7-0.6,1.4-1.1,1.9
		c-0.5,0.5-1,0.9-1.7,1.2s-1.4,0.4-2.3,0.4c-1,0-1.8-0.2-2.5-0.5c-0.7-0.4-1.3-0.9-1.8-1.6c-0.5-0.7-0.8-1.6-1.1-2.6
		c-0.2-1-0.4-2.2-0.4-3.4c0-3.2,0.5-5.6,1.6-7.1c1-1.5,2.6-2.3,4.5-2.3c0.6,0,1.2,0.1,1.8,0.4c0.6,0.2,1,0.6,1.5,1s0.8,0.9,1,1.4
		s0.4,1.1,0.4,1.8H903.1z M900.8,221.5c-0.4,0-0.8,0.1-1.1,0.2c-0.3,0.2-0.5,0.4-0.8,0.7c-0.2,0.3-0.4,0.6-0.5,1s-0.2,0.8-0.2,1.2
		s0.1,0.8,0.2,1.2s0.3,0.7,0.5,1c0.2,0.3,0.5,0.5,0.8,0.7c0.3,0.2,0.6,0.2,1.1,0.2c0.4,0,0.7-0.1,1-0.2c0.3-0.2,0.6-0.4,0.8-0.7
		c0.2-0.3,0.4-0.6,0.5-1c0.1-0.4,0.2-0.8,0.2-1.2s-0.1-0.8-0.2-1.2c-0.1-0.4-0.3-0.7-0.5-1c-0.2-0.3-0.5-0.5-0.8-0.7
		C901.5,221.6,901.2,221.5,900.8,221.5z"/>
</g>
<g id="XMLID_456_">
	<path id="XMLID_457_" class="st0" d="M898.9,301.5c-0.1-0.5-0.4-1-0.7-1.3c-0.4-0.3-0.8-0.5-1.4-0.5c-0.5,0-1,0.1-1.3,0.4
		s-0.7,0.6-0.9,1c-0.2,0.4-0.4,1-0.5,1.6c-0.1,0.6-0.2,1.3-0.2,2l0,0c0.3-0.6,0.7-1.1,1.3-1.4s1.2-0.5,2-0.5c0.8,0,1.5,0.2,2.1,0.5
		c0.6,0.3,1.1,0.8,1.5,1.3c0.4,0.5,0.7,1.1,0.9,1.8c0.2,0.7,0.3,1.3,0.3,2c0,0.9-0.1,1.7-0.4,2.4c-0.2,0.7-0.6,1.4-1.1,1.9
		c-0.5,0.5-1,0.9-1.7,1.2s-1.4,0.4-2.3,0.4c-1,0-1.8-0.2-2.5-0.5c-0.7-0.4-1.3-0.9-1.8-1.6c-0.5-0.7-0.8-1.6-1.1-2.6
		c-0.2-1-0.4-2.2-0.4-3.4c0-3.2,0.5-5.6,1.6-7.1c1-1.5,2.6-2.3,4.5-2.3c0.6,0,1.2,0.1,1.8,0.4c0.6,0.2,1,0.6,1.5,1s0.8,0.9,1,1.4
		s0.4,1.1,0.4,1.8H898.9z M896.6,305.5c-0.4,0-0.8,0.1-1.1,0.2c-0.3,0.2-0.5,0.4-0.8,0.7c-0.2,0.3-0.4,0.6-0.5,1s-0.2,0.8-0.2,1.2
		s0.1,0.8,0.2,1.2s0.3,0.7,0.5,1c0.2,0.3,0.5,0.5,0.8,0.7c0.3,0.2,0.6,0.2,1.1,0.2c0.4,0,0.7-0.1,1-0.2c0.3-0.2,0.6-0.4,0.8-0.7
		c0.2-0.3,0.4-0.6,0.5-1c0.1-0.4,0.2-0.8,0.2-1.2s-0.1-0.8-0.2-1.2c-0.1-0.4-0.3-0.7-0.5-1c-0.2-0.3-0.5-0.5-0.8-0.7
		C897.3,305.6,897,305.5,896.6,305.5z"/>
</g>
<g id="XMLID_452_">
	<path id="XMLID_453_" class="st0" d="M33,286.9c-0.1-0.5-0.4-1-0.7-1.3c-0.4-0.3-0.8-0.5-1.4-0.5c-0.5,0-1,0.1-1.3,0.4
		c-0.4,0.2-0.7,0.6-0.9,1s-0.4,1-0.5,1.6c-0.1,0.6-0.2,1.3-0.2,2l0,0c0.3-0.6,0.7-1.1,1.3-1.4s1.2-0.5,2-0.5c0.8,0,1.5,0.2,2.1,0.5
		c0.6,0.3,1.1,0.8,1.5,1.3c0.4,0.5,0.7,1.1,0.9,1.8c0.2,0.7,0.3,1.3,0.3,2c0,0.9-0.1,1.7-0.4,2.4c-0.2,0.7-0.6,1.4-1.1,1.9
		c-0.5,0.5-1,0.9-1.7,1.2c-0.7,0.3-1.4,0.4-2.3,0.4c-1,0-1.8-0.2-2.5-0.5c-0.7-0.4-1.3-0.9-1.8-1.6c-0.5-0.7-0.8-1.6-1.1-2.6
		c-0.2-1-0.4-2.2-0.4-3.4c0-3.2,0.5-5.6,1.6-7.1c1-1.5,2.6-2.3,4.5-2.3c0.6,0,1.2,0.1,1.8,0.4c0.6,0.2,1,0.6,1.5,1s0.8,0.9,1,1.4
		c0.2,0.5,0.4,1.1,0.4,1.8H33z M30.7,290.9c-0.4,0-0.8,0.1-1.1,0.2c-0.3,0.2-0.5,0.4-0.8,0.7s-0.4,0.6-0.5,1
		c-0.1,0.4-0.2,0.8-0.2,1.2s0.1,0.8,0.2,1.2c0.1,0.4,0.3,0.7,0.5,1c0.2,0.3,0.5,0.5,0.8,0.7c0.3,0.2,0.6,0.2,1.1,0.2
		c0.4,0,0.7-0.1,1-0.2c0.3-0.2,0.6-0.4,0.8-0.7c0.2-0.3,0.4-0.6,0.5-1c0.1-0.4,0.2-0.8,0.2-1.2s-0.1-0.8-0.2-1.2
		c-0.1-0.4-0.3-0.7-0.5-1s-0.5-0.5-0.8-0.7C31.4,291,31.1,290.9,30.7,290.9z"/>
</g>
<g id="XMLID_448_">
	<path id="XMLID_449_" class="st0" d="M29.3,155.4c-0.1-0.5-0.4-1-0.7-1.3c-0.4-0.3-0.8-0.5-1.4-0.5c-0.5,0-1,0.1-1.3,0.4
		c-0.4,0.2-0.7,0.6-0.9,1s-0.4,1-0.5,1.6c-0.1,0.6-0.2,1.3-0.2,2l0,0c0.3-0.6,0.7-1.1,1.3-1.4s1.2-0.5,2-0.5c0.8,0,1.5,0.2,2.1,0.5
		c0.6,0.3,1.1,0.8,1.5,1.3c0.4,0.5,0.7,1.1,0.9,1.8c0.2,0.7,0.3,1.3,0.3,2c0,0.9-0.1,1.7-0.4,2.4c-0.2,0.7-0.6,1.4-1.1,1.9
		c-0.5,0.5-1,0.9-1.7,1.2c-0.7,0.3-1.4,0.4-2.3,0.4c-1,0-1.8-0.2-2.5-0.5c-0.7-0.4-1.3-0.9-1.8-1.6c-0.5-0.7-0.8-1.6-1.1-2.6
		c-0.2-1-0.4-2.2-0.4-3.4c0-3.2,0.5-5.6,1.6-7.1c1-1.5,2.6-2.3,4.5-2.3c0.6,0,1.2,0.1,1.8,0.4c0.6,0.2,1,0.6,1.5,1s0.8,0.9,1,1.4
		c0.2,0.5,0.4,1.1,0.4,1.8H29.3z M27,159.4c-0.4,0-0.8,0.1-1.1,0.2c-0.3,0.2-0.5,0.4-0.8,0.7s-0.4,0.6-0.5,1
		c-0.1,0.4-0.2,0.8-0.2,1.2s0.1,0.8,0.2,1.2c0.1,0.4,0.3,0.7,0.5,1c0.2,0.3,0.5,0.5,0.8,0.7c0.3,0.2,0.6,0.2,1.1,0.2
		c0.4,0,0.7-0.1,1-0.2c0.3-0.2,0.6-0.4,0.8-0.7c0.2-0.3,0.4-0.6,0.5-1c0.1-0.4,0.2-0.8,0.2-1.2s-0.1-0.8-0.2-1.2
		c-0.1-0.4-0.3-0.7-0.5-1s-0.5-0.5-0.8-0.7C27.7,159.5,27.4,159.4,27,159.4z"/>
</g>
<g id="XMLID_444_">
	<path id="XMLID_445_" class="st0" d="M821.2,251.5c-0.1-0.5-0.4-1-0.7-1.3c-0.4-0.3-0.8-0.5-1.4-0.5c-0.5,0-1,0.1-1.3,0.4
		s-0.7,0.6-0.9,1c-0.2,0.4-0.4,1-0.5,1.6c-0.1,0.6-0.2,1.3-0.2,2l0,0c0.3-0.6,0.7-1.1,1.3-1.4s1.2-0.5,2-0.5c0.8,0,1.5,0.2,2.1,0.5
		c0.6,0.3,1.1,0.8,1.5,1.3c0.4,0.5,0.7,1.1,0.9,1.8c0.2,0.7,0.3,1.3,0.3,2c0,0.9-0.1,1.7-0.4,2.4c-0.2,0.7-0.6,1.4-1.1,1.9
		c-0.5,0.5-1,0.9-1.7,1.2s-1.4,0.4-2.3,0.4c-1,0-1.8-0.2-2.5-0.5c-0.7-0.4-1.3-0.9-1.8-1.6c-0.5-0.7-0.8-1.6-1.1-2.6
		c-0.2-1-0.4-2.2-0.4-3.4c0-3.2,0.5-5.6,1.6-7.1c1-1.5,2.6-2.3,4.5-2.3c0.6,0,1.2,0.1,1.8,0.4c0.6,0.2,1,0.6,1.5,1s0.8,0.9,1,1.4
		s0.4,1.1,0.4,1.8H821.2z M818.9,255.5c-0.4,0-0.8,0.1-1.1,0.2c-0.3,0.2-0.5,0.4-0.8,0.7c-0.2,0.3-0.4,0.6-0.5,1s-0.2,0.8-0.2,1.2
		s0.1,0.8,0.2,1.2s0.3,0.7,0.5,1c0.2,0.3,0.5,0.5,0.8,0.7c0.3,0.2,0.6,0.2,1.1,0.2c0.4,0,0.7-0.1,1-0.2c0.3-0.2,0.6-0.4,0.8-0.7
		c0.2-0.3,0.4-0.6,0.5-1c0.1-0.4,0.2-0.8,0.2-1.2s-0.1-0.8-0.2-1.2c-0.1-0.4-0.3-0.7-0.5-1c-0.2-0.3-0.5-0.5-0.8-0.7
		C819.6,255.6,819.3,255.5,818.9,255.5z"/>
</g>
<g id="XMLID_439_">
	<path id="XMLID_440_" class="st0" d="M765.9,305.3c0,0.6-0.1,1.3-0.4,1.8c-0.2,0.6-0.6,1.1-1.1,1.5c-0.5,0.4-1.1,0.8-1.8,1.1
		c-0.7,0.3-1.5,0.4-2.4,0.4s-1.7-0.1-2.4-0.4c-0.7-0.3-1.3-0.6-1.8-1.1s-0.8-1-1.1-1.5c-0.2-0.6-0.4-1.2-0.4-1.8
		c0-1.2,0.2-2.1,0.6-2.8c0.4-0.7,1.1-1.2,2.1-1.6c-0.4-0.2-0.7-0.4-1-0.7c-0.3-0.3-0.5-0.6-0.6-0.9s-0.3-0.7-0.3-1
		c-0.1-0.4-0.1-0.7-0.1-1c0-0.5,0.1-1.1,0.3-1.6c0.2-0.5,0.5-1,0.9-1.5s0.9-0.8,1.6-1.1c0.6-0.3,1.4-0.4,2.3-0.4
		c0.9,0,1.6,0.1,2.2,0.4c0.6,0.3,1.1,0.6,1.5,1.1c0.4,0.4,0.7,0.9,0.9,1.5c0.2,0.5,0.3,1.1,0.3,1.6c0,0.3,0,0.7-0.1,1
		c-0.1,0.4-0.2,0.7-0.3,1c-0.2,0.3-0.4,0.6-0.6,0.9c-0.3,0.3-0.6,0.5-1,0.7c1,0.3,1.7,0.9,2.1,1.6
		C765.7,303.3,765.9,304.2,765.9,305.3z M760.3,302.3c-0.3,0-0.7,0.1-1,0.2s-0.6,0.3-0.9,0.5c-0.2,0.2-0.5,0.5-0.6,0.8
		c-0.2,0.3-0.2,0.7-0.2,1s0.1,0.7,0.2,1c0.2,0.3,0.4,0.6,0.6,0.8c0.2,0.2,0.5,0.4,0.9,0.5c0.3,0.1,0.7,0.2,1,0.2s0.7-0.1,1-0.2
		c0.3-0.1,0.6-0.3,0.9-0.5c0.2-0.2,0.5-0.5,0.6-0.8c0.2-0.3,0.2-0.7,0.2-1s-0.1-0.7-0.2-1c-0.2-0.3-0.4-0.6-0.6-0.8
		c-0.2-0.2-0.5-0.4-0.9-0.5C761,302.4,760.7,302.3,760.3,302.3z M760.3,299.6c0.7,0,1.2-0.2,1.6-0.6s0.5-0.9,0.5-1.5
		c0-0.6-0.2-1.1-0.5-1.5s-0.9-0.6-1.6-0.6s-1.2,0.2-1.6,0.6c-0.3,0.4-0.5,0.9-0.5,1.5c0,0.6,0.2,1.1,0.5,1.5
		C759.1,299.4,759.6,299.6,760.3,299.6z"/>
</g>
<g id="XMLID_434_">
	<path id="XMLID_435_" class="st0" d="M1021.1,293.4c0,0.6-0.1,1.3-0.4,1.8c-0.2,0.6-0.6,1.1-1.1,1.5c-0.5,0.4-1.1,0.8-1.8,1.1
		c-0.7,0.3-1.5,0.4-2.4,0.4s-1.7-0.1-2.4-0.4c-0.7-0.3-1.3-0.6-1.8-1.1s-0.8-1-1.1-1.5c-0.2-0.6-0.4-1.2-0.4-1.8
		c0-1.2,0.2-2.1,0.6-2.8c0.4-0.7,1.1-1.2,2.1-1.6c-0.4-0.2-0.7-0.4-1-0.7c-0.3-0.3-0.5-0.6-0.6-0.9s-0.3-0.7-0.3-1
		c-0.1-0.4-0.1-0.7-0.1-1c0-0.5,0.1-1.1,0.3-1.6c0.2-0.5,0.5-1,0.9-1.5s0.9-0.8,1.6-1.1c0.6-0.3,1.4-0.4,2.3-0.4
		c0.9,0,1.6,0.1,2.2,0.4c0.6,0.3,1.1,0.6,1.5,1.1c0.4,0.4,0.7,0.9,0.9,1.5c0.2,0.5,0.3,1.1,0.3,1.6c0,0.3,0,0.7-0.1,1
		c-0.1,0.4-0.2,0.7-0.3,1c-0.2,0.3-0.4,0.6-0.6,0.9c-0.3,0.3-0.6,0.5-1,0.7c1,0.3,1.7,0.9,2.1,1.6
		C1020.9,291.5,1021.1,292.4,1021.1,293.4z M1015.5,290.5c-0.3,0-0.7,0.1-1,0.2s-0.6,0.3-0.9,0.5c-0.2,0.2-0.5,0.5-0.6,0.8
		c-0.2,0.3-0.2,0.7-0.2,1s0.1,0.7,0.2,1c0.2,0.3,0.4,0.6,0.6,0.8c0.2,0.2,0.5,0.4,0.9,0.5c0.3,0.1,0.7,0.2,1,0.2s0.7-0.1,1-0.2
		c0.3-0.1,0.6-0.3,0.9-0.5c0.2-0.2,0.5-0.5,0.6-0.8c0.2-0.3,0.2-0.7,0.2-1s-0.1-0.7-0.2-1c-0.2-0.3-0.4-0.6-0.6-0.8
		c-0.2-0.2-0.5-0.4-0.9-0.5C1016.2,290.6,1015.9,290.5,1015.5,290.5z M1015.5,287.8c0.7,0,1.2-0.2,1.6-0.6s0.5-0.9,0.5-1.5
		c0-0.6-0.2-1.1-0.5-1.5s-0.9-0.6-1.6-0.6s-1.2,0.2-1.6,0.6c-0.3,0.4-0.5,0.9-0.5,1.5c0,0.6,0.2,1.1,0.5,1.5
		C1014.3,287.6,1014.8,287.8,1015.5,287.8z"/>
</g>
<g id="XMLID_429_">
	<path id="XMLID_430_" class="st0" d="M1128.8,119.2c0,0.6-0.1,1.3-0.4,1.8c-0.2,0.6-0.6,1.1-1.1,1.5c-0.5,0.4-1.1,0.8-1.8,1.1
		c-0.7,0.3-1.5,0.4-2.4,0.4s-1.7-0.1-2.4-0.4c-0.7-0.3-1.3-0.6-1.8-1.1s-0.8-1-1.1-1.5c-0.2-0.6-0.4-1.2-0.4-1.8
		c0-1.2,0.2-2.1,0.6-2.8c0.4-0.7,1.1-1.2,2.1-1.6c-0.4-0.2-0.7-0.4-1-0.7c-0.3-0.3-0.5-0.6-0.6-0.9s-0.3-0.7-0.3-1
		c-0.1-0.4-0.1-0.7-0.1-1c0-0.5,0.1-1.1,0.3-1.6c0.2-0.5,0.5-1,0.9-1.5s0.9-0.8,1.6-1.1c0.6-0.3,1.4-0.4,2.3-0.4
		c0.9,0,1.6,0.1,2.2,0.4c0.6,0.3,1.1,0.6,1.5,1.1c0.4,0.4,0.7,0.9,0.9,1.5c0.2,0.5,0.3,1.1,0.3,1.6c0,0.3,0,0.7-0.1,1
		c-0.1,0.4-0.2,0.7-0.3,1c-0.2,0.3-0.4,0.6-0.6,0.9c-0.3,0.3-0.6,0.5-1,0.7c1,0.3,1.7,0.9,2.1,1.6
		C1128.6,117.2,1128.8,118.1,1128.8,119.2z M1123.2,116.3c-0.3,0-0.7,0.1-1,0.2s-0.6,0.3-0.9,0.5c-0.2,0.2-0.5,0.5-0.6,0.8
		c-0.2,0.3-0.2,0.7-0.2,1s0.1,0.7,0.2,1c0.2,0.3,0.4,0.6,0.6,0.8c0.2,0.2,0.5,0.4,0.9,0.5c0.3,0.1,0.7,0.2,1,0.2s0.7-0.1,1-0.2
		c0.3-0.1,0.6-0.3,0.9-0.5c0.2-0.2,0.5-0.5,0.6-0.8c0.2-0.3,0.2-0.7,0.2-1s-0.1-0.7-0.2-1c-0.2-0.3-0.4-0.6-0.6-0.8
		c-0.2-0.2-0.5-0.4-0.9-0.5C1123.9,116.3,1123.6,116.3,1123.2,116.3z M1123.2,113.6c0.7,0,1.2-0.2,1.6-0.6s0.5-0.9,0.5-1.5
		c0-0.6-0.2-1.1-0.5-1.5s-0.9-0.6-1.6-0.6s-1.2,0.2-1.6,0.6c-0.3,0.4-0.5,0.9-0.5,1.5c0,0.6,0.2,1.1,0.5,1.5
		C1122,113.3,1122.5,113.6,1123.2,113.6z"/>
</g>
<g id="XMLID_424_">
	<path id="XMLID_425_" class="st0" d="M1174.9,323.4c0,0.6-0.1,1.3-0.4,1.8c-0.2,0.6-0.6,1.1-1.1,1.5c-0.5,0.4-1.1,0.8-1.8,1.1
		c-0.7,0.3-1.5,0.4-2.4,0.4s-1.7-0.1-2.4-0.4c-0.7-0.3-1.3-0.6-1.8-1.1s-0.8-1-1.1-1.5c-0.2-0.6-0.4-1.2-0.4-1.8
		c0-1.2,0.2-2.1,0.6-2.8c0.4-0.7,1.1-1.2,2.1-1.6c-0.4-0.2-0.7-0.4-1-0.7c-0.3-0.3-0.5-0.6-0.6-0.9s-0.3-0.7-0.3-1
		c-0.1-0.4-0.1-0.7-0.1-1c0-0.5,0.1-1.1,0.3-1.6c0.2-0.5,0.5-1,0.9-1.5s0.9-0.8,1.6-1.1c0.6-0.3,1.4-0.4,2.3-0.4
		c0.9,0,1.6,0.1,2.2,0.4c0.6,0.3,1.1,0.6,1.5,1.1c0.4,0.4,0.7,0.9,0.9,1.5c0.2,0.5,0.3,1.1,0.3,1.6c0,0.3,0,0.7-0.1,1
		c-0.1,0.4-0.2,0.7-0.3,1c-0.2,0.3-0.4,0.6-0.6,0.9c-0.3,0.3-0.6,0.5-1,0.7c1,0.3,1.7,0.9,2.1,1.6
		C1174.7,321.5,1174.9,322.4,1174.9,323.4z M1169.3,320.5c-0.3,0-0.7,0.1-1,0.2s-0.6,0.3-0.9,0.5c-0.2,0.2-0.5,0.5-0.6,0.8
		c-0.2,0.3-0.2,0.7-0.2,1s0.1,0.7,0.2,1c0.2,0.3,0.4,0.6,0.6,0.8c0.2,0.2,0.5,0.4,0.9,0.5c0.3,0.1,0.7,0.2,1,0.2s0.7-0.1,1-0.2
		c0.3-0.1,0.6-0.3,0.9-0.5c0.2-0.2,0.5-0.5,0.6-0.8c0.2-0.3,0.2-0.7,0.2-1s-0.1-0.7-0.2-1c-0.2-0.3-0.4-0.6-0.6-0.8
		c-0.2-0.2-0.5-0.4-0.9-0.5C1170,320.5,1169.6,320.5,1169.3,320.5z M1169.3,317.8c0.7,0,1.2-0.2,1.6-0.6s0.5-0.9,0.5-1.5
		c0-0.6-0.2-1.1-0.5-1.5s-0.9-0.6-1.6-0.6s-1.2,0.2-1.6,0.6c-0.3,0.4-0.5,0.9-0.5,1.5c0,0.6,0.2,1.1,0.5,1.5
		C1168.1,317.6,1168.6,317.8,1169.3,317.8z"/>
</g>
<g id="XMLID_419_">
	<path id="XMLID_420_" class="st0" d="M15.8,279.7c0,0.6-0.1,1.3-0.4,1.8c-0.2,0.6-0.6,1.1-1.1,1.5c-0.5,0.4-1.1,0.8-1.8,1.1
		c-0.7,0.3-1.5,0.4-2.4,0.4c-0.9,0-1.7-0.1-2.4-0.4c-0.7-0.3-1.3-0.6-1.8-1.1s-0.8-1-1.1-1.5c-0.2-0.6-0.4-1.2-0.4-1.8
		c0-1.2,0.2-2.1,0.6-2.8c0.4-0.7,1.1-1.2,2.1-1.6c-0.4-0.2-0.7-0.4-1-0.7s-0.5-0.6-0.6-0.9s-0.3-0.7-0.3-1c-0.1-0.4-0.1-0.7-0.1-1
		c0-0.5,0.1-1.1,0.3-1.6c0.2-0.5,0.5-1,0.9-1.5c0.4-0.4,0.9-0.8,1.6-1.1c0.6-0.3,1.4-0.4,2.3-0.4c0.9,0,1.6,0.1,2.2,0.4
		c0.6,0.3,1.1,0.6,1.5,1.1s0.7,0.9,0.9,1.5c0.2,0.5,0.3,1.1,0.3,1.6c0,0.3,0,0.7-0.1,1c-0.1,0.4-0.2,0.7-0.3,1
		c-0.2,0.3-0.4,0.6-0.6,0.9c-0.3,0.3-0.6,0.5-1,0.7c1,0.3,1.7,0.9,2.1,1.6S15.8,278.6,15.8,279.7z M10.2,276.8c-0.3,0-0.7,0.1-1,0.2
		c-0.3,0.1-0.6,0.3-0.9,0.5c-0.2,0.2-0.5,0.5-0.6,0.8s-0.2,0.7-0.2,1s0.1,0.7,0.2,1s0.4,0.6,0.6,0.8c0.2,0.2,0.5,0.4,0.9,0.5
		c0.3,0.1,0.7,0.2,1,0.2c0.3,0,0.7-0.1,1-0.2c0.3-0.1,0.6-0.3,0.9-0.5c0.2-0.2,0.5-0.5,0.6-0.8c0.2-0.3,0.2-0.7,0.2-1
		s-0.1-0.7-0.2-1c-0.2-0.3-0.4-0.6-0.6-0.8c-0.2-0.2-0.5-0.4-0.9-0.5C10.9,276.8,10.6,276.8,10.2,276.8z M10.2,274
		c0.7,0,1.2-0.2,1.6-0.6c0.3-0.4,0.5-0.9,0.5-1.5c0-0.6-0.2-1.1-0.5-1.5c-0.3-0.4-0.9-0.6-1.6-0.6c-0.7,0-1.2,0.2-1.6,0.6
		c-0.3,0.4-0.5,0.9-0.5,1.5c0,0.6,0.2,1.1,0.5,1.5C9,273.8,9.5,274,10.2,274z"/>
</g>
<g id="XMLID_414_">
	<path id="XMLID_415_" class="st0" d="M36.1,219.4c0,0.6-0.1,1.3-0.4,1.8c-0.2,0.6-0.6,1.1-1.1,1.5c-0.5,0.4-1.1,0.8-1.8,1.1
		c-0.7,0.3-1.5,0.4-2.4,0.4c-0.9,0-1.7-0.1-2.4-0.4c-0.7-0.3-1.3-0.6-1.8-1.1s-0.8-1-1.1-1.5c-0.2-0.6-0.4-1.2-0.4-1.8
		c0-1.2,0.2-2.1,0.6-2.8c0.4-0.7,1.1-1.2,2.1-1.6c-0.4-0.2-0.7-0.4-1-0.7s-0.5-0.6-0.6-0.9s-0.3-0.7-0.3-1c-0.1-0.4-0.1-0.7-0.1-1
		c0-0.5,0.1-1.1,0.3-1.6c0.2-0.5,0.5-1,0.9-1.5c0.4-0.4,0.9-0.8,1.6-1.1c0.6-0.3,1.4-0.4,2.3-0.4c0.9,0,1.6,0.1,2.2,0.4
		c0.6,0.3,1.1,0.6,1.5,1.1s0.7,0.9,0.9,1.5c0.2,0.5,0.3,1.1,0.3,1.6c0,0.3,0,0.7-0.1,1c-0.1,0.4-0.2,0.7-0.3,1
		c-0.2,0.3-0.4,0.6-0.6,0.9c-0.3,0.3-0.6,0.5-1,0.7c1,0.3,1.7,0.9,2.1,1.6S36.1,218.3,36.1,219.4z M30.5,216.4c-0.3,0-0.7,0.1-1,0.2
		c-0.3,0.1-0.6,0.3-0.9,0.5c-0.2,0.2-0.5,0.5-0.6,0.8s-0.2,0.7-0.2,1s0.1,0.7,0.2,1s0.4,0.6,0.6,0.8c0.2,0.2,0.5,0.4,0.9,0.5
		c0.3,0.1,0.7,0.2,1,0.2c0.3,0,0.7-0.1,1-0.2c0.3-0.1,0.6-0.3,0.9-0.5c0.2-0.2,0.5-0.5,0.6-0.8c0.2-0.3,0.2-0.7,0.2-1
		s-0.1-0.7-0.2-1c-0.2-0.3-0.4-0.6-0.6-0.8c-0.2-0.2-0.5-0.4-0.9-0.5C31.1,216.5,30.8,216.4,30.5,216.4z M30.5,213.7
		c0.7,0,1.2-0.2,1.6-0.6c0.3-0.4,0.5-0.9,0.5-1.5c0-0.6-0.2-1.1-0.5-1.5c-0.3-0.4-0.9-0.6-1.6-0.6c-0.7,0-1.2,0.2-1.6,0.6
		c-0.3,0.4-0.5,0.9-0.5,1.5c0,0.6,0.2,1.1,0.5,1.5C29.2,213.5,29.7,213.7,30.5,213.7z"/>
</g>
<g id="XMLID_409_">
	<path id="XMLID_410_" class="st0" d="M630.5,246.6c0,0.6-0.1,1.3-0.4,1.8c-0.2,0.6-0.6,1.1-1.1,1.5c-0.5,0.4-1.1,0.8-1.8,1.1
		c-0.7,0.3-1.5,0.4-2.4,0.4s-1.7-0.1-2.4-0.4c-0.7-0.3-1.3-0.6-1.8-1.1s-0.8-1-1.1-1.5c-0.2-0.6-0.4-1.2-0.4-1.8
		c0-1.2,0.2-2.1,0.6-2.8c0.4-0.7,1.1-1.2,2.1-1.6c-0.4-0.2-0.7-0.4-1-0.7c-0.3-0.3-0.5-0.6-0.6-0.9s-0.3-0.7-0.3-1
		c-0.1-0.4-0.1-0.7-0.1-1c0-0.5,0.1-1.1,0.3-1.6c0.2-0.5,0.5-1,0.9-1.5s0.9-0.8,1.6-1.1c0.6-0.3,1.4-0.4,2.3-0.4
		c0.9,0,1.6,0.1,2.2,0.4c0.6,0.3,1.1,0.6,1.5,1.1c0.4,0.4,0.7,0.9,0.9,1.5c0.2,0.5,0.3,1.1,0.3,1.6c0,0.3,0,0.7-0.1,1
		c-0.1,0.4-0.2,0.7-0.3,1c-0.2,0.3-0.4,0.6-0.6,0.9c-0.3,0.3-0.6,0.5-1,0.7c1,0.3,1.7,0.9,2.1,1.6
		C630.3,244.6,630.5,245.6,630.5,246.6z M624.9,243.7c-0.3,0-0.7,0.1-1,0.2s-0.6,0.3-0.9,0.5c-0.2,0.2-0.5,0.5-0.6,0.8
		c-0.2,0.3-0.2,0.7-0.2,1s0.1,0.7,0.2,1c0.2,0.3,0.4,0.6,0.6,0.8c0.2,0.2,0.5,0.4,0.9,0.5c0.3,0.1,0.7,0.2,1,0.2s0.7-0.1,1-0.2
		c0.3-0.1,0.6-0.3,0.9-0.5c0.2-0.2,0.5-0.5,0.6-0.8c0.2-0.3,0.2-0.7,0.2-1s-0.1-0.7-0.2-1c-0.2-0.3-0.4-0.6-0.6-0.8
		c-0.2-0.2-0.5-0.4-0.9-0.5C625.6,243.7,625.3,243.7,624.9,243.7z M624.9,241c0.7,0,1.2-0.2,1.6-0.6s0.5-0.9,0.5-1.5
		c0-0.6-0.2-1.1-0.5-1.5s-0.9-0.6-1.6-0.6s-1.2,0.2-1.6,0.6c-0.3,0.4-0.5,0.9-0.5,1.5c0,0.6,0.2,1.1,0.5,1.5
		C623.7,240.7,624.2,241,624.9,241z"/>
</g>
<g id="XMLID_404_">
	<path id="XMLID_405_" class="st0" d="M575.6,207.5c0,0.6-0.1,1.3-0.4,1.8c-0.2,0.6-0.6,1.1-1.1,1.5c-0.5,0.4-1.1,0.8-1.8,1.1
		c-0.7,0.3-1.5,0.4-2.4,0.4s-1.7-0.1-2.4-0.4c-0.7-0.3-1.3-0.6-1.8-1.1s-0.8-1-1.1-1.5c-0.2-0.6-0.4-1.2-0.4-1.8
		c0-1.2,0.2-2.1,0.6-2.8c0.4-0.7,1.1-1.2,2.1-1.6c-0.4-0.2-0.7-0.4-1-0.7c-0.3-0.3-0.5-0.6-0.6-0.9s-0.3-0.7-0.3-1
		c-0.1-0.4-0.1-0.7-0.1-1c0-0.5,0.1-1.1,0.3-1.6c0.2-0.5,0.5-1,0.9-1.5s0.9-0.8,1.6-1.1c0.6-0.3,1.4-0.4,2.3-0.4
		c0.9,0,1.6,0.1,2.2,0.4c0.6,0.3,1.1,0.6,1.5,1.1c0.4,0.4,0.7,0.9,0.9,1.5c0.2,0.5,0.3,1.1,0.3,1.6c0,0.3,0,0.7-0.1,1
		c-0.1,0.4-0.2,0.7-0.3,1c-0.2,0.3-0.4,0.6-0.6,0.9c-0.3,0.3-0.6,0.5-1,0.7c1,0.3,1.7,0.9,2.1,1.6
		C575.4,205.5,575.6,206.4,575.6,207.5z M570,204.5c-0.3,0-0.7,0.1-1,0.2s-0.6,0.3-0.9,0.5c-0.2,0.2-0.5,0.5-0.6,0.8
		c-0.2,0.3-0.2,0.7-0.2,1s0.1,0.7,0.2,1c0.2,0.3,0.4,0.6,0.6,0.8c0.2,0.2,0.5,0.4,0.9,0.5c0.3,0.1,0.7,0.2,1,0.2s0.7-0.1,1-0.2
		c0.3-0.1,0.6-0.3,0.9-0.5c0.2-0.2,0.5-0.5,0.6-0.8c0.2-0.3,0.2-0.7,0.2-1s-0.1-0.7-0.2-1c-0.2-0.3-0.4-0.6-0.6-0.8
		c-0.2-0.2-0.5-0.4-0.9-0.5C570.7,204.6,570.4,204.5,570,204.5z M570,201.8c0.7,0,1.2-0.2,1.6-0.6s0.5-0.9,0.5-1.5
		c0-0.6-0.2-1.1-0.5-1.5s-0.9-0.6-1.6-0.6s-1.2,0.2-1.6,0.6c-0.3,0.4-0.5,0.9-0.5,1.5c0,0.6,0.2,1.1,0.5,1.5
		C568.8,201.6,569.3,201.8,570,201.8z"/>
</g>
<g id="XMLID_399_">
	<path id="XMLID_400_" class="st0" d="M423.6,279.8c0,0.6-0.1,1.3-0.4,1.8c-0.2,0.6-0.6,1.1-1.1,1.5c-0.5,0.4-1.1,0.8-1.8,1.1
		c-0.7,0.3-1.5,0.4-2.4,0.4s-1.7-0.1-2.4-0.4c-0.7-0.3-1.3-0.6-1.8-1.1s-0.8-1-1.1-1.5c-0.2-0.6-0.4-1.2-0.4-1.8
		c0-1.2,0.2-2.1,0.6-2.8c0.4-0.7,1.1-1.2,2.1-1.6c-0.4-0.2-0.7-0.4-1-0.7c-0.3-0.3-0.5-0.6-0.6-0.9s-0.3-0.7-0.3-1
		c-0.1-0.4-0.1-0.7-0.1-1c0-0.5,0.1-1.1,0.3-1.6c0.2-0.5,0.5-1,0.9-1.5s0.9-0.8,1.6-1.1c0.6-0.3,1.4-0.4,2.3-0.4
		c0.9,0,1.6,0.1,2.2,0.4c0.6,0.3,1.1,0.6,1.5,1.1c0.4,0.4,0.7,0.9,0.9,1.5c0.2,0.5,0.3,1.1,0.3,1.6c0,0.3,0,0.7-0.1,1
		c-0.1,0.4-0.2,0.7-0.3,1c-0.2,0.3-0.4,0.6-0.6,0.9c-0.3,0.3-0.6,0.5-1,0.7c1,0.3,1.7,0.9,2.1,1.6
		C423.4,277.8,423.6,278.8,423.6,279.8z M418,276.9c-0.3,0-0.7,0.1-1,0.2s-0.6,0.3-0.9,0.5c-0.2,0.2-0.5,0.5-0.6,0.8
		c-0.2,0.3-0.2,0.7-0.2,1s0.1,0.7,0.2,1c0.2,0.3,0.4,0.6,0.6,0.8c0.2,0.2,0.5,0.4,0.9,0.5c0.3,0.1,0.7,0.2,1,0.2s0.7-0.1,1-0.2
		c0.3-0.1,0.6-0.3,0.9-0.5c0.2-0.2,0.5-0.5,0.6-0.8c0.2-0.3,0.2-0.7,0.2-1s-0.1-0.7-0.2-1c-0.2-0.3-0.4-0.6-0.6-0.8
		c-0.2-0.2-0.5-0.4-0.9-0.5C418.7,276.9,418.4,276.9,418,276.9z M418,274.2c0.7,0,1.2-0.2,1.6-0.6s0.5-0.9,0.5-1.5
		c0-0.6-0.2-1.1-0.5-1.5s-0.9-0.6-1.6-0.6s-1.2,0.2-1.6,0.6c-0.3,0.4-0.5,0.9-0.5,1.5c0,0.6,0.2,1.1,0.5,1.5
		C416.8,274,417.3,274.2,418,274.2z"/>
</g>
<g id="XMLID_394_">
	<path id="XMLID_395_" class="st0" d="M512.2,89.1c0,0.6-0.1,1.3-0.4,1.8c-0.2,0.6-0.6,1.1-1.1,1.5c-0.5,0.4-1.1,0.8-1.8,1.1
		c-0.7,0.3-1.5,0.4-2.4,0.4s-1.7-0.1-2.4-0.4c-0.7-0.3-1.3-0.6-1.8-1.1s-0.8-1-1.1-1.5c-0.2-0.6-0.4-1.2-0.4-1.8
		c0-1.2,0.2-2.1,0.6-2.8c0.4-0.7,1.1-1.2,2.1-1.6c-0.4-0.2-0.7-0.4-1-0.7c-0.3-0.3-0.5-0.6-0.6-0.9s-0.3-0.7-0.3-1
		c-0.1-0.4-0.1-0.7-0.1-1c0-0.5,0.1-1.1,0.3-1.6c0.2-0.5,0.5-1,0.9-1.5s0.9-0.8,1.6-1.1c0.6-0.3,1.4-0.4,2.3-0.4
		c0.9,0,1.6,0.1,2.2,0.4c0.6,0.3,1.1,0.6,1.5,1.1c0.4,0.4,0.7,0.9,0.9,1.5c0.2,0.5,0.3,1.1,0.3,1.6c0,0.3,0,0.7-0.1,1
		c-0.1,0.4-0.2,0.7-0.3,1c-0.2,0.3-0.4,0.6-0.6,0.9c-0.3,0.3-0.6,0.5-1,0.7c1,0.3,1.7,0.9,2.1,1.6C512,87.2,512.2,88.1,512.2,89.1z
		 M506.6,86.2c-0.3,0-0.7,0.1-1,0.2s-0.6,0.3-0.9,0.5c-0.2,0.2-0.5,0.5-0.6,0.8c-0.2,0.3-0.2,0.7-0.2,1s0.1,0.7,0.2,1
		c0.2,0.3,0.4,0.6,0.6,0.8c0.2,0.2,0.5,0.4,0.9,0.5c0.3,0.1,0.7,0.2,1,0.2s0.7-0.1,1-0.2c0.3-0.1,0.6-0.3,0.9-0.5
		c0.2-0.2,0.5-0.5,0.6-0.8c0.2-0.3,0.2-0.7,0.2-1s-0.1-0.7-0.2-1c-0.2-0.3-0.4-0.6-0.6-0.8c-0.2-0.2-0.5-0.4-0.9-0.5
		C507.3,86.3,507,86.2,506.6,86.2z M506.6,83.5c0.7,0,1.2-0.2,1.6-0.6s0.5-0.9,0.5-1.5c0-0.6-0.2-1.1-0.5-1.5s-0.9-0.6-1.6-0.6
		s-1.2,0.2-1.6,0.6c-0.3,0.4-0.5,0.9-0.5,1.5c0,0.6,0.2,1.1,0.5,1.5C505.4,83.3,505.9,83.5,506.6,83.5z"/>
</g>
<g id="XMLID_389_">
	<path id="XMLID_390_" class="st0" d="M239.1,76.8c0,0.6-0.1,1.3-0.4,1.8c-0.2,0.6-0.6,1.1-1.1,1.5c-0.5,0.4-1.1,0.8-1.8,1.1
		c-0.7,0.3-1.5,0.4-2.4,0.4c-0.9,0-1.7-0.1-2.4-0.4c-0.7-0.3-1.3-0.6-1.8-1.1s-0.8-1-1.1-1.5c-0.2-0.6-0.4-1.2-0.4-1.8
		c0-1.2,0.2-2.1,0.6-2.8c0.4-0.7,1.1-1.2,2.1-1.6c-0.4-0.2-0.7-0.4-1-0.7s-0.5-0.6-0.6-0.9s-0.3-0.7-0.3-1c-0.1-0.4-0.1-0.7-0.1-1
		c0-0.5,0.1-1.1,0.3-1.6c0.2-0.5,0.5-1,0.9-1.5c0.4-0.4,0.9-0.8,1.6-1.1c0.6-0.3,1.4-0.4,2.3-0.4c0.9,0,1.6,0.1,2.2,0.4
		c0.6,0.3,1.1,0.6,1.5,1.1s0.7,0.9,0.9,1.5c0.2,0.5,0.3,1.1,0.3,1.6c0,0.3,0,0.7-0.1,1c-0.1,0.4-0.2,0.7-0.3,1
		c-0.2,0.3-0.4,0.6-0.6,0.9c-0.3,0.3-0.6,0.5-1,0.7c1,0.3,1.7,0.9,2.1,1.6S239.1,75.7,239.1,76.8z M233.5,73.8c-0.3,0-0.7,0.1-1,0.2
		c-0.3,0.1-0.6,0.3-0.9,0.5c-0.2,0.2-0.5,0.5-0.6,0.8s-0.2,0.7-0.2,1s0.1,0.7,0.2,1s0.4,0.6,0.6,0.8c0.2,0.2,0.5,0.4,0.9,0.5
		c0.3,0.1,0.7,0.2,1,0.2c0.3,0,0.7-0.1,1-0.2c0.3-0.1,0.6-0.3,0.9-0.5c0.2-0.2,0.5-0.5,0.6-0.8c0.2-0.3,0.2-0.7,0.2-1
		s-0.1-0.7-0.2-1c-0.2-0.3-0.4-0.6-0.6-0.8c-0.2-0.2-0.5-0.4-0.9-0.5C234.2,73.9,233.8,73.8,233.5,73.8z M233.5,71.1
		c0.7,0,1.2-0.2,1.6-0.6c0.3-0.4,0.5-0.9,0.5-1.5c0-0.6-0.2-1.1-0.5-1.5c-0.3-0.4-0.9-0.6-1.6-0.6c-0.7,0-1.2,0.2-1.6,0.6
		c-0.3,0.4-0.5,0.9-0.5,1.5c0,0.6,0.2,1.1,0.5,1.5C232.2,70.9,232.8,71.1,233.5,71.1z"/>
</g>
<g id="XMLID_384_">
	<path id="XMLID_385_" class="st1" d="M916.9,185.3c0,0.6-0.1,1.3-0.4,1.8c-0.2,0.6-0.6,1.1-1.1,1.5c-0.5,0.4-1.1,0.8-1.8,1.1
		c-0.7,0.3-1.5,0.4-2.4,0.4s-1.7-0.1-2.4-0.4c-0.7-0.3-1.3-0.6-1.8-1.1s-0.8-1-1.1-1.5c-0.2-0.6-0.4-1.2-0.4-1.8
		c0-1.2,0.2-2.1,0.6-2.8c0.4-0.7,1.1-1.2,2.1-1.6c-0.4-0.2-0.7-0.4-1-0.7c-0.3-0.3-0.5-0.6-0.6-0.9s-0.3-0.7-0.3-1
		c-0.1-0.4-0.1-0.7-0.1-1c0-0.5,0.1-1.1,0.3-1.6c0.2-0.5,0.5-1,0.9-1.5s0.9-0.8,1.6-1.1c0.6-0.3,1.4-0.4,2.3-0.4
		c0.9,0,1.6,0.1,2.2,0.4c0.6,0.3,1.1,0.6,1.5,1.1c0.4,0.4,0.7,0.9,0.9,1.5c0.2,0.5,0.3,1.1,0.3,1.6c0,0.3,0,0.7-0.1,1
		c-0.1,0.4-0.2,0.7-0.3,1c-0.2,0.3-0.4,0.6-0.6,0.9c-0.3,0.3-0.6,0.5-1,0.7c1,0.3,1.7,0.9,2.1,1.6
		C916.7,183.3,916.9,184.2,916.9,185.3z M911.3,182.4c-0.3,0-0.7,0.1-1,0.2s-0.6,0.3-0.9,0.5c-0.2,0.2-0.5,0.5-0.6,0.8
		c-0.2,0.3-0.2,0.7-0.2,1s0.1,0.7,0.2,1c0.2,0.3,0.4,0.6,0.6,0.8c0.2,0.2,0.5,0.4,0.9,0.5c0.3,0.1,0.7,0.2,1,0.2s0.7-0.1,1-0.2
		c0.3-0.1,0.6-0.3,0.9-0.5c0.2-0.2,0.5-0.5,0.6-0.8c0.2-0.3,0.2-0.7,0.2-1s-0.1-0.7-0.2-1c-0.2-0.3-0.4-0.6-0.6-0.8
		c-0.2-0.2-0.5-0.4-0.9-0.5C911.9,182.4,911.6,182.4,911.3,182.4z M911.3,179.6c0.7,0,1.2-0.2,1.6-0.6s0.5-0.9,0.5-1.5
		c0-0.6-0.2-1.1-0.5-1.5s-0.9-0.6-1.6-0.6s-1.2,0.2-1.6,0.6c-0.3,0.4-0.5,0.9-0.5,1.5c0,0.6,0.2,1.1,0.5,1.5
		C910,179.4,910.5,179.6,911.3,179.6z"/>
</g>
<g id="XMLID_380_">
	<path id="XMLID_381_" class="st0" d="M622.8,272.9c-0.1-0.5-0.4-1-0.7-1.3c-0.4-0.3-0.8-0.5-1.4-0.5c-0.5,0-1,0.1-1.3,0.4
		s-0.7,0.6-0.9,1c-0.2,0.4-0.4,1-0.5,1.6c-0.1,0.6-0.2,1.3-0.2,2l0,0c0.3-0.6,0.7-1.1,1.3-1.4s1.2-0.5,2-0.5c0.8,0,1.5,0.2,2.1,0.5
		c0.6,0.3,1.1,0.8,1.5,1.3c0.4,0.5,0.7,1.1,0.9,1.8c0.2,0.7,0.3,1.3,0.3,2c0,0.9-0.1,1.7-0.4,2.4c-0.2,0.7-0.6,1.4-1.1,1.9
		c-0.5,0.5-1,0.9-1.7,1.2s-1.4,0.4-2.3,0.4c-1,0-1.8-0.2-2.5-0.5c-0.7-0.4-1.3-0.9-1.8-1.6c-0.5-0.7-0.8-1.6-1.1-2.6
		c-0.2-1-0.4-2.2-0.4-3.4c0-3.2,0.5-5.6,1.6-7.1c1-1.5,2.6-2.3,4.5-2.3c0.6,0,1.2,0.1,1.8,0.4c0.6,0.2,1,0.6,1.5,1s0.8,0.9,1,1.4
		s0.4,1.1,0.4,1.8H622.8z M620.5,276.9c-0.4,0-0.8,0.1-1.1,0.2c-0.3,0.2-0.5,0.4-0.8,0.7c-0.2,0.3-0.4,0.6-0.5,1s-0.2,0.8-0.2,1.2
		s0.1,0.8,0.2,1.2s0.3,0.7,0.5,1c0.2,0.3,0.5,0.5,0.8,0.7c0.3,0.2,0.6,0.2,1.1,0.2c0.4,0,0.7-0.1,1-0.2c0.3-0.2,0.6-0.4,0.8-0.7
		c0.2-0.3,0.4-0.6,0.5-1c0.1-0.4,0.2-0.8,0.2-1.2s-0.1-0.8-0.2-1.2c-0.1-0.4-0.3-0.7-0.5-1c-0.2-0.3-0.5-0.5-0.8-0.7
		C621.3,277,620.9,276.9,620.5,276.9z"/>
</g>
<g id="XMLID_376_">
	<path id="XMLID_377_" class="st0" d="M358.2,181.6c-0.1-0.5-0.4-1-0.7-1.3c-0.4-0.3-0.8-0.5-1.4-0.5c-0.5,0-1,0.1-1.3,0.4
		s-0.7,0.6-0.9,1c-0.2,0.4-0.4,1-0.5,1.6c-0.1,0.6-0.2,1.3-0.2,2l0,0c0.3-0.6,0.7-1.1,1.3-1.4s1.2-0.5,2-0.5c0.8,0,1.5,0.2,2.1,0.5
		c0.6,0.3,1.1,0.8,1.5,1.3c0.4,0.5,0.7,1.1,0.9,1.8c0.2,0.7,0.3,1.3,0.3,2c0,0.9-0.1,1.7-0.4,2.4c-0.2,0.7-0.6,1.4-1.1,1.9
		c-0.5,0.5-1,0.9-1.7,1.2s-1.4,0.4-2.3,0.4c-1,0-1.8-0.2-2.5-0.5c-0.7-0.4-1.3-0.9-1.8-1.6c-0.5-0.7-0.8-1.6-1.1-2.6
		c-0.2-1-0.4-2.2-0.4-3.4c0-3.2,0.5-5.6,1.6-7.1c1-1.5,2.6-2.3,4.5-2.3c0.6,0,1.2,0.1,1.8,0.4c0.6,0.2,1,0.6,1.5,1s0.8,0.9,1,1.4
		s0.4,1.1,0.4,1.8H358.2z M356,185.7c-0.4,0-0.8,0.1-1.1,0.2c-0.3,0.2-0.5,0.4-0.8,0.7c-0.2,0.3-0.4,0.6-0.5,1s-0.2,0.8-0.2,1.2
		s0.1,0.8,0.2,1.2s0.3,0.7,0.5,1c0.2,0.3,0.5,0.5,0.8,0.7c0.3,0.2,0.6,0.2,1.1,0.2c0.4,0,0.7-0.1,1-0.2c0.3-0.2,0.6-0.4,0.8-0.7
		c0.2-0.3,0.4-0.6,0.5-1c0.1-0.4,0.2-0.8,0.2-1.2s-0.1-0.8-0.2-1.2c-0.1-0.4-0.3-0.7-0.5-1c-0.2-0.3-0.5-0.5-0.8-0.7
		C356.7,185.7,356.3,185.7,356,185.7z"/>
</g>
<g id="XMLID_372_">
	<path id="XMLID_373_" class="st0" d="M229.5,103c-0.1-0.5-0.4-1-0.7-1.3c-0.4-0.3-0.8-0.5-1.4-0.5c-0.5,0-1,0.1-1.3,0.4
		c-0.4,0.2-0.7,0.6-0.9,1s-0.4,1-0.5,1.6c-0.1,0.6-0.2,1.3-0.2,2l0,0c0.3-0.6,0.7-1.1,1.3-1.4s1.2-0.5,2-0.5c0.8,0,1.5,0.2,2.1,0.5
		c0.6,0.3,1.1,0.8,1.5,1.3c0.4,0.5,0.7,1.1,0.9,1.8c0.2,0.7,0.3,1.3,0.3,2c0,0.9-0.1,1.7-0.4,2.4c-0.2,0.7-0.6,1.4-1.1,1.9
		c-0.5,0.5-1,0.9-1.7,1.2c-0.7,0.3-1.4,0.4-2.3,0.4c-1,0-1.8-0.2-2.5-0.5c-0.7-0.4-1.3-0.9-1.8-1.6c-0.5-0.7-0.8-1.6-1.1-2.6
		c-0.2-1-0.4-2.2-0.4-3.4c0-3.2,0.5-5.6,1.6-7.1c1-1.5,2.6-2.3,4.5-2.3c0.6,0,1.2,0.1,1.8,0.4c0.6,0.2,1,0.6,1.5,1s0.8,0.9,1,1.4
		c0.2,0.5,0.4,1.1,0.4,1.8H229.5z M227.2,107c-0.4,0-0.8,0.1-1.1,0.2c-0.3,0.2-0.5,0.4-0.8,0.7s-0.4,0.6-0.5,1
		c-0.1,0.4-0.2,0.8-0.2,1.2s0.1,0.8,0.2,1.2c0.1,0.4,0.3,0.7,0.5,1c0.2,0.3,0.5,0.5,0.8,0.7c0.3,0.2,0.6,0.2,1.1,0.2
		c0.4,0,0.7-0.1,1-0.2c0.3-0.2,0.6-0.4,0.8-0.7c0.2-0.3,0.4-0.6,0.5-1c0.1-0.4,0.2-0.8,0.2-1.2s-0.1-0.8-0.2-1.2
		c-0.1-0.4-0.3-0.7-0.5-1s-0.5-0.5-0.8-0.7C227.9,107.1,227.6,107,227.2,107z"/>
</g>
<g id="XMLID_369_">
	<path id="XMLID_370_" class="st0" d="M359.9,248.6v-2.7l6.3-6.2c0.2-0.2,0.4-0.4,0.5-0.6c0.2-0.2,0.3-0.5,0.4-0.7
		c0.1-0.3,0.2-0.5,0.3-0.8c0.1-0.3,0.1-0.5,0.1-0.8c0-0.8-0.2-1.4-0.5-1.9s-1-0.7-1.8-0.7c-0.7,0-1.2,0.2-1.6,0.7
		c-0.4,0.5-0.6,1.2-0.7,2.1H360c0-0.8,0.2-1.6,0.4-2.2c0.3-0.7,0.6-1.3,1.1-1.7c0.5-0.5,1-0.9,1.7-1.1c0.7-0.3,1.4-0.4,2.2-0.4
		c0.8,0,1.5,0.1,2.2,0.4c0.6,0.3,1.2,0.6,1.6,1.1c0.4,0.5,0.8,1,1,1.7c0.2,0.6,0.3,1.3,0.3,2.1c0,0.6-0.1,1.1-0.2,1.6
		c-0.1,0.5-0.3,0.9-0.5,1.3c-0.2,0.4-0.5,0.8-0.8,1.2c-0.3,0.4-0.7,0.7-1.1,1.1l-4.4,4.2h7v2.6H359.9z"/>
</g>
<g id="XMLID_366_">
	<path id="XMLID_367_" class="st0" d="M378.8,226.1c0.1,0.9,0.3,1.6,0.8,2.1s1.1,0.7,2,0.7c0.8,0,1.4-0.3,1.8-0.8s0.6-1.1,0.6-1.8
		c0-0.5-0.1-1-0.2-1.3c-0.2-0.3-0.4-0.6-0.6-0.8c-0.3-0.2-0.6-0.3-1-0.4c-0.4-0.1-0.8-0.1-1.2-0.1h-0.8V221h0.8
		c0.8,0,1.4-0.2,1.8-0.5s0.6-0.8,0.6-1.6c0-0.6-0.2-1.1-0.5-1.5s-0.8-0.6-1.5-0.6c-0.7,0-1.2,0.2-1.6,0.6c-0.4,0.4-0.6,0.9-0.6,1.5
		h-2.9c0-0.7,0.1-1.4,0.4-2c0.3-0.6,0.6-1.1,1.1-1.5c0.5-0.4,1-0.7,1.6-1c0.6-0.2,1.3-0.4,2-0.4c0.6,0,1.3,0.1,1.9,0.3
		c0.6,0.2,1.1,0.5,1.6,0.9c0.5,0.4,0.8,0.9,1.1,1.4c0.3,0.6,0.4,1.2,0.4,2c0,0.9-0.2,1.6-0.5,2.2c-0.3,0.5-0.9,1-1.7,1.3v0
		c0.5,0.1,0.9,0.3,1.2,0.6c0.3,0.3,0.6,0.6,0.8,0.9c0.2,0.4,0.4,0.8,0.5,1.2s0.2,0.9,0.2,1.4c0,0.8-0.1,1.6-0.4,2.3
		c-0.3,0.7-0.7,1.2-1.2,1.7s-1.1,0.8-1.8,1c-0.7,0.2-1.5,0.4-2.3,0.4c-0.8,0-1.6-0.1-2.2-0.4c-0.7-0.3-1.2-0.7-1.7-1.1
		c-0.5-0.5-0.8-1.1-1.1-1.7c-0.2-0.7-0.4-1.4-0.4-2.2H378.8z"/>
</g>
<g id="XMLID_363_">
	<path id="XMLID_364_" class="st1" d="M296.4,242c0.1,0.9,0.3,1.6,0.8,2.1c0.4,0.5,1.1,0.7,2,0.7c0.8,0,1.4-0.3,1.8-0.8
		c0.4-0.5,0.6-1.1,0.6-1.8c0-0.5-0.1-1-0.2-1.3s-0.4-0.6-0.6-0.8c-0.3-0.2-0.6-0.3-1-0.4c-0.4-0.1-0.8-0.1-1.2-0.1h-0.8v-2.7h0.8
		c0.8,0,1.4-0.2,1.8-0.5c0.4-0.3,0.6-0.8,0.6-1.6c0-0.6-0.2-1.1-0.5-1.5c-0.3-0.4-0.8-0.6-1.5-0.6c-0.7,0-1.2,0.2-1.6,0.6
		c-0.4,0.4-0.6,0.9-0.6,1.5h-2.9c0-0.7,0.1-1.4,0.4-2c0.3-0.6,0.6-1.1,1.1-1.5c0.5-0.4,1-0.7,1.6-1c0.6-0.2,1.3-0.4,2-0.4
		c0.6,0,1.3,0.1,1.9,0.3c0.6,0.2,1.1,0.5,1.6,0.9c0.5,0.4,0.8,0.9,1.1,1.4c0.3,0.6,0.4,1.2,0.4,2c0,0.9-0.2,1.6-0.5,2.2
		c-0.3,0.5-0.9,1-1.7,1.3v0c0.5,0.1,0.9,0.3,1.2,0.6c0.3,0.3,0.6,0.6,0.8,0.9s0.4,0.8,0.5,1.2s0.2,0.9,0.2,1.4
		c0,0.8-0.1,1.6-0.4,2.3c-0.3,0.7-0.7,1.2-1.2,1.7c-0.5,0.5-1.1,0.8-1.8,1c-0.7,0.2-1.5,0.4-2.3,0.4c-0.8,0-1.6-0.1-2.2-0.4
		c-0.7-0.3-1.2-0.7-1.7-1.1c-0.5-0.5-0.8-1.1-1.1-1.7c-0.2-0.7-0.4-1.4-0.4-2.2H296.4z"/>
</g>
<g id="XMLID_360_">
	<path id="XMLID_361_" class="st0" d="M795.8,300.7c0.1,0.9,0.3,1.6,0.8,2.1s1.1,0.7,2,0.7c0.8,0,1.4-0.3,1.8-0.8s0.6-1.1,0.6-1.8
		c0-0.5-0.1-1-0.2-1.3c-0.2-0.3-0.4-0.6-0.6-0.8c-0.3-0.2-0.6-0.3-1-0.4c-0.4-0.1-0.8-0.1-1.2-0.1h-0.8v-2.7h0.8
		c0.8,0,1.4-0.2,1.8-0.5s0.6-0.8,0.6-1.6c0-0.6-0.2-1.1-0.5-1.5s-0.8-0.6-1.5-0.6c-0.7,0-1.2,0.2-1.6,0.6c-0.4,0.4-0.6,0.9-0.6,1.5
		h-2.9c0-0.7,0.1-1.4,0.4-2c0.3-0.6,0.6-1.1,1.1-1.5c0.5-0.4,1-0.7,1.6-1c0.6-0.2,1.3-0.4,2-0.4c0.6,0,1.3,0.1,1.9,0.3
		c0.6,0.2,1.1,0.5,1.6,0.9c0.5,0.4,0.8,0.9,1.1,1.4c0.3,0.6,0.4,1.2,0.4,2c0,0.9-0.2,1.6-0.5,2.2c-0.3,0.5-0.9,1-1.7,1.3v0
		c0.5,0.1,0.9,0.3,1.2,0.6c0.3,0.3,0.6,0.6,0.8,0.9c0.2,0.4,0.4,0.8,0.5,1.2s0.2,0.9,0.2,1.4c0,0.8-0.1,1.6-0.4,2.3
		c-0.3,0.7-0.7,1.2-1.2,1.7s-1.1,0.8-1.8,1c-0.7,0.2-1.5,0.4-2.3,0.4c-0.8,0-1.6-0.1-2.2-0.4c-0.7-0.3-1.2-0.7-1.7-1.1
		c-0.5-0.5-0.8-1.1-1.1-1.7c-0.2-0.7-0.4-1.4-0.4-2.2H795.8z"/>
</g>
<g id="XMLID_357_">
	<path id="XMLID_358_" class="st0" d="M642.3,68.5c0.1,0.9,0.3,1.6,0.8,2.1s1.1,0.7,2,0.7c0.8,0,1.4-0.3,1.8-0.8s0.6-1.1,0.6-1.8
		c0-0.5-0.1-1-0.2-1.3c-0.2-0.3-0.4-0.6-0.6-0.8c-0.3-0.2-0.6-0.3-1-0.4c-0.4-0.1-0.8-0.1-1.2-0.1h-0.8v-2.7h0.8
		c0.8,0,1.4-0.2,1.8-0.5s0.6-0.8,0.6-1.6c0-0.6-0.2-1.1-0.5-1.5s-0.8-0.6-1.5-0.6c-0.7,0-1.2,0.2-1.6,0.6c-0.4,0.4-0.6,0.9-0.6,1.5
		h-2.9c0-0.7,0.1-1.4,0.4-2c0.3-0.6,0.6-1.1,1.1-1.5c0.5-0.4,1-0.7,1.6-1c0.6-0.2,1.3-0.4,2-0.4c0.6,0,1.3,0.1,1.9,0.3
		c0.6,0.2,1.1,0.5,1.6,0.9c0.5,0.4,0.8,0.9,1.1,1.4c0.3,0.6,0.4,1.2,0.4,2c0,0.9-0.2,1.6-0.5,2.2c-0.3,0.5-0.9,1-1.7,1.3v0
		c0.5,0.1,0.9,0.3,1.2,0.6c0.3,0.3,0.6,0.6,0.8,0.9c0.2,0.4,0.4,0.8,0.5,1.2s0.2,0.9,0.2,1.4c0,0.8-0.1,1.6-0.4,2.3
		c-0.3,0.7-0.7,1.2-1.2,1.7s-1.1,0.8-1.8,1c-0.7,0.2-1.5,0.4-2.3,0.4c-0.8,0-1.6-0.1-2.2-0.4c-0.7-0.3-1.2-0.7-1.7-1.1
		c-0.5-0.5-0.8-1.1-1.1-1.7c-0.2-0.7-0.4-1.4-0.4-2.2H642.3z"/>
</g>
<g id="XMLID_354_">
	<path id="XMLID_355_" class="st0" d="M576.5,157.5c0.1,0.9,0.3,1.6,0.8,2.1s1.1,0.7,2,0.7c0.8,0,1.4-0.3,1.8-0.8s0.6-1.1,0.6-1.8
		c0-0.5-0.1-1-0.2-1.3c-0.2-0.3-0.4-0.6-0.6-0.8c-0.3-0.2-0.6-0.3-1-0.4c-0.4-0.1-0.8-0.1-1.2-0.1h-0.8v-2.7h0.8
		c0.8,0,1.4-0.2,1.8-0.5s0.6-0.8,0.6-1.6c0-0.6-0.2-1.1-0.5-1.5s-0.8-0.6-1.5-0.6c-0.7,0-1.2,0.2-1.6,0.6c-0.4,0.4-0.6,0.9-0.6,1.5
		h-2.9c0-0.7,0.1-1.4,0.4-2c0.3-0.6,0.6-1.1,1.1-1.5c0.5-0.4,1-0.7,1.6-1c0.6-0.2,1.3-0.4,2-0.4c0.6,0,1.3,0.1,1.9,0.3
		c0.6,0.2,1.1,0.5,1.6,0.9c0.5,0.4,0.8,0.9,1.1,1.4c0.3,0.6,0.4,1.2,0.4,2c0,0.9-0.2,1.6-0.5,2.2c-0.3,0.5-0.9,1-1.7,1.3v0
		c0.5,0.1,0.9,0.3,1.2,0.6c0.3,0.3,0.6,0.6,0.8,0.9c0.2,0.4,0.4,0.8,0.5,1.2s0.2,0.9,0.2,1.4c0,0.8-0.1,1.6-0.4,2.3
		c-0.3,0.7-0.7,1.2-1.2,1.7s-1.1,0.8-1.8,1c-0.7,0.2-1.5,0.4-2.3,0.4c-0.8,0-1.6-0.1-2.2-0.4c-0.7-0.3-1.2-0.7-1.7-1.1
		c-0.5-0.5-0.8-1.1-1.1-1.7c-0.2-0.7-0.4-1.4-0.4-2.2H576.5z"/>
</g>
<g id="XMLID_351_">
	<path id="XMLID_352_" class="st0" d="M925.1,141.3c0.1,0.9,0.3,1.6,0.8,2.1s1.1,0.7,2,0.7c0.8,0,1.4-0.3,1.8-0.8s0.6-1.1,0.6-1.8
		c0-0.5-0.1-1-0.2-1.3c-0.2-0.3-0.4-0.6-0.6-0.8c-0.3-0.2-0.6-0.3-1-0.4c-0.4-0.1-0.8-0.1-1.2-0.1h-0.8v-2.7h0.8
		c0.8,0,1.4-0.2,1.8-0.5s0.6-0.8,0.6-1.6c0-0.6-0.2-1.1-0.5-1.5s-0.8-0.6-1.5-0.6c-0.7,0-1.2,0.2-1.6,0.6c-0.4,0.4-0.6,0.9-0.6,1.5
		h-2.9c0-0.7,0.1-1.4,0.4-2c0.3-0.6,0.6-1.1,1.1-1.5c0.5-0.4,1-0.7,1.6-1c0.6-0.2,1.3-0.4,2-0.4c0.6,0,1.3,0.1,1.9,0.3
		c0.6,0.2,1.1,0.5,1.6,0.9c0.5,0.4,0.8,0.9,1.1,1.4c0.3,0.6,0.4,1.2,0.4,2c0,0.9-0.2,1.6-0.5,2.2c-0.3,0.5-0.9,1-1.7,1.3v0
		c0.5,0.1,0.9,0.3,1.2,0.6c0.3,0.3,0.6,0.6,0.8,0.9c0.2,0.4,0.4,0.8,0.5,1.2s0.2,0.9,0.2,1.4c0,0.8-0.1,1.6-0.4,2.3
		c-0.3,0.7-0.7,1.2-1.2,1.7s-1.1,0.8-1.8,1c-0.7,0.2-1.5,0.4-2.3,0.4c-0.8,0-1.6-0.1-2.2-0.4c-0.7-0.3-1.2-0.7-1.7-1.1
		c-0.5-0.5-0.8-1.1-1.1-1.7c-0.2-0.7-0.4-1.4-0.4-2.2H925.1z"/>
</g>
<g id="XMLID_347_">
	<path id="XMLID_348_" class="st0" d="M452.8,265.3l6.1-10.4h3.1v10.7h2v2.6h-2v3.6h-2.9v-3.6h-6.3V265.3z M455.7,265.6h3.4v-6h0
		L455.7,265.6z"/>
</g>
<g id="XMLID_343_">
	<path id="XMLID_344_" class="st0" d="M886.3,101l6.1-10.4h3.1v10.7h2v2.6h-2v3.6h-2.9v-3.6h-6.3V101z M889.2,101.3h3.4v-6h0
		L889.2,101.3z"/>
</g>
<g id="XMLID_339_">
	<path id="XMLID_340_" class="st0" d="M892.9,253.6l6.1-10.4h3.1v10.7h2v2.6h-2v3.6h-2.9v-3.6h-6.3V253.6z M895.8,253.8h3.4v-6h0
		L895.8,253.8z"/>
</g>
<g id="XMLID_335_">
	<path id="XMLID_336_" class="st0" d="M813,316.3l6.1-10.4h3.1v10.7h2v2.6h-2v3.6h-2.9v-3.6H813V316.3z M815.9,316.6h3.4v-6h0
		L815.9,316.6z"/>
</g>
<g id="XMLID_331_">
	<path id="XMLID_332_" class="st0" d="M600.4,71.5l6.1-10.4h3.1v10.7h2v2.6h-2V78h-2.9v-3.6h-6.3V71.5z M603.3,71.8h3.4v-6h0
		L603.3,71.8z"/>
</g>
<g id="XMLID_327_">
	<path id="XMLID_328_" class="st0" d="M191.8,119.5l6.1-10.4h3.1v10.7h2v2.6h-2v3.6h-2.9v-3.6h-6.3V119.5z M194.7,119.7h3.4v-6h0
		L194.7,119.7z"/>
</g>
<g id="XMLID_323_">
	<path id="XMLID_324_" class="st0" d="M203.8,75.3l6.1-10.4h3.1v10.7h2v2.6h-2v3.6h-2.9v-3.6h-6.3V75.3z M206.7,75.5h3.4v-6h0
		L206.7,75.5z"/>
</g>
<g id="XMLID_319_">
	<path id="XMLID_320_" class="st0" d="M0.8,191.5L6.9,181h3.1v10.7h2v2.6h-2v3.6H7v-3.6H0.8V191.5z M3.7,191.7h3.4v-6h0L3.7,191.7z"
		/>
</g>
<g id="XMLID_315_">
	<path id="XMLID_316_" class="st0" d="M50.7,223.7l6.1-10.4h3.1v10.7h2v2.6h-2v3.6H57v-3.6h-6.3V223.7z M53.6,223.9H57v-6h0
		L53.6,223.9z"/>
</g>
<g id="XMLID_311_">
	<path id="XMLID_312_" class="st0" d="M600.4,307.6l6.1-10.4h3.1v10.7h2v2.6h-2v3.6h-2.9v-3.6h-6.3V307.6z M603.3,307.9h3.4v-6h0
		L603.3,307.9z"/>
</g>
<g id="XMLID_307_">
	<path id="XMLID_308_" class="st0" d="M1038.3,255.8l6.1-10.4h3.1v10.7h2v2.6h-2v3.6h-2.9v-3.6h-6.3V255.8z M1041.2,256.1h3.4v-6h0
		L1041.2,256.1z"/>
</g>
<g id="XMLID_303_">
	<path id="XMLID_304_" class="st0" d="M1074.7,109.5l6.1-10.4h3.1v10.7h2v2.6h-2v3.6h-2.9v-3.6h-6.3V109.5z M1077.6,109.8h3.4v-6h0
		L1077.6,109.8z"/>
</g>
<g id="XMLID_299_">
	<path id="XMLID_300_" class="st0" d="M1146,133.4l6.1-10.4h3.1v10.7h2v2.6h-2v3.6h-2.9v-3.6h-6.3V133.4z M1148.9,133.7h3.4v-6h0
		L1148.9,133.7z"/>
</g>
<g id="XMLID_295_">
	<path id="XMLID_296_" class="st0" d="M1192.1,291.5l6.1-10.4h3.1v10.7h2v2.6h-2v3.6h-2.9v-3.6h-6.3V291.5z M1195,291.7h3.4v-6h0
		L1195,291.7z"/>
</g>
<g id="XMLID_291_">
	<path id="XMLID_292_" class="st0" d="M366.6,167.7l6.1-10.4h3.1V168h2v2.6h-2v3.6h-2.9v-3.6h-6.3V167.7z M369.5,168h3.4v-6h0
		L369.5,168z"/>
</g>
<g id="XMLID_288_">
	<path id="XMLID_289_" class="st0" d="M562.2,174.6c0,0.3,0.1,0.7,0.2,1s0.3,0.6,0.5,0.8c0.2,0.2,0.5,0.4,0.8,0.6
		c0.3,0.1,0.7,0.2,1,0.2c0.8,0,1.5-0.3,2-0.9c0.5-0.6,0.7-1.5,0.7-2.7c0-0.4,0-0.8-0.1-1.2s-0.2-0.7-0.4-1.1
		c-0.2-0.3-0.5-0.5-0.8-0.7c-0.3-0.2-0.7-0.3-1.2-0.3c-0.6,0-1,0.1-1.4,0.4c-0.4,0.3-0.7,0.7-0.9,1.2h-3l0.7-9.2h9.3v2.7h-6.6
		l-0.3,4l0,0c0.2-0.7,0.6-1.1,1.1-1.4c0.5-0.3,1.1-0.5,1.8-0.5c0.9,0,1.6,0.2,2.3,0.5c0.6,0.4,1.1,0.8,1.6,1.4s0.7,1.3,0.9,2
		s0.3,1.5,0.3,2.3c0,0.8-0.1,1.6-0.4,2.3c-0.3,0.7-0.7,1.4-1.2,1.9s-1.1,1-1.8,1.3c-0.7,0.3-1.5,0.5-2.3,0.5c-0.8,0-1.6-0.1-2.2-0.4
		c-0.7-0.2-1.2-0.6-1.7-1.1s-0.9-1-1.1-1.7c-0.3-0.7-0.4-1.4-0.4-2.2H562.2z"/>
</g>
<g id="XMLID_285_">
	<path id="XMLID_286_" class="st0" d="M346.6,91.1c0,0.3,0.1,0.7,0.2,1s0.3,0.6,0.5,0.8c0.2,0.2,0.5,0.4,0.8,0.6
		c0.3,0.1,0.7,0.2,1,0.2c0.8,0,1.5-0.3,2-0.9c0.5-0.6,0.7-1.5,0.7-2.7c0-0.4,0-0.8-0.1-1.2s-0.2-0.7-0.4-1.1
		c-0.2-0.3-0.5-0.5-0.8-0.7c-0.3-0.2-0.7-0.3-1.2-0.3c-0.6,0-1,0.1-1.4,0.4c-0.4,0.3-0.7,0.7-0.9,1.2h-3l0.7-9.2h9.3v2.7h-6.6
		l-0.3,4l0,0c0.2-0.7,0.6-1.1,1.1-1.4c0.5-0.3,1.1-0.5,1.8-0.5c0.9,0,1.6,0.2,2.3,0.5c0.6,0.4,1.1,0.8,1.6,1.4s0.7,1.3,0.9,2
		s0.3,1.5,0.3,2.3c0,0.8-0.1,1.6-0.4,2.3c-0.3,0.7-0.7,1.4-1.2,1.9s-1.1,1-1.8,1.3c-0.7,0.3-1.5,0.5-2.3,0.5c-0.8,0-1.6-0.1-2.2-0.4
		c-0.7-0.2-1.2-0.6-1.7-1.1s-0.9-1-1.1-1.7c-0.3-0.7-0.4-1.4-0.4-2.2H346.6z"/>
</g>
<g id="XMLID_282_">
	<path id="XMLID_283_" class="st0" d="M248.7,183.1c0,0.3,0.1,0.7,0.2,1c0.1,0.3,0.3,0.6,0.5,0.8c0.2,0.2,0.5,0.4,0.8,0.6
		c0.3,0.1,0.7,0.2,1,0.2c0.8,0,1.5-0.3,2-0.9c0.5-0.6,0.7-1.5,0.7-2.7c0-0.4,0-0.8-0.1-1.2c-0.1-0.4-0.2-0.7-0.4-1.1
		c-0.2-0.3-0.5-0.5-0.8-0.7c-0.3-0.2-0.7-0.3-1.2-0.3c-0.6,0-1,0.1-1.4,0.4s-0.7,0.7-0.9,1.2h-3l0.7-9.2h9.3v2.7h-6.6l-0.3,4l0,0
		c0.2-0.7,0.6-1.1,1.1-1.4c0.5-0.3,1.1-0.5,1.8-0.5c0.9,0,1.6,0.2,2.3,0.5c0.6,0.4,1.1,0.8,1.6,1.4c0.4,0.6,0.7,1.3,0.9,2
		s0.3,1.5,0.3,2.3c0,0.8-0.1,1.6-0.4,2.3c-0.3,0.7-0.7,1.4-1.2,1.9c-0.5,0.5-1.1,1-1.8,1.3c-0.7,0.3-1.5,0.5-2.3,0.5
		c-0.8,0-1.6-0.1-2.2-0.4c-0.7-0.2-1.2-0.6-1.7-1.1c-0.5-0.5-0.9-1-1.1-1.7c-0.3-0.7-0.4-1.4-0.4-2.2H248.7z"/>
</g>
<g id="XMLID_279_">
	<path id="XMLID_280_" class="st0" d="M27.8,244.9c0,0.3,0.1,0.7,0.2,1c0.1,0.3,0.3,0.6,0.5,0.8c0.2,0.2,0.5,0.4,0.8,0.6
		c0.3,0.1,0.7,0.2,1,0.2c0.8,0,1.5-0.3,2-0.9c0.5-0.6,0.7-1.5,0.7-2.7c0-0.4,0-0.8-0.1-1.2c-0.1-0.4-0.2-0.7-0.4-1.1
		c-0.2-0.3-0.5-0.5-0.8-0.7c-0.3-0.2-0.7-0.3-1.2-0.3c-0.6,0-1,0.1-1.4,0.4s-0.7,0.7-0.9,1.2h-3l0.7-9.2H35v2.7h-6.6l-0.3,4l0,0
		c0.2-0.7,0.6-1.1,1.1-1.4c0.5-0.3,1.1-0.5,1.8-0.5c0.9,0,1.6,0.2,2.3,0.5c0.6,0.4,1.1,0.8,1.6,1.4c0.4,0.6,0.7,1.3,0.9,2
		s0.3,1.5,0.3,2.3c0,0.8-0.1,1.6-0.4,2.3c-0.3,0.7-0.7,1.4-1.2,1.9c-0.5,0.5-1.1,1-1.8,1.3c-0.7,0.3-1.5,0.5-2.3,0.5
		c-0.8,0-1.6-0.1-2.2-0.4c-0.7-0.2-1.2-0.6-1.7-1.1c-0.5-0.5-0.9-1-1.1-1.7c-0.3-0.7-0.4-1.4-0.4-2.2H27.8z"/>
</g>
<g id="XMLID_276_">
	<path id="XMLID_277_" class="st0" d="M12.8,135.1c0,0.3,0.1,0.7,0.2,1c0.1,0.3,0.3,0.6,0.5,0.8c0.2,0.2,0.5,0.4,0.8,0.6
		c0.3,0.1,0.7,0.2,1,0.2c0.8,0,1.5-0.3,2-0.9c0.5-0.6,0.7-1.5,0.7-2.7c0-0.4,0-0.8-0.1-1.2c-0.1-0.4-0.2-0.7-0.4-1.1
		c-0.2-0.3-0.5-0.5-0.8-0.7c-0.3-0.2-0.7-0.3-1.2-0.3c-0.6,0-1,0.1-1.4,0.4s-0.7,0.7-0.9,1.2h-3l0.7-9.2H20v2.7h-6.6l-0.3,4l0,0
		c0.2-0.7,0.6-1.1,1.1-1.4c0.5-0.3,1.1-0.5,1.8-0.5c0.9,0,1.6,0.2,2.3,0.5c0.6,0.4,1.1,0.8,1.6,1.4c0.4,0.6,0.7,1.3,0.9,2
		s0.3,1.5,0.3,2.3c0,0.8-0.1,1.6-0.4,2.3c-0.3,0.7-0.7,1.4-1.2,1.9c-0.5,0.5-1.1,1-1.8,1.3c-0.7,0.3-1.5,0.5-2.3,0.5
		c-0.8,0-1.6-0.1-2.2-0.4c-0.7-0.2-1.2-0.6-1.7-1.1c-0.5-0.5-0.9-1-1.1-1.7c-0.3-0.7-0.4-1.4-0.4-2.2H12.8z"/>
</g>
<g id="XMLID_273_">
	<path id="XMLID_274_" class="st0" d="M94.5,54.5c0,0.3,0.1,0.7,0.2,1c0.1,0.3,0.3,0.6,0.5,0.8c0.2,0.2,0.5,0.4,0.8,0.6
		c0.3,0.1,0.7,0.2,1,0.2c0.8,0,1.5-0.3,2-0.9c0.5-0.6,0.7-1.5,0.7-2.7c0-0.4,0-0.8-0.1-1.2c-0.1-0.4-0.2-0.7-0.4-1.1
		c-0.2-0.3-0.5-0.5-0.8-0.7c-0.3-0.2-0.7-0.3-1.2-0.3c-0.6,0-1,0.1-1.4,0.4s-0.7,0.7-0.9,1.2h-3l0.7-9.2h9.3v2.7H95l-0.3,4l0,0
		c0.2-0.7,0.6-1.1,1.1-1.4c0.5-0.3,1.1-0.5,1.8-0.5c0.9,0,1.6,0.2,2.3,0.5c0.6,0.4,1.1,0.8,1.6,1.4c0.4,0.6,0.7,1.3,0.9,2
		s0.3,1.5,0.3,2.3c0,0.8-0.1,1.6-0.4,2.3c-0.3,0.7-0.7,1.4-1.2,1.9c-0.5,0.5-1.1,1-1.8,1.3c-0.7,0.3-1.5,0.5-2.3,0.5
		c-0.8,0-1.6-0.1-2.2-0.4c-0.7-0.2-1.2-0.6-1.7-1.1c-0.5-0.5-0.9-1-1.1-1.7c-0.3-0.7-0.4-1.4-0.4-2.2H94.5z"/>
</g>
<g id="XMLID_270_">
	<path id="XMLID_271_" class="st0" d="M302.4,326.9c0,0.3,0.1,0.7,0.2,1s0.3,0.6,0.5,0.8c0.2,0.2,0.5,0.4,0.8,0.6
		c0.3,0.1,0.7,0.2,1,0.2c0.8,0,1.5-0.3,2-0.9c0.5-0.6,0.7-1.5,0.7-2.7c0-0.4,0-0.8-0.1-1.2s-0.2-0.7-0.4-1.1
		c-0.2-0.3-0.5-0.5-0.8-0.7c-0.3-0.2-0.7-0.3-1.2-0.3c-0.6,0-1,0.1-1.4,0.4c-0.4,0.3-0.7,0.7-0.9,1.2h-3l0.7-9.2h9.3v2.7h-6.6
		l-0.3,4l0,0c0.2-0.7,0.6-1.1,1.1-1.4c0.5-0.3,1.1-0.5,1.8-0.5c0.9,0,1.6,0.2,2.3,0.5c0.6,0.4,1.1,0.8,1.6,1.4s0.7,1.3,0.9,2
		s0.3,1.5,0.3,2.3c0,0.8-0.1,1.6-0.4,2.3c-0.3,0.7-0.7,1.4-1.2,1.9s-1.1,1-1.8,1.3c-0.7,0.3-1.5,0.5-2.3,0.5c-0.8,0-1.6-0.1-2.2-0.4
		c-0.7-0.2-1.2-0.6-1.7-1.1s-0.9-1-1.1-1.7c-0.3-0.7-0.4-1.4-0.4-2.2H302.4z"/>
</g>
<g id="XMLID_267_">
	<path id="XMLID_268_" class="st0" d="M455.9,303.1c0,0.3,0.1,0.7,0.2,1s0.3,0.6,0.5,0.8c0.2,0.2,0.5,0.4,0.8,0.6
		c0.3,0.1,0.7,0.2,1,0.2c0.8,0,1.5-0.3,2-0.9c0.5-0.6,0.7-1.5,0.7-2.7c0-0.4,0-0.8-0.1-1.2s-0.2-0.7-0.4-1.1
		c-0.2-0.3-0.5-0.5-0.8-0.7c-0.3-0.2-0.7-0.3-1.2-0.3c-0.6,0-1,0.1-1.4,0.4c-0.4,0.3-0.7,0.7-0.9,1.2h-3l0.7-9.2h9.3v2.7h-6.6
		l-0.3,4l0,0c0.2-0.7,0.6-1.1,1.1-1.4c0.5-0.3,1.1-0.5,1.8-0.5c0.9,0,1.6,0.2,2.3,0.5c0.6,0.4,1.1,0.8,1.6,1.4s0.7,1.3,0.9,2
		s0.3,1.5,0.3,2.3c0,0.8-0.1,1.6-0.4,2.3c-0.3,0.7-0.7,1.4-1.2,1.9s-1.1,1-1.8,1.3c-0.7,0.3-1.5,0.5-2.3,0.5c-0.8,0-1.6-0.1-2.2-0.4
		c-0.7-0.2-1.2-0.6-1.7-1.1s-0.9-1-1.1-1.7c-0.3-0.7-0.4-1.4-0.4-2.2H455.9z"/>
</g>
<g id="XMLID_264_">
	<path id="XMLID_265_" class="st0" d="M962.9,216.8c0,0.3,0.1,0.7,0.2,1s0.3,0.6,0.5,0.8c0.2,0.2,0.5,0.4,0.8,0.6
		c0.3,0.1,0.7,0.2,1,0.2c0.8,0,1.5-0.3,2-0.9c0.5-0.6,0.7-1.5,0.7-2.7c0-0.4,0-0.8-0.1-1.2s-0.2-0.7-0.4-1.1
		c-0.2-0.3-0.5-0.5-0.8-0.7c-0.3-0.2-0.7-0.3-1.2-0.3c-0.6,0-1,0.1-1.4,0.4c-0.4,0.3-0.7,0.7-0.9,1.2h-3l0.7-9.2h9.3v2.7h-6.6
		l-0.3,4l0,0c0.2-0.7,0.6-1.1,1.1-1.4c0.5-0.3,1.1-0.5,1.8-0.5c0.9,0,1.6,0.2,2.3,0.5c0.6,0.4,1.1,0.8,1.6,1.4s0.7,1.3,0.9,2
		s0.3,1.5,0.3,2.3c0,0.8-0.1,1.6-0.4,2.3c-0.3,0.7-0.7,1.4-1.2,1.9s-1.1,1-1.8,1.3c-0.7,0.3-1.5,0.5-2.3,0.5c-0.8,0-1.6-0.1-2.2-0.4
		c-0.7-0.2-1.2-0.6-1.7-1.1s-0.9-1-1.1-1.7c-0.3-0.7-0.4-1.4-0.4-2.2H962.9z"/>
</g>
<g id="XMLID_261_">
	<path id="XMLID_262_" class="st0" d="M973.6,284.9c0,0.3,0.1,0.7,0.2,1s0.3,0.6,0.5,0.8c0.2,0.2,0.5,0.4,0.8,0.6
		c0.3,0.1,0.7,0.2,1,0.2c0.8,0,1.5-0.3,2-0.9c0.5-0.6,0.7-1.5,0.7-2.7c0-0.4,0-0.8-0.1-1.2s-0.2-0.7-0.4-1.1
		c-0.2-0.3-0.5-0.5-0.8-0.7c-0.3-0.2-0.7-0.3-1.2-0.3c-0.6,0-1,0.1-1.4,0.4c-0.4,0.3-0.7,0.7-0.9,1.2h-3l0.7-9.2h9.3v2.7h-6.6
		l-0.3,4l0,0c0.2-0.7,0.6-1.1,1.1-1.4c0.5-0.3,1.1-0.5,1.8-0.5c0.9,0,1.6,0.2,2.3,0.5c0.6,0.4,1.1,0.8,1.6,1.4s0.7,1.3,0.9,2
		s0.3,1.5,0.3,2.3c0,0.8-0.1,1.6-0.4,2.3c-0.3,0.7-0.7,1.4-1.2,1.9s-1.1,1-1.8,1.3c-0.7,0.3-1.5,0.5-2.3,0.5c-0.8,0-1.6-0.1-2.2-0.4
		c-0.7-0.2-1.2-0.6-1.7-1.1s-0.9-1-1.1-1.7c-0.3-0.7-0.4-1.4-0.4-2.2H973.6z"/>
</g>
<g id="XMLID_258_">
	<path id="XMLID_259_" class="st0" d="M1122.5,145.3c0,0.3,0.1,0.7,0.2,1s0.3,0.6,0.5,0.8c0.2,0.2,0.5,0.4,0.8,0.6
		c0.3,0.1,0.7,0.2,1,0.2c0.8,0,1.5-0.3,2-0.9c0.5-0.6,0.7-1.5,0.7-2.7c0-0.4,0-0.8-0.1-1.2s-0.2-0.7-0.4-1.1
		c-0.2-0.3-0.5-0.5-0.8-0.7c-0.3-0.2-0.7-0.3-1.2-0.3c-0.6,0-1,0.1-1.4,0.4c-0.4,0.3-0.7,0.7-0.9,1.2h-3l0.7-9.2h9.3v2.7h-6.6
		l-0.3,4l0,0c0.2-0.7,0.6-1.1,1.1-1.4c0.5-0.3,1.1-0.5,1.8-0.5c0.9,0,1.6,0.2,2.3,0.5c0.6,0.4,1.1,0.8,1.6,1.4s0.7,1.3,0.9,2
		s0.3,1.5,0.3,2.3c0,0.8-0.1,1.6-0.4,2.3c-0.3,0.7-0.7,1.4-1.2,1.9s-1.1,1-1.8,1.3c-0.7,0.3-1.5,0.5-2.3,0.5c-0.8,0-1.6-0.1-2.2-0.4
		c-0.7-0.2-1.2-0.6-1.7-1.1s-0.9-1-1.1-1.7c-0.3-0.7-0.4-1.4-0.4-2.2H1122.5z"/>
</g>
<g id="XMLID_255_">
	<path id="XMLID_256_" class="st0" d="M1022,82.6c0,0.3,0.1,0.7,0.2,1s0.3,0.6,0.5,0.8c0.2,0.2,0.5,0.4,0.8,0.6
		c0.3,0.1,0.7,0.2,1,0.2c0.8,0,1.5-0.3,2-0.9c0.5-0.6,0.7-1.5,0.7-2.7c0-0.4,0-0.8-0.1-1.2s-0.2-0.7-0.4-1.1
		c-0.2-0.3-0.5-0.5-0.8-0.7c-0.3-0.2-0.7-0.3-1.2-0.3c-0.6,0-1,0.1-1.4,0.4c-0.4,0.3-0.7,0.7-0.9,1.2h-3l0.7-9.2h9.3v2.7h-6.6
		l-0.3,4l0,0c0.2-0.7,0.6-1.1,1.1-1.4c0.5-0.3,1.1-0.5,1.8-0.5c0.9,0,1.6,0.2,2.3,0.5c0.6,0.4,1.1,0.8,1.6,1.4s0.7,1.3,0.9,2
		s0.3,1.5,0.3,2.3c0,0.8-0.1,1.6-0.4,2.3c-0.3,0.7-0.7,1.4-1.2,1.9s-1.1,1-1.8,1.3c-0.7,0.3-1.5,0.5-2.3,0.5c-0.8,0-1.6-0.1-2.2-0.4
		c-0.7-0.2-1.2-0.6-1.7-1.1s-0.9-1-1.1-1.7c-0.3-0.7-0.4-1.4-0.4-2.2H1022z"/>
</g>
<g id="XMLID_252_">
	<path id="XMLID_253_" class="st0" d="M1036.4,194.7c0,0.3,0.1,0.7,0.2,1s0.3,0.6,0.5,0.8c0.2,0.2,0.5,0.4,0.8,0.6
		c0.3,0.1,0.7,0.2,1,0.2c0.8,0,1.5-0.3,2-0.9c0.5-0.6,0.7-1.5,0.7-2.7c0-0.4,0-0.8-0.1-1.2s-0.2-0.7-0.4-1.1
		c-0.2-0.3-0.5-0.5-0.8-0.7c-0.3-0.2-0.7-0.3-1.2-0.3c-0.6,0-1,0.1-1.4,0.4c-0.4,0.3-0.7,0.7-0.9,1.2h-3l0.7-9.2h9.3v2.7h-6.6
		l-0.3,4l0,0c0.2-0.7,0.6-1.1,1.1-1.4c0.5-0.3,1.1-0.5,1.8-0.5c0.9,0,1.6,0.2,2.3,0.5c0.6,0.4,1.1,0.8,1.6,1.4s0.7,1.3,0.9,2
		s0.3,1.5,0.3,2.3c0,0.8-0.1,1.6-0.4,2.3c-0.3,0.7-0.7,1.4-1.2,1.9s-1.1,1-1.8,1.3c-0.7,0.3-1.5,0.5-2.3,0.5c-0.8,0-1.6-0.1-2.2-0.4
		c-0.7-0.2-1.2-0.6-1.7-1.1s-0.9-1-1.1-1.7c-0.3-0.7-0.4-1.4-0.4-2.2H1036.4z"/>
</g>
<g id="XMLID_249_">
	<path id="XMLID_250_" class="st0" d="M272.2,284.8c0,0.3,0.1,0.7,0.2,1c0.1,0.3,0.3,0.6,0.5,0.8c0.2,0.2,0.5,0.4,0.8,0.6
		c0.3,0.1,0.7,0.2,1,0.2c0.8,0,1.5-0.3,2-0.9c0.5-0.6,0.7-1.5,0.7-2.7c0-0.4,0-0.8-0.1-1.2c-0.1-0.4-0.2-0.7-0.4-1.1
		c-0.2-0.3-0.5-0.5-0.8-0.7c-0.3-0.2-0.7-0.3-1.2-0.3c-0.6,0-1,0.1-1.4,0.4s-0.7,0.7-0.9,1.2h-3l0.7-9.2h9.3v2.7h-6.6l-0.3,4l0,0
		c0.2-0.7,0.6-1.1,1.1-1.4c0.5-0.3,1.1-0.5,1.8-0.5c0.9,0,1.6,0.2,2.3,0.5c0.6,0.4,1.1,0.8,1.6,1.4c0.4,0.6,0.7,1.3,0.9,2
		s0.3,1.5,0.3,2.3c0,0.8-0.1,1.6-0.4,2.3c-0.3,0.7-0.7,1.4-1.2,1.9c-0.5,0.5-1.1,1-1.8,1.3c-0.7,0.3-1.5,0.5-2.3,0.5
		c-0.8,0-1.6-0.1-2.2-0.4c-0.7-0.2-1.2-0.6-1.7-1.1c-0.5-0.5-0.9-1-1.1-1.7c-0.3-0.7-0.4-1.4-0.4-2.2H272.2z"/>
</g>
<g id="XMLID_246_">
	<path id="XMLID_247_" class="st0" d="M817.6,283.7c0,0.3,0.1,0.7,0.2,1s0.3,0.6,0.5,0.8c0.2,0.2,0.5,0.4,0.8,0.6
		c0.3,0.1,0.7,0.2,1,0.2c0.8,0,1.5-0.3,2-0.9c0.5-0.6,0.7-1.5,0.7-2.7c0-0.4,0-0.8-0.1-1.2s-0.2-0.7-0.4-1.1
		c-0.2-0.3-0.5-0.5-0.8-0.7c-0.3-0.2-0.7-0.3-1.2-0.3c-0.6,0-1,0.1-1.4,0.4c-0.4,0.3-0.7,0.7-0.9,1.2h-3l0.7-9.2h9.3v2.7h-6.6
		l-0.3,4l0,0c0.2-0.7,0.6-1.1,1.1-1.4c0.5-0.3,1.1-0.5,1.8-0.5c0.9,0,1.6,0.2,2.3,0.5c0.6,0.4,1.1,0.8,1.6,1.4s0.7,1.3,0.9,2
		s0.3,1.5,0.3,2.3c0,0.8-0.1,1.6-0.4,2.3c-0.3,0.7-0.7,1.4-1.2,1.9s-1.1,1-1.8,1.3c-0.7,0.3-1.5,0.5-2.3,0.5c-0.8,0-1.6-0.1-2.2-0.4
		c-0.7-0.2-1.2-0.6-1.7-1.1s-0.9-1-1.1-1.7c-0.3-0.7-0.4-1.4-0.4-2.2H817.6z"/>
</g>
<g id="XMLID_243_">
	<path id="XMLID_244_" class="st0" d="M822.5,136.8c0,0.3,0.1,0.7,0.2,1s0.3,0.6,0.5,0.8c0.2,0.2,0.5,0.4,0.8,0.6
		c0.3,0.1,0.7,0.2,1,0.2c0.8,0,1.5-0.3,2-0.9c0.5-0.6,0.7-1.5,0.7-2.7c0-0.4,0-0.8-0.1-1.2s-0.2-0.7-0.4-1.1
		c-0.2-0.3-0.5-0.5-0.8-0.7c-0.3-0.2-0.7-0.3-1.2-0.3c-0.6,0-1,0.1-1.4,0.4c-0.4,0.3-0.7,0.7-0.9,1.2h-3l0.7-9.2h9.3v2.7h-6.6
		l-0.3,4l0,0c0.2-0.7,0.6-1.1,1.1-1.4c0.5-0.3,1.1-0.5,1.8-0.5c0.9,0,1.6,0.2,2.3,0.5c0.6,0.4,1.1,0.8,1.6,1.4s0.7,1.3,0.9,2
		s0.3,1.5,0.3,2.3c0,0.8-0.1,1.6-0.4,2.3c-0.3,0.7-0.7,1.4-1.2,1.9s-1.1,1-1.8,1.3c-0.7,0.3-1.5,0.5-2.3,0.5c-0.8,0-1.6-0.1-2.2-0.4
		c-0.7-0.2-1.2-0.6-1.7-1.1s-0.9-1-1.1-1.7c-0.3-0.7-0.4-1.4-0.4-2.2H822.5z"/>
</g>
<g id="XMLID_240_">
	<path id="XMLID_241_" class="st0" d="M549.8,98.7v-2.6h5.5V113h-2.9V98.7H549.8z"/>
</g>
<g id="XMLID_237_">
	<path id="XMLID_238_" class="st0" d="M386,107.1v-2.6h5.5v16.9h-2.9v-14.4H386z"/>
</g>
<g id="XMLID_234_">
	<path id="XMLID_235_" class="st0" d="M175.5,142.9v-2.6h5.5v16.9h-2.9v-14.4H175.5z"/>
</g>
<g id="XMLID_231_">
	<path id="XMLID_232_" class="st0" d="M294.7,115.6V113h5.5V130h-2.9v-14.4H294.7z"/>
</g>
<g id="XMLID_228_">
	<path id="XMLID_229_" class="st0" d="M430.4,156.8v-2.6h5.5v16.9H433v-14.4H430.4z"/>
</g>
<g id="XMLID_225_">
	<path id="XMLID_226_" class="st0" d="M681.1,81.7v-2.6h5.5V96h-2.9V81.7H681.1z"/>
</g>
<g id="XMLID_222_">
	<path id="XMLID_223_" class="st0" d="M717.7,126.5v-2.6h5.5v16.9h-2.9v-14.4H717.7z"/>
</g>
<g id="XMLID_219_">
	<path id="XMLID_220_" class="st0" d="M803.5,66.9v-2.6h5.5v16.9h-2.9V66.9H803.5z"/>
</g>
<g id="XMLID_216_">
	<path id="XMLID_217_" class="st0" d="M814.9,101.3v-2.6h5.5v16.9h-2.9v-14.4H814.9z"/>
</g>
<g id="XMLID_213_">
	<path id="XMLID_214_" class="st0" d="M783.3,239.8v-2.6h5.5v16.9h-2.9v-14.4H783.3z"/>
</g>
<g id="XMLID_210_">
	<path id="XMLID_211_" class="st0" d="M868.1,271.7v-2.6h5.5V286h-2.9v-14.4H868.1z"/>
</g>
<g id="XMLID_207_">
	<path id="XMLID_208_" class="st0" d="M1026.9,304.8v-2.6h5.5v16.9h-2.9v-14.4H1026.9z"/>
</g>
<g id="XMLID_204_">
	<path id="XMLID_205_" class="st0" d="M989.1,308.6v-2.6h5.5V323h-2.9v-14.4H989.1z"/>
</g>
<g id="XMLID_201_">
	<path id="XMLID_202_" class="st0" d="M1014.1,111.6V109h5.5v16.9h-2.9v-14.4H1014.1z"/>
</g>
<g id="XMLID_198_">
	<path id="XMLID_199_" class="st0" d="M1185.8,177.7v-2.6h5.5V192h-2.9v-14.4H1185.8z"/>
</g>
<g id="XMLID_195_">
	<path id="XMLID_196_" class="st0" d="M1106.1,209.5v-2.6h5.5v16.9h-2.9v-14.4H1106.1z"/>
</g>
<g id="XMLID_192_">
	<path id="XMLID_193_" class="st0" d="M603.2,20.8v-2.6h5.5v16.9h-2.9V20.8H603.2z"/>
</g>
<g id="XMLID_189_">
	<path id="XMLID_190_" class="st0" d="M33.6,85.6V83h5.5v16.9h-2.9V85.6H33.6z"/>
</g>
<g id="XMLID_186_">
	<path id="XMLID_187_" class="st0" d="M114.8,63.6v-2.6h5.5V78h-2.9V63.6H114.8z"/>
</g>
<g id="XMLID_183_">
	<path id="XMLID_184_" class="st0" d="M88.1,149.7v-2.6h5.5v16.9h-2.9v-14.4H88.1z"/>
</g>
<g id="XMLID_180_">
	<path id="XMLID_181_" class="st0" d="M645.7,242.7v-2.6h5.5V257h-2.9v-14.4H645.7z"/>
</g>
<g id="XMLID_176_">
	<path id="XMLID_177_" class="st0" d="M661.6,271.8c0,1.2-0.1,2.3-0.3,3.3c-0.2,1.1-0.5,2-1,2.8s-1,1.4-1.8,1.9
		c-0.7,0.5-1.6,0.7-2.6,0.7c-1,0-1.9-0.2-2.6-0.7s-1.3-1.1-1.8-1.9c-0.5-0.8-0.8-1.7-1-2.8c-0.2-1.1-0.3-2.2-0.3-3.3
		s0.1-2.3,0.3-3.3c0.2-1.1,0.5-2,1-2.8c0.5-0.8,1-1.4,1.8-1.9s1.6-0.7,2.6-0.7c1,0,1.9,0.2,2.6,0.7c0.7,0.5,1.3,1.1,1.8,1.9
		s0.8,1.7,1,2.8C661.4,269.5,661.6,270.6,661.6,271.8z M658.7,271.8c0-2-0.2-3.5-0.7-4.5c-0.5-1-1.2-1.5-2-1.5s-1.5,0.5-2,1.5
		c-0.5,1-0.7,2.5-0.7,4.5s0.2,3.5,0.7,4.5c0.5,1,1.2,1.5,2,1.5s1.5-0.5,2-1.5C658.4,275.3,658.7,273.8,658.7,271.8z"/>
</g>
<g id="XMLID_173_">
	<path id="XMLID_174_" class="st0" d="M688.9,219v-2.7l6.3-6.2c0.2-0.2,0.4-0.4,0.5-0.6c0.2-0.2,0.3-0.5,0.4-0.7
		c0.1-0.3,0.2-0.5,0.3-0.8c0.1-0.3,0.1-0.5,0.1-0.8c0-0.8-0.2-1.4-0.5-1.9s-1-0.7-1.8-0.7c-0.7,0-1.2,0.2-1.6,0.7
		c-0.4,0.5-0.6,1.2-0.7,2.1H689c0-0.8,0.2-1.6,0.4-2.2c0.3-0.7,0.6-1.3,1.1-1.7c0.5-0.5,1-0.9,1.7-1.1c0.7-0.3,1.4-0.4,2.2-0.4
		c0.8,0,1.5,0.1,2.2,0.4c0.6,0.3,1.2,0.6,1.6,1.1c0.4,0.5,0.8,1,1,1.7c0.2,0.6,0.3,1.3,0.3,2.1c0,0.6-0.1,1.1-0.2,1.6
		c-0.1,0.5-0.3,0.9-0.5,1.3c-0.2,0.4-0.5,0.8-0.8,1.2c-0.3,0.4-0.7,0.7-1.1,1.1l-4.4,4.2h7v2.6H688.9z"/>
</g>
<g id="XMLID_170_">
	<path id="XMLID_171_" class="st0" d="M733.6,219v-2.7l6.3-6.2c0.2-0.2,0.4-0.4,0.5-0.6c0.2-0.2,0.3-0.5,0.4-0.7
		c0.1-0.3,0.2-0.5,0.3-0.8c0.1-0.3,0.1-0.5,0.1-0.8c0-0.8-0.2-1.4-0.5-1.9s-1-0.7-1.8-0.7c-0.7,0-1.2,0.2-1.6,0.7
		c-0.4,0.5-0.6,1.2-0.7,2.1h-2.9c0-0.8,0.2-1.6,0.4-2.2c0.3-0.7,0.6-1.3,1.1-1.7c0.5-0.5,1-0.9,1.7-1.1c0.7-0.3,1.4-0.4,2.2-0.4
		c0.8,0,1.5,0.1,2.2,0.4c0.6,0.3,1.2,0.6,1.6,1.1c0.4,0.5,0.8,1,1,1.7c0.2,0.6,0.3,1.3,0.3,2.1c0,0.6-0.1,1.1-0.2,1.6
		c-0.1,0.5-0.3,0.9-0.5,1.3c-0.2,0.4-0.5,0.8-0.8,1.2c-0.3,0.4-0.7,0.7-1.1,1.1l-4.4,4.2h7v2.6H733.6z"/>
</g>
<g id="XMLID_167_">
	<path id="XMLID_168_" class="st0" d="M782.2,68.6v-2.7l6.3-6.2c0.2-0.2,0.4-0.4,0.5-0.6c0.2-0.2,0.3-0.5,0.4-0.7
		c0.1-0.3,0.2-0.5,0.3-0.8c0.1-0.3,0.1-0.5,0.1-0.8c0-0.8-0.2-1.4-0.5-1.9s-1-0.7-1.8-0.7c-0.7,0-1.2,0.2-1.6,0.7
		c-0.4,0.5-0.6,1.2-0.7,2.1h-2.9c0-0.8,0.2-1.6,0.4-2.2c0.3-0.7,0.6-1.3,1.1-1.7c0.5-0.5,1-0.9,1.7-1.1c0.7-0.3,1.4-0.4,2.2-0.4
		c0.8,0,1.5,0.1,2.2,0.4c0.6,0.3,1.2,0.6,1.6,1.1c0.4,0.5,0.8,1,1,1.7c0.2,0.6,0.3,1.3,0.3,2.1c0,0.6-0.1,1.1-0.2,1.6
		c-0.1,0.5-0.3,0.9-0.5,1.3c-0.2,0.4-0.5,0.8-0.8,1.2c-0.3,0.4-0.7,0.7-1.1,1.1l-4.4,4.2h7v2.6H782.2z"/>
</g>
<g id="XMLID_164_">
	<path id="XMLID_165_" class="st0" d="M580.6,124.1v-2.7l6.3-6.2c0.2-0.2,0.4-0.4,0.5-0.6c0.2-0.2,0.3-0.5,0.4-0.7
		c0.1-0.3,0.2-0.5,0.3-0.8c0.1-0.3,0.1-0.5,0.1-0.8c0-0.8-0.2-1.4-0.5-1.9s-1-0.7-1.8-0.7c-0.7,0-1.2,0.2-1.6,0.7
		c-0.4,0.5-0.6,1.2-0.7,2.1h-2.9c0-0.8,0.2-1.6,0.4-2.2c0.3-0.7,0.6-1.3,1.1-1.7c0.5-0.5,1-0.9,1.7-1.1c0.7-0.3,1.4-0.4,2.2-0.4
		c0.8,0,1.5,0.1,2.2,0.4c0.6,0.3,1.2,0.6,1.6,1.1c0.4,0.5,0.8,1,1,1.7c0.2,0.6,0.3,1.3,0.3,2.1c0,0.6-0.1,1.1-0.2,1.6
		c-0.1,0.5-0.3,0.9-0.5,1.3c-0.2,0.4-0.5,0.8-0.8,1.2c-0.3,0.4-0.7,0.7-1.1,1.1l-4.4,4.2h7v2.6H580.6z"/>
</g>
<g id="XMLID_161_">
	<path id="XMLID_162_" class="st0" d="M459.4,72.8v-2.7l6.3-6.2c0.2-0.2,0.4-0.4,0.5-0.6c0.2-0.2,0.3-0.5,0.4-0.7
		c0.1-0.3,0.2-0.5,0.3-0.8c0.1-0.3,0.1-0.5,0.1-0.8c0-0.8-0.2-1.4-0.5-1.9s-1-0.7-1.8-0.7c-0.7,0-1.2,0.2-1.6,0.7
		c-0.4,0.5-0.6,1.2-0.7,2.1h-2.9c0-0.8,0.2-1.6,0.4-2.2c0.3-0.7,0.6-1.3,1.1-1.7c0.5-0.5,1-0.9,1.7-1.1c0.7-0.3,1.4-0.4,2.2-0.4
		c0.8,0,1.5,0.1,2.2,0.4c0.6,0.3,1.2,0.6,1.6,1.1c0.4,0.5,0.8,1,1,1.7c0.2,0.6,0.3,1.3,0.3,2.1c0,0.6-0.1,1.1-0.2,1.6
		c-0.1,0.5-0.3,0.9-0.5,1.3c-0.2,0.4-0.5,0.8-0.8,1.2c-0.3,0.4-0.7,0.7-1.1,1.1l-4.4,4.2h7v2.6H459.4z"/>
</g>
<g id="XMLID_158_">
	<path id="XMLID_159_" class="st0" d="M397.2,127.6v-2.7l6.3-6.2c0.2-0.2,0.4-0.4,0.5-0.6c0.2-0.2,0.3-0.5,0.4-0.7
		c0.1-0.3,0.2-0.5,0.3-0.8c0.1-0.3,0.1-0.5,0.1-0.8c0-0.8-0.2-1.4-0.5-1.9s-1-0.7-1.8-0.7c-0.7,0-1.2,0.2-1.6,0.7
		c-0.4,0.5-0.6,1.2-0.7,2.1h-2.9c0-0.8,0.2-1.6,0.4-2.2c0.3-0.7,0.6-1.3,1.1-1.7c0.5-0.5,1-0.9,1.7-1.1c0.7-0.3,1.4-0.4,2.2-0.4
		c0.8,0,1.5,0.1,2.2,0.4c0.6,0.3,1.2,0.6,1.6,1.1c0.4,0.5,0.8,1,1,1.7c0.2,0.6,0.3,1.3,0.3,2.1c0,0.6-0.1,1.1-0.2,1.6
		c-0.1,0.5-0.3,0.9-0.5,1.3c-0.2,0.4-0.5,0.8-0.8,1.2c-0.3,0.4-0.7,0.7-1.1,1.1l-4.4,4.2h7v2.6H397.2z"/>
</g>
<g id="XMLID_155_">
	<path id="XMLID_156_" class="st0" d="M340.4,58v-2.7l6.3-6.2c0.2-0.2,0.4-0.4,0.5-0.6c0.2-0.2,0.3-0.5,0.4-0.7
		c0.1-0.3,0.2-0.5,0.3-0.8c0.1-0.3,0.1-0.5,0.1-0.8c0-0.8-0.2-1.4-0.5-1.9s-1-0.7-1.8-0.7c-0.7,0-1.2,0.2-1.6,0.7
		c-0.4,0.5-0.6,1.2-0.7,2.1h-2.9c0-0.8,0.2-1.6,0.4-2.2c0.3-0.7,0.6-1.3,1.1-1.7c0.5-0.5,1-0.9,1.7-1.1c0.7-0.3,1.4-0.4,2.2-0.4
		c0.8,0,1.5,0.1,2.2,0.4c0.6,0.3,1.2,0.6,1.6,1.1c0.4,0.5,0.8,1,1,1.7c0.2,0.6,0.3,1.3,0.3,2.1c0,0.6-0.1,1.1-0.2,1.6
		c-0.1,0.5-0.3,0.9-0.5,1.3c-0.2,0.4-0.5,0.8-0.8,1.2c-0.3,0.4-0.7,0.7-1.1,1.1l-4.4,4.2h7V58H340.4z"/>
</g>
<g id="XMLID_152_">
	<path id="XMLID_153_" class="st0" d="M221.4,202.9v-2.7l6.3-6.2c0.2-0.2,0.4-0.4,0.5-0.6c0.2-0.2,0.3-0.5,0.4-0.7
		c0.1-0.3,0.2-0.5,0.3-0.8c0.1-0.3,0.1-0.5,0.1-0.8c0-0.8-0.2-1.4-0.5-1.9c-0.4-0.5-1-0.7-1.8-0.7c-0.7,0-1.2,0.2-1.6,0.7
		s-0.6,1.2-0.7,2.1h-2.9c0-0.8,0.2-1.6,0.4-2.2c0.3-0.7,0.6-1.3,1.1-1.7c0.5-0.5,1-0.9,1.7-1.1c0.7-0.3,1.4-0.4,2.2-0.4
		c0.8,0,1.5,0.1,2.2,0.4c0.6,0.3,1.2,0.6,1.6,1.1s0.8,1,1,1.7c0.2,0.6,0.3,1.3,0.3,2.1c0,0.6-0.1,1.1-0.2,1.6
		c-0.1,0.5-0.3,0.9-0.5,1.3c-0.2,0.4-0.5,0.8-0.8,1.2c-0.3,0.4-0.7,0.7-1.1,1.1l-4.4,4.2h7v2.6H221.4z"/>
</g>
<g id="XMLID_148_">
	<path id="XMLID_149_" class="st0" d="M751.9,185.2c0.2,1.6,0.8,2.8,1.9,3.6c1.1,0.8,2.5,1.2,4.3,1.2c1.3,0,2.4-0.3,3.4-1
		c1-0.7,1.8-1.6,2.5-2.9c0.7-1.2,1.2-2.7,1.6-4.4s0.6-3.6,0.7-5.7h-0.1c-1.1,2-2.4,3.5-3.8,4.3s-3.2,1.3-5.2,1.3
		c-2.3,0-4.3-0.4-6-1.3c-1.7-0.9-3.2-2-4.3-3.5c-1.2-1.5-2-3.2-2.6-5.1c-0.6-1.9-0.9-3.9-0.9-6c0-2.3,0.3-4.4,1-6.4
		c0.6-2,1.6-3.7,2.8-5.2c1.2-1.5,2.8-2.6,4.7-3.5c1.9-0.9,4-1.3,6.4-1.3c2.7,0,5.1,0.6,7.1,1.7c2,1.1,3.7,2.7,5,4.8
		c1.3,2.1,2.3,4.6,3,7.5c0.6,2.9,1,6.2,1,9.9c0,8.3-1.5,14.4-4.4,18.4c-3,3.9-7.4,5.9-13.2,5.9c-3.7,0-6.7-1.1-8.9-3.3
		s-3.5-5.2-3.8-9H751.9z M758.3,156.8c-1.1,0-2.1,0.2-2.9,0.7c-0.8,0.5-1.5,1.1-2.1,1.9c-0.6,0.8-1,1.7-1.3,2.8
		c-0.3,1.1-0.4,2.2-0.4,3.3c0,1.2,0.1,2.3,0.4,3.3c0.3,1.1,0.7,2,1.3,2.8c0.6,0.8,1.3,1.4,2.1,1.9c0.8,0.5,1.8,0.7,2.9,0.7
		c1.1,0,2.1-0.2,2.9-0.7c0.8-0.5,1.5-1.1,2.1-1.9c0.6-0.8,1-1.7,1.3-2.8c0.3-1,0.4-2.2,0.4-3.3c0-1.2-0.1-2.3-0.4-3.3
		c-0.3-1-0.7-2-1.3-2.8s-1.3-1.4-2.1-1.9S759.5,156.8,758.3,156.8z"/>
</g>
<g id="XMLID_144_">
	<path id="XMLID_145_" class="st0" d="M561.2,84.6c0.2,1.6,0.8,2.8,1.9,3.6c1.1,0.8,2.5,1.2,4.3,1.2c1.3,0,2.4-0.3,3.4-1
		c1-0.7,1.8-1.6,2.5-2.9c0.7-1.2,1.2-2.7,1.6-4.4s0.6-3.6,0.7-5.7h-0.1c-1.1,2-2.4,3.5-3.8,4.3s-3.2,1.3-5.2,1.3
		c-2.3,0-4.3-0.4-6-1.3c-1.7-0.9-3.2-2-4.3-3.5c-1.2-1.5-2-3.2-2.6-5.1c-0.6-1.9-0.9-3.9-0.9-6c0-2.3,0.3-4.4,1-6.4
		c0.6-2,1.6-3.7,2.8-5.2c1.2-1.5,2.8-2.6,4.7-3.5c1.9-0.9,4-1.3,6.4-1.3c2.7,0,5.1,0.6,7.1,1.7c2,1.1,3.7,2.7,5,4.8
		c1.3,2.1,2.3,4.6,3,7.5c0.6,2.9,1,6.2,1,9.9c0,8.3-1.5,14.4-4.4,18.4c-3,3.9-7.4,5.9-13.2,5.9c-3.7,0-6.7-1.1-8.9-3.3
		s-3.5-5.2-3.8-9H561.2z M567.7,56.2c-1.1,0-2.1,0.2-2.9,0.7c-0.8,0.5-1.5,1.1-2.1,1.9c-0.6,0.8-1,1.7-1.3,2.8
		c-0.3,1.1-0.4,2.2-0.4,3.3c0,1.2,0.1,2.3,0.4,3.3c0.3,1.1,0.7,2,1.3,2.8c0.6,0.8,1.3,1.4,2.1,1.9c0.8,0.5,1.8,0.7,2.9,0.7
		c1.1,0,2.1-0.2,2.9-0.7c0.8-0.5,1.5-1.1,2.1-1.9c0.6-0.8,1-1.7,1.3-2.8c0.3-1,0.4-2.2,0.4-3.3c0-1.2-0.1-2.3-0.4-3.3
		c-0.3-1-0.7-2-1.3-2.8s-1.3-1.4-2.1-1.9S568.8,56.2,567.7,56.2z"/>
</g>
<g id="XMLID_140_">
	<path id="XMLID_141_" class="st0" d="M274.4,211.4c0.2,1.6,0.8,2.8,1.9,3.6c1.1,0.8,2.5,1.2,4.3,1.2c1.3,0,2.4-0.3,3.4-1
		c1-0.7,1.8-1.6,2.5-2.9c0.7-1.2,1.2-2.7,1.6-4.4s0.6-3.6,0.7-5.7h-0.1c-1.1,2-2.4,3.5-3.8,4.3c-1.4,0.9-3.2,1.3-5.2,1.3
		c-2.3,0-4.3-0.4-6-1.3c-1.7-0.9-3.2-2-4.3-3.5c-1.2-1.5-2-3.2-2.6-5.1c-0.6-1.9-0.9-3.9-0.9-6c0-2.3,0.3-4.4,1-6.4
		c0.6-2,1.6-3.7,2.8-5.2c1.2-1.5,2.8-2.6,4.7-3.5c1.9-0.9,4-1.3,6.4-1.3c2.7,0,5.1,0.6,7.1,1.7c2,1.1,3.7,2.7,5,4.8
		c1.3,2.1,2.3,4.6,3,7.5c0.6,2.9,1,6.2,1,9.9c0,8.3-1.5,14.4-4.4,18.4s-7.4,5.9-13.2,5.9c-3.7,0-6.7-1.1-8.9-3.3
		c-2.3-2.2-3.5-5.2-3.8-9H274.4z M280.9,183c-1.1,0-2.1,0.2-2.9,0.7c-0.8,0.5-1.5,1.1-2.1,1.9c-0.6,0.8-1,1.7-1.3,2.8
		c-0.3,1.1-0.4,2.2-0.4,3.3c0,1.2,0.1,2.3,0.4,3.3c0.3,1.1,0.7,2,1.3,2.8c0.6,0.8,1.3,1.4,2.1,1.9c0.8,0.5,1.8,0.7,2.9,0.7
		c1.1,0,2.1-0.2,2.9-0.7c0.8-0.5,1.5-1.1,2.1-1.9c0.6-0.8,1-1.7,1.3-2.8c0.3-1,0.4-2.2,0.4-3.3c0-1.2-0.1-2.3-0.4-3.3
		c-0.3-1-0.7-2-1.3-2.8c-0.6-0.8-1.3-1.4-2.1-1.9C283,183.2,282,183,280.9,183z"/>
</g>
<g id="XMLID_136_">
	<path id="XMLID_137_" class="st0" d="M944.9,320.4c0.2,1.6,0.8,2.8,1.9,3.6c1.1,0.8,2.5,1.2,4.3,1.2c1.3,0,2.4-0.3,3.4-1
		c1-0.7,1.8-1.6,2.5-2.9c0.7-1.2,1.2-2.7,1.6-4.4s0.6-3.6,0.7-5.7h-0.1c-1.1,2-2.4,3.5-3.8,4.3s-3.2,1.3-5.2,1.3
		c-2.3,0-4.3-0.4-6-1.3c-1.7-0.9-3.2-2-4.3-3.5c-1.2-1.5-2-3.2-2.6-5.1c-0.6-1.9-0.9-3.9-0.9-6c0-2.3,0.3-4.4,1-6.4
		c0.6-2,1.6-3.7,2.8-5.2c1.2-1.5,2.8-2.6,4.7-3.5c1.9-0.9,4-1.3,6.4-1.3c2.7,0,5.1,0.6,7.1,1.7c2,1.1,3.7,2.7,5,4.8
		c1.3,2.1,2.3,4.6,3,7.5c0.6,2.9,1,6.2,1,9.9c0,8.3-1.5,14.4-4.4,18.4c-3,3.9-7.4,5.9-13.2,5.9c-3.7,0-6.7-1.1-8.9-3.3
		s-3.5-5.2-3.8-9H944.9z M951.3,292.1c-1.1,0-2.1,0.2-2.9,0.7c-0.8,0.5-1.5,1.1-2.1,1.9c-0.6,0.8-1,1.7-1.3,2.8
		c-0.3,1.1-0.4,2.2-0.4,3.3c0,1.2,0.1,2.3,0.4,3.3c0.3,1.1,0.7,2,1.3,2.8c0.6,0.8,1.3,1.4,2.1,1.9c0.8,0.5,1.8,0.7,2.9,0.7
		c1.1,0,2.1-0.2,2.9-0.7c0.8-0.5,1.5-1.1,2.1-1.9c0.6-0.8,1-1.7,1.3-2.8c0.3-1,0.4-2.2,0.4-3.3c0-1.2-0.1-2.3-0.4-3.3
		c-0.3-1-0.7-2-1.3-2.8s-1.3-1.4-2.1-1.9S952.5,292.1,951.3,292.1z"/>
</g>
<g id="XMLID_132_">
	<path id="XMLID_133_" class="st0" d="M244.4,259c0.2,1.6,0.8,2.8,1.9,3.6c1.1,0.8,2.5,1.2,4.3,1.2c1.3,0,2.4-0.3,3.4-1
		c1-0.7,1.8-1.6,2.5-2.9c0.7-1.2,1.2-2.7,1.6-4.4s0.6-3.6,0.7-5.7h-0.1c-1.1,2-2.4,3.5-3.8,4.3c-1.4,0.9-3.2,1.3-5.2,1.3
		c-2.3,0-4.3-0.4-6-1.3c-1.7-0.9-3.2-2-4.3-3.5c-1.2-1.5-2-3.2-2.6-5.1c-0.6-1.9-0.9-3.9-0.9-6c0-2.3,0.3-4.4,1-6.4
		c0.6-2,1.6-3.7,2.8-5.2c1.2-1.5,2.8-2.6,4.7-3.5c1.9-0.9,4-1.3,6.4-1.3c2.7,0,5.1,0.6,7.1,1.7c2,1.1,3.7,2.7,5,4.8
		c1.3,2.1,2.3,4.6,3,7.5c0.6,2.9,1,6.2,1,9.9c0,8.3-1.5,14.4-4.4,18.4s-7.4,5.9-13.2,5.9c-3.7,0-6.7-1.1-8.9-3.3
		c-2.3-2.2-3.5-5.2-3.8-9H244.4z M250.9,230.6c-1.1,0-2.1,0.2-2.9,0.7c-0.8,0.5-1.5,1.1-2.1,1.9c-0.6,0.8-1,1.7-1.3,2.8
		c-0.3,1.1-0.4,2.2-0.4,3.3c0,1.2,0.1,2.3,0.4,3.3c0.3,1.1,0.7,2,1.3,2.8c0.6,0.8,1.3,1.4,2.1,1.9c0.8,0.5,1.8,0.7,2.9,0.7
		c1.1,0,2.1-0.2,2.9-0.7c0.8-0.5,1.5-1.1,2.1-1.9c0.6-0.8,1-1.7,1.3-2.8c0.3-1,0.4-2.2,0.4-3.3c0-1.2-0.1-2.3-0.4-3.3
		c-0.3-1-0.7-2-1.3-2.8c-0.6-0.8-1.3-1.4-2.1-1.9C252.9,230.8,252,230.6,250.9,230.6z"/>
</g>
<g id="XMLID_129_">
	<path id="XMLID_130_" class="st1" d="M734.1,238.5v-7.1h28.3v7.3L748.6,278h-8.5l14.2-39.5H734.1z"/>
</g>
<g id="XMLID_126_">
	<path id="XMLID_127_" class="st0" d="M512.5,161.9c0.2,2.4,0.9,4.3,2.2,5.7s3,2,5.4,2c2.3,0,4-0.7,5-2.2c1.1-1.4,1.6-3.1,1.6-5
		c0-1.5-0.2-2.7-0.6-3.6c-0.4-0.9-1-1.7-1.8-2.2c-0.8-0.5-1.6-0.9-2.6-1.1c-1-0.2-2.1-0.3-3.3-0.3h-2.3v-7.5h2.3
		c2.3,0,4-0.4,5.1-1.3c1.1-0.9,1.7-2.3,1.7-4.4c0-1.7-0.5-3-1.4-4.1s-2.3-1.5-4.1-1.5c-1.9,0-3.3,0.5-4.3,1.6
		c-1,1.1-1.6,2.5-1.8,4.2h-8c0-2,0.4-3.8,1.1-5.4c0.7-1.6,1.7-3,3-4.2c1.3-1.2,2.7-2.1,4.4-2.7c1.7-0.6,3.5-1,5.4-1
		c1.8,0,3.5,0.3,5.1,0.8c1.7,0.6,3.2,1.4,4.4,2.4c1.3,1.1,2.3,2.4,3.1,4c0.8,1.6,1.2,3.4,1.2,5.4c0,2.5-0.4,4.5-1.3,6
		c-0.9,1.5-2.4,2.6-4.6,3.4v0.1c1.3,0.3,2.5,0.9,3.4,1.6c0.9,0.7,1.7,1.6,2.3,2.6c0.6,1,1,2.1,1.4,3.3c0.3,1.2,0.5,2.5,0.5,3.8
		c0,2.3-0.4,4.4-1.2,6.2c-0.8,1.8-1.9,3.4-3.3,4.6c-1.4,1.2-3.1,2.2-5,2.8c-1.9,0.6-4,1-6.2,1c-2.3,0-4.3-0.4-6.1-1.1
		c-1.8-0.8-3.4-1.8-4.7-3.2c-1.3-1.4-2.3-2.9-3-4.8c-0.7-1.8-1.1-3.9-1.1-6.1H512.5z"/>
</g>
<g id="XMLID_123_">
	<path id="XMLID_124_" class="st0" d="M255.6,136.7c0.2,2.4,0.9,4.3,2.2,5.7c1.2,1.4,3,2,5.4,2c2.3,0,4-0.7,5-2.2s1.6-3.1,1.6-5
		c0-1.5-0.2-2.7-0.6-3.6c-0.4-0.9-1-1.7-1.8-2.2c-0.8-0.5-1.6-0.9-2.6-1.1c-1-0.2-2.1-0.3-3.3-0.3h-2.3v-7.5h2.3
		c2.3,0,4-0.4,5.1-1.3c1.1-0.9,1.7-2.3,1.7-4.4c0-1.7-0.5-3-1.4-4.1s-2.3-1.5-4.1-1.5c-1.9,0-3.3,0.5-4.3,1.6
		c-1,1.1-1.6,2.5-1.8,4.2h-8c0-2,0.4-3.8,1.1-5.4c0.7-1.6,1.7-3,3-4.2c1.3-1.2,2.7-2.1,4.4-2.7c1.7-0.6,3.5-1,5.4-1
		c1.8,0,3.5,0.3,5.1,0.8c1.7,0.6,3.2,1.4,4.4,2.4c1.3,1.1,2.3,2.4,3.1,4c0.8,1.6,1.2,3.4,1.2,5.4c0,2.5-0.4,4.5-1.3,6
		c-0.9,1.5-2.4,2.6-4.6,3.4v0.1c1.3,0.3,2.5,0.9,3.4,1.6c0.9,0.7,1.7,1.6,2.3,2.6c0.6,1,1.1,2.1,1.4,3.3c0.3,1.2,0.5,2.5,0.5,3.8
		c0,2.3-0.4,4.4-1.2,6.2c-0.8,1.8-1.9,3.4-3.3,4.6c-1.4,1.2-3.1,2.2-5,2.8c-1.9,0.6-4,1-6.2,1c-2.3,0-4.3-0.4-6.1-1.1
		c-1.8-0.8-3.4-1.8-4.7-3.2s-2.3-2.9-3-4.8c-0.7-1.8-1.1-3.9-1.1-6.1H255.6z"/>
</g>
<g id="XMLID_120_">
	<path id="XMLID_121_" class="st0" d="M83.9,111c0.2,2.4,0.9,4.3,2.2,5.7c1.2,1.4,3,2,5.4,2c2.3,0,4-0.7,5-2.2s1.6-3.1,1.6-5
		c0-1.5-0.2-2.7-0.6-3.6c-0.4-0.9-1-1.7-1.8-2.2c-0.8-0.5-1.6-0.9-2.6-1.1c-1-0.2-2.1-0.3-3.3-0.3h-2.3v-7.5h2.3
		c2.3,0,4-0.4,5.1-1.3c1.1-0.9,1.7-2.3,1.7-4.4c0-1.7-0.5-3-1.4-4.1s-2.3-1.5-4.1-1.5c-1.9,0-3.3,0.5-4.3,1.6
		c-1,1.1-1.6,2.5-1.8,4.2h-8c0-2,0.4-3.8,1.1-5.4c0.7-1.6,1.7-3,3-4.2c1.3-1.2,2.7-2.1,4.4-2.7c1.7-0.6,3.5-1,5.4-1
		c1.8,0,3.5,0.3,5.1,0.8c1.7,0.6,3.2,1.4,4.4,2.4c1.3,1.1,2.3,2.4,3.1,4c0.8,1.6,1.2,3.4,1.2,5.4c0,2.5-0.4,4.5-1.3,6
		c-0.9,1.5-2.4,2.6-4.6,3.4v0.1c1.3,0.3,2.5,0.9,3.4,1.6c0.9,0.7,1.7,1.6,2.3,2.6c0.6,1,1.1,2.1,1.4,3.3c0.3,1.2,0.5,2.5,0.5,3.8
		c0,2.3-0.4,4.4-1.2,6.2c-0.8,1.8-1.9,3.4-3.3,4.6c-1.4,1.2-3.1,2.2-5,2.8c-1.9,0.6-4,1-6.2,1c-2.3,0-4.3-0.4-6.1-1.1
		c-1.8-0.8-3.4-1.8-4.7-3.2s-2.3-2.9-3-4.8c-0.7-1.8-1.1-3.9-1.1-6.1H83.9z"/>
</g>
<g id="XMLID_117_">
	<path id="XMLID_118_" class="st0" d="M999,217.2c0.2,2.4,0.9,4.3,2.2,5.7s3,2,5.4,2c2.3,0,4-0.7,5-2.2c1.1-1.4,1.6-3.1,1.6-5
		c0-1.5-0.2-2.7-0.6-3.6c-0.4-0.9-1-1.7-1.8-2.2c-0.8-0.5-1.6-0.9-2.6-1.1c-1-0.2-2.1-0.3-3.3-0.3h-2.3V203h2.3c2.3,0,4-0.4,5.1-1.3
		c1.1-0.9,1.7-2.3,1.7-4.4c0-1.7-0.5-3-1.4-4.1s-2.3-1.5-4.1-1.5c-1.9,0-3.3,0.5-4.3,1.6c-1,1.1-1.6,2.5-1.8,4.2h-8
		c0-2,0.4-3.8,1.1-5.4c0.7-1.6,1.7-3,3-4.2c1.3-1.2,2.7-2.1,4.4-2.7c1.7-0.6,3.5-1,5.4-1c1.8,0,3.5,0.3,5.1,0.8
		c1.7,0.6,3.2,1.4,4.4,2.4c1.3,1.1,2.3,2.4,3.1,4c0.8,1.6,1.2,3.4,1.2,5.4c0,2.5-0.4,4.5-1.3,6c-0.9,1.5-2.4,2.6-4.6,3.4v0.1
		c1.3,0.3,2.5,0.9,3.4,1.6c0.9,0.7,1.7,1.6,2.3,2.6c0.6,1,1,2.1,1.4,3.3c0.3,1.2,0.5,2.5,0.5,3.8c0,2.3-0.4,4.4-1.2,6.2
		c-0.8,1.8-1.9,3.4-3.3,4.6c-1.4,1.2-3.1,2.2-5,2.8c-1.9,0.6-4,1-6.2,1c-2.3,0-4.3-0.4-6.1-1.1c-1.8-0.8-3.4-1.8-4.7-3.2
		c-1.3-1.4-2.3-2.9-3-4.8c-0.7-1.8-1.1-3.9-1.1-6.1H999z"/>
</g>
<g id="XMLID_114_">
	<path id="XMLID_115_" class="st0" d="M310.5,286.9c0.2,2.4,0.9,4.3,2.2,5.7s3,2,5.4,2c2.3,0,4-0.7,5-2.2c1.1-1.4,1.6-3.1,1.6-5
		c0-1.5-0.2-2.7-0.6-3.6c-0.4-0.9-1-1.7-1.8-2.2c-0.8-0.5-1.6-0.9-2.6-1.1c-1-0.2-2.1-0.3-3.3-0.3h-2.3v-7.5h2.3
		c2.3,0,4-0.4,5.1-1.3c1.1-0.9,1.7-2.3,1.7-4.4c0-1.7-0.5-3-1.4-4.1s-2.3-1.5-4.1-1.5c-1.9,0-3.3,0.5-4.3,1.6
		c-1,1.1-1.6,2.5-1.8,4.2h-8c0-2,0.4-3.8,1.1-5.4c0.7-1.6,1.7-3,3-4.2c1.3-1.2,2.7-2.1,4.4-2.7c1.7-0.6,3.5-1,5.4-1
		c1.8,0,3.5,0.3,5.1,0.8c1.7,0.6,3.2,1.4,4.4,2.4c1.3,1.1,2.3,2.4,3.1,4c0.8,1.6,1.2,3.4,1.2,5.4c0,2.5-0.4,4.5-1.3,6
		c-0.9,1.5-2.4,2.6-4.6,3.4v0.1c1.3,0.3,2.5,0.9,3.4,1.6c0.9,0.7,1.7,1.6,2.3,2.6c0.6,1,1,2.1,1.4,3.3c0.3,1.2,0.5,2.5,0.5,3.8
		c0,2.3-0.4,4.4-1.2,6.2c-0.8,1.8-1.9,3.4-3.3,4.6c-1.4,1.2-3.1,2.2-5,2.8c-1.9,0.6-4,1-6.2,1c-2.3,0-4.3-0.4-6.1-1.1
		c-1.8-0.8-3.4-1.8-4.7-3.2c-1.3-1.4-2.3-2.9-3-4.8c-0.7-1.8-1.1-3.9-1.1-6.1H310.5z"/>
</g>
<g id="XMLID_111_">
	<path id="XMLID_112_" class="st0" d="M381.4,155v-7.1h28.3v7.3l-13.8,39.3h-8.5l14.2-39.5H381.4z"/>
</g>
<g id="XMLID_106_">
	<path id="XMLID_107_" class="st0" d="M467.5,117.3c0,1.8-0.3,3.4-1,5c-0.7,1.6-1.7,3-3,4.2s-2.9,2.2-4.8,2.9
		c-1.9,0.7-4.1,1.1-6.6,1.1c-2.5,0-4.7-0.4-6.6-1.1c-1.9-0.7-3.5-1.7-4.8-2.9c-1.3-1.2-2.3-2.6-3-4.2c-0.7-1.6-1-3.3-1-5
		c0-3.2,0.5-5.7,1.6-7.7c1.1-2,3-3.4,5.7-4.3c-1-0.6-1.9-1.2-2.6-2c-0.7-0.8-1.3-1.6-1.7-2.5c-0.4-0.9-0.7-1.8-0.9-2.8
		c-0.2-1-0.3-1.9-0.3-2.9c0-1.5,0.3-3,0.8-4.5c0.5-1.5,1.3-2.9,2.4-4.1c1.1-1.2,2.5-2.2,4.3-2.9s3.8-1.1,6.3-1.1
		c2.4,0,4.5,0.4,6.2,1.1c1.7,0.8,3.1,1.7,4.2,2.9c1.1,1.2,1.9,2.6,2.4,4.1c0.5,1.5,0.8,3,0.8,4.5c0,0.9-0.1,1.9-0.3,2.9
		c-0.2,1-0.5,1.9-0.9,2.8c-0.4,0.9-1,1.7-1.7,2.5c-0.7,0.8-1.6,1.5-2.6,2c2.7,0.9,4.6,2.5,5.7,4.5
		C466.9,111.9,467.5,114.4,467.5,117.3z M452.1,109.2c-0.9,0-1.9,0.2-2.7,0.5c-0.9,0.3-1.7,0.8-2.3,1.4c-0.7,0.6-1.2,1.4-1.7,2.2
		c-0.4,0.9-0.6,1.8-0.6,2.8c0,1,0.2,2,0.6,2.8c0.4,0.9,1,1.6,1.7,2.2c0.7,0.6,1.5,1.1,2.3,1.4c0.9,0.3,1.8,0.5,2.7,0.5
		c0.9,0,1.9-0.2,2.7-0.5c0.9-0.3,1.7-0.8,2.3-1.4c0.7-0.6,1.2-1.4,1.7-2.2c0.4-0.9,0.6-1.8,0.6-2.8c0-1-0.2-2-0.6-2.8
		c-0.4-0.9-1-1.6-1.7-2.2c-0.7-0.6-1.5-1.1-2.3-1.4C453.9,109.3,453,109.2,452.1,109.2z M452.1,101.7c2,0,3.4-0.6,4.3-1.7
		s1.4-2.5,1.4-4.2s-0.5-3.1-1.4-4.2s-2.4-1.7-4.3-1.7c-2,0-3.4,0.6-4.3,1.7c-0.9,1.1-1.4,2.5-1.4,4.2s0.5,3.1,1.4,4.2
		C448.7,101.1,450.1,101.7,452.1,101.7z"/>
</g>
<g id="XMLID_101_">
	<path id="XMLID_102_" class="st0" d="M441.5,230.7c0,1.8-0.3,3.4-1,5c-0.7,1.6-1.7,3-3,4.2s-2.9,2.2-4.8,2.9
		c-1.9,0.7-4.1,1.1-6.6,1.1c-2.5,0-4.7-0.4-6.6-1.1c-1.9-0.7-3.5-1.7-4.8-2.9c-1.3-1.2-2.3-2.6-3-4.2c-0.7-1.6-1-3.3-1-5
		c0-3.2,0.5-5.7,1.6-7.7c1.1-2,3-3.4,5.7-4.3c-1-0.6-1.9-1.2-2.6-2c-0.7-0.8-1.3-1.6-1.7-2.5c-0.4-0.9-0.7-1.8-0.9-2.8
		c-0.2-1-0.3-1.9-0.3-2.9c0-1.5,0.3-3,0.8-4.5c0.5-1.5,1.3-2.9,2.4-4.1c1.1-1.2,2.5-2.2,4.3-2.9s3.8-1.1,6.3-1.1
		c2.4,0,4.5,0.4,6.2,1.1c1.7,0.8,3.1,1.7,4.2,2.9c1.1,1.2,1.9,2.6,2.4,4.1c0.5,1.5,0.8,3,0.8,4.5c0,0.9-0.1,1.9-0.3,2.9
		c-0.2,1-0.5,1.9-0.9,2.8c-0.4,0.9-1,1.7-1.7,2.5c-0.7,0.8-1.6,1.5-2.6,2c2.7,0.9,4.6,2.5,5.7,4.5
		C440.9,225.3,441.5,227.8,441.5,230.7z M426.1,222.6c-0.9,0-1.9,0.2-2.7,0.5c-0.9,0.3-1.7,0.8-2.3,1.4c-0.7,0.6-1.2,1.4-1.7,2.2
		c-0.4,0.9-0.6,1.8-0.6,2.8c0,1,0.2,2,0.6,2.8c0.4,0.9,1,1.6,1.7,2.2c0.7,0.6,1.5,1.1,2.3,1.4c0.9,0.3,1.8,0.5,2.7,0.5
		c0.9,0,1.9-0.2,2.7-0.5c0.9-0.3,1.7-0.8,2.3-1.4c0.7-0.6,1.2-1.4,1.7-2.2c0.4-0.9,0.6-1.8,0.6-2.8c0-1-0.2-2-0.6-2.8
		c-0.4-0.9-1-1.6-1.7-2.2c-0.7-0.6-1.5-1.1-2.3-1.4C428,222.8,427.1,222.6,426.1,222.6z M426.1,215.2c2,0,3.4-0.6,4.3-1.7
		s1.4-2.5,1.4-4.2s-0.5-3.1-1.4-4.2s-2.4-1.7-4.3-1.7c-2,0-3.4,0.6-4.3,1.7c-0.9,1.1-1.4,2.5-1.4,4.2s0.5,3.1,1.4,4.2
		C422.7,214.6,424.1,215.2,426.1,215.2z"/>
</g>
<g id="XMLID_96_">
	<path id="XMLID_97_" class="st0" d="M717.5,277.3c0,1.8-0.3,3.4-1,5c-0.7,1.6-1.7,3-3,4.2s-2.9,2.2-4.8,2.9
		c-1.9,0.7-4.1,1.1-6.6,1.1c-2.5,0-4.7-0.4-6.6-1.1c-1.9-0.7-3.5-1.7-4.8-2.9c-1.3-1.2-2.3-2.6-3-4.2c-0.7-1.6-1-3.3-1-5
		c0-3.2,0.5-5.7,1.6-7.7c1.1-2,3-3.4,5.7-4.3c-1-0.6-1.9-1.2-2.6-2c-0.7-0.8-1.3-1.6-1.7-2.5c-0.4-0.9-0.7-1.8-0.9-2.8
		c-0.2-1-0.3-1.9-0.3-2.9c0-1.5,0.3-3,0.8-4.5c0.5-1.5,1.3-2.9,2.4-4.1c1.1-1.2,2.5-2.2,4.3-2.9s3.8-1.1,6.3-1.1
		c2.4,0,4.5,0.4,6.2,1.1c1.7,0.8,3.1,1.7,4.2,2.9c1.1,1.2,1.9,2.6,2.4,4.1c0.5,1.5,0.8,3,0.8,4.5c0,0.9-0.1,1.9-0.3,2.9
		c-0.2,1-0.5,1.9-0.9,2.8c-0.4,0.9-1,1.7-1.7,2.5c-0.7,0.8-1.6,1.5-2.6,2c2.7,0.9,4.6,2.5,5.7,4.5
		C717,271.9,717.5,274.4,717.5,277.3z M702.1,269.2c-0.9,0-1.9,0.2-2.7,0.5c-0.9,0.3-1.7,0.8-2.3,1.4c-0.7,0.6-1.2,1.4-1.7,2.2
		c-0.4,0.9-0.6,1.8-0.6,2.8c0,1,0.2,2,0.6,2.8c0.4,0.9,1,1.6,1.7,2.2c0.7,0.6,1.5,1.1,2.3,1.4c0.9,0.3,1.8,0.5,2.7,0.5
		c0.9,0,1.9-0.2,2.7-0.5c0.9-0.3,1.7-0.8,2.3-1.4c0.7-0.6,1.2-1.4,1.7-2.2c0.4-0.9,0.6-1.8,0.6-2.8c0-1-0.2-2-0.6-2.8
		c-0.4-0.9-1-1.6-1.7-2.2c-0.7-0.6-1.5-1.1-2.3-1.4C704,269.3,703.1,269.2,702.1,269.2z M702.1,261.7c2,0,3.4-0.6,4.3-1.7
		s1.4-2.5,1.4-4.2s-0.5-3.1-1.4-4.2s-2.4-1.7-4.3-1.7c-2,0-3.4,0.6-4.3,1.7c-0.9,1.1-1.4,2.5-1.4,4.2s0.5,3.1,1.4,4.2
		C698.7,261.2,700.2,261.7,702.1,261.7z"/>
</g>
<g id="XMLID_93_">
	<path id="XMLID_94_" class="st0" d="M675.4,176.3v-7.5l17.4-17.1c0.5-0.5,1-1.1,1.4-1.7c0.4-0.6,0.8-1.3,1.1-2
		c0.3-0.7,0.6-1.4,0.8-2.2c0.2-0.7,0.3-1.4,0.3-2.1c0-2.2-0.5-4-1.5-5.3c-1-1.4-2.7-2-5-2c-1.8,0-3.3,0.6-4.3,1.9
		c-1.1,1.2-1.7,3.2-1.9,5.9h-8c0-2.2,0.4-4.3,1.1-6.1c0.7-1.8,1.7-3.4,3-4.8c1.3-1.3,2.9-2.4,4.7-3.2c1.8-0.8,3.9-1.1,6.1-1.1
		c2.2,0,4.2,0.4,6,1.1c1.8,0.7,3.2,1.7,4.4,3c1.2,1.3,2.1,2.8,2.7,4.6c0.6,1.8,0.9,3.7,0.9,5.8c0,1.7-0.2,3.2-0.5,4.4
		c-0.3,1.3-0.8,2.5-1.4,3.6c-0.6,1.1-1.4,2.2-2.3,3.2c-0.9,1-1.9,2-3.1,3.1l-12.1,11.4h19.2v7.1H675.4z"/>
</g>
<g id="XMLID_90_">
	<path id="XMLID_91_" class="st0" d="M385.9,96.1v-7.5l17.4-17.1c0.5-0.5,1-1.1,1.4-1.7c0.4-0.6,0.8-1.3,1.1-2
		c0.3-0.7,0.6-1.4,0.8-2.2c0.2-0.7,0.3-1.4,0.3-2.1c0-2.2-0.5-4-1.5-5.3c-1-1.4-2.7-2-5-2c-1.8,0-3.3,0.6-4.3,1.9
		c-1.1,1.2-1.7,3.2-1.9,5.9h-8c0-2.2,0.4-4.3,1.1-6.1c0.7-1.8,1.7-3.4,3-4.8c1.3-1.3,2.9-2.4,4.7-3.2c1.8-0.8,3.9-1.1,6.1-1.1
		c2.2,0,4.2,0.4,6,1.1c1.8,0.7,3.2,1.7,4.4,3c1.2,1.3,2.1,2.8,2.7,4.6c0.6,1.8,0.9,3.7,0.9,5.8c0,1.7-0.2,3.2-0.5,4.4
		c-0.3,1.3-0.8,2.5-1.4,3.6c-0.6,1.1-1.4,2.2-2.3,3.2c-0.9,1-1.9,2-3.1,3.1L395.9,89h19.2v7.1H385.9z"/>
</g>
<g id="XMLID_87_">
	<path id="XMLID_88_" class="st0" d="M266.2,95.2v-7.5l17.4-17.1c0.5-0.5,1-1.1,1.4-1.7c0.4-0.6,0.8-1.3,1.1-2
		c0.3-0.7,0.6-1.4,0.8-2.2c0.2-0.7,0.3-1.4,0.3-2.1c0-2.2-0.5-4-1.5-5.3c-1-1.4-2.7-2-5-2c-1.8,0-3.3,0.6-4.3,1.9
		c-1.1,1.2-1.7,3.2-1.9,5.9h-8c0-2.2,0.4-4.3,1.1-6.1c0.7-1.8,1.7-3.4,3-4.8c1.3-1.3,2.9-2.4,4.7-3.2c1.8-0.8,3.9-1.1,6.1-1.1
		c2.2,0,4.2,0.4,6,1.1c1.8,0.7,3.2,1.7,4.4,3c1.2,1.3,2.1,2.8,2.7,4.6c0.6,1.8,0.9,3.7,0.9,5.8c0,1.7-0.2,3.2-0.5,4.4
		c-0.3,1.3-0.8,2.5-1.4,3.6c-0.6,1.1-1.4,2.2-2.3,3.2c-0.9,1-1.9,2-3.1,3.1l-12.1,11.4h19.2v7.1H266.2z"/>
</g>
<g id="XMLID_84_">
	<path id="XMLID_85_" class="st0" d="M543,305.9v-7.5l17.4-17.1c0.5-0.5,1-1.1,1.4-1.7c0.4-0.6,0.8-1.3,1.1-2
		c0.3-0.7,0.6-1.4,0.8-2.2c0.2-0.7,0.3-1.4,0.3-2.1c0-2.2-0.5-4-1.5-5.3c-1-1.4-2.7-2-5-2c-1.8,0-3.3,0.6-4.3,1.9
		c-1.1,1.2-1.7,3.2-1.9,5.9h-8c0-2.2,0.4-4.3,1.1-6.1c0.7-1.8,1.7-3.4,3-4.8c1.3-1.3,2.9-2.4,4.7-3.2c1.8-0.8,3.9-1.1,6.1-1.1
		c2.2,0,4.2,0.4,6,1.1c1.8,0.7,3.2,1.7,4.4,3c1.2,1.3,2.1,2.8,2.7,4.6c0.6,1.8,0.9,3.7,0.9,5.8c0,1.7-0.2,3.2-0.5,4.4
		c-0.3,1.3-0.8,2.5-1.4,3.6c-0.6,1.1-1.4,2.2-2.3,3.2c-0.9,1-1.9,2-3.1,3.1l-12.1,11.4h19.2v7.1H543z"/>
</g>
<g id="XMLID_81_">
	<path id="XMLID_82_" class="st0" d="M767.7,134.2v-7.5l17.4-17.1c0.5-0.5,1-1.1,1.4-1.7c0.4-0.6,0.8-1.3,1.1-2
		c0.3-0.7,0.6-1.4,0.8-2.2c0.2-0.7,0.3-1.4,0.3-2.1c0-2.2-0.5-4-1.5-5.3c-1-1.4-2.7-2-5-2c-1.8,0-3.3,0.6-4.3,1.9
		c-1.1,1.2-1.7,3.2-1.9,5.9h-8c0-2.2,0.4-4.3,1.1-6.1c0.7-1.8,1.7-3.4,3-4.8c1.3-1.3,2.9-2.4,4.7-3.2c1.8-0.8,3.9-1.1,6.1-1.1
		c2.2,0,4.2,0.4,6,1.1c1.8,0.7,3.2,1.7,4.4,3c1.2,1.3,2.1,2.8,2.7,4.6c0.6,1.8,0.9,3.7,0.9,5.8c0,1.7-0.2,3.2-0.5,4.4
		c-0.3,1.3-0.8,2.5-1.4,3.6c-0.6,1.1-1.4,2.2-2.3,3.2c-0.9,1-1.9,2-3.1,3.1l-12.1,11.4h19.2v7.1H767.7z"/>
</g>
<g id="XMLID_78_">
	<path id="XMLID_79_" class="st0" d="M1076.5,188.7v-7.5l17.4-17.1c0.5-0.5,1-1.1,1.4-1.7c0.4-0.6,0.8-1.3,1.1-2
		c0.3-0.7,0.6-1.4,0.8-2.2c0.2-0.7,0.3-1.4,0.3-2.1c0-2.2-0.5-4-1.5-5.3c-1-1.4-2.7-2-5-2c-1.8,0-3.3,0.6-4.3,1.9
		c-1.1,1.2-1.7,3.2-1.9,5.9h-8c0-2.2,0.4-4.3,1.1-6.1c0.7-1.8,1.7-3.4,3-4.8c1.3-1.3,2.9-2.4,4.7-3.2c1.8-0.8,3.9-1.1,6.1-1.1
		c2.2,0,4.2,0.4,6,1.1c1.8,0.7,3.2,1.7,4.4,3c1.2,1.3,2.1,2.8,2.7,4.6c0.6,1.8,0.9,3.7,0.9,5.8c0,1.7-0.2,3.2-0.5,4.4
		c-0.3,1.3-0.8,2.5-1.4,3.6c-0.6,1.1-1.4,2.2-2.3,3.2c-0.9,1-1.9,2-3.1,3.1l-12.1,11.4h19.2v7.1H1076.5z"/>
</g>
<g id="XMLID_75_">
	<path id="XMLID_76_" class="st0" d="M522,251.9c0,0.9,0.2,1.8,0.5,2.7c0.3,0.9,0.7,1.6,1.3,2.3c0.6,0.6,1.3,1.2,2.1,1.5
		s1.8,0.6,2.9,0.6c2.3,0,4.1-0.8,5.4-2.5c1.3-1.7,2-4.2,2-7.5c0-1.2-0.1-2.3-0.4-3.4c-0.2-1.1-0.6-2.1-1.2-2.9
		c-0.6-0.8-1.3-1.5-2.2-2s-2-0.8-3.3-0.8c-1.6,0-2.9,0.4-3.9,1.1c-1,0.8-1.8,1.8-2.5,3.2h-8.3l1.9-25.2h25.5v7.5h-18.2l-0.9,11.1
		l0.1,0.1c0.6-1.8,1.6-3.1,3-4c1.3-0.9,3-1.3,4.9-1.3c2.4,0,4.5,0.5,6.3,1.5c1.7,1,3.2,2.3,4.3,4c1.1,1.6,1.9,3.5,2.5,5.5
		c0.5,2.1,0.8,4.2,0.8,6.3c0,2.3-0.4,4.4-1.1,6.5c-0.8,2-1.8,3.8-3.2,5.3c-1.4,1.5-3,2.7-4.9,3.6c-1.9,0.9-4,1.3-6.4,1.3
		c-2.2,0-4.3-0.3-6.1-1c-1.8-0.7-3.4-1.7-4.8-2.9c-1.3-1.2-2.4-2.8-3.1-4.6s-1.1-3.8-1.2-6H522z"/>
</g>
<g id="XMLID_72_">
	<path id="XMLID_73_" class="st0" d="M1066.7,232.5c0,0.9,0.2,1.8,0.5,2.7c0.3,0.9,0.7,1.6,1.3,2.3c0.6,0.6,1.3,1.2,2.1,1.5
		s1.8,0.6,2.9,0.6c2.3,0,4.1-0.8,5.4-2.5c1.3-1.7,2-4.2,2-7.5c0-1.2-0.1-2.3-0.4-3.4c-0.2-1.1-0.6-2.1-1.2-2.9
		c-0.6-0.8-1.3-1.5-2.2-2s-2-0.8-3.3-0.8c-1.6,0-2.9,0.4-3.9,1.1c-1,0.8-1.8,1.8-2.5,3.2h-8.3l1.9-25.2h25.5v7.5h-18.2l-0.9,11.1
		l0.1,0.1c0.6-1.8,1.6-3.1,3-4c1.3-0.9,3-1.3,4.9-1.3c2.4,0,4.5,0.5,6.3,1.5c1.7,1,3.2,2.3,4.3,4c1.1,1.6,1.9,3.5,2.5,5.5
		c0.5,2.1,0.8,4.2,0.8,6.3c0,2.3-0.4,4.4-1.1,6.5c-0.8,2-1.8,3.8-3.2,5.3c-1.4,1.5-3,2.7-4.9,3.6c-1.9,0.9-4,1.3-6.4,1.3
		c-2.2,0-4.3-0.3-6.1-1c-1.8-0.7-3.4-1.7-4.8-2.9c-1.3-1.2-2.4-2.8-3.1-4.6s-1.1-3.8-1.2-6H1066.7z"/>
</g>
<g id="XMLID_69_">
	<path id="XMLID_70_" class="st0" d="M944.7,170.3c0,0.9,0.2,1.8,0.5,2.7c0.3,0.9,0.7,1.6,1.3,2.3c0.6,0.6,1.3,1.2,2.1,1.5
		s1.8,0.6,2.9,0.6c2.3,0,4.1-0.8,5.4-2.5c1.3-1.7,2-4.2,2-7.5c0-1.2-0.1-2.3-0.4-3.4c-0.2-1.1-0.6-2.1-1.2-2.9
		c-0.6-0.8-1.3-1.5-2.2-2s-2-0.8-3.3-0.8c-1.6,0-2.9,0.4-3.9,1.1c-1,0.8-1.8,1.8-2.5,3.2h-8.3l1.9-25.2h25.5v7.5h-18.2l-0.9,11.1
		l0.1,0.1c0.6-1.8,1.6-3.1,3-4c1.3-0.9,3-1.3,4.9-1.3c2.4,0,4.5,0.5,6.3,1.5c1.7,1,3.2,2.3,4.3,4c1.1,1.6,1.9,3.5,2.5,5.5
		c0.5,2.1,0.8,4.2,0.8,6.3c0,2.3-0.4,4.4-1.1,6.5c-0.8,2-1.8,3.8-3.2,5.3c-1.4,1.5-3,2.7-4.9,3.6c-1.9,0.9-4,1.3-6.4,1.3
		c-2.2,0-4.3-0.3-6.1-1c-1.8-0.7-3.4-1.7-4.8-2.9c-1.3-1.2-2.4-2.8-3.1-4.6s-1.1-3.8-1.2-6H944.7z"/>
</g>
<g id="XMLID_66_">
	<path id="XMLID_67_" class="st0" d="M479.2,272.7v-7.1h15.2v46.6h-8v-39.5H479.2z"/>
</g>
<g id="XMLID_63_">
	<path id="XMLID_64_" class="st0" d="M603.6,184.6v-7.1h15.2v46.6h-8v-39.5H603.6z"/>
</g>
<g id="XMLID_60_">
	<path id="XMLID_61_" class="st0" d="M343.9,209.4v-7.1h15.2v46.6h-8v-39.5H343.9z"/>
</g>
<g id="XMLID_57_">
	<path id="XMLID_58_" class="st0" d="M128.6,239.7v-7.1h15.2v46.6h-8v-39.5H128.6z"/>
</g>
<g id="XMLID_54_">
	<path id="XMLID_55_" class="st0" d="M1052.3,292.7v-7.1h15.2v46.6h-8v-39.5H1052.3z"/>
</g>
<g id="XMLID_51_">
	<path id="XMLID_52_" class="st0" d="M1099.4,48.8v-7.1h15.2v46.6h-8V48.8H1099.4z"/>
</g>
<g id="XMLID_47_">
	<path id="XMLID_48_" class="st0" d="M703.2,98L720,69.3h8.4v29.5h5.4v7.1h-5.4v10h-8v-10h-17.2V98z M711.1,98.8h9.3V82.2h-0.1
		L711.1,98.8z"/>
</g>
<g id="XMLID_44_">
	<path id="XMLID_45_" class="st1" d="M76.4,220.4V213l17.4-17.1c0.5-0.5,1-1.1,1.4-1.7c0.4-0.6,0.8-1.3,1.1-2
		c0.3-0.7,0.6-1.4,0.8-2.2c0.2-0.7,0.3-1.4,0.3-2.1c0-2.2-0.5-4-1.5-5.3c-1-1.4-2.7-2-5-2c-1.8,0-3.3,0.6-4.3,1.9
		c-1.1,1.2-1.7,3.2-1.9,5.9h-8c0-2.2,0.4-4.3,1.1-6.1c0.7-1.8,1.7-3.4,3-4.8c1.3-1.3,2.9-2.4,4.7-3.2c1.8-0.8,3.9-1.1,6.1-1.1
		c2.2,0,4.2,0.4,6,1.1c1.8,0.7,3.2,1.7,4.4,3c1.2,1.3,2.1,2.8,2.7,4.6c0.6,1.8,0.9,3.7,0.9,5.8c0,1.7-0.2,3.2-0.5,4.4
		c-0.3,1.3-0.8,2.5-1.4,3.6c-0.6,1.1-1.4,2.2-2.3,3.2c-0.9,1-1.9,2-3.1,3.1l-12.1,11.4h19.2v7.1H76.4z"/>
</g>
<g id="XMLID_40_">
	<path id="XMLID_41_" class="st0" d="M646.7,294.3l16.8-28.7h8.4v29.5h5.4v7.1h-5.4v10h-8v-10h-17.2V294.3z M654.7,295.1h9.3v-16.6
		h-0.1L654.7,295.1z"/>
</g>
<g id="XMLID_36_">
	<path id="XMLID_37_" class="st0" d="M522.2,139l16.8-28.7h8.4v29.5h5.4v7.1h-5.4v10h-8v-10h-17.2V139z M530.2,139.8h9.3v-16.6h-0.1
		L530.2,139.8z"/>
</g>
<g id="XMLID_32_">
	<path id="XMLID_33_" class="st0" d="M307.2,192.9l16.8-28.7h8.4v29.5h5.4v7.1h-5.4v10h-8v-10h-17.2V192.9z M315.2,193.7h9.3v-16.6
		h-0.1L315.2,193.7z"/>
</g>
<g id="XMLID_28_">
	<path id="XMLID_29_" class="st0" d="M302.7,80.6l16.8-28.7h8.4v29.5h5.4v7.1h-5.4v10h-8v-10h-17.2V80.6z M310.7,81.3h9.3V64.7h-0.1
		L310.7,81.3z"/>
</g>
<g id="XMLID_25_">
	<path id="XMLID_26_" class="st1" d="M617,144.1c0,1.5,0.2,3,0.7,4.4c0.5,1.4,1.2,2.6,2.1,3.7c0.9,1,2,1.9,3.4,2.5
		c1.4,0.6,2.9,0.9,4.7,0.9c3.8,0,6.7-1.4,8.9-4.1c2.1-2.7,3.2-6.8,3.2-12.2c0-1.9-0.2-3.7-0.6-5.5c-0.4-1.8-1-3.4-1.9-4.7
		c-0.9-1.4-2.1-2.5-3.6-3.3c-1.5-0.8-3.3-1.3-5.4-1.3c-2.6,0-4.7,0.6-6.4,1.8c-1.6,1.2-3,3-4,5.3h-13.5l3-41.2h41.6v12.2h-29.7
		l-1.5,18.1l0.2,0.2c1-2.9,2.7-5.1,4.8-6.5c2.2-1.4,4.8-2.1,8-2.1c4,0,7.4,0.8,10.2,2.5c2.8,1.6,5.2,3.8,7,6.5c1.8,2.7,3.2,5.7,4,9
		c0.9,3.4,1.3,6.8,1.3,10.3c0,3.7-0.6,7.2-1.8,10.6c-1.2,3.3-3,6.2-5.2,8.7c-2.2,2.5-4.9,4.4-8,5.8c-3.1,1.4-6.6,2.2-10.4,2.2
		c-3.6,0-7-0.6-10-1.7c-3-1.1-5.6-2.7-7.8-4.7c-2.2-2-3.9-4.5-5.1-7.5c-1.2-2.9-1.9-6.2-1.9-9.9H617z"/>
</g>
<g id="XMLID_22_">
	<path id="XMLID_23_" class="st0" d="M842.5,217.7c0,1.5,0.2,3,0.7,4.4c0.5,1.4,1.2,2.6,2.1,3.7c0.9,1,2,1.9,3.4,2.5
		c1.4,0.6,2.9,0.9,4.7,0.9c3.8,0,6.7-1.4,8.9-4.1c2.1-2.7,3.2-6.8,3.2-12.2c0-1.9-0.2-3.7-0.6-5.5c-0.4-1.8-1-3.4-1.9-4.7
		c-0.9-1.4-2.1-2.5-3.6-3.3c-1.5-0.8-3.3-1.3-5.4-1.3c-2.6,0-4.7,0.6-6.4,1.8c-1.6,1.2-3,3-4,5.3h-13.5l3-41.2h41.6v12.2h-29.7
		l-1.5,18.1l0.2,0.2c1-2.9,2.7-5.1,4.8-6.5c2.2-1.4,4.8-2.1,8-2.1c4,0,7.4,0.8,10.2,2.5c2.8,1.6,5.2,3.8,7,6.5c1.8,2.7,3.2,5.7,4,9
		c0.9,3.4,1.3,6.8,1.3,10.3c0,3.7-0.6,7.2-1.8,10.6c-1.2,3.3-3,6.2-5.2,8.7c-2.2,2.5-4.9,4.4-8,5.8c-3.1,1.4-6.6,2.2-10.4,2.2
		c-3.6,0-7-0.6-10-1.7c-3-1.1-5.6-2.7-7.8-4.7c-2.2-2-3.9-4.5-5.1-7.5c-1.2-2.9-1.9-6.2-1.9-9.9H842.5z"/>
</g>
<g id="XMLID_18_">
	<path id="XMLID_19_" class="st0" d="M964.1,275.7c0,5.2-0.5,10.2-1.4,14.9c-0.9,4.8-2.5,8.9-4.5,12.5c-2.1,3.6-4.7,6.5-7.9,8.6
		c-3.2,2.1-7.1,3.2-11.5,3.2c-4.6,0-8.4-1.1-11.6-3.2c-3.2-2.1-5.8-5-7.9-8.6c-2.1-3.6-3.6-7.8-4.5-12.5c-0.9-4.8-1.4-9.7-1.4-14.9
		c0-5.2,0.5-10.1,1.4-14.9c0.9-4.8,2.5-8.9,4.5-12.5c2.1-3.6,4.7-6.5,7.9-8.6c3.2-2.1,7.1-3.2,11.6-3.2c4.5,0,8.3,1.1,11.5,3.2
		c3.2,2.1,5.9,5,7.9,8.6c2.1,3.6,3.6,7.8,4.5,12.5C963.7,265.5,964.1,270.5,964.1,275.7z M951.1,275.7c0-9-1.1-15.7-3.4-20.3
		c-2.2-4.5-5.2-6.8-9-6.8s-6.8,2.3-9,6.8c-2.2,4.6-3.4,11.3-3.4,20.3c0,9,1.1,15.7,3.4,20.3c2.2,4.6,5.2,6.8,9,6.8s6.8-2.3,9-6.8
		C950,291.4,951.1,284.6,951.1,275.7z"/>
</g>
<g id="XMLID_14_">
	<path id="XMLID_15_" class="st1" d="M307.3,146l27.4-46.8h13.8v48.1h8.8v11.6h-8.8v16.4h-13v-16.4h-28.1V146z M320.4,147.3h15.2
		v-27.1h-0.2L320.4,147.3z"/>
</g>
<g id="XMLID_588_">
</g>
<g id="XMLID_589_">
</g>
<g id="XMLID_590_">
</g>
<g id="XMLID_591_">
</g>
<g id="XMLID_592_">
</g>
<g id="XMLID_593_">
</g>
</svg>
