<?xml version="1.0" encoding="utf-8"?>
<!-- Generator: Adobe Illustrator 19.0.0, SVG Export Plug-In . SVG Version: 6.00 Build 0)  -->
<svg version="1.1" id="Layer_1" xmlns="http://www.w3.org/2000/svg" xmlns:xlink="http://www.w3.org/1999/xlink" x="0px" y="0px"
	 viewBox="0 0 975.8 119.7" style="enable-background:new 0 0 975.8 119.7;" xml:space="preserve">
<style type="text/css">
	.st0{clip-path:url(#SVGID_2_);fill:#FFFFFF;}
	.st1{clip-path:url(#SVGID_2_);fill:#F17E21;}
</style>
<g>
	<defs>
		<rect id="SVGID_1_" width="975.8" height="119.7"/>
	</defs>
	<clipPath id="SVGID_2_">
		<use xlink:href="#SVGID_1_"  style="overflow:visible;"/>
	</clipPath>
	<path class="st0" d="M66.9,119.7H0V81c0,0,0-28.5,15.8-34.1c16.9-6.1,28.7-3.4,37.4,0.8c8.7,4.2,13.7,13.5,13.7,33.7V119.7z"/>
	<path class="st0" d="M52,18.6c0,10.3-8.3,18.6-18.6,18.6s-18.6-8.3-18.6-18.6S23.2,0,33.4,0S52,8.3,52,18.6"/>
	<path class="st1" d="M313.8,119.7h-66.9V81c0,0,0-28.5,15.8-34.1c16.9-6.1,28.7-3.4,37.4,0.8c8.7,4.2,13.7,13.5,13.7,33.7V119.7z"
		/>
	<path class="st1" d="M299,18.6c0,10.3-8.3,18.6-18.6,18.6s-18.6-8.3-18.6-18.6S270.1,0,280.4,0S299,8.3,299,18.6"/>
	<path class="st0" d="M562,119.7h-66.9V81c0,0,0-28.5,15.8-34.1c16.9-6.1,28.7-3.4,37.4,0.8c8.7,4.2,13.7,13.5,13.7,33.7V119.7z"/>
	<path class="st0" d="M547.2,18.6c0,10.3-8.3,18.6-18.6,18.6S510,28.9,510,18.6S518.3,0,528.6,0S547.2,8.3,547.2,18.6"/>
	<path class="st0" d="M810.3,119.7h-66.9V81c0,0,0-28.5,15.8-34.1c16.9-6.1,28.7-3.4,37.4,0.8c8.7,4.2,13.7,13.5,13.7,33.7V119.7z"
		/>
	<path class="st0" d="M795.4,18.6c0,10.3-8.3,18.6-18.6,18.6s-18.6-8.3-18.6-18.6S766.6,0,776.8,0S795.4,8.3,795.4,18.6"/>
	<path class="st0" d="M149.6,119.7H82.7V81c0,0,0-28.5,15.8-34.1c16.9-6.1,28.7-3.4,37.4,0.8c8.7,4.2,13.7,13.5,13.7,33.7V119.7z"/>
	<path class="st0" d="M134.8,18.6c0,10.3-8.3,18.6-18.6,18.6s-18.6-8.3-18.6-18.6S105.9,0,116.2,0S134.8,8.3,134.8,18.6"/>
	<path class="st0" d="M396.6,119.7h-66.9V81c0,0,0-28.5,15.8-34.1c16.9-6.1,28.7-3.4,37.4,0.8c8.7,4.2,13.7,13.5,13.7,33.7V119.7z"
		/>
	<path class="st0" d="M381.7,18.6c0,10.3-8.3,18.6-18.6,18.6s-18.6-8.3-18.6-18.6S352.8,0,363.1,0S381.7,8.3,381.7,18.6"/>
	<path class="st0" d="M644.8,119.7h-66.9V81c0,0,0-28.5,15.8-34.1c16.9-6.1,28.7-3.4,37.4,0.8c8.7,4.2,13.7,13.5,13.7,33.7V119.7z"
		/>
	<path class="st0" d="M629.9,18.6c0,10.3-8.3,18.6-18.6,18.6s-18.6-8.3-18.6-18.6S601.1,0,611.3,0S629.9,8.3,629.9,18.6"/>
	<path class="st0" d="M893,119.7h-66.9V81c0,0,0-28.5,15.8-34.1c16.9-6.1,28.7-3.4,37.4,0.8c8.7,4.2,13.7,13.5,13.7,33.7V119.7z"/>
	<path class="st0" d="M878.2,18.6c0,10.3-8.3,18.6-18.6,18.6S841,28.9,841,18.6S849.3,0,859.6,0S878.2,8.3,878.2,18.6"/>
	<path class="st1" d="M232.4,119.7h-66.9V81c0,0,0-28.5,15.8-34.1c16.9-6.1,28.7-3.4,37.4,0.8c8.7,4.2,13.7,13.5,13.7,33.7V119.7z"
		/>
	<path class="st1" d="M217.5,18.6c0,10.3-8.3,18.6-18.6,18.6c-10.3,0-18.6-8.3-18.6-18.6S188.7,0,198.9,0
		C209.2,0,217.5,8.3,217.5,18.6"/>
	<path class="st0" d="M479.3,119.7h-66.9V81c0,0,0-28.5,15.8-34.1c16.9-6.1,28.7-3.4,37.4,0.8c8.7,4.2,13.7,13.5,13.7,33.7V119.7z"
		/>
	<path class="st0" d="M464.5,18.6c0,10.3-8.3,18.6-18.6,18.6s-18.6-8.3-18.6-18.6S435.6,0,445.9,0S464.5,8.3,464.5,18.6"/>
	<path class="st1" d="M727.5,119.7h-66.9V81c0,0,0-28.5,15.8-34.1c16.9-6.1,28.7-3.4,37.4,0.8c8.7,4.2,13.7,13.5,13.7,33.7V119.7z"
		/>
	<path class="st1" d="M712.7,18.6c0,10.3-8.3,18.6-18.6,18.6s-18.6-8.3-18.6-18.6S683.8,0,694.1,0S712.7,8.3,712.7,18.6"/>
	<path class="st1" d="M975.8,119.7h-66.9V81c0,0,0-28.5,15.8-34.1c16.9-6.1,28.7-3.4,37.4,0.8c8.7,4.2,13.7,13.5,13.7,33.7V119.7z"
		/>
	<path class="st1" d="M960.9,18.6c0,10.3-8.3,18.6-18.6,18.6s-18.6-8.3-18.6-18.6S932.1,0,942.3,0S960.9,8.3,960.9,18.6"/>
</g>
<g id="XMLID_14_">
</g>
<g id="XMLID_15_">
</g>
<g id="XMLID_16_">
</g>
<g id="XMLID_17_">
</g>
<g id="XMLID_18_">
</g>
<g id="XMLID_19_">
</g>
</svg>
