<?xml version="1.0" encoding="utf-8"?>
<!-- Generator: Adobe Illustrator 19.0.0, SVG Export Plug-In . SVG Version: 6.00 Build 0)  -->
<svg version="1.1" id="Layer_1" xmlns="http://www.w3.org/2000/svg" xmlns:xlink="http://www.w3.org/1999/xlink" x="0px" y="0px"
	 viewBox="0 0 302 179.1" style="enable-background:new 0 0 302 179.1;" xml:space="preserve">
<style type="text/css">
	.st0{clip-path:url(#SVGID_2_);fill:#FFFFFF;}
	.st1{fill:#F57E25;}
	.st2{clip-path:url(#SVGID_4_);fill:#041019;}
	.st3{clip-path:url(#SVGID_4_);fill:#FFFFFF;}
	.st4{clip-path:url(#SVGID_4_);fill:#F57E25;}
	.st5{clip-path:url(#SVGID_6_);fill:#F57E25;}
	.st6{clip-path:url(#SVGID_6_);fill:#FFFFFF;}
	.st7{clip-path:url(#SVGID_6_);fill:#041019;}
	.st8{clip-path:url(#SVGID_6_);fill:#F47B3D;}
</style>
<g>
	<defs>
		<rect id="SVGID_1_" width="302" height="179.1"/>
	</defs>
	<clipPath id="SVGID_2_">
		<use xlink:href="#SVGID_1_"  style="overflow:visible;"/>
	</clipPath>
	<path class="st0" d="M302,69.9v96.4c0,7.1-5.7,12.8-12.8,12.8h-76.8c-7.1,0-12.8-5.7-12.8-12.8V12.8c0-7.1,5.7-12.8,12.8-12.8h76.8
		c7.1,0,12.8,5.7,12.8,12.8V69.9"/>
</g>
<rect x="199.6" y="124.4" class="st1" width="102.4" height="18.4"/>
<g>
	<defs>
		<rect id="SVGID_3_" width="302" height="179.1"/>
	</defs>
	<clipPath id="SVGID_4_">
		<use xlink:href="#SVGID_3_"  style="overflow:visible;"/>
	</clipPath>
	<path class="st2" d="M284.7,149.5v7.3h1.5v-8.6h-2.8v1.3H284.7z M275.7,154.2c0,0.4,0.1,0.8,0.2,1.1c0.1,0.3,0.3,0.6,0.5,0.9
		c0.2,0.2,0.5,0.4,0.9,0.6c0.3,0.1,0.7,0.2,1.1,0.2c0.4,0,0.8-0.1,1.2-0.2c0.4-0.1,0.7-0.3,0.9-0.5c0.3-0.2,0.5-0.5,0.6-0.9
		s0.2-0.7,0.2-1.2c0-0.2,0-0.5-0.1-0.7c-0.1-0.2-0.1-0.4-0.3-0.6c-0.1-0.2-0.3-0.3-0.4-0.5c-0.2-0.1-0.4-0.2-0.6-0.3v0
		c0.4-0.2,0.7-0.4,0.9-0.6s0.2-0.6,0.2-1.1c0-0.4-0.1-0.7-0.2-1c-0.1-0.3-0.3-0.5-0.6-0.7c-0.2-0.2-0.5-0.3-0.8-0.5
		c-0.3-0.1-0.6-0.2-1-0.2c-0.4,0-0.7,0.1-1,0.2c-0.3,0.1-0.6,0.3-0.8,0.5c-0.2,0.2-0.4,0.5-0.6,0.8c-0.1,0.3-0.2,0.6-0.2,1h1.5
		c0-0.3,0.1-0.6,0.3-0.8c0.2-0.2,0.4-0.3,0.8-0.3c0.3,0,0.6,0.1,0.8,0.3c0.2,0.2,0.2,0.4,0.2,0.8c0,0.4-0.1,0.7-0.3,0.8
		s-0.5,0.2-0.9,0.2h-0.4v1.4h0.4c0.2,0,0.4,0,0.6,0.1c0.2,0,0.3,0.1,0.5,0.2c0.1,0.1,0.2,0.2,0.3,0.4c0.1,0.2,0.1,0.4,0.1,0.7
		c0,0.4-0.1,0.7-0.3,0.9c-0.2,0.3-0.5,0.4-0.9,0.4c-0.4,0-0.8-0.1-1-0.4c-0.2-0.2-0.4-0.6-0.4-1.1H275.7z M269.2,154.7
		c0,0.7,0.3,1.3,0.7,1.7c0.4,0.4,1,0.6,1.7,0.6c1.1,0,1.9-0.4,2.4-1.1c0.5-0.7,0.8-1.9,0.8-3.4c0-0.7-0.1-1.3-0.2-1.8
		c-0.1-0.5-0.3-1-0.5-1.4c-0.2-0.4-0.6-0.7-0.9-0.9c-0.4-0.2-0.8-0.3-1.3-0.3c-0.4,0-0.8,0.1-1.2,0.2c-0.3,0.2-0.6,0.4-0.9,0.6
		c-0.2,0.3-0.4,0.6-0.5,1c-0.1,0.4-0.2,0.8-0.2,1.2c0,0.4,0.1,0.8,0.2,1.1c0.1,0.4,0.3,0.7,0.5,0.9c0.2,0.3,0.5,0.5,0.8,0.6
		s0.7,0.2,1.1,0.2c0.4,0,0.7-0.1,1-0.2c0.3-0.2,0.5-0.4,0.7-0.8h0c0,0.4-0.1,0.7-0.1,1.1c-0.1,0.3-0.2,0.6-0.3,0.8
		c-0.1,0.2-0.3,0.4-0.5,0.5c-0.2,0.1-0.4,0.2-0.6,0.2c-0.3,0-0.6-0.1-0.8-0.2c-0.2-0.1-0.3-0.4-0.3-0.7H269.2z M272.4,149.6
		c0.2,0.1,0.3,0.2,0.4,0.4c0.1,0.1,0.2,0.3,0.2,0.5c0.1,0.2,0.1,0.4,0.1,0.6c0,0.2,0,0.4-0.1,0.6c-0.1,0.2-0.1,0.4-0.2,0.5
		c-0.1,0.1-0.2,0.3-0.4,0.4c-0.2,0.1-0.3,0.1-0.5,0.1s-0.4,0-0.5-0.1c-0.2-0.1-0.3-0.2-0.4-0.4c-0.1-0.1-0.2-0.3-0.2-0.5
		c-0.1-0.2-0.1-0.4-0.1-0.6c0-0.2,0-0.4,0.1-0.6c0.1-0.2,0.1-0.4,0.2-0.5c0.1-0.1,0.2-0.3,0.4-0.4c0.1-0.1,0.3-0.1,0.5-0.1
		S272.3,149.5,272.4,149.6 M262.4,154.2c0,0.4,0.1,0.8,0.2,1.1c0.1,0.3,0.3,0.6,0.5,0.9c0.2,0.2,0.5,0.4,0.9,0.6
		c0.3,0.1,0.7,0.2,1.1,0.2c0.4,0,0.8-0.1,1.2-0.2c0.4-0.1,0.7-0.3,0.9-0.5c0.3-0.2,0.5-0.5,0.6-0.9c0.1-0.3,0.2-0.7,0.2-1.2
		c0-0.2,0-0.5-0.1-0.7c-0.1-0.2-0.1-0.4-0.3-0.6c-0.1-0.2-0.3-0.3-0.4-0.5c-0.2-0.1-0.4-0.2-0.6-0.3v0c0.4-0.2,0.7-0.4,0.9-0.6
		c0.2-0.3,0.2-0.6,0.2-1.1c0-0.4-0.1-0.7-0.2-1c-0.1-0.3-0.3-0.5-0.6-0.7c-0.2-0.2-0.5-0.3-0.8-0.5c-0.3-0.1-0.6-0.2-1-0.2
		c-0.4,0-0.7,0.1-1,0.2c-0.3,0.1-0.6,0.3-0.8,0.5c-0.2,0.2-0.4,0.5-0.6,0.8c-0.1,0.3-0.2,0.6-0.2,1h1.5c0-0.3,0.1-0.6,0.3-0.8
		c0.2-0.2,0.4-0.3,0.8-0.3c0.3,0,0.6,0.1,0.8,0.3c0.2,0.2,0.2,0.4,0.2,0.8c0,0.4-0.1,0.7-0.3,0.8s-0.5,0.2-0.9,0.2h-0.4v1.4h0.4
		c0.2,0,0.4,0,0.6,0.1c0.2,0,0.4,0.1,0.5,0.2c0.1,0.1,0.2,0.2,0.3,0.4c0.1,0.2,0.1,0.4,0.1,0.7c0,0.4-0.1,0.7-0.3,0.9
		c-0.2,0.3-0.5,0.4-0.9,0.4c-0.4,0-0.8-0.1-1-0.4c-0.2-0.2-0.4-0.6-0.4-1.1H262.4z M261.5,152.8h-2.9v1.2h2.9V152.8z M251.8,155h3.2
		v1.9h1.5V155h1v-1.3h-1v-5.5h-1.6l-3.1,5.3V155z M255,150.6L255,150.6l0,3.1h-1.7L255,150.6z M245.3,154.7c0,0.7,0.3,1.3,0.7,1.7
		c0.4,0.4,1,0.6,1.7,0.6c1.1,0,1.9-0.4,2.4-1.1c0.5-0.7,0.8-1.9,0.8-3.4c0-0.7-0.1-1.3-0.2-1.8c-0.1-0.5-0.3-1-0.5-1.4
		c-0.2-0.4-0.6-0.7-0.9-0.9c-0.4-0.2-0.8-0.3-1.3-0.3c-0.4,0-0.8,0.1-1.2,0.2c-0.3,0.2-0.6,0.4-0.9,0.6c-0.2,0.3-0.4,0.6-0.5,1
		c-0.1,0.4-0.2,0.8-0.2,1.2c0,0.4,0.1,0.8,0.2,1.1c0.1,0.4,0.3,0.7,0.5,0.9c0.2,0.3,0.5,0.5,0.8,0.6c0.3,0.2,0.7,0.2,1.1,0.2
		c0.4,0,0.7-0.1,1-0.2c0.3-0.2,0.5-0.4,0.7-0.8h0c0,0.4-0.1,0.7-0.1,1.1c-0.1,0.3-0.2,0.6-0.3,0.8c-0.1,0.2-0.3,0.4-0.5,0.5
		c-0.2,0.1-0.4,0.2-0.6,0.2c-0.3,0-0.6-0.1-0.8-0.2c-0.2-0.1-0.3-0.4-0.3-0.7H245.3z M248.6,149.6c0.2,0.1,0.3,0.2,0.4,0.4
		c0.1,0.1,0.2,0.3,0.2,0.5c0.1,0.2,0.1,0.4,0.1,0.6c0,0.2,0,0.4-0.1,0.6c-0.1,0.2-0.1,0.4-0.2,0.5c-0.1,0.1-0.2,0.3-0.4,0.4
		c-0.2,0.1-0.3,0.1-0.5,0.1s-0.4,0-0.5-0.1c-0.2-0.1-0.3-0.2-0.4-0.4c-0.1-0.1-0.2-0.3-0.2-0.5c-0.1-0.2-0.1-0.4-0.1-0.6
		c0-0.2,0-0.4,0.1-0.6c0.1-0.2,0.1-0.4,0.2-0.5c0.1-0.1,0.2-0.3,0.4-0.4c0.2-0.1,0.3-0.1,0.5-0.1S248.4,149.5,248.6,149.6
		 M238.7,154.7c0,0.7,0.3,1.3,0.7,1.7c0.4,0.4,1,0.6,1.7,0.6c1.1,0,1.9-0.4,2.4-1.1c0.5-0.7,0.8-1.9,0.8-3.4c0-0.7-0.1-1.3-0.2-1.8
		c-0.1-0.5-0.3-1-0.5-1.4c-0.2-0.4-0.6-0.7-0.9-0.9c-0.4-0.2-0.8-0.3-1.3-0.3c-0.4,0-0.8,0.1-1.2,0.2c-0.3,0.2-0.6,0.4-0.9,0.6
		c-0.2,0.3-0.4,0.6-0.5,1c-0.1,0.4-0.2,0.8-0.2,1.2c0,0.4,0.1,0.8,0.2,1.1c0.1,0.4,0.3,0.7,0.5,0.9c0.2,0.3,0.5,0.5,0.8,0.6
		c0.3,0.2,0.7,0.2,1.1,0.2c0.4,0,0.7-0.1,1-0.2c0.3-0.2,0.5-0.4,0.7-0.8h0c0,0.4-0.1,0.7-0.1,1.1c-0.1,0.3-0.2,0.6-0.3,0.8
		c-0.1,0.2-0.3,0.4-0.5,0.5c-0.2,0.1-0.4,0.2-0.6,0.2c-0.3,0-0.6-0.1-0.8-0.2c-0.2-0.1-0.3-0.4-0.3-0.7H238.7z M241.9,149.6
		c0.2,0.1,0.3,0.2,0.4,0.4c0.1,0.1,0.2,0.3,0.2,0.5c0.1,0.2,0.1,0.4,0.1,0.6c0,0.2,0,0.4-0.1,0.6c-0.1,0.2-0.1,0.4-0.2,0.5
		c-0.1,0.1-0.2,0.3-0.4,0.4c-0.2,0.1-0.3,0.1-0.5,0.1s-0.4,0-0.5-0.1c-0.2-0.1-0.3-0.2-0.4-0.4c-0.1-0.1-0.2-0.3-0.2-0.5
		c-0.1-0.2-0.1-0.4-0.1-0.6c0-0.2,0-0.4,0.1-0.6c0.1-0.2,0.1-0.4,0.2-0.5c0.1-0.1,0.2-0.3,0.4-0.4c0.2-0.1,0.3-0.1,0.5-0.1
		S241.8,149.5,241.9,149.6 M237.6,152.8h-2.9v1.2h2.9V152.8z M227.9,154.2c0,0.4,0.1,0.8,0.2,1.1s0.3,0.6,0.5,0.9
		c0.2,0.2,0.5,0.4,0.9,0.6c0.3,0.1,0.7,0.2,1.1,0.2c0.4,0,0.8-0.1,1.2-0.2c0.4-0.1,0.7-0.3,0.9-0.5c0.3-0.2,0.5-0.5,0.6-0.9
		c0.1-0.3,0.2-0.7,0.2-1.2c0-0.2,0-0.5-0.1-0.7c-0.1-0.2-0.1-0.4-0.3-0.6c-0.1-0.2-0.3-0.3-0.4-0.5c-0.2-0.1-0.4-0.2-0.6-0.3v0
		c0.4-0.2,0.7-0.4,0.9-0.6s0.2-0.6,0.2-1.1c0-0.4-0.1-0.7-0.2-1c-0.1-0.3-0.3-0.5-0.6-0.7c-0.2-0.2-0.5-0.3-0.8-0.5
		c-0.3-0.1-0.6-0.2-1-0.2c-0.4,0-0.7,0.1-1,0.2c-0.3,0.1-0.6,0.3-0.8,0.5c-0.2,0.2-0.4,0.5-0.6,0.8c-0.1,0.3-0.2,0.6-0.2,1h1.5
		c0-0.3,0.1-0.6,0.3-0.8c0.2-0.2,0.4-0.3,0.8-0.3c0.3,0,0.6,0.1,0.8,0.3c0.2,0.2,0.2,0.4,0.2,0.8c0,0.4-0.1,0.7-0.3,0.8
		s-0.5,0.2-0.9,0.2h-0.4v1.4h0.4c0.2,0,0.4,0,0.6,0.1c0.2,0,0.3,0.1,0.5,0.2c0.1,0.1,0.2,0.2,0.3,0.4c0.1,0.2,0.1,0.4,0.1,0.7
		c0,0.4-0.1,0.7-0.3,0.9c-0.2,0.3-0.5,0.4-0.9,0.4c-0.4,0-0.8-0.1-1-0.4c-0.2-0.2-0.4-0.6-0.4-1.1H227.9z M227,150.8
		c-0.1-0.5-0.3-1-0.5-1.4c-0.2-0.4-0.5-0.7-0.9-1c-0.4-0.2-0.8-0.4-1.3-0.4c-0.5,0-1,0.1-1.3,0.4c-0.4,0.2-0.7,0.6-0.9,1
		c-0.2,0.4-0.4,0.9-0.5,1.4c-0.1,0.5-0.2,1.1-0.2,1.7c0,0.6,0.1,1.2,0.2,1.7c0.1,0.5,0.3,1,0.5,1.4c0.2,0.4,0.5,0.7,0.9,1
		c0.4,0.2,0.8,0.4,1.3,0.4c0.5,0,0.9-0.1,1.3-0.4c0.4-0.2,0.7-0.6,0.9-1c0.2-0.4,0.4-0.9,0.5-1.4c0.1-0.5,0.2-1.1,0.2-1.7
		C227.1,151.9,227.1,151.4,227,150.8 M225.3,154.8c-0.3,0.5-0.6,0.8-1,0.8c-0.4,0-0.8-0.3-1-0.8c-0.3-0.5-0.4-1.3-0.4-2.3
		c0-1,0.1-1.8,0.4-2.3c0.3-0.5,0.6-0.8,1-0.8c0.4,0,0.8,0.3,1,0.8c0.3,0.5,0.4,1.3,0.4,2.3C225.7,153.5,225.5,154.3,225.3,154.8
		 M218.6,149.5l-2.6,7.3h1.6l2.6-7.3v-1.3h-5.2v1.3H218.6z"/>
	<path class="st3" d="M282.1,135.9c0-0.3,0.1-0.8,0.1-1.1c0.1-0.5,0.4-1.7,1-1.7c0.1,0,0.2,0.1,0.3,0.2c0.2-0.1,0.4-0.2,0.4-0.5
		c0-0.2-0.1-0.3-0.4-0.3c-0.6,0-1.1,0.9-1.2,1.1c0-0.2,0.2-0.5,0.2-0.5c0-0.1,0.1-0.2,0.1-0.3c0-0.2-0.1-0.3-0.3-0.3
		c-0.2,0-0.5,0.2-0.6,0.3l0.1,0.1c0,0,0,0,0,0c0.1,0,0.2,0,0.2,0.3c0,0.1,0,0.2,0,0.4c-0.2,0.9-0.4,1.8-0.4,2.2H282.1z M280.3,133
		c0,0.4-0.2,1.3-0.3,1.9c-0.2,0.2-0.5,0.6-0.8,0.6c-0.2,0-0.4-0.2-0.4-0.6c0-1,0.5-2,1-2C280,133,280.3,133,280.3,133 M280.6,134.8
		c0.2-1,0.2-1.1,0.2-1.3l0.2-0.8c-0.3,0-0.8-0.1-1-0.1c-1,0-1.8,1.1-1.8,2.4c0,0.7,0.3,1,0.7,1c0.4,0,0.9-0.4,1.1-0.9
		c-0.1,0.3-0.2,0.9,0.3,0.9c0.3,0,0.7-0.3,0.7-0.3l0-0.1c0,0-0.1,0-0.2,0c-0.1,0-0.2-0.1-0.2-0.3C280.5,135.2,280.5,135,280.6,134.8
		 M275.8,134.6c0-0.7,0.4-1.6,1-1.6c0.4,0,0.5,0.2,0.5,0.5c0.3,0.2,0.6,0,0.6-0.3c0-0.4-0.5-0.5-1-0.5c-1,0-1.7,1.1-1.7,2.1
		c0,0.8,0.5,1.3,1.1,1.3c0.7,0,1.4-0.5,1.4-1.1c-0.3,0.4-0.7,0.6-1,0.6C276,135.5,275.8,135.1,275.8,134.6 M271.4,135.9
		c0-0.3,0.1-0.8,0.1-1.1c0.1-0.5,0.4-1.7,1-1.7c0.1,0,0.2,0.1,0.3,0.2c0.2-0.1,0.4-0.2,0.4-0.5c0-0.2-0.1-0.3-0.4-0.3
		c-0.6,0-1.1,0.9-1.2,1.1c0-0.2,0.2-0.5,0.2-0.5c0-0.1,0.1-0.2,0.1-0.3c0-0.2-0.1-0.3-0.3-0.3c-0.2,0-0.5,0.2-0.6,0.3l0.1,0.1
		c0,0,0,0,0,0c0.1,0,0.2,0,0.2,0.3c0,0.1,0,0.2,0,0.4c-0.2,0.9-0.4,1.8-0.4,2.2H271.4z M269.3,133.1
		C269.4,133.1,269.4,133.1,269.3,133.1c0.2,0,0.2,0.1,0.2,0.3v0.1c-0.1,0.6-0.2,1.2-0.3,1.5c-0.2,0.3-0.7,0.6-1,0.6
		c-0.2,0-0.3-0.2-0.3-0.4c0-0.4,0.2-0.9,0.3-1.6c0-0.1,0.1-0.4,0.1-0.5c0-0.2-0.1-0.3-0.2-0.3c-0.3,0-0.6,0.2-0.7,0.3l0.1,0.1
		c0,0,0,0,0.1,0c0.1,0,0.2,0.2,0.2,0.3c0,0,0,0.1,0,0.1c-0.1,0.7-0.3,1.7-0.3,2c0,0.4,0.3,0.6,0.6,0.6c0.6,0,1.1-0.5,1.4-0.9
		c0,0.1-0.1,0.3-0.1,0.5c0,0.2,0.1,0.4,0.4,0.4c0.2,0,0.5-0.2,0.7-0.3l0-0.1c0,0-0.1,0-0.1,0c-0.1,0-0.3-0.1-0.3-0.3
		c0,0,0-0.1,0-0.1l0.3-1.7c0-0.1,0.1-0.4,0.1-0.5c0-0.2-0.1-0.3-0.2-0.3c-0.3,0-0.6,0.2-0.7,0.3L269.3,133.1z M265.4,133
		c-0.7,0-0.9,1.3-0.9,1.7c0,0.6,0.2,1.1,0.6,1.1c0.5,0,0.9-0.7,0.9-1.7C266,133.4,265.8,133,265.4,133 M265.7,132.6
		c0.6,0,1,0.4,1,1.3c0,1.1-0.8,2.2-1.8,2.2c-0.9,0-1-0.8-1-1.3C263.9,133.5,264.7,132.6,265.7,132.6 M262.2,135.4
		c0-0.1-0.1-0.3-0.1-0.5c-0.2-1.1-0.3-1.7-0.3-1.9c0-0.3-0.1-0.4-0.3-0.4c-0.2,0-0.5,0.2-0.6,0.3l0.1,0.1c0,0,0,0,0,0
		c0.1,0,0.3,0.1,0.3,0.6l0.3,1.9c0,0.1,0,0.4,0.2,0.4c-0.7,1-1.1,1.1-1.4,1.1c-0.2,0-0.4-0.1-0.4-0.2c0,0.1,0,0.2,0,0.3
		c0,0.2,0.2,0.4,0.5,0.4c0.7,0,2-2.1,2.7-3.2c0.2-0.3,0.5-1,0.5-1.4c0-0.2-0.1-0.4-0.4-0.4c-0.1,0-0.3,0-0.3,0.1
		c0.2,0,0.3,0.3,0.3,0.4C263.2,133.7,262.6,134.8,262.2,135.4 M257,134.3c0-0.1,0-0.1,0-0.2c0-0.3,0.3-0.7,0.6-0.9
		c0.4-0.2,0.7-0.2,1-0.4c0.2-0.1,0.3-0.4,0.4-0.5c0,0,0,0.1,0,0.1c0,0.4-0.2,0.8-0.6,1c0,0.1-0.1,0.3-0.1,0.6c-0.1,1.1-1,2-2.2,2
		c-0.7,0-1.3-0.5-1.3-1.3c0-0.9,0.6-1.4,1.2-1.6c-0.2-0.2-0.4-0.5-0.4-0.8c0-0.8,0.8-1.3,1.6-1.3c0.4,0,1,0.2,1,0.5
		c0,0.2-0.2,0.4-0.4,0.4c-0.1,0-0.1,0-0.2,0c0,0,0,0,0-0.1c0-0.4-0.3-0.5-0.6-0.5c-0.5,0-0.9,0.6-0.9,1.1c0,0.2,0.1,0.5,0.2,0.6
		l0,0.1c-0.6,0.2-0.9,0.9-0.9,1.4c0,0.5,0.3,1,1,1c0.5,0,1.5-0.5,1.5-1.5c0-0.3-0.1-0.3-0.3-0.3C257.4,133.7,257.1,134,257,134.3
		 M251.5,133.1C251.5,133.1,251.5,133.1,251.5,133.1c0.2,0,0.2,0.1,0.2,0.3v0.1c-0.1,0.6-0.2,1.2-0.3,1.5c-0.2,0.3-0.7,0.6-1,0.6
		c-0.2,0-0.3-0.2-0.3-0.4c0-0.4,0.2-0.9,0.3-1.6c0-0.1,0.1-0.4,0.1-0.5c0-0.2-0.1-0.3-0.2-0.3c-0.3,0-0.6,0.2-0.7,0.3l0.1,0.1
		c0,0,0,0,0.1,0c0.1,0,0.2,0.2,0.2,0.3c0,0,0,0.1,0,0.1c-0.1,0.7-0.3,1.7-0.3,2c0,0.4,0.3,0.6,0.6,0.6c0.6,0,1.1-0.5,1.4-0.9
		c0,0.1-0.1,0.3-0.1,0.5c0,0.2,0.1,0.4,0.4,0.4c0.2,0,0.5-0.2,0.7-0.3l0-0.1c0,0-0.1,0-0.1,0c-0.1,0-0.3-0.1-0.3-0.3
		c0,0,0-0.1,0-0.1l0.3-1.7c0-0.1,0.1-0.4,0.1-0.5c0-0.2-0.1-0.3-0.2-0.3c-0.3,0-0.6,0.2-0.7,0.3L251.5,133.1z M247.6,133
		c-0.7,0-0.9,1.3-0.9,1.7c0,0.6,0.2,1.1,0.6,1.1c0.5,0,0.9-0.7,0.9-1.7C248.2,133.4,248,133,247.6,133 M247.8,132.6
		c0.6,0,1,0.4,1,1.3c0,1.1-0.8,2.2-1.8,2.2c-0.9,0-1-0.8-1-1.3C246.1,133.5,246.9,132.6,247.8,132.6 M244.3,135.4
		c0-0.1-0.1-0.3-0.1-0.5c-0.2-1.1-0.3-1.7-0.3-1.9c0-0.3-0.1-0.4-0.3-0.4c-0.2,0-0.5,0.2-0.6,0.3l0.1,0.1c0,0,0,0,0,0
		c0.1,0,0.3,0.1,0.3,0.6l0.3,1.9c0,0.1,0,0.4,0.2,0.4c-0.7,1-1.1,1.1-1.4,1.1c-0.2,0-0.4-0.1-0.4-0.2c0,0.1,0,0.2,0,0.3
		c0,0.2,0.2,0.4,0.5,0.4c0.7,0,2-2.1,2.7-3.2c0.2-0.3,0.5-1,0.5-1.4c0-0.2-0.1-0.4-0.4-0.4c-0.1,0-0.3,0-0.3,0.1
		c0.2,0,0.3,0.3,0.3,0.4C245.3,133.7,244.7,134.8,244.3,135.4 M239.9,133c0.3,0,0.3,0.2,0.3,0.3c0,0.7-0.7,0.8-1.3,0.9
		C239.1,133.7,239.4,133,239.9,133 M239.4,136c0.7,0,1.4-0.5,1.4-1.1c-0.3,0.4-0.7,0.6-1.1,0.6c-0.5,0-0.7-0.5-0.7-0.9
		c0-0.1,0-0.1,0-0.2h0.1c0.9,0,1.8-0.4,1.8-1.1c0-0.4-0.3-0.7-0.9-0.7c-0.8,0-1.6,0.9-1.7,2.1C238.3,135.5,238.8,136,239.4,136
		 M235.7,133.7l0.3,1.9c0,0.1,0.1,0.4,0.3,0.5l0.2,0.1l0.3-0.5c0.3-0.4,0.5-0.8,0.8-1.2c0.2-0.3,0.5-1,0.5-1.4
		c0-0.2-0.1-0.4-0.4-0.4c-0.1,0-0.3,0-0.3,0.1c0.2,0,0.3,0.3,0.3,0.4c0,0.5-0.6,1.5-1,2.1c0-0.1-0.1-0.3-0.1-0.4
		c-0.2-1.1-0.3-1.7-0.3-1.9c0-0.3-0.1-0.4-0.3-0.4c-0.2,0-0.5,0.2-0.6,0.3l0.1,0.1C235.4,133.1,235.6,133,235.7,133.7 M233.7,135.9
		h0.6c0,0,0-0.1,0-0.1c0-0.1,0-0.2,0-0.4c0.1-0.7,0.3-1.6,0.3-1.8c0-0.1,0.1-0.5,0.1-0.7c0-0.2-0.1-0.3-0.2-0.3
		c-0.3,0-0.6,0.2-0.7,0.3l0.1,0.1c0,0,0,0,0.1,0c0.1,0,0.2,0.1,0.2,0.2C234.2,133.3,234.2,133.4,233.7,135.9L233.7,135.9z
		 M234.4,131.7c0,0.2,0.1,0.4,0.3,0.4c0.2,0,0.3-0.2,0.3-0.4c0-0.2-0.2-0.3-0.3-0.3C234.5,131.4,234.4,131.6,234.4,131.7
		 M231.8,135.9c0-0.3,0.1-0.8,0.1-1.1c0.1-0.5,0.4-1.7,1-1.7c0.1,0,0.2,0.1,0.3,0.2c0.2-0.1,0.4-0.2,0.4-0.5c0-0.2-0.1-0.3-0.4-0.3
		c-0.6,0-1.1,0.9-1.2,1.1c0-0.2,0.2-0.5,0.2-0.5c0-0.1,0.1-0.2,0.1-0.3c0-0.2-0.1-0.3-0.3-0.3c-0.2,0-0.5,0.2-0.6,0.3l0.1,0.1
		c0,0,0,0,0,0c0.1,0,0.2,0,0.2,0.3c0,0.1,0,0.2,0,0.4c-0.2,0.9-0.4,1.8-0.4,2.2H231.8z M229.8,134.1c0,0.1-0.1,0.6-0.2,0.9
		c-0.3,0.3-0.7,0.6-0.9,0.6c-0.3,0-0.4-0.3-0.4-0.7c0-0.8,0.3-1.9,1.1-1.9c0.4,0,0.6,0.1,0.6,0.1L229.8,134.1z M229.9,136
		c0.2,0,0.6-0.2,0.7-0.3l0-0.1c-0.1,0-0.1,0-0.2,0c-0.1,0-0.2-0.1-0.2-0.3c0-0.3,0.2-1.2,0.3-2.1c0.1-0.3,0.3-1.5,0.3-1.6
		c0.1-0.3,0.1-0.6-0.3-0.6c-0.3,0-0.5,0.2-0.5,0.2l0,0.1c0.2,0,0.2,0.4,0.2,0.6l-0.2,0.9c-0.1,0-0.4-0.1-0.5-0.1
		c-1.2,0-1.8,1.3-1.8,2.3c0,0.8,0.3,1.1,0.7,1.1c0.4,0,0.8-0.3,1.2-0.8v0c0,0.1,0,0.1,0,0.2C229.5,135.8,229.6,136,229.9,136
		 M224.5,133c0.3,0,0.3,0.2,0.3,0.3c0,0.7-0.7,0.8-1.3,0.9C223.7,133.7,224,133,224.5,133 M224,136c0.7,0,1.4-0.5,1.4-1.1
		c-0.3,0.4-0.7,0.6-1.1,0.6c-0.5,0-0.7-0.5-0.7-0.9c0-0.1,0-0.1,0-0.2h0.1c0.9,0,1.8-0.4,1.8-1.1c0-0.4-0.3-0.7-0.9-0.7
		c-0.8,0-1.6,0.9-1.7,2.1C222.9,135.5,223.4,136,224,136 M218.4,133.7l0.3,1.9c0,0.1,0.1,0.4,0.3,0.5l0.2,0.1l0.3-0.5
		c0.3-0.4,0.5-0.8,0.8-1.2c0.1-0.1,0.1-0.2,0.2-0.4l0.2,1.5c0,0.1,0.1,0.4,0.3,0.5l0.2,0.1l0.3-0.5c0.3-0.4,0.5-0.8,0.8-1.2
		c0.2-0.3,0.5-1,0.5-1.4c0-0.2-0.1-0.4-0.4-0.4c-0.1,0-0.3,0-0.3,0.1c0.2,0,0.3,0.3,0.3,0.4c0,0.5-0.6,1.5-1,2.1
		c0-0.1-0.1-0.3-0.1-0.4c-0.2-1.1-0.3-1.7-0.3-1.9c0-0.3-0.1-0.4-0.3-0.4c-0.2,0-0.5,0.2-0.6,0.3l0.1,0.1c0,0,0.2-0.1,0.3,0.3
		c-0.1,0.5-0.6,1.4-1,2.1c0-0.1-0.1-0.3-0.1-0.4c-0.2-1.1-0.3-1.7-0.3-1.9c0-0.3-0.1-0.4-0.3-0.4c-0.2,0-0.5,0.2-0.6,0.3l0.1,0.1
		C218,133.1,218.3,133,218.4,133.7"/>
	<path class="st4" d="M263.6,51.3l-6.9,2.4c-1-2-3.1-3.4-5.5-3.4c-2.4,0-4.4,1.4-5.4,3.4l-6.9-2.4c2-4.8,6.8-8.2,12.3-8.2
		C256.9,43,261.6,46.4,263.6,51.3 M238,56.3c0-0.5,0-1,0.1-1.5l7.2,2.5c0.4,2.2,1.9,4,4,4.8v7.4C242.9,68.4,238,62.9,238,56.3
		 M253.3,69.4V62c2-0.7,3.6-2.5,3.9-4.7l7.2-2.5c0.1,0.5,0.1,1,0.1,1.5C264.6,62.9,259.7,68.4,253.3,69.4 M269.9,56.3
		c0-10.3-8.3-18.6-18.6-18.6c-10.3,0-18.6,8.3-18.6,18.6c0,10.3,8.3,18.6,18.6,18.6C261.6,74.9,269.9,66.5,269.9,56.3"/>
	<path class="st2" d="M269.9,32.6c0,0.3,0,0.6,0.1,0.9c0.1,0.3,0.2,0.5,0.4,0.7c0.2,0.2,0.4,0.4,0.7,0.5c0.3,0.1,0.6,0.2,0.9,0.2
		c0.3,0,0.6-0.1,0.9-0.2c0.3-0.1,0.5-0.2,0.7-0.4c0.2-0.2,0.3-0.4,0.4-0.7c0.1-0.3,0.1-0.6,0.1-0.9c0-0.4-0.1-0.8-0.2-1.1
		c-0.1-0.3-0.3-0.5-0.6-0.6c-0.2-0.2-0.5-0.3-0.7-0.3c-0.3-0.1-0.5-0.2-0.7-0.2c-0.2-0.1-0.4-0.2-0.5-0.3c-0.1-0.1-0.2-0.3-0.2-0.6
		c0-0.3,0.1-0.5,0.2-0.6c0.1-0.2,0.3-0.3,0.6-0.3c0.1,0,0.3,0,0.4,0.1c0.1,0.1,0.2,0.1,0.3,0.2s0.1,0.2,0.2,0.3
		c0,0.1,0.1,0.2,0.1,0.4h1.1c0-0.3-0.1-0.6-0.2-0.8s-0.2-0.5-0.4-0.7c-0.2-0.2-0.4-0.3-0.6-0.4c-0.2-0.1-0.5-0.2-0.8-0.2
		c-0.3,0-0.5,0-0.8,0.1c-0.2,0.1-0.5,0.2-0.6,0.4s-0.3,0.4-0.4,0.6c-0.1,0.2-0.2,0.5-0.2,0.8c0,0.4,0.1,0.8,0.2,1.1
		c0.1,0.3,0.3,0.5,0.5,0.6c0.2,0.2,0.5,0.3,0.7,0.4c0.3,0.1,0.5,0.2,0.7,0.3c0.2,0.1,0.4,0.2,0.5,0.4c0.1,0.1,0.2,0.4,0.2,0.6
		c0,0.3-0.1,0.5-0.3,0.7s-0.4,0.3-0.7,0.3c-0.2,0-0.3,0-0.5-0.1c-0.1-0.1-0.2-0.2-0.3-0.3c-0.1-0.1-0.1-0.2-0.2-0.4
		c0-0.1-0.1-0.3-0.1-0.5H269.9z M264.1,34.7v-3.1h0l2,3.1h1.4l-1.9-2.8c0.3,0,0.5-0.1,0.7-0.2c0.2-0.1,0.4-0.3,0.5-0.4
		c0.1-0.2,0.2-0.4,0.3-0.6c0.1-0.2,0.1-0.5,0.1-0.7c0-0.3,0-0.5-0.1-0.8c-0.1-0.3-0.2-0.5-0.4-0.7c-0.2-0.2-0.4-0.4-0.7-0.5
		c-0.3-0.1-0.6-0.2-1-0.2h-2.1v7H264.1z M264.1,28.8h0.6c0.2,0,0.3,0,0.5,0.1c0.2,0,0.3,0.1,0.4,0.2c0.1,0.1,0.2,0.2,0.3,0.4
		c0.1,0.2,0.1,0.3,0.1,0.6c0,0.4-0.1,0.7-0.3,0.8c-0.2,0.1-0.5,0.2-0.9,0.2h-0.7V28.8z M259.7,34.7v-1.1h-2.4v-2h2.4v-1.1h-2.4v-1.8
		h2.4v-1.1h-3.6v7H259.7z M250.8,32.8L250.8,32.8l-1.4-5.1h-1.2l2,7h1.1l2-7h-1.2L250.8,32.8z M245.3,27.8h-1.2v7h1.2V27.8z
		 M237.8,34.7v-3.1h0l2,3.1h1.4l-1.9-2.8c0.3,0,0.5-0.1,0.7-0.2c0.2-0.1,0.4-0.3,0.5-0.4c0.1-0.2,0.2-0.4,0.3-0.6
		c0.1-0.2,0.1-0.5,0.1-0.7c0-0.3,0-0.5-0.1-0.8c-0.1-0.3-0.2-0.5-0.4-0.7c-0.2-0.2-0.4-0.4-0.7-0.5c-0.3-0.1-0.6-0.2-1-0.2h-2.1v7
		H237.8z M237.8,28.8h0.6c0.2,0,0.3,0,0.5,0.1s0.3,0.1,0.4,0.2c0.1,0.1,0.2,0.2,0.3,0.4c0.1,0.2,0.1,0.3,0.1,0.6
		c0,0.4-0.1,0.7-0.3,0.8c-0.2,0.1-0.5,0.2-0.9,0.2h-0.7V28.8z M228.7,34.7h2c0.4,0,0.8-0.1,1.2-0.2c0.4-0.2,0.7-0.4,0.9-0.7
		c0.3-0.3,0.4-0.7,0.6-1.1c0.1-0.4,0.2-0.9,0.2-1.5c0-0.5-0.1-0.9-0.2-1.4c-0.1-0.4-0.3-0.8-0.5-1.1c-0.2-0.3-0.5-0.6-0.8-0.7
		c-0.3-0.2-0.7-0.3-1.1-0.3h-2.3V34.7z M229.9,28.8h0.9c0.2,0,0.4,0,0.6,0.1s0.4,0.2,0.5,0.4c0.1,0.2,0.3,0.4,0.3,0.8
		c0.1,0.3,0.1,0.7,0.1,1.1c0,0.4,0,0.8-0.1,1.1c-0.1,0.3-0.2,0.6-0.3,0.8c-0.1,0.2-0.3,0.3-0.5,0.4c-0.2,0.1-0.4,0.1-0.7,0.1h-0.9
		V28.8z"/>
	<path class="st2" d="M271.8,74.7l0.8-1c0.2-0.2,0.3-0.5,0.3-0.7c0.1-0.2,0.1-0.5,0-0.7c-0.1-0.2-0.2-0.5-0.3-0.7
		c-0.2-0.2-0.4-0.5-0.7-0.7c-0.2-0.2-0.5-0.3-0.8-0.5c-0.3-0.1-0.5-0.2-0.8-0.2s-0.5,0-0.7,0.1c-0.2,0.1-0.4,0.2-0.6,0.5l-0.9,1.2
		L271.8,74.7z M269.2,71.8l0.4-0.5c0.1-0.1,0.2-0.2,0.3-0.3c0.1-0.1,0.3-0.1,0.4-0.1c0.2,0,0.3,0,0.5,0.1c0.2,0.1,0.4,0.2,0.6,0.4
		c0.2,0.2,0.4,0.3,0.5,0.5c0.1,0.2,0.2,0.3,0.3,0.5c0,0.2,0.1,0.3,0,0.4c0,0.1-0.1,0.3-0.2,0.4l-0.4,0.5L269.2,71.8z M270.4,76.2
		l-0.5-0.5l-1.1,1.1l-0.9-0.9l1.1-1.1l-0.5-0.5l-1.1,1.1l-0.8-0.8l1.1-1.1l-0.5-0.5l-1.7,1.6l3.1,3.2L270.4,76.2z M263.7,76.7
		l2.1,3.1l0.6-0.4l-2.1-3.1l0.7-0.5l-0.4-0.6l-2.1,1.5l0.4,0.6L263.7,76.7z M261,82.4l0.7-0.4l-0.2-1.2l1-0.5l0.9,0.9l0.7-0.4
		l-3.2-3.4l-0.6,0.3L261,82.4z M262,79.8l-0.7,0.4l-0.3-1.5l0,0L262,79.8z M257.6,83.5l-0.6-1.9l0,0l1.8,1.5l0.9-0.3l-1.7-1.4
		c0.2-0.1,0.3-0.2,0.4-0.3c0.1-0.1,0.2-0.2,0.2-0.4c0.1-0.1,0.1-0.3,0.1-0.4c0-0.2,0-0.3-0.1-0.5c-0.1-0.2-0.1-0.3-0.2-0.5
		c-0.1-0.1-0.2-0.3-0.4-0.4c-0.1-0.1-0.3-0.2-0.5-0.2c-0.2,0-0.4,0-0.6,0.1l-1.3,0.4l1.3,4.3L257.6,83.5z M256.5,79.8l0.4-0.1
		c0.1,0,0.2-0.1,0.3-0.1c0.1,0,0.2,0,0.3,0c0.1,0,0.2,0.1,0.2,0.2c0.1,0.1,0.1,0.2,0.2,0.3c0.1,0.2,0.1,0.4,0,0.6
		c-0.1,0.1-0.3,0.2-0.5,0.3l-0.4,0.1L256.5,79.8z M252.1,79.9c-0.2,0.1-0.3,0.3-0.5,0.5c-0.1,0.2-0.2,0.5-0.3,0.8c0,0.3-0.1,0.6,0,1
		c0,0.4,0.1,0.7,0.2,1c0.1,0.3,0.3,0.5,0.4,0.7c0.2,0.2,0.4,0.3,0.6,0.4c0.2,0.1,0.4,0.1,0.7,0.1c0.2,0,0.5-0.1,0.7-0.2
		c0.2-0.1,0.3-0.3,0.5-0.5c0.1-0.2,0.2-0.5,0.3-0.8c0-0.3,0.1-0.6,0-1c0-0.4-0.1-0.7-0.2-1c-0.1-0.3-0.3-0.5-0.4-0.7
		c-0.2-0.2-0.4-0.3-0.6-0.4c-0.2-0.1-0.4-0.1-0.7-0.1C252.5,79.7,252.3,79.8,252.1,79.9 M253.9,82.6c0,0.2-0.1,0.4-0.1,0.5
		s-0.2,0.2-0.3,0.3c-0.1,0.1-0.2,0.1-0.3,0.1c-0.1,0-0.2,0-0.4-0.1c-0.1-0.1-0.2-0.1-0.3-0.3c-0.1-0.1-0.2-0.3-0.3-0.5
		c-0.1-0.2-0.1-0.4-0.2-0.7c0-0.3,0-0.5,0-0.7s0.1-0.4,0.1-0.5c0.1-0.1,0.2-0.2,0.3-0.3c0.1-0.1,0.2-0.1,0.3-0.1
		c0.1,0,0.2,0,0.4,0.1c0.1,0,0.2,0.1,0.3,0.3c0.1,0.1,0.2,0.3,0.3,0.5c0.1,0.2,0.1,0.4,0.2,0.7C253.9,82.2,253.9,82.4,253.9,82.6
		 M247.8,84.2l0.1-1.7l0.6,0c0.2,0,0.4,0,0.6-0.1c0.2-0.1,0.3-0.1,0.5-0.3c0.1-0.1,0.2-0.3,0.3-0.4c0.1-0.2,0.1-0.4,0.1-0.6
		c0-0.2,0-0.4-0.1-0.6s-0.1-0.3-0.3-0.5c-0.1-0.1-0.3-0.2-0.5-0.3c-0.2-0.1-0.4-0.1-0.7-0.2l-1.2-0.1l-0.3,4.5L247.8,84.2z
		 M248.1,80.4l0.6,0c0.2,0,0.4,0.1,0.5,0.2c0.1,0.1,0.1,0.3,0.1,0.5c0,0.1,0,0.2-0.1,0.3c0,0.1-0.1,0.2-0.1,0.2
		c-0.1,0.1-0.1,0.1-0.2,0.1s-0.2,0-0.3,0l-0.6,0L248.1,80.4z M243.1,83.4l0.4-1.9l0,0l0.8,2.2l0.9,0.2l-0.8-2c0.2,0,0.3,0,0.5,0
		c0.1,0,0.3-0.1,0.4-0.2c0.1-0.1,0.2-0.2,0.3-0.3c0.1-0.1,0.1-0.3,0.2-0.4c0-0.2,0-0.3,0-0.5c0-0.2-0.1-0.3-0.1-0.5
		c-0.1-0.2-0.2-0.3-0.4-0.4c-0.2-0.1-0.4-0.2-0.6-0.3l-1.3-0.3l-1,4.4L243.1,83.4z M243.9,79.7l0.4,0.1c0.1,0,0.2,0.1,0.3,0.1
		c0.1,0,0.2,0.1,0.2,0.2c0.1,0.1,0.1,0.2,0.1,0.3c0,0.1,0,0.2,0,0.4c-0.1,0.2-0.2,0.4-0.3,0.5c-0.2,0.1-0.3,0.1-0.6,0l-0.4-0.1
		L243.9,79.7z M240.2,77.6c-0.2,0-0.5,0.1-0.7,0.2c-0.2,0.1-0.4,0.3-0.6,0.5c-0.2,0.2-0.4,0.5-0.5,0.8c-0.1,0.3-0.2,0.6-0.3,0.9
		c0,0.3,0,0.6,0,0.8c0.1,0.2,0.2,0.5,0.3,0.6c0.1,0.2,0.3,0.3,0.6,0.4c0.2,0.1,0.5,0.1,0.7,0.1c0.2,0,0.5-0.1,0.7-0.2
		s0.4-0.3,0.6-0.5c0.2-0.2,0.4-0.5,0.5-0.8c0.1-0.3,0.2-0.6,0.3-0.9c0-0.3,0-0.6,0-0.8c-0.1-0.2-0.2-0.5-0.3-0.6
		c-0.1-0.2-0.3-0.3-0.6-0.4C240.6,77.6,240.4,77.6,240.2,77.6 M240.4,80.8c-0.1,0.2-0.3,0.3-0.4,0.4c-0.1,0.1-0.3,0.1-0.4,0.2
		c-0.1,0-0.2,0-0.3-0.1c-0.1,0-0.2-0.1-0.3-0.2c-0.1-0.1-0.1-0.2-0.1-0.4c0-0.2,0-0.3,0-0.5c0-0.2,0.1-0.4,0.2-0.7s0.2-0.5,0.4-0.7
		c0.1-0.2,0.3-0.3,0.4-0.4c0.1-0.1,0.3-0.1,0.4-0.2c0.1,0,0.2,0,0.4,0.1c0.1,0,0.2,0.1,0.3,0.2c0.1,0.1,0.1,0.2,0.1,0.4
		c0,0.2,0,0.3,0,0.5c0,0.2-0.1,0.4-0.2,0.7C240.6,80.4,240.5,80.7,240.4,80.8 M237.4,77.9c0.1-0.2,0.2-0.4,0.3-0.6
		c0.1-0.2,0.1-0.4,0.1-0.6c0-0.2-0.1-0.4-0.2-0.6c-0.1-0.2-0.3-0.4-0.5-0.5c-0.2-0.1-0.4-0.2-0.6-0.2c-0.2,0-0.5,0-0.7,0.1
		c-0.2,0.1-0.5,0.2-0.7,0.4c-0.2,0.2-0.4,0.4-0.7,0.8c-0.2,0.3-0.4,0.7-0.5,1c-0.1,0.3-0.1,0.6-0.1,0.8c0,0.2,0.1,0.4,0.2,0.6
		c0.1,0.2,0.3,0.3,0.5,0.5c0.2,0.1,0.4,0.2,0.6,0.3c0.2,0,0.4,0,0.6,0c0.2-0.1,0.4-0.2,0.5-0.3c0.2-0.1,0.3-0.3,0.5-0.5l-0.6-0.4
		c-0.1,0.2-0.3,0.3-0.4,0.4c-0.1,0.1-0.2,0.2-0.3,0.2c-0.1,0-0.2,0-0.3,0c-0.1,0-0.2-0.1-0.3-0.1c-0.1-0.1-0.2-0.2-0.2-0.3
		c-0.1-0.1-0.1-0.2-0.1-0.4c0-0.2,0.1-0.3,0.1-0.5c0.1-0.2,0.2-0.4,0.4-0.7c0.2-0.2,0.3-0.4,0.5-0.6c0.2-0.1,0.3-0.2,0.4-0.3
		c0.1-0.1,0.3-0.1,0.4-0.1c0.1,0,0.2,0,0.3,0.1c0.2,0.1,0.3,0.3,0.3,0.5c0,0.2-0.1,0.5-0.3,0.8L237.4,77.9z M230.1,75.6l2.2-2.3l0,0
		l-1.1,3.4l0.5,0.5l3.1-3.2l-0.5-0.5l-2,2.1l0,0l1-3.1l-0.6-0.6l-3.1,3.2L230.1,75.6z M228.3,73.4l3.6-2.7l-0.5-0.6l-3.6,2.7
		L228.3,73.4z"/>
	<path class="st3" d="M69.9,76.8h96.4c7.1,0,12.8,5.7,12.8,12.8v76.8c0,7.1-5.7,12.8-12.8,12.8H12.8c-7.1,0-12.8-5.7-12.8-12.8V89.6
		c0-7.1,5.7-12.8,12.8-12.8H69.9"/>
</g>
<g>
	<defs>
		<path id="SVGID_5_" d="M69.9,76.8H12.8C5.7,76.8,0,82.5,0,89.6v76.8c0,7.1,5.7,12.8,12.8,12.8h153.5c7.1,0,12.8-5.7,12.8-12.8
			V89.6c0-7.1-5.7-12.8-12.8-12.8H69.9z"/>
	</defs>
	<clipPath id="SVGID_6_">
		<use xlink:href="#SVGID_5_"  style="overflow:visible;"/>
	</clipPath>
	<rect x="-5.4" y="84.7" class="st5" width="190" height="33"/>
	<path class="st6" d="M128.3,97.4c0-0.3,0.1-1,0.2-1.3c0.1-0.6,0.5-2.1,1.3-2.1c0.2,0,0.3,0.1,0.3,0.3c0.2-0.1,0.5-0.3,0.5-0.6
		c0-0.2-0.1-0.4-0.4-0.4c-0.8,0-1.4,1.1-1.5,1.4c0-0.3,0.2-0.6,0.2-0.6c0-0.1,0.1-0.2,0.1-0.4c0-0.2-0.1-0.3-0.4-0.3
		c-0.2,0-0.6,0.2-0.8,0.4l0.1,0.1c0,0,0,0,0.1,0c0.1,0,0.2,0,0.2,0.3c0,0.1,0,0.3,0,0.5c-0.2,1.1-0.4,2.2-0.5,2.7H128.3z
		 M125.7,93.9C125.8,93.9,125.8,93.9,125.7,93.9c0.2,0,0.3,0.2,0.3,0.4v0.1c-0.1,0.8-0.3,1.5-0.3,1.8c-0.3,0.4-0.8,0.8-1.3,0.8
		c-0.3,0-0.4-0.2-0.4-0.5c0-0.4,0.2-1.1,0.4-2c0-0.1,0.1-0.5,0.1-0.7c0-0.2-0.1-0.4-0.3-0.4c-0.3,0-0.7,0.2-0.8,0.4l0.1,0.1
		c0,0,0,0,0.1,0c0.2,0,0.2,0.2,0.2,0.4c0,0,0,0.1,0,0.1c-0.1,0.8-0.4,2.1-0.4,2.4c0,0.5,0.3,0.8,0.7,0.8c0.7,0,1.4-0.7,1.7-1.1
		c-0.1,0.2-0.1,0.4-0.1,0.6c0,0.2,0.1,0.5,0.4,0.5c0.2,0,0.7-0.2,0.9-0.4l-0.1-0.1c0,0-0.1,0-0.2,0c-0.1,0-0.3-0.1-0.3-0.3
		c0-0.1,0-0.1,0-0.2l0.4-2.1c0-0.1,0.1-0.5,0.1-0.7c0-0.2-0.1-0.4-0.3-0.4c-0.3,0-0.7,0.2-0.8,0.4L125.7,93.9z M121,93.7
		c-0.9,0-1.1,1.6-1.1,2.1c0,0.8,0.2,1.3,0.7,1.3c0.6,0,1.1-0.9,1.1-2.1C121.7,94.2,121.5,93.7,121,93.7 M121.3,93.3
		c0.7,0,1.2,0.5,1.2,1.5c0,1.4-0.9,2.6-2.2,2.6c-1,0-1.2-0.9-1.2-1.5C119.2,94.4,120.1,93.3,121.3,93.3 M117,96.7
		c-0.1-0.1-0.2-0.4-0.2-0.6c-0.2-1.4-0.3-2.1-0.3-2.3c0-0.4-0.1-0.5-0.4-0.5c-0.3,0-0.6,0.2-0.8,0.4l0.1,0.1c0,0,0,0,0,0
		c0.1,0,0.3,0.1,0.4,0.8l0.3,2.3c0,0.2,0,0.4,0.3,0.5c-0.8,1.2-1.4,1.4-1.7,1.4c-0.2,0-0.5-0.1-0.5-0.2c0,0.1-0.1,0.2-0.1,0.3
		c0,0.3,0.2,0.5,0.6,0.5c0.9,0,2.4-2.5,3.2-3.9c0.2-0.4,0.6-1.2,0.6-1.7c0-0.3-0.1-0.5-0.5-0.5c-0.1,0-0.3,0-0.4,0.2
		c0.2,0.1,0.4,0.3,0.4,0.5C118.2,94.6,117.5,95.9,117,96.7 M111.5,94.6c0-0.1,0-0.2,0-0.4c0-0.2-0.1-0.4-0.3-0.5l0.1-0.2
		c0.2,0,0.4-0.1,0.5-0.5c0.4-1.3,1.1-1.6,1.7-1.6c0.4,0,0.7,0.2,0.7,0.5c0,0.2-0.2,0.4-0.4,0.4c-0.1,0-0.2,0-0.2,0
		c0-0.2-0.1-0.3-0.3-0.3c-0.4,0-0.7,0.3-0.8,1.4c0,0.1,0,0.2,0,0.2h0.9c0.2,0,0.3-0.1,0.3-0.1c0,0.5-0.4,0.6-0.7,0.6
		c-0.1,0-0.5,0-0.6,0c-0.2,0.9-0.6,3.1-0.6,3.1c0,0.1,0,0.2,0,0.3H111c0-0.1,0-0.2,0-0.2L111.5,94.6z M108.7,93.7
		c-0.9,0-1.1,1.6-1.1,2.1c0,0.8,0.2,1.3,0.7,1.3c0.6,0,1.1-0.9,1.1-2.1C109.4,94.2,109.1,93.7,108.7,93.7 M109,93.3
		c0.7,0,1.2,0.5,1.2,1.5c0,1.4-0.9,2.6-2.2,2.6c-1,0-1.2-0.9-1.2-1.5C106.8,94.4,107.8,93.3,109,93.3 M102.9,93.8
		c0.3,0,0.4,0.2,0.4,0.4c0,0.8-0.9,1-1.5,1C101.9,94.6,102.3,93.8,102.9,93.8 M102.3,97.5c0.8,0,1.7-0.6,1.7-1.3
		c-0.4,0.4-0.9,0.7-1.3,0.7c-0.6,0-0.9-0.6-0.9-1.1c0-0.1,0-0.1,0-0.2h0.2c1.1,0,2.2-0.5,2.2-1.4c0-0.5-0.3-0.8-1-0.8
		c-1,0-2,1.1-2,2.6C101,96.9,101.5,97.5,102.3,97.5 M98.7,97.4c0-0.3,0.1-1,0.2-1.3c0.1-0.6,0.5-2.1,1.3-2.1c0.2,0,0.3,0.1,0.3,0.3
		c0.2-0.1,0.5-0.3,0.5-0.6c0-0.2-0.1-0.4-0.4-0.4c-0.8,0-1.4,1.1-1.5,1.4c0-0.3,0.2-0.6,0.2-0.6c0-0.1,0.1-0.2,0.1-0.4
		c0-0.2-0.1-0.3-0.4-0.3c-0.2,0-0.6,0.2-0.8,0.4l0.1,0.1c0,0,0,0,0.1,0c0.1,0,0.2,0,0.2,0.3c0,0.1,0,0.3,0,0.5
		c-0.2,1.1-0.4,2.2-0.5,2.7H98.7z M96.5,93.8c0,0.5-0.2,1.5-0.4,2.3c-0.2,0.3-0.6,0.8-0.9,0.8c-0.3,0-0.5-0.2-0.5-0.8
		c0-1.3,0.6-2.4,1.3-2.4C96.1,93.7,96.5,93.8,96.5,93.8 M96.8,96c0.2-1.2,0.3-1.4,0.3-1.5l0.2-1c-0.4,0-0.9-0.2-1.2-0.2
		c-1.2,0-2.2,1.4-2.2,2.9c0,0.9,0.4,1.3,0.8,1.3c0.5,0,1-0.5,1.4-1.1c-0.1,0.3-0.2,1.1,0.4,1.1c0.4,0,0.8-0.4,0.8-0.4L97.2,97
		c0,0-0.1,0-0.2,0c-0.2,0-0.3-0.1-0.3-0.4C96.7,96.4,96.7,96.2,96.8,96 M90.9,95.7c0-0.9,0.5-2,1.2-2c0.5,0,0.6,0.3,0.6,0.6
		c0.3,0.2,0.7-0.1,0.7-0.4c0-0.4-0.6-0.6-1.2-0.6c-1.2,0-2.1,1.3-2.1,2.6c0,1,0.6,1.6,1.3,1.6c0.8,0,1.7-0.6,1.7-1.3
		c-0.4,0.4-0.8,0.7-1.3,0.7C91.2,96.9,90.9,96.3,90.9,95.7 M85.7,97.4c0-0.3,0.1-1,0.2-1.3c0.1-0.6,0.5-2.1,1.3-2.1
		c0.2,0,0.3,0.1,0.3,0.3c0.2-0.1,0.5-0.3,0.5-0.6c0-0.2-0.1-0.4-0.4-0.4c-0.8,0-1.4,1.1-1.5,1.4c0-0.3,0.2-0.6,0.2-0.6
		c0-0.1,0.1-0.2,0.1-0.4c0-0.2-0.1-0.3-0.4-0.3c-0.2,0-0.6,0.2-0.8,0.4l0.1,0.1c0,0,0,0,0.1,0c0.1,0,0.2,0,0.2,0.3
		c0,0.1,0,0.3,0,0.5c-0.2,1.1-0.4,2.2-0.5,2.7H85.7z M83.2,93.8c0.3,0,0.4,0.2,0.4,0.4c0,0.8-0.9,1-1.5,1
		C82.1,94.6,82.6,93.8,83.2,93.8 M82.5,97.5c0.8,0,1.7-0.6,1.7-1.3c-0.4,0.4-0.9,0.7-1.3,0.7c-0.6,0-0.9-0.6-0.9-1.1
		c0-0.1,0-0.1,0-0.2h0.2c1.1,0,2.2-0.5,2.2-1.4c0-0.5-0.3-0.8-1-0.8c-1,0-2,1.1-2,2.6C81.2,96.9,81.8,97.5,82.5,97.5 M79.9,92.8
		h-0.4c-0.5,0.7-0.8,0.7-0.9,0.7l-0.1,0.2c0,0,0.2,0,0.3,0.3c0,0,0,0.1,0,0.2c0,0.6-0.5,1.9-0.5,2.6c0,0.5,0.4,0.8,0.8,0.8
		c0.6,0,1.2-0.4,1.2-1c0,0,0,0,0-0.1c-0.1,0.1-0.5,0.4-0.8,0.4c-0.4,0-0.5-0.2-0.5-0.5c0-0.6,0.4-2.1,0.4-2.4c0,0,0.1,0,0.1,0
		c0.1,0,0.4,0,0.5,0c0.4,0,0.7-0.2,0.7-0.5c0,0,0,0,0-0.1c0,0-0.1,0.1-0.3,0.1h-0.9L79.9,92.8z M77,92.8h-0.4
		c-0.5,0.7-0.8,0.7-0.9,0.7l-0.1,0.2c0,0,0.2,0,0.3,0.3c0,0,0,0.1,0,0.2c0,0.6-0.5,1.9-0.5,2.6c0,0.5,0.4,0.8,0.8,0.8
		c0.6,0,1.2-0.4,1.2-1c0,0,0,0,0-0.1c-0.1,0.1-0.5,0.4-0.8,0.4c-0.4,0-0.5-0.2-0.5-0.5c0-0.6,0.4-2.1,0.4-2.4c0,0,0.1,0,0.1,0
		c0.1,0,0.4,0,0.5,0c0.4,0,0.7-0.2,0.7-0.5c0,0,0,0,0-0.1c0,0-0.1,0.1-0.3,0.1h-0.9L77,92.8z M73.6,93.8c0.3,0,0.4,0.2,0.4,0.4
		c0,0.8-0.9,1-1.5,1C72.5,94.6,73,93.8,73.6,93.8 M72.9,97.5c0.8,0,1.7-0.6,1.7-1.3c-0.4,0.4-0.9,0.7-1.3,0.7
		c-0.6,0-0.9-0.6-0.9-1.1c0-0.1,0-0.1,0-0.2h0.2c1.1,0,2.2-0.5,2.2-1.4c0-0.5-0.3-0.8-1-0.8c-1,0-2,1.1-2,2.6
		C71.6,96.9,72.2,97.5,72.9,97.5 M68.4,96.2c0.1-0.5,0.1-0.6,0.2-1.5c0.3-0.4,0.9-0.8,1.2-0.8c0.4,0,0.5,0.4,0.5,0.9
		c0,0.9-0.3,2.3-1.3,2.3c-0.5,0-0.6-0.2-0.6-0.5C68.4,96.4,68.4,96.3,68.4,96.2 M68.4,92.4c0,0.5-0.8,4-0.8,4.4
		c0,0.5,0.5,0.7,1.2,0.7c1.5,0,2.2-1.6,2.2-2.8c0-0.9-0.3-1.4-0.8-1.4c-0.5,0-1.1,0.4-1.5,1c0.3-0.9,0.6-2.2,0.6-2.6
		c0-0.3-0.1-0.4-0.4-0.4c-0.4,0-0.7,0.2-0.7,0.2l0,0.1c0.2,0,0.2,0.2,0.2,0.5C68.4,92.2,68.4,92.3,68.4,92.4 M63.6,93.8
		c0.3,0,0.4,0.2,0.4,0.4c0,0.8-0.9,1-1.5,1C62.6,94.6,63,93.8,63.6,93.8 M62.9,97.5c0.8,0,1.7-0.6,1.7-1.3c-0.4,0.4-0.9,0.7-1.3,0.7
		c-0.6,0-0.9-0.6-0.9-1.1c0-0.1,0-0.1,0-0.2h0.2c1.1,0,2.2-0.5,2.2-1.4c0-0.5-0.3-0.8-1-0.8c-1,0-2,1.1-2,2.6
		C61.7,96.9,62.2,97.5,62.9,97.5 M58.7,92.1c0,0.1,0,0.2,0,0.3c0,0-0.5,2.9-0.9,4.8l0,0.1h0.8c0-0.1,0.1-1.1,0.3-2.2
		c0.5,0.5,0.7,2.3,1.5,2.3c0.3,0,0.7-0.3,0.9-0.4L61.2,97c-0.1,0-0.2,0-0.2,0c-0.9,0-1.1-1.7-1.4-1.9c1.1-0.3,1.6-0.8,1.6-1.4
		c0-0.2-0.1-0.3-0.3-0.3c-0.3,0-0.7,0.2-0.8,0.4l0.1,0.1c0,0,0,0,0.1,0c0.2,0,0.3,0.1,0.3,0.2c0,0.3-0.5,0.7-1.6,1
		c0.1-0.3,0.7-3.2,0.7-3.3c0-0.3-0.1-0.4-0.4-0.4c-0.4,0-0.7,0.2-0.7,0.2l0,0.1C58.6,91.7,58.7,91.9,58.7,92.1 M56.3,93.8
		c0,0.5-0.2,1.5-0.4,2.3c-0.2,0.3-0.6,0.8-0.9,0.8c-0.3,0-0.5-0.2-0.5-0.8c0-1.3,0.6-2.4,1.3-2.4C56,93.7,56.3,93.8,56.3,93.8
		 M56.6,96c0.2-1.2,0.3-1.4,0.3-1.5l0.2-1c-0.4,0-0.9-0.2-1.2-0.2c-1.2,0-2.2,1.4-2.2,2.9c0,0.9,0.4,1.3,0.8,1.3
		c0.5,0,1-0.5,1.4-1.1c-0.1,0.3-0.2,1.1,0.4,1.1c0.4,0,0.8-0.4,0.8-0.4L57.1,97c0,0-0.1,0-0.2,0c-0.2,0-0.3-0.1-0.3-0.4
		C56.6,96.4,56.6,96.2,56.6,96 M52.4,92.8H52c-0.5,0.7-0.8,0.7-0.9,0.7l-0.1,0.2c0,0,0.2,0,0.3,0.3c0,0,0,0.1,0,0.2
		c0,0.6-0.5,1.9-0.5,2.6c0,0.5,0.4,0.8,0.8,0.8c0.6,0,1.2-0.4,1.2-1c0,0,0,0,0-0.1c-0.1,0.1-0.5,0.4-0.8,0.4c-0.4,0-0.5-0.2-0.5-0.5
		c0-0.6,0.4-2.1,0.4-2.4c0,0,0.1,0,0.1,0c0.1,0,0.4,0,0.5,0c0.4,0,0.7-0.2,0.7-0.5c0,0,0,0,0-0.1c0,0-0.1,0.1-0.3,0.1h-0.9
		L52.4,92.8z"/>
	<path class="st7" d="M62.9,160.2c0-0.2-0.2-0.4-0.4-0.4c-0.2,0-0.4,0.2-0.4,0.4c0,0.2,0.2,0.4,0.4,0.4
		C62.7,160.6,62.9,160.4,62.9,160.2 M60.2,156.9c0.3,0,0.4,0.2,0.4,0.4c0,0.8-0.9,1-1.5,1C59.2,157.8,59.6,156.9,60.2,156.9
		 M59.6,160.6c0.8,0,1.7-0.6,1.7-1.3c-0.4,0.4-0.9,0.7-1.3,0.7c-0.6,0-0.9-0.6-0.9-1.1c0-0.1,0-0.1,0-0.2h0.2c1.1,0,2.2-0.5,2.2-1.4
		c0-0.5-0.3-0.8-1-0.8c-1,0-2,1.1-2,2.6C58.3,160.1,58.9,160.6,59.6,160.6 M53,157.5c0-0.1,0.1-0.5,0.1-0.7c0-0.2-0.1-0.4-0.3-0.4
		c-0.3,0-0.7,0.2-0.8,0.4L52,157c0,0,0,0,0.1,0c0.2,0,0.2,0.3,0.2,0.5l-0.6,3v0h0.8v-0.1c0-0.1,0-0.3,0-0.5c0.1-0.8,0.3-1.7,0.4-2.1
		c0.3-0.4,0.8-0.8,1.3-0.8c0.3,0,0.4,0.3,0.3,0.7c0,0.1,0,0.2-0.4,2.3c0,0.1-0.1,0.3-0.1,0.4h0.8c0-0.6,0.3-1.9,0.4-2.7
		c0.3-0.4,0.8-0.8,1.3-0.8c0.3,0,0.4,0.3,0.3,0.7c0,0.1,0,0.2-0.4,2.3c0,0.1-0.1,0.3-0.1,0.4h0.8c0-0.8,0.5-2.8,0.5-3.2
		c0-0.6-0.3-0.9-0.7-0.9c-0.7,0-1.3,0.6-1.6,1c0-0.1,0-0.1,0-0.2c0-0.6-0.3-0.9-0.7-0.9C53.9,156.5,53.2,157.1,53,157.5 M49.6,160.5
		h0.8c0,0,0-0.1,0-0.1c0-0.1,0-0.3,0-0.5c0.1-0.8,0.3-1.9,0.4-2.2c0-0.1,0.2-0.7,0.2-0.8c0-0.2-0.1-0.4-0.3-0.4
		c-0.3,0-0.7,0.2-0.8,0.4l0.1,0.1c0,0,0,0,0.1,0c0.1,0,0.2,0.1,0.2,0.3C50.2,157.4,50.2,157.4,49.6,160.5L49.6,160.5z M50.4,155.4
		c0,0.2,0.2,0.4,0.4,0.4c0.2,0,0.4-0.2,0.4-0.4c0-0.2-0.2-0.4-0.4-0.4C50.6,155,50.4,155.2,50.4,155.4 M48.3,156h-0.4
		c-0.5,0.7-0.8,0.7-0.9,0.7l-0.1,0.2c0,0,0.2,0,0.3,0.3c0,0,0,0.1,0,0.2c0,0.6-0.5,1.9-0.5,2.6c0,0.5,0.4,0.8,0.8,0.8
		c0.6,0,1.2-0.4,1.2-1c0,0,0,0,0-0.1c-0.1,0.1-0.5,0.4-0.8,0.4c-0.4,0-0.5-0.2-0.5-0.5c0-0.6,0.4-2.1,0.4-2.4c0,0,0.1,0,0.1,0
		c0.1,0,0.4,0,0.5,0c0.4,0,0.7-0.2,0.7-0.5c0,0,0,0,0-0.1c0,0-0.1,0.1-0.3,0.1h-0.9L48.3,156z M41.6,154.5c-0.4,0-0.7,0.2-0.7,0.2
		l0,0.1c0.2,0,0.3,0.2,0.3,0.4c0,0.2-0.5,2.7-0.9,5.1l0,0.1h0.8v-0.1c0-0.2,0.2-1.6,0.4-2.6c0.3-0.4,0.8-0.8,1.3-0.8
		c0.3,0,0.4,0.2,0.4,0.5c0,0.1,0,0.2,0,0.2c0,0.1,0,0.2-0.4,2.3c0,0.1-0.1,0.3-0.1,0.4h0.8c0-0.8,0.5-2.8,0.5-3.3
		c0-0.5-0.3-0.8-0.7-0.8c-0.7,0-1.4,0.7-1.7,1.1c0.2-1.1,0.6-2.3,0.6-2.7C41.9,154.6,41.8,154.5,41.6,154.5 M37.3,158.9
		c0-0.9,0.5-2,1.2-2c0.5,0,0.6,0.3,0.6,0.6c0.3,0.2,0.7-0.1,0.7-0.4c0-0.4-0.6-0.6-1.2-0.6c-1.2,0-2.1,1.3-2.1,2.6
		c0,1,0.6,1.6,1.3,1.6c0.8,0,1.7-0.6,1.7-1.3c-0.4,0.4-0.8,0.7-1.3,0.7C37.5,160,37.3,159.5,37.3,158.9 M35.1,157
		c0,0.5-0.2,1.5-0.4,2.3c-0.2,0.3-0.6,0.8-0.9,0.8c-0.3,0-0.5-0.2-0.5-0.8c0-1.3,0.6-2.4,1.3-2.4C34.7,156.9,35.1,157,35.1,157
		 M35.4,159.2c0.2-1.2,0.3-1.4,0.3-1.5l0.2-1c-0.4,0-0.9-0.2-1.2-0.2c-1.2,0-2.2,1.4-2.2,2.9c0,0.9,0.4,1.3,0.8,1.3
		c0.5,0,1-0.5,1.4-1.1c-0.1,0.3-0.2,1.1,0.4,1.1c0.4,0,0.8-0.4,0.8-0.4l-0.1-0.1c0,0-0.1,0-0.2,0c-0.2,0-0.3-0.1-0.3-0.4
		C35.3,159.6,35.3,159.4,35.4,159.2 M30.7,156.9c0.3,0,0.4,0.2,0.4,0.4c0,0.8-0.9,1-1.5,1C29.7,157.8,30.1,156.9,30.7,156.9
		 M30.1,160.6c0.8,0,1.7-0.6,1.7-1.3c-0.4,0.4-0.9,0.7-1.3,0.7c-0.6,0-0.9-0.6-0.9-1.1c0-0.1,0-0.1,0-0.2h0.2c1.1,0,2.2-0.5,2.2-1.4
		c0-0.5-0.3-0.8-1-0.8c-1,0-2,1.1-2,2.6C28.8,160.1,29.3,160.6,30.1,160.6 M25,160.3c0.1,0,0.2,0,0.2,0.2c0,0.4-0.2,0.6-0.7,1
		l0.1,0.2c0.9-0.5,1.3-1.1,1.3-1.5c0-0.3-0.2-0.4-0.4-0.4C25.2,159.8,25,159.9,25,160.3C25,160.2,25,160.3,25,160.3 M22.4,156
		l-0.1,0.1l-0.4,1.7l0,0.1c0,0,0.1,0,0.2,0c0.3,0,1,0.2,1,1.2c0,1.4-1,1.9-1.9,1.9c-0.1,0-0.1,0-0.2,0c0,0,0,0.4,0.3,0.4
		c1.1,0,2.6-0.7,2.6-2.3c0-1.1-0.9-1.5-1.6-1.5l0.2-1h1.2c0.7,0,0.7-0.4,0.7-0.6c-0.1,0.1-0.2,0.1-0.9,0.1H22.4z M18.9,156.4
		c0.1-0.4,0.4-0.6,0.8-0.7c-0.1,0.4-0.2,1-0.3,1.5c-0.3-0.2-0.5-0.5-0.5-0.8C18.9,156.5,18.9,156.4,18.9,156.4 M20,159.3
		c-0.1,0.4-0.4,0.6-0.8,0.7c0.1-0.6,0.2-1.2,0.3-1.6c0.3,0.2,0.5,0.5,0.5,0.8C20,159.3,20,159.3,20,159.3 M19,161.4
		c0,0,0.1-0.3,0.1-0.8c0.9-0.2,1.7-0.8,1.7-1.7c0-0.7-0.6-1.1-1.1-1.5c0.1-0.7,0.3-1.4,0.4-1.8c0.5,0,1,0.3,1,0.6
		c0.1-0.2,0.1-0.3,0.1-0.4c0-0.4-0.4-0.6-1-0.6c0-0.2,0.1-0.3,0.1-0.4c0-0.1,0-0.2-0.2-0.2c0,0-0.2,0-0.2,0c0,0.2,0,0.4-0.1,0.6
		c-1,0.1-1.6,1-1.6,1.7c0,0.6,0.5,1,1,1.4c-0.1,0.5-0.2,1.2-0.4,1.9h0c-0.5,0-0.9-0.2-0.9-0.5c-0.1,0.1-0.2,0.2-0.2,0.4
		c0,0.3,0.3,0.6,1,0.6c-0.1,0.2-0.1,0.5-0.2,0.7H19z"/>
	<path class="st7" d="M155.2,147.5C155.2,147.5,155.2,147.5,155.2,147.5c0.2,0,0.3,0.2,0.3,0.4v0.1c-0.1,0.8-0.3,1.5-0.3,1.8
		c-0.3,0.4-0.8,0.8-1.3,0.8c-0.3,0-0.4-0.2-0.4-0.5c0-0.4,0.2-1.1,0.4-2c0-0.1,0.1-0.5,0.1-0.7c0-0.2-0.1-0.4-0.3-0.4
		c-0.3,0-0.7,0.2-0.8,0.4l0.1,0.1c0,0,0,0,0.1,0c0.2,0,0.2,0.2,0.2,0.4c0,0,0,0.1,0,0.1c-0.1,0.8-0.4,2.1-0.4,2.4
		c0,0.5,0.3,0.8,0.7,0.8c0.7,0,1.4-0.7,1.7-1.1c-0.1,0.2-0.1,0.4-0.1,0.6c0,0.2,0.1,0.5,0.4,0.5c0.2,0,0.7-0.2,0.9-0.4l-0.1-0.1
		c0,0-0.1,0-0.2,0c-0.1,0-0.3-0.1-0.3-0.3c0-0.1,0-0.1,0-0.2l0.4-2.1c0-0.1,0.1-0.5,0.1-0.7c0-0.2-0.1-0.4-0.3-0.4
		c-0.3,0-0.7,0.2-0.8,0.4L155.2,147.5z M150.4,147.3c-0.9,0-1.1,1.6-1.1,2.1c0,0.8,0.2,1.3,0.7,1.3c0.6,0,1.1-0.9,1.1-2.1
		C151.2,147.8,150.9,147.3,150.4,147.3 M150.8,146.9c0.7,0,1.2,0.5,1.2,1.5c0,1.4-0.9,2.6-2.2,2.6c-1,0-1.2-0.9-1.2-1.5
		C148.6,148,149.6,146.9,150.8,146.9 M146.5,150.3c-0.1-0.1-0.2-0.4-0.2-0.6c-0.2-1.4-0.3-2.1-0.3-2.3c0-0.4-0.1-0.5-0.4-0.5
		c-0.3,0-0.6,0.2-0.8,0.4l0.1,0.1c0,0,0,0,0,0c0.1,0,0.3,0.1,0.4,0.8l0.3,2.3c0,0.2,0,0.4,0.3,0.5c-0.8,1.2-1.4,1.4-1.7,1.4
		c-0.2,0-0.5-0.1-0.5-0.2c0,0.1-0.1,0.2-0.1,0.3c0,0.3,0.2,0.5,0.6,0.5c0.9,0,2.4-2.5,3.2-3.9c0.2-0.4,0.6-1.2,0.6-1.7
		c0-0.3-0.1-0.5-0.5-0.5c-0.1,0-0.3,0-0.4,0.2c0.2,0.1,0.4,0.3,0.4,0.5C147.7,148.2,147,149.5,146.5,150.3 M141.2,148.7
		c0,0.1-0.1,0.7-0.2,1.1c-0.3,0.4-0.9,0.8-1.1,0.8c-0.4,0-0.5-0.4-0.5-0.9c0-0.9,0.3-2.3,1.4-2.3c0.5,0,0.7,0.1,0.7,0.1L141.2,148.7
		z M141.4,151.1c0.3,0,0.7-0.2,0.9-0.4l-0.1-0.1c-0.1,0-0.1,0-0.2,0c-0.2,0-0.3-0.1-0.3-0.4c0-0.4,0.2-1.4,0.4-2.5
		c0.1-0.3,0.4-1.8,0.4-2c0.1-0.4,0.1-0.7-0.4-0.7c-0.4,0-0.7,0.2-0.7,0.2l0,0.1c0.3,0,0.3,0.5,0.2,0.7l-0.2,1
		c-0.1-0.1-0.5-0.1-0.7-0.1c-1.5,0-2.2,1.6-2.2,2.8c0,0.9,0.3,1.4,0.9,1.4c0.5,0,1-0.4,1.4-0.9v0c0,0.1,0,0.2,0,0.3
		C140.9,150.7,141,151.1,141.4,151.1 M135.6,148c0-0.1,0.1-0.5,0.1-0.7c0-0.2-0.1-0.4-0.3-0.4c-0.3,0-0.7,0.2-0.8,0.4l0.1,0.1
		c0,0,0,0,0.1,0c0.2,0,0.2,0.3,0.2,0.5l-0.6,3v0h0.8v-0.1c0-0.1,0-0.3,0-0.5c0.1-0.8,0.3-1.7,0.4-2.1c0.3-0.4,0.8-0.8,1.3-0.8
		c0.3,0,0.4,0.3,0.3,0.7c0,0.1,0,0.2-0.4,2.3c0,0.1-0.1,0.3-0.1,0.4h0.8c0-0.8,0.5-2.8,0.5-3.2c0-0.6-0.3-0.9-0.7-0.9
		C136.6,146.9,135.9,147.6,135.6,148 M132.6,147.4c0.3,0,0.4,0.2,0.4,0.4c0,0.8-0.9,1-1.5,1C131.6,148.2,132,147.4,132.6,147.4
		 M132,151.1c0.8,0,1.7-0.6,1.7-1.3c-0.4,0.4-0.9,0.7-1.3,0.7c-0.6,0-0.9-0.6-0.9-1.1c0-0.1,0-0.1,0-0.2h0.2c1.1,0,2.2-0.5,2.2-1.4
		c0-0.5-0.3-0.8-1-0.8c-1,0-2,1.1-2,2.6C130.7,150.5,131.3,151.1,132,151.1 M127.8,148.2c0,1.1,1.5,1.1,1.5,1.8
		c0,0.5-0.4,0.6-0.7,0.6c-0.4,0-0.9-0.3-0.9-0.6c-0.4,0.5,0.1,1.1,0.9,1.1c0.8,0,1.5-0.4,1.5-1.3c0-1.1-1.6-1.1-1.6-1.8
		c0-0.4,0.3-0.6,0.7-0.6c0.4,0,0.5,0.2,0.5,0.4c0,0.1,0,0.1,0,0.2c0.1,0.1,0.1,0.1,0.2,0.1c0.2,0,0.4-0.2,0.4-0.4
		c0-0.4-0.4-0.6-1-0.6C128.4,146.9,127.8,147.5,127.8,148.2 M123.7,147.4c0.3,0,0.4,0.2,0.4,0.4c0,0.8-0.9,1-1.5,1
		C122.6,148.2,123.1,147.4,123.7,147.4 M123,151.1c0.8,0,1.7-0.6,1.7-1.3c-0.4,0.4-0.9,0.7-1.3,0.7c-0.6,0-0.9-0.6-0.9-1.1
		c0-0.1,0-0.1,0-0.2h0.2c1.1,0,2.2-0.5,2.2-1.4c0-0.5-0.3-0.8-1-0.8c-1,0-2,1.1-2,2.6C121.7,150.5,122.3,151.1,123,151.1
		 M116.2,148.2l0.3,2.3c0,0.2,0.1,0.5,0.4,0.6l0.2,0.1l0.3-0.6c0.3-0.5,0.7-1,0.9-1.4c0.1-0.1,0.2-0.3,0.3-0.5l0.2,1.8
		c0,0.2,0.1,0.5,0.4,0.6l0.2,0.1l0.3-0.6c0.3-0.5,0.7-1,0.9-1.4c0.2-0.4,0.6-1.2,0.6-1.7c0-0.3-0.1-0.5-0.5-0.5
		c-0.1,0-0.3,0-0.4,0.2c0.2,0.1,0.4,0.3,0.4,0.5c0,0.6-0.7,1.8-1.3,2.6c0-0.1-0.1-0.4-0.1-0.5c-0.2-1.4-0.3-2.1-0.3-2.3
		c0-0.4-0.1-0.5-0.4-0.5c-0.3,0-0.6,0.2-0.8,0.4l0.1,0.1c0,0,0.2-0.1,0.4,0.3c-0.1,0.6-0.7,1.8-1.3,2.5c0-0.1-0.1-0.4-0.1-0.5
		c-0.2-1.4-0.3-2.1-0.3-2.3c0-0.4-0.1-0.5-0.4-0.5c-0.3,0-0.6,0.2-0.8,0.4l0.1,0.1C115.8,147.5,116.1,147.3,116.2,148.2
		 M111.2,150.5c-0.6,0-1-0.6-1-1.6c0-0.6,0.2-1.5,0.9-1.5c0.2,0,0.4,0.1,0.6,0.1v2l0,0.9C111.5,150.5,111.4,150.5,111.2,150.5
		 M113.4,150.7c-0.6,0-0.7-0.3-0.7-1.9c0-1.3,0.1-2.7,0.1-2.9v-0.1c0-0.7-0.2-0.9-0.7-0.9c-0.4,0-0.8,0.2-0.8,0.2v0.1
		c0.4,0.1,0.4,0.7,0.4,1.6c0,0-0.4-0.1-0.6-0.1c-1.3,0-2,1.3-2,2.3c0,1.4,0.8,1.9,1.6,1.9c0.4,0,0.8-0.2,1.1-0.4
		c0.1,0.3,0.5,0.4,0.7,0.4c0.4,0,0.7-0.2,0.9-0.2V150.7z M108.3,151c-0.1-1-0.1-1.8-0.1-3.1c0-0.6-0.4-1.1-1.1-1.1
		c-0.6,0-1,0.4-1.3,0.7l0-0.2c0-0.2-0.2-0.5-0.5-0.5c-0.4,0-0.7,0.2-0.9,0.3v0.1c0,0,0.4,0.1,0.4,1l0,2.5l0,0.2h1.1
		c0-0.2-0.1-0.5-0.1-0.6c0-0.8,0-2,0-2.4c0.2-0.2,0.5-0.4,0.9-0.4c0.4,0,0.5,0.4,0.5,1.1c0,0.6,0,1.4,0,2.1c0,0.1,0,0.3,0,0.3H108.3
		z M102.4,149.1c0,0.3,0,0.7,0,1.1c-0.1,0.1-0.4,0.2-0.7,0.2c-0.3,0-0.5-0.2-0.5-0.6C101.1,149.2,102,149.1,102.4,149.1
		 M103.5,150.4c-0.1-0.2-0.1-0.8-0.1-1.1c0-0.6,0-0.9,0-1.2c0-0.8-0.6-1.2-1.6-1.2c-0.7,0-1.4,0.3-1.4,0.8c0,0.3,0.2,0.4,0.5,0.4
		c0.2,0,0.3-0.1,0.4-0.2c-0.1-0.4,0.1-0.6,0.5-0.6c0.5,0,0.6,0.5,0.6,1.1c0,0.2,0,0.3,0,0.5c-0.2,0-0.3-0.1-0.5-0.1
		c-0.9,0-1.7,0.5-1.7,1.2c0,0.5,0.4,1.1,1.2,1.1c0.4,0,0.9-0.2,1.1-0.6c0,0.2,0.3,0.6,0.7,0.6c0.3,0,0.7-0.1,0.9-0.2v-0.2
		C104,150.7,103.6,150.7,103.5,150.4 M96.5,148.7c0,0.1-0.1,0.7-0.2,1.1c-0.3,0.4-0.9,0.8-1.1,0.8c-0.4,0-0.5-0.4-0.5-0.9
		c0-0.9,0.3-2.3,1.4-2.3c0.5,0,0.7,0.1,0.7,0.1L96.5,148.7z M96.7,151.1c0.3,0,0.7-0.2,0.9-0.4l-0.1-0.1c-0.1,0-0.1,0-0.2,0
		c-0.2,0-0.3-0.1-0.3-0.4c0-0.4,0.2-1.4,0.4-2.5c0.1-0.3,0.4-1.8,0.4-2c0.1-0.4,0.1-0.7-0.4-0.7c-0.4,0-0.7,0.2-0.7,0.2l0,0.1
		c0.3,0,0.3,0.5,0.2,0.7l-0.2,1c-0.1-0.1-0.5-0.1-0.7-0.1c-1.5,0-2.2,1.6-2.2,2.8c0,0.9,0.3,1.4,0.9,1.4c0.5,0,1-0.4,1.4-0.9v0
		c0,0.1,0,0.2,0,0.3C96.2,150.7,96.3,151.1,96.7,151.1 M90.9,148c0-0.1,0.1-0.5,0.1-0.7c0-0.2-0.1-0.4-0.3-0.4
		c-0.3,0-0.7,0.2-0.8,0.4l0.1,0.1c0,0,0,0,0.1,0c0.2,0,0.2,0.3,0.2,0.5l-0.6,3v0h0.8v-0.1c0-0.1,0-0.3,0-0.5
		c0.1-0.8,0.3-1.7,0.4-2.1c0.3-0.4,0.8-0.8,1.3-0.8c0.3,0,0.4,0.3,0.3,0.7c0,0.1,0,0.2-0.4,2.3c0,0.1-0.1,0.3-0.1,0.4h0.8
		c0-0.8,0.5-2.8,0.5-3.2c0-0.6-0.3-0.9-0.7-0.9C91.9,146.9,91.2,147.6,90.9,148 M88,147.4c0.3,0,0.4,0.2,0.4,0.4c0,0.8-0.9,1-1.5,1
		C86.9,148.2,87.4,147.4,88,147.4 M87.3,151.1c0.8,0,1.7-0.6,1.7-1.3c-0.4,0.4-0.9,0.7-1.3,0.7c-0.6,0-0.9-0.6-0.9-1.1
		c0-0.1,0-0.1,0-0.2h0.2c1.1,0,2.2-0.5,2.2-1.4c0-0.5-0.3-0.8-1-0.8c-1,0-2,1.1-2,2.6C86,150.5,86.6,151.1,87.3,151.1 M84,151h0.8
		c0,0,0-0.1,0-0.1c0-0.1,0-0.3,0-0.5c0.1-0.8,0.3-1.9,0.4-2.2c0-0.1,0.2-0.7,0.2-0.8c0-0.2-0.1-0.4-0.3-0.4c-0.3,0-0.7,0.2-0.8,0.4
		l0.1,0.1c0,0,0,0,0.1,0c0.1,0,0.2,0.1,0.2,0.3C84.5,147.8,84.5,147.9,84,151L84,151z M84.8,145.9c0,0.2,0.2,0.4,0.4,0.4
		c0.2,0,0.4-0.2,0.4-0.4c0-0.2-0.2-0.4-0.4-0.4C84.9,145.4,84.8,145.6,84.8,145.9 M81.6,151c0-0.3,0.1-1,0.2-1.3
		c0.1-0.6,0.5-2.1,1.3-2.1c0.2,0,0.3,0.1,0.3,0.3c0.2-0.1,0.5-0.3,0.5-0.6c0-0.2-0.1-0.4-0.4-0.4c-0.8,0-1.4,1.1-1.5,1.4
		c0-0.3,0.2-0.6,0.2-0.6c0-0.1,0.1-0.2,0.1-0.4c0-0.2-0.1-0.3-0.4-0.3c-0.2,0-0.6,0.2-0.8,0.4l0.1,0.1c0,0,0,0,0.1,0
		c0.1,0,0.2,0,0.2,0.3c0,0.1,0,0.3,0,0.5c-0.2,1.1-0.4,2.2-0.5,2.7H81.6z M78.9,148.2c0-0.1,0-0.2,0-0.4c0-0.2-0.1-0.4-0.3-0.5
		l0.1-0.2c0.2,0,0.4-0.1,0.5-0.5c0.4-1.3,1.1-1.6,1.7-1.6c0.4,0,0.7,0.2,0.7,0.5c0,0.2-0.2,0.4-0.4,0.4c-0.1,0-0.2,0-0.2,0
		c0-0.2-0.1-0.3-0.3-0.3c-0.4,0-0.7,0.3-0.8,1.4c0,0.1,0,0.2,0,0.2h0.9c0.2,0,0.3-0.1,0.3-0.1c0,0.5-0.4,0.6-0.7,0.6
		c-0.1,0-0.5,0-0.6,0c-0.2,0.9-0.6,3.1-0.6,3.1c0,0.1,0,0.2,0,0.3h-0.8c0-0.1,0-0.2,0-0.2L78.9,148.2z M74.8,146.4h-0.4
		c-0.5,0.7-0.8,0.7-0.9,0.7l-0.1,0.2c0,0,0.2,0,0.3,0.3c0,0,0,0.1,0,0.2c0,0.6-0.5,1.9-0.5,2.6c0,0.5,0.4,0.8,0.8,0.8
		c0.6,0,1.2-0.4,1.2-1c0,0,0,0,0-0.1c-0.1,0.1-0.5,0.4-0.8,0.4c-0.4,0-0.5-0.2-0.5-0.5c0-0.6,0.4-2.1,0.4-2.4c0,0,0.1,0,0.1,0
		c0.1,0,0.4,0,0.5,0c0.4,0,0.7-0.2,0.7-0.5c0,0,0,0,0-0.1c0,0-0.1,0.1-0.3,0.1h-0.9L74.8,146.4z M70.2,148.2c0,1.1,1.5,1.1,1.5,1.8
		c0,0.5-0.4,0.6-0.7,0.6c-0.4,0-0.9-0.3-0.9-0.6c-0.4,0.5,0.1,1.1,0.9,1.1c0.8,0,1.5-0.4,1.5-1.3c0-1.1-1.6-1.1-1.6-1.8
		c0-0.4,0.3-0.6,0.7-0.6c0.4,0,0.5,0.2,0.5,0.4c0,0.1,0,0.1,0,0.2c0.1,0.1,0.1,0.1,0.2,0.1c0.2,0,0.4-0.2,0.4-0.4
		c0-0.4-0.4-0.6-1-0.6C70.8,146.9,70.2,147.5,70.2,148.2 M68.2,147.4c0.3,0,0.4,0.2,0.4,0.4c0,0.8-0.9,1-1.5,1
		C67.2,148.2,67.6,147.4,68.2,147.4 M67.6,151.1c0.8,0,1.7-0.6,1.7-1.3c-0.4,0.4-0.9,0.7-1.3,0.7c-0.6,0-0.9-0.6-0.9-1.1
		c0-0.1,0-0.1,0-0.2h0.2c1.1,0,2.2-0.5,2.2-1.4c0-0.5-0.3-0.8-1-0.8c-1,0-2,1.1-2,2.6C66.3,150.5,66.8,151.1,67.6,151.1 M63.1,149.8
		c0.1-0.5,0.1-0.6,0.2-1.5c0.3-0.4,0.9-0.8,1.2-0.8c0.4,0,0.5,0.4,0.5,0.9c0,0.9-0.3,2.3-1.3,2.3c-0.5,0-0.6-0.2-0.6-0.5
		C63.1,150,63.1,149.9,63.1,149.8 M63.1,146c0,0.5-0.8,4-0.8,4.4c0,0.5,0.5,0.7,1.2,0.7c1.5,0,2.2-1.6,2.2-2.8
		c0-0.9-0.3-1.4-0.8-1.4c-0.5,0-1.1,0.4-1.5,1c0.3-0.9,0.6-2.2,0.6-2.6c0-0.3-0.1-0.4-0.4-0.4c-0.4,0-0.7,0.2-0.7,0.2l0,0.1
		c0.2,0,0.2,0.2,0.2,0.5C63.1,145.8,63.1,145.9,63.1,146 M54.5,148.2l0.3,2.3c0,0.2,0.1,0.5,0.4,0.6l0.2,0.1l0.3-0.6
		c0.3-0.5,0.7-1,0.9-1.4c0.1-0.1,0.2-0.3,0.3-0.5l0.2,1.8c0,0.2,0.1,0.5,0.4,0.6l0.2,0.1l0.3-0.6c0.3-0.5,0.7-1,0.9-1.4
		c0.2-0.4,0.6-1.2,0.6-1.7c0-0.3-0.1-0.5-0.5-0.5c-0.1,0-0.3,0-0.4,0.2c0.2,0.1,0.4,0.3,0.4,0.5c0,0.6-0.7,1.8-1.3,2.6
		c0-0.1-0.1-0.4-0.1-0.5c-0.2-1.4-0.3-2.1-0.3-2.3c0-0.4-0.1-0.5-0.4-0.5c-0.3,0-0.6,0.2-0.8,0.4l0.1,0.1c0,0,0.2-0.1,0.4,0.3
		c-0.1,0.6-0.7,1.8-1.3,2.5c0-0.1-0.1-0.4-0.1-0.5c-0.2-1.4-0.3-2.1-0.3-2.3c0-0.4-0.1-0.5-0.4-0.5c-0.3,0-0.6,0.2-0.8,0.4l0.1,0.1
		C54,147.5,54.3,147.3,54.5,148.2 M52.4,147.4c0.3,0,0.4,0.2,0.4,0.4c0,0.8-0.9,1-1.5,1C51.3,148.2,51.8,147.4,52.4,147.4
		 M51.7,151.1c0.8,0,1.7-0.6,1.7-1.3c-0.4,0.4-0.9,0.7-1.3,0.7c-0.6,0-0.9-0.6-0.9-1.1c0-0.1,0-0.1,0-0.2h0.2c1.1,0,2.2-0.5,2.2-1.4
		c0-0.5-0.3-0.8-1-0.8c-1,0-2,1.1-2,2.6C50.4,150.5,51,151.1,51.7,151.1 M47.4,148c0-0.1,0.1-0.5,0.1-0.7c0-0.2-0.1-0.4-0.3-0.4
		c-0.3,0-0.7,0.2-0.8,0.4l0.1,0.1c0,0,0,0,0.1,0c0.2,0,0.2,0.3,0.2,0.5l-0.6,3v0h0.8v-0.1c0-0.1,0-0.3,0-0.5
		c0.1-0.8,0.3-1.7,0.4-2.1c0.3-0.4,0.8-0.8,1.3-0.8c0.3,0,0.4,0.3,0.3,0.7c0,0.1,0,0.2-0.4,2.3c0,0.1-0.1,0.3-0.1,0.4h0.8
		c0-0.8,0.5-2.8,0.5-3.2c0-0.6-0.3-0.9-0.7-0.9C48.3,146.9,47.7,147.6,47.4,148 M41.6,151c0-0.3,0.1-1,0.2-1.3
		c0.1-0.6,0.5-2.1,1.3-2.1c0.2,0,0.3,0.1,0.3,0.3c0.2-0.1,0.5-0.3,0.5-0.6c0-0.2-0.1-0.4-0.4-0.4c-0.8,0-1.4,1.1-1.5,1.4
		c0-0.3,0.2-0.6,0.2-0.6c0-0.1,0.1-0.2,0.1-0.4c0-0.2-0.1-0.3-0.3-0.3c-0.2,0-0.6,0.2-0.8,0.4l0.1,0.1c0,0,0,0,0.1,0
		c0.1,0,0.2,0,0.2,0.3c0,0.1,0,0.3,0,0.5c-0.2,1.1-0.4,2.2-0.5,2.7H41.6z M38.8,151h0.8c0,0,0-0.1,0-0.1c0-0.1,0-0.3,0-0.5
		c0.1-0.8,0.3-1.9,0.4-2.2c0-0.1,0.2-0.7,0.2-0.8c0-0.2-0.1-0.4-0.3-0.4c-0.3,0-0.7,0.2-0.8,0.4l0.1,0.1c0,0,0,0,0.1,0
		c0.1,0,0.2,0.1,0.2,0.3C39.3,147.8,39.3,147.9,38.8,151L38.8,151z M39.6,145.9c0,0.2,0.2,0.4,0.4,0.4c0.2,0,0.4-0.2,0.4-0.4
		c0-0.2-0.2-0.4-0.4-0.4C39.7,145.4,39.6,145.6,39.6,145.9 M37,147.4c0.3,0,0.4,0.2,0.4,0.4c0,0.8-0.9,1-1.5,1
		C36,148.2,36.4,147.4,37,147.4 M36.3,151.1c0.8,0,1.7-0.6,1.7-1.3c-0.4,0.4-0.9,0.7-1.3,0.7c-0.6,0-0.9-0.6-0.9-1.1
		c0-0.1,0-0.1,0-0.2H36c1.1,0,2.2-0.5,2.2-1.4c0-0.5-0.3-0.8-1-0.8c-1,0-2,1.1-2,2.6C35,150.5,35.6,151.1,36.3,151.1 M32.2,144.9
		c-0.4,0-0.7,0.2-0.7,0.2l0,0.1c0.2,0,0.3,0.2,0.3,0.4c0,0.2-0.5,2.7-0.9,5.1l0,0.1h0.8v-0.1c0-0.2,0.2-1.6,0.4-2.6
		c0.3-0.4,0.8-0.8,1.3-0.8c0.3,0,0.4,0.2,0.4,0.5c0,0.1,0,0.2,0,0.2c0,0.1,0,0.2-0.4,2.3c0,0.1-0.1,0.3-0.1,0.4h0.8
		c0-0.8,0.5-2.8,0.5-3.3c0-0.5-0.3-0.8-0.7-0.8c-0.7,0-1.4,0.7-1.7,1.1c0.2-1.1,0.6-2.3,0.6-2.7C32.5,145.1,32.4,144.9,32.2,144.9
		 M29.5,146.4h-0.4c-0.5,0.7-0.8,0.7-0.9,0.7l-0.1,0.2c0,0,0.2,0,0.3,0.3c0,0,0,0.1,0,0.2c0,0.6-0.5,1.9-0.5,2.6
		c0,0.5,0.4,0.8,0.8,0.8c0.6,0,1.2-0.4,1.2-1c0,0,0,0,0-0.1c-0.1,0.1-0.5,0.4-0.8,0.4c-0.4,0-0.5-0.2-0.5-0.5c0-0.6,0.4-2.1,0.4-2.4
		c0,0,0.1,0,0.1,0c0.1,0,0.4,0,0.5,0c0.4,0,0.7-0.2,0.7-0.5c0,0,0,0,0-0.1c0,0-0.1,0.1-0.3,0.1h-0.9L29.5,146.4z M23.9,147.4
		c0.3,0,0.4,0.2,0.4,0.4c0,0.8-0.9,1-1.5,1C22.9,148.2,23.3,147.4,23.9,147.4 M23.2,151.1c0.8,0,1.7-0.6,1.7-1.3
		c-0.4,0.4-0.9,0.7-1.3,0.7c-0.6,0-0.9-0.6-0.9-1.1c0-0.1,0-0.1,0-0.2h0.2c1.1,0,2.2-0.5,2.2-1.4c0-0.5-0.3-0.8-1-0.8
		c-1,0-2,1.1-2,2.6C22,150.5,22.5,151.1,23.2,151.1 M18.8,149.8c0.1-0.5,0.1-0.6,0.2-1.5c0.3-0.4,0.9-0.8,1.2-0.8
		c0.4,0,0.5,0.4,0.5,0.9c0,0.9-0.3,2.3-1.3,2.3c-0.5,0-0.6-0.2-0.6-0.5C18.8,150,18.8,149.9,18.8,149.8 M18.8,146
		c0,0.5-0.8,4-0.8,4.4c0,0.5,0.5,0.7,1.2,0.7c1.5,0,2.2-1.6,2.2-2.8c0-0.9-0.3-1.4-0.8-1.4c-0.5,0-1.1,0.4-1.5,1
		c0.3-0.9,0.6-2.2,0.6-2.6c0-0.3-0.1-0.4-0.4-0.4c-0.4,0-0.7,0.2-0.7,0.2l0,0.1c0.2,0,0.2,0.2,0.2,0.5
		C18.8,145.8,18.8,145.9,18.8,146"/>
	<path class="st7" d="M156.3,141.4c0-0.1,0-0.2,0-0.3c0.1-0.9,0.6-3.2,0.8-4.4c0.2-0.9,0.3-1.3-0.2-1.3c-0.4,0-0.7,0.2-0.7,0.2
		l0,0.1c0.2,0,0.3,0.3,0.2,0.7c0,0-0.5,2.9-0.9,4.8l0,0.1H156.3z M154.3,141.4c0-0.1,0-0.2,0-0.3c0.1-0.9,0.6-3.2,0.8-4.4
		c0.2-0.9,0.3-1.3-0.2-1.3c-0.4,0-0.7,0.2-0.7,0.2l0,0.1c0.2,0,0.3,0.3,0.2,0.7c0,0-0.5,2.9-0.9,4.8l0,0.1H154.3z M152.6,135.9
		c0.1,0,0.2,0,0.2,0.2c0,0.4-0.2,0.6-0.7,1l0.1,0.2c0.9-0.5,1.3-1.1,1.3-1.5c0-0.3-0.2-0.4-0.4-0.4
		C152.8,135.4,152.6,135.6,152.6,135.9C152.6,135.9,152.6,135.9,152.6,135.9 M150,137.9C150.1,137.9,150.1,137.9,150,137.9
		c0.2,0,0.3,0.2,0.3,0.4v0.1c-0.1,0.8-0.3,1.5-0.3,1.8c-0.3,0.4-0.8,0.8-1.3,0.8c-0.3,0-0.4-0.2-0.4-0.5c0-0.4,0.2-1.1,0.4-2
		c0-0.1,0.1-0.5,0.1-0.7c0-0.2-0.1-0.4-0.3-0.4c-0.3,0-0.7,0.2-0.8,0.4l0.1,0.1c0,0,0,0,0.1,0c0.2,0,0.2,0.2,0.2,0.4
		c0,0,0,0.1,0,0.1c-0.1,0.8-0.4,2.1-0.4,2.4c0,0.5,0.3,0.8,0.7,0.8c0.7,0,1.4-0.7,1.7-1.1c-0.1,0.2-0.1,0.4-0.1,0.6
		c0,0.2,0.1,0.5,0.4,0.5c0.2,0,0.7-0.2,0.9-0.4l-0.1-0.1c0,0-0.1,0-0.2,0c-0.1,0-0.3-0.1-0.3-0.3c0-0.1,0-0.1,0-0.2l0.4-2.1
		c0-0.1,0.1-0.5,0.1-0.7c0-0.2-0.1-0.4-0.3-0.4c-0.3,0-0.7,0.2-0.8,0.4L150,137.9z M145.3,137.8c-0.9,0-1.1,1.6-1.1,2.1
		c0,0.8,0.2,1.3,0.7,1.3c0.6,0,1.1-0.9,1.1-2.1C146,138.3,145.8,137.8,145.3,137.8 M145.6,137.3c0.7,0,1.2,0.5,1.2,1.5
		c0,1.4-0.9,2.6-2.2,2.6c-1,0-1.2-0.9-1.2-1.5C143.5,138.4,144.4,137.3,145.6,137.3 M141.7,141.4c0-0.3,0.1-0.8,0.2-1.4
		c0.1-0.4,0.2-0.9,0.2-1.2l1.3-1.6c0.2-0.3,0.6-0.9,0.7-1.1c-0.1-0.1-0.3-0.1-0.4-0.1c-0.1,0-0.3,0-0.5,0.1l-0.1,0.1
		c0.1,0.2,0,0.5-0.1,0.7l-0.9,1.2c-0.1,0.2-0.2,0.3-0.2,0.3c-0.2-0.4-0.6-1.7-0.7-2.3c-0.1-0.1-0.2-0.1-0.4-0.1
		c-0.2,0-0.4,0-0.6,0.1l-0.1,0.1c0.3,0.1,0.3,0.3,0.6,1.1l0.5,1.3c0,0.1,0.1,0.2,0.1,0.2c0,0.1-0.1,0.4-0.2,0.9
		c-0.1,0.3-0.2,0.8-0.3,1.4l0,0.1H141.7z M135.2,141.1c0-0.2-0.2-0.4-0.4-0.4c-0.2,0-0.4,0.2-0.4,0.4c0,0.2,0.2,0.4,0.4,0.4
		C135,141.5,135.2,141.3,135.2,141.1 M132.5,137.8c0.3,0,0.4,0.2,0.4,0.4c0,0.8-0.9,1-1.5,1C131.5,138.6,131.9,137.8,132.5,137.8
		 M131.9,141.5c0.8,0,1.7-0.6,1.7-1.3c-0.4,0.4-0.9,0.7-1.3,0.7c-0.6,0-0.9-0.6-0.9-1.1c0-0.1,0-0.1,0-0.2h0.2
		c1.1,0,2.2-0.5,2.2-1.4c0-0.5-0.3-0.8-1-0.8c-1,0-2,1.1-2,2.6C130.6,140.9,131.1,141.5,131.9,141.5 M127.5,138.4
		c0-0.1,0.1-0.5,0.1-0.7c0-0.2-0.1-0.4-0.3-0.4c-0.3,0-0.7,0.2-0.8,0.4l0.1,0.1c0,0,0,0,0.1,0c0.2,0,0.2,0.3,0.2,0.5l-0.6,3v0h0.8
		v-0.1c0-0.1,0-0.3,0-0.5c0.1-0.8,0.3-1.7,0.4-2.1c0.3-0.4,0.8-0.8,1.3-0.8c0.3,0,0.4,0.3,0.3,0.7c0,0.1,0,0.2-0.4,2.3
		c0,0.1-0.1,0.3-0.1,0.4h0.8c0-0.8,0.5-2.8,0.5-3.2c0-0.6-0.3-0.9-0.7-0.9C128.5,137.3,127.8,138,127.5,138.4 M124.1,137.8
		c-0.9,0-1.1,1.6-1.1,2.1c0,0.8,0.2,1.3,0.7,1.3c0.6,0,1.1-0.9,1.1-2.1C124.9,138.3,124.6,137.8,124.1,137.8 M124.4,137.3
		c0.7,0,1.2,0.5,1.2,1.5c0,1.4-0.9,2.6-2.2,2.6c-1,0-1.2-0.9-1.2-1.5C122.3,138.4,123.3,137.3,124.4,137.3 M119.4,135.4
		c-0.4,0-0.7,0.2-0.7,0.2l0,0.1c0.2,0,0.3,0.2,0.3,0.4c0,0.2-0.5,2.7-0.9,5.1l0,0.1h0.8v-0.1c0-0.2,0.2-1.6,0.4-2.6
		c0.3-0.4,0.8-0.8,1.3-0.8c0.3,0,0.4,0.2,0.4,0.5c0,0.1,0,0.2,0,0.2c0,0.1,0,0.2-0.4,2.3c0,0.1-0.1,0.3-0.1,0.4h0.8
		c0-0.8,0.5-2.8,0.5-3.3c0-0.5-0.3-0.8-0.7-0.8c-0.7,0-1.4,0.7-1.7,1.1c0.2-1.1,0.6-2.3,0.6-2.7
		C119.7,135.5,119.6,135.4,119.4,135.4 M115.2,141.1c-0.3,0-0.5,0-0.7-0.1h0l0.1-0.4c0.2-1,0.2-1.3,0.3-1.8c0.2-0.2,0.8-0.8,1.1-0.8
		c0.4,0,0.5,0.5,0.5,1.1C116.6,139.3,116.3,141.1,115.2,141.1 M114.1,143.3c0-0.2,0.2-1.1,0.3-1.9c0.2,0.1,0.4,0.1,0.7,0.1
		c1.5,0,2.2-1.6,2.2-2.8c0-0.9-0.3-1.4-0.8-1.4c-0.6,0-1.2,0.6-1.5,1c0-0.1,0.1-0.5,0.1-0.7c0-0.2-0.1-0.4-0.3-0.4
		c-0.4,0-0.8,0.4-0.8,0.4l0.1,0.1c0,0,0,0,0.1,0c0.1,0,0.2,0.1,0.2,0.3c0,0,0,0.1,0,0.1l-0.6,3.2c0,0.2-0.3,1.5-0.3,1.8H114.1z
		 M110.3,141.4c0-0.1,0-0.2,0-0.3c0.1-0.9,0.6-3.2,0.8-4.4c0.2-0.9,0.3-1.3-0.2-1.3c-0.4,0-0.7,0.2-0.7,0.2l0,0.1
		c0.2,0,0.3,0.3,0.2,0.7c0,0-0.5,2.9-0.9,4.8l0,0.1H110.3z M108.3,141.4c0-0.1,0-0.2,0-0.3c0.1-0.9,0.6-3.2,0.8-4.4
		c0.2-0.9,0.3-1.3-0.2-1.3c-0.4,0-0.7,0.2-0.7,0.2l0,0.1c0.2,0,0.3,0.3,0.2,0.7c0,0-0.5,2.9-0.9,4.8l0,0.1H108.3z M105.8,137.8
		c0.3,0,0.4,0.2,0.4,0.4c0,0.8-0.9,1-1.5,1C104.8,138.6,105.2,137.8,105.8,137.8 M105.1,141.5c0.8,0,1.7-0.6,1.7-1.3
		c-0.4,0.4-0.9,0.7-1.3,0.7c-0.6,0-0.9-0.6-0.9-1.1c0-0.1,0-0.1,0-0.2h0.2c1.1,0,2.2-0.5,2.2-1.4c0-0.5-0.3-0.8-1-0.8
		c-1,0-2,1.1-2,2.6C103.9,140.9,104.4,141.5,105.1,141.5 M101,139.8c0-0.9,0.5-2,1.2-2c0.5,0,0.6,0.3,0.6,0.6
		c0.3,0.2,0.7-0.1,0.7-0.4c0-0.4-0.6-0.6-1.2-0.6c-1.2,0-2.1,1.3-2.1,2.6c0,1,0.6,1.6,1.3,1.6c0.8,0,1.7-0.6,1.7-1.3
		c-0.4,0.4-0.8,0.7-1.3,0.7C101.2,140.9,101,140.4,101,139.8 M95.7,141.4c0-0.3,0.1-1,0.2-1.3c0.1-0.6,0.5-2.1,1.3-2.1
		c0.2,0,0.3,0.1,0.3,0.3c0.2-0.1,0.5-0.3,0.5-0.6c0-0.2-0.1-0.4-0.4-0.4c-0.8,0-1.4,1.1-1.5,1.4c0-0.3,0.2-0.6,0.2-0.6
		c0-0.1,0.1-0.2,0.1-0.4c0-0.2-0.1-0.3-0.4-0.3c-0.2,0-0.6,0.2-0.8,0.4l0.1,0.1c0,0,0,0,0.1,0c0.1,0,0.2,0,0.2,0.3
		c0,0.1,0,0.3,0,0.5c-0.2,1.1-0.4,2.2-0.5,2.7H95.7z M93.1,137.9C93.2,137.9,93.2,137.9,93.1,137.9c0.2,0,0.3,0.2,0.3,0.4v0.1
		c-0.1,0.8-0.3,1.5-0.3,1.8c-0.3,0.4-0.8,0.8-1.3,0.8c-0.3,0-0.4-0.2-0.4-0.5c0-0.4,0.2-1.1,0.4-2c0-0.1,0.1-0.5,0.1-0.7
		c0-0.2-0.1-0.4-0.3-0.4c-0.3,0-0.7,0.2-0.8,0.4l0.1,0.1c0,0,0,0,0.1,0c0.2,0,0.2,0.2,0.2,0.4c0,0,0,0.1,0,0.1
		c-0.1,0.8-0.4,2.1-0.4,2.4c0,0.5,0.3,0.8,0.7,0.8c0.7,0,1.4-0.7,1.7-1.1c-0.1,0.2-0.1,0.4-0.1,0.6c0,0.2,0.1,0.5,0.4,0.5
		c0.2,0,0.7-0.2,0.9-0.4l-0.1-0.1c0,0-0.1,0-0.2,0c-0.1,0-0.3-0.1-0.3-0.3c0-0.1,0-0.1,0-0.2l0.4-2.1c0-0.1,0.1-0.5,0.1-0.7
		c0-0.2-0.1-0.4-0.3-0.4c-0.3,0-0.7,0.2-0.8,0.4L93.1,137.9z M88.4,137.8c-0.9,0-1.1,1.6-1.1,2.1c0,0.8,0.2,1.3,0.7,1.3
		c0.6,0,1.1-0.9,1.1-2.1C89.1,138.3,88.9,137.8,88.4,137.8 M88.7,137.3c0.7,0,1.2,0.5,1.2,1.5c0,1.4-0.9,2.6-2.2,2.6
		c-1,0-1.2-0.9-1.2-1.5C86.5,138.4,87.5,137.3,88.7,137.3 M84.4,140.7c-0.1-0.1-0.2-0.4-0.2-0.6c-0.2-1.4-0.3-2.1-0.3-2.3
		c0-0.4-0.1-0.5-0.4-0.5c-0.3,0-0.6,0.2-0.8,0.4l0.1,0.1c0,0,0,0,0,0c0.1,0,0.3,0.1,0.4,0.8l0.3,2.3c0,0.2,0,0.4,0.3,0.5
		c-0.8,1.2-1.4,1.4-1.7,1.4c-0.2,0-0.5-0.1-0.5-0.2c0,0.1-0.1,0.2-0.1,0.3c0,0.3,0.2,0.5,0.6,0.5c0.9,0,2.4-2.5,3.2-3.9
		c0.2-0.4,0.6-1.2,0.6-1.7c0-0.3-0.1-0.5-0.5-0.5c-0.1,0-0.3,0-0.4,0.2c0.2,0.1,0.4,0.3,0.4,0.5C85.6,138.7,84.9,139.9,84.4,140.7
		 M75.4,138.4c0-0.1,0.1-0.5,0.1-0.7c0-0.2-0.1-0.4-0.3-0.4c-0.3,0-0.7,0.2-0.8,0.4l0.1,0.1c0,0,0,0,0.1,0c0.2,0,0.2,0.3,0.2,0.5
		l-0.6,3v0h0.8v-0.1c0-0.1,0-0.3,0-0.5c0.1-0.8,0.3-1.7,0.4-2.1c0.3-0.4,0.8-0.8,1.3-0.8c0.3,0,0.4,0.3,0.3,0.7c0,0.1,0,0.2-0.4,2.3
		c0,0.1-0.1,0.3-0.1,0.4h0.8c0-0.6,0.3-1.9,0.4-2.7c0.3-0.4,0.8-0.8,1.3-0.8c0.3,0,0.4,0.3,0.3,0.7c0,0.1,0,0.2-0.4,2.3
		c0,0.1-0.1,0.3-0.1,0.4h0.8c0-0.8,0.5-2.8,0.5-3.2c0-0.6-0.3-0.9-0.7-0.9c-0.7,0-1.3,0.6-1.6,1c0-0.1,0-0.1,0-0.2
		c0-0.6-0.3-0.9-0.7-0.9C76.4,137.3,75.7,138,75.4,138.4 M72,137.8c-0.9,0-1.1,1.6-1.1,2.1c0,0.8,0.2,1.3,0.7,1.3
		c0.6,0,1.1-0.9,1.1-2.1C72.8,138.3,72.5,137.8,72,137.8 M72.3,137.3c0.7,0,1.2,0.5,1.2,1.5c0,1.4-0.9,2.6-2.2,2.6
		c-1,0-1.2-0.9-1.2-1.5C70.2,138.4,71.1,137.3,72.3,137.3 M67.8,141.4c0-0.3,0.1-1,0.2-1.3c0.1-0.6,0.5-2.1,1.3-2.1
		c0.2,0,0.3,0.1,0.3,0.3c0.2-0.1,0.5-0.3,0.5-0.6c0-0.2-0.1-0.4-0.4-0.4c-0.8,0-1.4,1.1-1.5,1.4c0-0.3,0.2-0.6,0.2-0.6
		c0-0.1,0.1-0.2,0.1-0.4c0-0.2-0.1-0.3-0.4-0.3c-0.2,0-0.6,0.2-0.8,0.4l0.1,0.1c0,0,0,0,0.1,0c0.1,0,0.2,0,0.2,0.3
		c0,0.1,0,0.3,0,0.5c-0.2,1.1-0.4,2.2-0.5,2.7H67.8z M65.2,138.6c0-0.1,0-0.2,0-0.4c0-0.2-0.1-0.4-0.3-0.5l0.1-0.2
		c0.2,0,0.4-0.1,0.5-0.5c0.4-1.3,1.1-1.6,1.7-1.6c0.4,0,0.7,0.2,0.7,0.5c0,0.2-0.2,0.4-0.4,0.4c-0.1,0-0.2,0-0.2,0
		c0-0.2-0.1-0.3-0.3-0.3c-0.4,0-0.7,0.3-0.8,1.4c0,0.1,0,0.2,0,0.2H67c0.2,0,0.3-0.1,0.3-0.1c0,0.5-0.4,0.6-0.7,0.6
		c-0.1,0-0.5,0-0.6,0c-0.2,0.9-0.6,3.1-0.6,3.1c0,0.1,0,0.2,0,0.3h-0.8c0-0.1,0-0.2,0-0.2L65.2,138.6z M57,138.4
		c0-0.1,0.1-0.5,0.1-0.7c0-0.2-0.1-0.4-0.3-0.4c-0.3,0-0.7,0.2-0.8,0.4l0.1,0.1c0,0,0,0,0.1,0c0.2,0,0.2,0.3,0.2,0.5l-0.6,3v0h0.8
		v-0.1c0-0.1,0-0.3,0-0.5c0.1-0.8,0.3-1.7,0.4-2.1c0.3-0.4,0.8-0.8,1.3-0.8c0.3,0,0.4,0.3,0.3,0.7c0,0.1,0,0.2-0.4,2.3
		c0,0.1-0.1,0.3-0.1,0.4h0.8c0-0.6,0.3-1.9,0.4-2.7c0.3-0.4,0.8-0.8,1.3-0.8c0.3,0,0.4,0.3,0.3,0.7c0,0.1,0,0.2-0.4,2.3
		c0,0.1-0.1,0.3-0.1,0.4h0.8c0-0.8,0.5-2.8,0.5-3.2c0-0.6-0.3-0.9-0.7-0.9c-0.7,0-1.3,0.6-1.6,1c0-0.1,0-0.1,0-0.2
		c0-0.6-0.3-0.9-0.7-0.9C58,137.3,57.3,138,57,138.4 M54,137.8c0.3,0,0.4,0.2,0.4,0.4c0,0.8-0.9,1-1.5,1
		C53,138.6,53.4,137.8,54,137.8 M53.3,141.5c0.8,0,1.7-0.6,1.7-1.3c-0.4,0.4-0.9,0.7-1.3,0.7c-0.6,0-0.9-0.6-0.9-1.1
		c0-0.1,0-0.1,0-0.2H53c1.1,0,2.2-0.5,2.2-1.4c0-0.5-0.3-0.8-1-0.8c-1,0-2,1.1-2,2.6C52.1,140.9,52.6,141.5,53.3,141.5 M49.2,135.4
		c-0.4,0-0.7,0.2-0.7,0.2l0,0.1c0.2,0,0.3,0.2,0.3,0.4c0,0.2-0.5,2.7-0.9,5.1l0,0.1h0.8v-0.1c0-0.2,0.2-1.6,0.4-2.6
		c0.3-0.4,0.8-0.8,1.3-0.8c0.3,0,0.4,0.2,0.4,0.5c0,0.1,0,0.2,0,0.2c0,0.1,0,0.2-0.4,2.3c0,0.1-0.1,0.3-0.1,0.4h0.8
		c0-0.8,0.5-2.8,0.5-3.3c0-0.5-0.3-0.8-0.7-0.8c-0.7,0-1.4,0.7-1.7,1.1c0.2-1.1,0.5-2.3,0.5-2.7C49.6,135.5,49.5,135.4,49.2,135.4
		 M46.5,136.8h-0.4c-0.5,0.7-0.8,0.7-0.9,0.7l-0.1,0.2c0,0,0.2,0,0.3,0.3c0,0,0,0.1,0,0.2c0,0.6-0.5,1.9-0.5,2.6
		c0,0.5,0.4,0.8,0.8,0.8c0.6,0,1.2-0.4,1.2-1c0,0,0,0,0-0.1c-0.1,0.1-0.5,0.4-0.8,0.4c-0.4,0-0.5-0.2-0.5-0.5c0-0.6,0.4-2.1,0.4-2.4
		c0,0,0.1,0,0.1,0c0.1,0,0.4,0,0.5,0c0.4,0,0.7-0.2,0.7-0.5c0,0,0,0,0-0.1c0,0-0.1,0.1-0.3,0.1h-0.9L46.5,136.8z M40.3,141.4
		c0-0.3,0.1-1,0.2-1.3c0.1-0.6,0.5-2.1,1.3-2.1c0.2,0,0.3,0.1,0.3,0.3c0.2-0.1,0.5-0.3,0.5-0.6c0-0.2-0.1-0.4-0.4-0.4
		c-0.8,0-1.4,1.1-1.5,1.4c0-0.3,0.2-0.6,0.2-0.6c0-0.1,0.1-0.2,0.1-0.4c0-0.2-0.1-0.3-0.4-0.3c-0.2,0-0.6,0.2-0.8,0.4l0.1,0.1
		c0,0,0,0,0.1,0c0.1,0,0.2,0,0.2,0.3c0,0.1,0,0.3,0,0.5c-0.2,1.1-0.4,2.2-0.5,2.7H40.3z M37.4,137.8c-0.9,0-1.1,1.6-1.1,2.1
		c0,0.8,0.2,1.3,0.7,1.3c0.6,0,1.1-0.9,1.1-2.1C38.1,138.3,37.9,137.8,37.4,137.8 M37.7,137.3c0.7,0,1.2,0.5,1.2,1.5
		c0,1.4-0.9,2.6-2.2,2.6c-1,0-1.2-0.9-1.2-1.5C35.6,138.4,36.5,137.3,37.7,137.3 M33.6,138.6c0-0.1,0-0.2,0-0.4
		c0-0.2-0.1-0.4-0.3-0.5l0.1-0.2c0.2,0,0.4-0.1,0.5-0.5c0.4-1.3,1.1-1.6,1.7-1.6c0.4,0,0.7,0.2,0.7,0.5c0,0.2-0.2,0.4-0.4,0.4
		c-0.1,0-0.2,0-0.2,0c0-0.2-0.1-0.3-0.3-0.3c-0.4,0-0.7,0.3-0.8,1.4c0,0.1,0,0.2,0,0.2h0.9c0.2,0,0.3-0.1,0.3-0.1
		c0,0.5-0.4,0.6-0.7,0.6c-0.1,0-0.5,0-0.6,0c-0.2,0.9-0.6,3.1-0.6,3.1c0,0.1,0,0.2,0,0.3h-0.8c0-0.1,0-0.2,0-0.2L33.6,138.6z
		 M29.6,141.4c0-0.1,0-0.2,0-0.3c0.1-0.9,0.6-3.2,0.8-4.4c0.2-0.9,0.3-1.3-0.2-1.3c-0.4,0-0.7,0.2-0.7,0.2l0,0.1
		c0.2,0,0.3,0.3,0.2,0.7c0,0-0.5,2.9-0.9,4.8l0,0.1H29.6z M27.5,141.4c0-0.1,0-0.2,0-0.3c0.1-0.9,0.5-3.2,0.8-4.4
		c0.2-0.9,0.3-1.3-0.2-1.3c-0.4,0-0.7,0.2-0.7,0.2l0,0.1c0.2,0,0.3,0.3,0.2,0.7c0,0-0.5,2.9-0.9,4.8l0,0.1H27.5z M25.3,137.9
		c0,0.5-0.2,1.5-0.4,2.3c-0.2,0.3-0.6,0.8-0.9,0.8c-0.3,0-0.5-0.2-0.5-0.8c0-1.3,0.6-2.4,1.3-2.4C25,137.8,25.3,137.9,25.3,137.9
		 M25.6,140c0.2-1.2,0.3-1.4,0.3-1.5l0.2-1c-0.4,0-0.9-0.2-1.2-0.2c-1.2,0-2.2,1.4-2.2,2.9c0,0.9,0.4,1.3,0.8,1.3
		c0.5,0,1-0.5,1.4-1.1c-0.1,0.3-0.2,1.1,0.4,1.1c0.4,0,0.8-0.4,0.8-0.4l-0.1-0.1c0,0-0.1,0-0.2,0c-0.2,0-0.3-0.1-0.3-0.4
		C25.6,140.5,25.6,140.2,25.6,140 M21.7,140.2c-0.4,0.5-1.1,0.8-1.5,0.8c-0.9,0-1.3-0.8-1.3-1.7c0-1.2,0.7-2.7,2-2.7
		c0.6,0,0.9,0.5,0.9,0.7c0,0,0,0,0,0.1l0.1,0.1c0.3-0.1,0.6-0.6,0.6-0.7c-0.1-0.4-0.7-0.7-1.4-0.7c-1.7,0-3,1.3-3,3.4
		c0,1.1,0.5,2,1.8,2C20.7,141.5,21.7,141,21.7,140.2C21.7,140.2,21.7,140.2,21.7,140.2"/>
	<path class="st6" d="M135.2,105.7c0,2.1,2.9,2.3,2.9,3.5c0,1-0.8,1.3-1.5,1.3c-0.9,0-1.9-0.7-1.9-1.3c-0.9,1,0.3,2.2,1.7,2.2
		c1.5,0,3.1-0.9,3.1-2.7c0-2.1-3.1-2.2-3.1-3.6c0-0.7,0.6-1.3,1.4-1.3c0.9,0,1.1,0.4,1.1,0.8c0,0.1,0,0.3,0,0.4
		c0.1,0.1,0.3,0.2,0.4,0.2c0.5,0,0.8-0.4,0.8-0.9c0-0.8-0.8-1.3-2-1.3C136.5,103.2,135.2,104.3,135.2,105.7 M130.1,111.3
		c0-0.7,0.2-2,0.3-2.7c0.2-1.1,1-4.2,2.5-4.2c0.3,0,0.6,0.2,0.7,0.6c0.5-0.1,1-0.5,1-1.1c0-0.4-0.2-0.7-0.9-0.7
		c-1.5,0-2.7,2.1-3,2.7c0.1-0.6,0.4-1.3,0.4-1.3c0.1-0.2,0.1-0.5,0.1-0.7c0-0.4-0.2-0.7-0.7-0.7c-0.5,0-1.3,0.4-1.6,0.8l0.1,0.3
		c0,0,0.1,0,0.1,0c0.2,0,0.4,0.1,0.4,0.6c0,0.2,0,0.5-0.1,0.9c-0.4,2.2-0.9,4.5-1.1,5.4H130.1z M125,104.1c0.7,0,0.8,0.5,0.8,0.8
		c0,1.7-1.7,2-3.1,2.1C123,105.8,123.9,104.1,125,104.1 M123.7,111.5c1.6,0,3.4-1.2,3.3-2.6c-0.7,0.9-1.7,1.4-2.6,1.4
		c-1.2,0-1.8-1.2-1.7-2.3c0-0.1,0-0.3,0-0.4h0.3c2.2,0,4.3-1,4.3-2.7c0-1-0.7-1.7-2.1-1.7c-1.9,0-4,2.3-4.1,5.1
		C121.2,110.3,122.3,111.5,123.7,111.5 M110.5,105.3c0.1-0.3,0.3-1,0.3-1.3c0-0.4-0.2-0.7-0.6-0.7c-0.6,0-1.4,0.4-1.7,0.8l0.1,0.3
		c0,0,0.1,0,0.1,0c0.4,0,0.5,0.5,0.4,0.9l-1.1,6v0.1h1.5V111c0-0.3,0-0.6,0.1-0.9c0.3-1.7,0.6-3.5,0.7-4.1c0.5-0.7,1.6-1.5,2.5-1.5
		c0.6,0,0.8,0.5,0.7,1.4c0,0.3,0,0.4-0.8,4.7c0,0.3-0.1,0.5-0.1,0.8h1.5c0-1.2,0.6-3.8,0.8-5.4c0.6-0.7,1.6-1.5,2.5-1.5
		c0.6,0,0.8,0.5,0.7,1.4c0,0.3,0,0.4-0.8,4.7c0,0.3-0.1,0.5-0.1,0.8h1.5c0-1.5,1-5.6,1-6.4c0.1-1.1-0.6-1.7-1.4-1.7
		c-1.4,0-2.7,1.3-3.3,2.1c0-0.1,0-0.3,0-0.4c0.1-1.1-0.6-1.7-1.4-1.7C112.4,103.1,111,104.5,110.5,105.3 M103.6,104
		c-1.7,0-2.1,3.2-2.1,4.1c0,1.5,0.4,2.6,1.4,2.6c1.1,0,2.2-1.8,2.3-4.1C105.2,105,104.6,104,103.6,104 M104.3,103.2
		c1.4,0,2.4,1.1,2.4,3c0,2.7-1.9,5.2-4.3,5.2c-2.1,0-2.4-1.9-2.4-3.1C100,105.4,101.9,103.2,104.3,103.2 M97.3,102.1h-0.8
		c-1,1.4-1.7,1.3-1.7,1.3l-0.2,0.5c0,0,0.4,0,0.6,0.5c0,0.1,0,0.2,0,0.3c0,1.2-0.9,3.9-0.9,5.1c0,1.1,0.8,1.6,1.7,1.6
		c1.1,0,2.4-0.8,2.5-1.9c0,0,0-0.1,0-0.1c-0.2,0.2-1,0.8-1.7,0.8c-0.8,0-1-0.4-1-1c0-1.2,0.8-4.1,0.9-4.8c0,0,0.1,0,0.2,0
		c0.3,0,0.8,0,1,0c0.7,0,1.4-0.4,1.4-1.1c0,0,0-0.1,0-0.1c0,0-0.1,0.2-0.6,0.2h-1.9L97.3,102.1z M88.1,105.7c0,2.1,2.9,2.3,2.9,3.5
		c0,1-0.8,1.3-1.5,1.3c-0.9,0-1.9-0.7-1.9-1.3c-0.9,1,0.3,2.2,1.7,2.2c1.5,0,3.1-0.9,3.1-2.7c0-2.1-3.1-2.2-3.1-3.6
		c0-0.7,0.6-1.3,1.4-1.3c0.9,0,1.1,0.4,1.1,0.8c0,0.1,0,0.3,0,0.4c0.1,0.1,0.3,0.2,0.4,0.2c0.5,0,0.8-0.4,0.8-0.9
		c0-0.8-0.8-1.3-2-1.3C89.4,103.2,88.1,104.3,88.1,105.7 M84.1,104.3c0,0,0.1,0,0.1,0c0.3,0,0.4,0.4,0.4,0.7v0.1
		c-0.3,1.5-0.5,3-0.6,3.6c-0.5,0.7-1.6,1.5-2.5,1.5c-0.6,0-0.8-0.4-0.8-1c0-0.9,0.4-2.3,0.8-4c0.1-0.3,0.2-1,0.2-1.3
		c0-0.4-0.2-0.7-0.6-0.7c-0.6,0-1.4,0.4-1.7,0.8l0.1,0.3c0,0,0.1,0,0.1,0c0.3,0,0.4,0.4,0.4,0.7c0,0.1,0,0.1,0,0.2
		c-0.2,1.6-0.8,4.2-0.8,4.8c0,1,0.7,1.5,1.4,1.5c1.4,0,2.7-1.3,3.3-2.1c-0.1,0.3-0.2,0.7-0.2,1.1c0,0.5,0.2,0.9,0.9,0.9
		c0.5,0,1.3-0.4,1.8-0.8l-0.1-0.3c-0.1,0-0.2,0.1-0.4,0.1c-0.3,0-0.6-0.1-0.6-0.7c0-0.1,0-0.2,0-0.4l0.8-4.2c0.1-0.3,0.2-1,0.2-1.3
		c0-0.4-0.2-0.7-0.6-0.7c-0.6,0-1.4,0.4-1.7,0.8L84.1,104.3z M73,108c0-1.8,1-3.9,2.4-3.9c1,0,1.1,0.5,1.1,1.1
		c0.6,0.4,1.4-0.1,1.4-0.8c0-0.9-1.2-1.3-2.3-1.3c-2.3,0-4.1,2.6-4.1,5.2c0,1.9,1.2,3.1,2.6,3.1c1.6,0,3.4-1.2,3.3-2.6
		c-0.7,0.9-1.7,1.4-2.5,1.4C73.6,110.3,73,109.2,73,108 M64.6,102.1h-0.8c-1,1.4-1.7,1.3-1.7,1.3l-0.2,0.5c0,0,0.4,0,0.6,0.5
		c0,0.1,0,0.2,0,0.3c0,1.2-0.9,3.9-0.9,5.1c0,1.1,0.8,1.6,1.7,1.6c1.1,0,2.4-0.8,2.5-1.9c0,0,0-0.1,0-0.1c-0.2,0.2-1,0.8-1.7,0.8
		c-0.8,0-1-0.4-1-1c0-1.2,0.8-4.1,0.9-4.8c0,0,0.1,0,0.2,0c0.3,0,0.8,0,1,0c0.7,0,1.4-0.4,1.4-1.1c0,0,0-0.1,0-0.1
		c0,0-0.1,0.2-0.6,0.2h-1.9L64.6,102.1z M55.4,105.7c0,2.1,2.9,2.3,2.9,3.5c0,1-0.8,1.3-1.5,1.3c-0.9,0-1.9-0.7-1.9-1.3
		c-0.9,1,0.3,2.2,1.7,2.2c1.5,0,3.1-0.9,3.1-2.7c0-2.1-3.1-2.2-3.1-3.6c0-0.7,0.6-1.3,1.4-1.3c0.9,0,1.1,0.4,1.1,0.8
		c0,0.1,0,0.3,0,0.4c0.1,0.1,0.3,0.2,0.4,0.2c0.5,0,0.8-0.4,0.8-0.9c0-0.8-0.8-1.3-2-1.3C56.7,103.2,55.4,104.3,55.4,105.7
		 M51.5,104.1c0.7,0,0.8,0.5,0.8,0.8c0,1.7-1.7,2-3.1,2.1C49.4,105.8,50.3,104.1,51.5,104.1 M50.2,111.5c1.6,0,3.4-1.2,3.3-2.6
		c-0.7,0.9-1.7,1.4-2.6,1.4c-1.2,0-1.8-1.2-1.7-2.3c0-0.1,0-0.3,0-0.4h0.3c2.2,0,4.3-1,4.3-2.7c0-1-0.7-1.7-2.1-1.7
		c-1.9,0-4,2.3-4.1,5.1C47.6,110.3,48.8,111.5,50.2,111.5 M41.2,108.9c0.1-1,0.1-1.1,0.5-3c0.7-0.9,1.7-1.6,2.3-1.6
		c0.7,0,1,0.8,1,1.8c0,1.9-0.7,4.5-2.7,4.5c-0.9,0-1.1-0.4-1.1-1C41.2,109.4,41.2,109.1,41.2,108.9 M41.2,101.3
		c-0.1,1-1.6,7.9-1.6,8.7c0,1,1,1.4,2.3,1.4c3,0,4.5-3.2,4.5-5.6c0-1.9-0.6-2.7-1.6-2.7c-1,0-2.3,0.8-3.1,2.1
		c0.5-1.8,1.1-4.5,1.2-5.2c0-0.5-0.2-0.8-0.8-0.8c-0.7,0-1.3,0.4-1.3,0.4l-0.1,0.3c0.4,0,0.5,0.5,0.5,0.9
		C41.2,101,41.2,101.2,41.2,101.3"/>
	<path class="st7" d="M123.6,130v-0.7H122V128h1.6v-0.7H122v-1.1h1.5v-0.7h-2.3v4.5H123.6z M117.8,128.8L117.8,128.8l-0.9-3.3h-0.8
		l1.3,4.5h0.7l1.3-4.5h-0.8L117.8,128.8z M114.3,125.5h-0.8v4.5h0.8V125.5z M108.8,128.6c0,0.2,0,0.4,0.1,0.6
		c0.1,0.2,0.1,0.3,0.3,0.5c0.1,0.1,0.3,0.2,0.4,0.3c0.2,0.1,0.4,0.1,0.6,0.1c0.2,0,0.4,0,0.6-0.1c0.2-0.1,0.3-0.2,0.4-0.3
		c0.1-0.1,0.2-0.3,0.3-0.4c0.1-0.2,0.1-0.4,0.1-0.6c0-0.3,0-0.5-0.1-0.7c-0.1-0.2-0.2-0.3-0.4-0.4c-0.1-0.1-0.3-0.2-0.5-0.2
		c-0.2-0.1-0.3-0.1-0.5-0.2c-0.1-0.1-0.3-0.1-0.4-0.2c-0.1-0.1-0.1-0.2-0.1-0.4c0-0.2,0-0.3,0.1-0.4c0.1-0.1,0.2-0.2,0.4-0.2
		c0.1,0,0.2,0,0.2,0.1s0.1,0.1,0.2,0.1c0,0.1,0.1,0.1,0.1,0.2c0,0.1,0,0.2,0.1,0.2h0.7c0-0.2,0-0.4-0.1-0.5
		c-0.1-0.2-0.1-0.3-0.2-0.4c-0.1-0.1-0.2-0.2-0.4-0.3c-0.2-0.1-0.3-0.1-0.5-0.1c-0.2,0-0.4,0-0.5,0.1c-0.2,0.1-0.3,0.1-0.4,0.2
		c-0.1,0.1-0.2,0.2-0.3,0.4c-0.1,0.1-0.1,0.3-0.1,0.5c0,0.3,0,0.5,0.1,0.7c0.1,0.2,0.2,0.3,0.4,0.4c0.1,0.1,0.3,0.2,0.5,0.2
		c0.2,0.1,0.3,0.1,0.5,0.2c0.1,0.1,0.3,0.1,0.4,0.2c0.1,0.1,0.1,0.2,0.1,0.4c0,0.2-0.1,0.3-0.2,0.5c-0.1,0.1-0.3,0.2-0.4,0.2
		c-0.1,0-0.2,0-0.3-0.1c-0.1,0-0.1-0.1-0.2-0.2c0-0.1-0.1-0.2-0.1-0.3c0-0.1,0-0.2-0.1-0.3H108.8z M104,125.5v3.3
		c0,0.2,0,0.3,0.1,0.5c0.1,0.2,0.2,0.3,0.3,0.4c0.1,0.1,0.3,0.2,0.5,0.3c0.2,0.1,0.4,0.1,0.7,0.1s0.5,0,0.7-0.1
		c0.2-0.1,0.3-0.2,0.5-0.3c0.1-0.1,0.2-0.3,0.3-0.4c0.1-0.2,0.1-0.3,0.1-0.5v-3.3h-0.8v3.1c0,0.3-0.1,0.5-0.2,0.6
		c-0.1,0.1-0.3,0.2-0.6,0.2s-0.5-0.1-0.6-0.2c-0.1-0.1-0.2-0.3-0.2-0.6v-3.1H104z M102.1,130v-0.7h-1.4v-3.8h-0.8v4.5H102.1z
		 M97.9,127.2c0-0.2,0-0.5-0.1-0.7s-0.2-0.4-0.3-0.6c-0.1-0.2-0.3-0.3-0.5-0.4c-0.2-0.1-0.4-0.1-0.7-0.1c-0.2,0-0.4,0-0.6,0.2
		c-0.2,0.1-0.4,0.2-0.5,0.4s-0.3,0.4-0.4,0.7c-0.1,0.3-0.1,0.6-0.1,1c0,0.4,0,0.8,0.1,1.1c0.1,0.3,0.2,0.5,0.3,0.7
		c0.1,0.2,0.3,0.3,0.5,0.4c0.2,0.1,0.4,0.1,0.7,0.1c0.3,0,0.5,0,0.7-0.1c0.2-0.1,0.3-0.2,0.5-0.4c0.1-0.2,0.2-0.3,0.3-0.6
		s0.1-0.4,0.1-0.7h-0.8c0,0.2-0.1,0.4-0.1,0.5c0,0.1-0.1,0.2-0.2,0.3c-0.1,0.1-0.1,0.1-0.2,0.2c-0.1,0-0.2,0.1-0.3,0.1
		c-0.1,0-0.2,0-0.3-0.1c-0.1-0.1-0.2-0.2-0.3-0.3c-0.1-0.1-0.1-0.3-0.2-0.5c0-0.2-0.1-0.5-0.1-0.8c0-0.3,0-0.5,0.1-0.8
		s0.1-0.4,0.2-0.5c0.1-0.1,0.2-0.2,0.3-0.3c0.1-0.1,0.2-0.1,0.3-0.1c0.2,0,0.4,0.1,0.6,0.3c0.1,0.2,0.2,0.5,0.2,0.9H97.9z
		 M93.1,125.5h-0.8l-0.6,1.4l-0.6-1.4h-0.8l1,2.1L90,130h0.8l0.8-1.7l0.8,1.7h0.8l-1.2-2.4L93.1,125.5z M88.4,130v-0.7h-1.6V128h1.6
		v-0.7h-1.6v-1.1h1.5v-0.7h-2.3v4.5H88.4z M79.1,130v-2h0l1.3,2h0.9l-1.2-1.8c0.2,0,0.3-0.1,0.5-0.1c0.1-0.1,0.2-0.2,0.3-0.3
		c0.1-0.1,0.2-0.2,0.2-0.4c0-0.1,0.1-0.3,0.1-0.5c0-0.2,0-0.4-0.1-0.5c-0.1-0.2-0.1-0.3-0.3-0.5c-0.1-0.1-0.3-0.2-0.4-0.3
		c-0.2-0.1-0.4-0.1-0.6-0.1h-1.4v4.5H79.1z M79,126.2h0.4c0.1,0,0.2,0,0.3,0c0.1,0,0.2,0.1,0.3,0.1s0.1,0.1,0.2,0.2
		c0,0.1,0.1,0.2,0.1,0.4c0,0.3-0.1,0.4-0.2,0.5c-0.1,0.1-0.3,0.1-0.6,0.1H79V126.2z M76.2,130v-0.7h-1.6V128h1.6v-0.7h-1.6v-1.1h1.5
		v-0.7h-2.3v4.5H76.2z M69.5,130v-3.2h0l1.6,3.2h0.7v-4.5h-0.7v2.9h0l-1.4-2.9h-0.8v4.5H69.5z M65.3,126.2v3.8h0.8v-3.8H67v-0.7
		h-2.6v0.7H65.3z M60.9,130v-2h0l1.3,2h0.9l-1.2-1.8c0.2,0,0.3-0.1,0.5-0.1c0.1-0.1,0.2-0.2,0.3-0.3c0.1-0.1,0.2-0.2,0.2-0.4
		c0-0.1,0.1-0.3,0.1-0.5c0-0.2,0-0.4-0.1-0.5c-0.1-0.2-0.1-0.3-0.3-0.5c-0.1-0.1-0.3-0.2-0.4-0.3c-0.2-0.1-0.4-0.1-0.6-0.1h-1.4v4.5
		H60.9z M60.9,126.2h0.4c0.1,0,0.2,0,0.3,0c0.1,0,0.2,0.1,0.3,0.1s0.1,0.1,0.2,0.2c0,0.1,0.1,0.2,0.1,0.4c0,0.3-0.1,0.4-0.2,0.5
		c-0.1,0.1-0.3,0.1-0.6,0.1h-0.4V126.2z M54.9,130h0.8l0.4-1.2h1.1l0.4,1.2h0.8l-1.4-4.5h-0.7L54.9,130z M57,128.1h-0.8l0.4-1.4h0
		L57,128.1z M51.6,130v-1.7h0.6c0.2,0,0.4,0,0.6-0.1c0.2-0.1,0.3-0.2,0.4-0.3c0.1-0.1,0.2-0.3,0.3-0.4c0.1-0.2,0.1-0.4,0.1-0.6
		c0-0.2,0-0.4-0.1-0.6c-0.1-0.2-0.2-0.3-0.3-0.4c-0.1-0.1-0.3-0.2-0.5-0.3c-0.2-0.1-0.4-0.1-0.7-0.1h-1.2v4.5H51.6z M51.6,126.2h0.6
		c0.2,0,0.4,0.1,0.5,0.2c0.1,0.1,0.2,0.3,0.2,0.5c0,0.1,0,0.2,0,0.3c0,0.1-0.1,0.2-0.1,0.2c-0.1,0.1-0.1,0.1-0.2,0.2
		c-0.1,0-0.2,0.1-0.3,0.1h-0.6V126.2z"/>
	<path class="st8" d="M144.7,170.2h-1.2v1.3h1.2V170.2z M136.4,171.8c0,0.3,0.1,0.5,0.2,0.7c0.1,0.2,0.3,0.4,0.4,0.5
		c0.2,0.1,0.4,0.3,0.6,0.3c0.2,0.1,0.5,0.1,0.8,0.1c0.2,0,0.4,0,0.7-0.1c0.2-0.1,0.4-0.2,0.6-0.3c0.2-0.2,0.3-0.4,0.5-0.6
		c0.1-0.3,0.2-0.6,0.2-1v-5.7h-1v0.7h0c-0.1-0.2-0.2-0.4-0.4-0.6c-0.2-0.2-0.4-0.2-0.8-0.2c-0.2,0-0.5,0.1-0.7,0.2
		c-0.2,0.1-0.4,0.3-0.6,0.5c-0.2,0.2-0.3,0.5-0.4,0.9c-0.1,0.4-0.2,0.8-0.2,1.3c0,0.6,0.1,1,0.2,1.4c0.1,0.4,0.3,0.7,0.4,1
		c0.2,0.2,0.4,0.4,0.6,0.5c0.2,0.1,0.5,0.2,0.7,0.2c0.2,0,0.4-0.1,0.6-0.2c0.2-0.1,0.3-0.3,0.4-0.6h0v0.5c0,0.3-0.1,0.6-0.2,0.7
		c-0.1,0.2-0.3,0.3-0.6,0.3c-0.2,0-0.4,0-0.5-0.1c-0.1-0.1-0.3-0.2-0.3-0.5H136.4z M139.2,169.2c0,0.4-0.1,0.7-0.2,0.9
		c-0.1,0.2-0.3,0.3-0.6,0.3c-0.3,0-0.5-0.1-0.7-0.4c-0.2-0.3-0.2-0.8-0.2-1.5c0-0.7,0.1-1.2,0.2-1.5c0.2-0.3,0.4-0.4,0.7-0.4
		c0.3,0,0.5,0.1,0.6,0.3c0.1,0.2,0.2,0.5,0.2,0.9V169.2z M130.9,171.5v-3.9c0-0.3,0.1-0.6,0.2-0.7c0.2-0.2,0.4-0.2,0.6-0.2
		c0.2,0,0.4,0.1,0.5,0.2c0.1,0.1,0.2,0.3,0.2,0.6v4h1.2v-4.3c0-0.2,0-0.5-0.1-0.7c-0.1-0.2-0.2-0.4-0.3-0.5s-0.3-0.2-0.5-0.3
		c-0.2-0.1-0.4-0.1-0.6-0.1c-0.2,0-0.5,0.1-0.7,0.2c-0.2,0.1-0.4,0.3-0.5,0.5h0v-0.6h-1.1v5.8H130.9z M126.9,165.7h-1.2v5.8h1.2
		V165.7z M126.9,164h-1.2v1.1h1.2V164z M120.2,171.5v-3.9c0-0.3,0.1-0.6,0.2-0.7c0.2-0.2,0.4-0.2,0.6-0.2c0.2,0,0.4,0.1,0.5,0.2
		c0.1,0.1,0.2,0.3,0.2,0.6v4h1.2v-4.3c0-0.2,0-0.5-0.1-0.7s-0.2-0.4-0.3-0.5s-0.3-0.2-0.5-0.3c-0.2-0.1-0.4-0.1-0.6-0.1
		c-0.3,0-0.5,0.1-0.7,0.2c-0.2,0.1-0.3,0.2-0.4,0.4h0v-2H119v7.3H120.2z M116.4,167.8c0-0.3,0-0.6-0.1-0.8c-0.1-0.3-0.2-0.5-0.4-0.7
		c-0.2-0.2-0.4-0.4-0.6-0.5c-0.2-0.1-0.5-0.2-0.8-0.2c-0.3,0-0.6,0.1-0.9,0.2c-0.3,0.1-0.5,0.3-0.6,0.6c-0.2,0.3-0.3,0.6-0.4,0.9
		c-0.1,0.4-0.1,0.8-0.1,1.2c0,0.4,0,0.8,0.1,1.1c0.1,0.4,0.2,0.7,0.4,1c0.2,0.3,0.4,0.5,0.6,0.7c0.2,0.2,0.5,0.2,0.9,0.2
		c0.3,0,0.6-0.1,0.8-0.2c0.2-0.1,0.4-0.3,0.6-0.5c0.2-0.2,0.3-0.4,0.4-0.7c0.1-0.3,0.1-0.6,0.1-0.8h-1.1c0,0.4-0.1,0.7-0.2,0.9
		c-0.1,0.2-0.3,0.3-0.5,0.3c-0.1,0-0.2,0-0.3-0.1c-0.1-0.1-0.2-0.2-0.3-0.3c-0.1-0.1-0.1-0.4-0.2-0.6c0-0.3-0.1-0.6-0.1-1
		c0-0.4,0-0.7,0-0.9c0-0.2,0.1-0.4,0.2-0.6c0.1-0.1,0.2-0.2,0.3-0.3c0.1-0.1,0.2-0.1,0.3-0.1c0.1,0,0.2,0,0.3,0.1
		c0.1,0,0.2,0.1,0.2,0.2c0.1,0.1,0.1,0.2,0.2,0.3s0.1,0.3,0.1,0.5H116.4z M110,168.1h-2.5v1h2.5V168.1z M104.6,171.5v-5.8h-1v0.6h0
		c-0.1-0.3-0.3-0.5-0.5-0.6s-0.4-0.2-0.6-0.2c-0.2,0-0.5,0.1-0.7,0.2c-0.2,0.1-0.4,0.3-0.6,0.5c-0.2,0.2-0.3,0.6-0.4,1
		c-0.1,0.4-0.2,0.9-0.2,1.4c0,0.5,0.1,1,0.2,1.3c0.1,0.4,0.2,0.7,0.4,0.9c0.2,0.2,0.4,0.4,0.6,0.5c0.2,0.1,0.5,0.2,0.7,0.2
		c0.3,0,0.5-0.1,0.7-0.2c0.2-0.2,0.3-0.4,0.4-0.6h0v0.7H104.6z M103.4,169.2c0,0.4-0.1,0.7-0.2,0.9c-0.1,0.2-0.3,0.3-0.6,0.3
		c-0.3,0-0.5-0.1-0.7-0.4c-0.2-0.3-0.2-0.8-0.2-1.5c0-0.7,0.1-1.2,0.2-1.5c0.2-0.3,0.4-0.4,0.7-0.4c0.3,0,0.4,0.1,0.6,0.3
		c0.1,0.2,0.2,0.5,0.2,0.9V169.2z M95.8,171.5v-1.9l0.5-0.8h0l1.1,2.7h1.3l-1.6-3.6l1.5-2.2h-1.3l-1.3,2.3h0v-3.8h-1.2v7.3H95.8z"/>
</g>
<g id="XMLID_14_">
</g>
<g id="XMLID_15_">
</g>
<g id="XMLID_16_">
</g>
<g id="XMLID_17_">
</g>
<g id="XMLID_18_">
</g>
<g id="XMLID_19_">
</g>
</svg>
