<?xml version="1.0" encoding="utf-8"?>
<!-- Generator: Adobe Illustrator 19.0.0, SVG Export Plug-In . SVG Version: 6.00 Build 0)  -->
<svg version="1.1" id="Layer_1" xmlns="http://www.w3.org/2000/svg" xmlns:xlink="http://www.w3.org/1999/xlink" x="0px" y="0px"
	 viewBox="0 0 126.6 130.6" style="enable-background:new 0 0 126.6 130.6;" xml:space="preserve">
<style type="text/css">
	.st0{clip-path:url(#SVGID_2_);}
	.st1{fill:#FFFFFF;}
	.st2{clip-path:url(#SVGID_2_);fill:#F47D33;}
	.st3{clip-path:url(#SVGID_4_);}
</style>
<g>
	<defs>
		<rect id="SVGID_1_" width="126.6" height="130.6"/>
	</defs>
	<clipPath id="SVGID_2_">
		<use xlink:href="#SVGID_1_"  style="overflow:visible;"/>
	</clipPath>
	<g id="XMLID_57_" class="st0">
		<path id="XMLID_58_" class="st1" d="M13.5,0h5.3c0.9,0,1.8,0.2,2.5,0.6s1.3,1,1.8,1.7c0.5,0.7,0.8,1.5,1.1,2.5
			c0.2,1,0.4,2,0.4,3.1c0,1.2-0.2,2.4-0.5,3.3c-0.3,1-0.7,1.8-1.3,2.5c-0.6,0.7-1.2,1.2-2,1.5S19,15.7,18,15.7h-4.5V0z M16.2,13.3h2
			c0.5,0,1-0.1,1.5-0.3c0.4-0.2,0.8-0.5,1.1-1s0.6-1,0.7-1.7s0.3-1.5,0.3-2.4c0-1-0.1-1.8-0.3-2.5c-0.2-0.7-0.4-1.3-0.7-1.7
			c-0.3-0.4-0.7-0.8-1.1-1c-0.4-0.2-0.9-0.3-1.4-0.3h-2V13.3z"/>
		<path id="XMLID_61_" class="st1" d="M31.3,15.7V0H36c0.9,0,1.6,0.1,2.2,0.4c0.6,0.3,1.1,0.7,1.5,1.1c0.4,0.5,0.7,1,0.9,1.6
			c0.2,0.6,0.3,1.2,0.3,1.8c0,0.6-0.1,1.1-0.2,1.7c-0.1,0.5-0.4,1-0.7,1.3c-0.3,0.4-0.7,0.7-1.1,1c-0.4,0.3-1,0.4-1.6,0.5l4.4,6.3
			h-3.2L34,8.8h0v6.9H31.3z M34,7.3h1.6c0.8,0,1.5-0.2,2-0.5C38,6.5,38.2,5.9,38.2,5c0-0.5-0.1-1-0.2-1.3c-0.1-0.3-0.3-0.6-0.6-0.8
			c-0.2-0.2-0.5-0.3-0.9-0.4c-0.4-0.1-0.7-0.1-1.1-0.1H34V7.3z"/>
		<path id="XMLID_64_" class="st1" d="M48.2,15.7V0h2.7v15.7H48.2z"/>
		<path id="XMLID_66_" class="st1" d="M66.2,0h2.7l-4.6,15.7h-2.5L57.3,0h2.8l3,11.5h0L66.2,0z"/>
		<path id="XMLID_68_" class="st1" d="M75.1,15.7V0h8.1v2.4h-5.4v4h5.5v2.4h-5.5v4.6h5.5v2.4H75.1z"/>
		<path id="XMLID_70_" class="st1" d="M90.5,15.7V0h4.7c0.9,0,1.6,0.1,2.2,0.4s1.1,0.7,1.5,1.1c0.4,0.5,0.7,1,0.9,1.6
			c0.2,0.6,0.3,1.2,0.3,1.8c0,0.6-0.1,1.1-0.2,1.7s-0.4,1-0.7,1.3s-0.7,0.7-1.1,1c-0.4,0.3-1,0.4-1.6,0.5l4.4,6.3h-3.2l-4.5-6.9h0
			v6.9H90.5z M93.2,7.3h1.6c0.8,0,1.5-0.2,2-0.5c0.5-0.3,0.7-0.9,0.7-1.8c0-0.5-0.1-1-0.2-1.3s-0.3-0.6-0.6-0.8s-0.5-0.3-0.9-0.4
			c-0.4-0.1-0.7-0.1-1.1-0.1h-1.4V7.3z"/>
		<path id="XMLID_73_" class="st1" d="M108.8,10.8c0,0.4,0.1,0.7,0.2,1c0.1,0.3,0.2,0.6,0.4,0.9c0.2,0.3,0.4,0.5,0.7,0.6
			c0.3,0.2,0.6,0.2,1,0.2c0.6,0,1.2-0.2,1.6-0.6c0.4-0.4,0.6-0.9,0.6-1.6c0-0.6-0.2-1.1-0.5-1.4c-0.3-0.3-0.7-0.6-1.2-0.8
			c-0.5-0.2-1-0.4-1.6-0.6c-0.6-0.2-1.1-0.5-1.6-0.8s-0.9-0.8-1.2-1.4c-0.3-0.6-0.5-1.4-0.5-2.4c0-0.7,0.1-1.2,0.3-1.8
			c0.2-0.5,0.5-1,0.9-1.3s0.9-0.7,1.4-0.9s1.1-0.3,1.8-0.3c0.7,0,1.4,0.1,1.9,0.3c0.5,0.2,1,0.6,1.4,1c0.4,0.4,0.7,0.9,0.9,1.5
			c0.2,0.6,0.3,1.2,0.4,1.9h-2.5c0-0.3-0.1-0.6-0.2-0.9c-0.1-0.3-0.2-0.5-0.4-0.7c-0.2-0.2-0.4-0.4-0.6-0.5s-0.5-0.2-0.8-0.2
			c-0.6,0-1.1,0.2-1.4,0.6c-0.3,0.4-0.5,0.9-0.5,1.4c0,0.6,0.2,1,0.5,1.2c0.3,0.3,0.7,0.5,1.2,0.7c0.5,0.2,1,0.4,1.6,0.6
			c0.6,0.2,1.1,0.4,1.6,0.8c0.5,0.3,0.9,0.8,1.2,1.4c0.3,0.6,0.5,1.4,0.5,2.4c0,0.7-0.1,1.4-0.3,2c-0.2,0.6-0.5,1.1-1,1.5
			c-0.4,0.4-0.9,0.7-1.5,1c-0.6,0.2-1.2,0.3-2,0.3c-0.8,0-1.4-0.1-2-0.4c-0.6-0.3-1.1-0.6-1.5-1.1c-0.4-0.5-0.7-1-0.9-1.6
			c-0.2-0.6-0.3-1.3-0.3-2H108.8z"/>
	</g>
	<path class="st2" d="M87.4,54.2L73,60.1c-1.8-3-5-4.9-8.7-4.9c-3.7,0-6.9,2-8.7,4.9l-14.4-5.9c4.1-8.6,12.9-14.5,23-14.5
		C74.5,39.7,83.2,45.6,87.4,54.2 M38.8,65.3c0-1.5,0.1-3,0.4-4.4l15.3,6.3c0.7,3.5,3.1,6.3,6.4,7.5v15.9
		C48.4,88.9,38.8,78.2,38.8,65.3 M67.8,90.6V74.7c3.3-1.2,5.7-4,6.4-7.5l15.3-6.3c0.2,1.4,0.4,2.9,0.4,4.4
		C89.9,78.2,80.3,88.9,67.8,90.6 M99.1,65.3c0-19.2-15.5-34.7-34.7-34.7c-19.2,0-34.7,15.5-34.7,34.7S45.2,100,64.3,100
		C83.5,100,99.1,84.4,99.1,65.3"/>
</g>
<g id="XMLID_54_">
	<path id="XMLID_55_" class="st1" d="M12.2,104.8l7.9-6.3l1.1,1.4l-7.9,6.3L12.2,104.8z"/>
</g>
<g id="XMLID_51_">
	<path id="XMLID_52_" class="st1" d="M16.3,110.1l6.9-7.4l1.4,1.3l-2.1,7l0,0l4.5-4.8l1.1,1l-6.9,7.4l-1.1-1l2.2-7.6l0,0l-4.8,5.2
		L16.3,110.1z"/>
</g>
<g id="XMLID_48_">
	<path id="XMLID_49_" class="st1" d="M32.5,115.4c0.4-0.8,0.7-1.4,0.7-1.9c0-0.5-0.3-0.9-0.7-1.2c-0.2-0.1-0.5-0.2-0.8-0.3
		c-0.3,0-0.6,0-0.9,0.2c-0.3,0.1-0.7,0.4-1,0.7c-0.4,0.3-0.7,0.8-1.1,1.3c-0.4,0.6-0.6,1.1-0.8,1.5c-0.2,0.4-0.3,0.8-0.3,1.2
		c0,0.3,0,0.6,0.2,0.9c0.1,0.2,0.3,0.4,0.5,0.6c0.2,0.1,0.4,0.2,0.6,0.3c0.2,0,0.4,0,0.7,0c0.2-0.1,0.5-0.2,0.7-0.4
		c0.3-0.2,0.5-0.5,0.8-0.8l1.4,1c-0.3,0.5-0.7,0.8-1.1,1.2c-0.4,0.3-0.8,0.5-1.2,0.7c-0.4,0.1-0.9,0.2-1.4,0.1
		c-0.5-0.1-0.9-0.3-1.4-0.6c-0.5-0.3-0.9-0.7-1.1-1.1c-0.3-0.4-0.4-0.9-0.5-1.4c0-0.5,0-1.1,0.3-1.8c0.2-0.6,0.6-1.4,1.1-2.2
		c0.5-0.7,1-1.3,1.5-1.7s1-0.7,1.6-0.9c0.5-0.2,1-0.2,1.6-0.2c0.5,0.1,1,0.2,1.4,0.5c0.5,0.3,0.9,0.7,1.1,1.1s0.4,0.9,0.4,1.4
		c0,0.5,0,0.9-0.2,1.4c-0.2,0.5-0.4,0.9-0.7,1.4L32.5,115.4z"/>
</g>
<g>
	<defs>
		<rect id="SVGID_3_" width="126.6" height="130.6"/>
	</defs>
	<clipPath id="SVGID_4_">
		<use xlink:href="#SVGID_3_"  style="overflow:visible;"/>
	</clipPath>
	<g id="XMLID_44_" class="st3">
		<path id="XMLID_45_" class="st1" d="M41.5,115.7c0.5,0.2,0.9,0.5,1.3,0.9c0.3,0.4,0.6,0.9,0.7,1.4s0.2,1.1,0.1,1.8
			c-0.1,0.7-0.3,1.4-0.6,2.1s-0.7,1.4-1.1,1.9c-0.4,0.5-0.9,0.9-1.3,1.2c-0.5,0.3-1,0.5-1.5,0.5c-0.5,0-1,0-1.5-0.2
			c-0.5-0.2-0.9-0.5-1.3-0.9c-0.3-0.4-0.6-0.9-0.7-1.4c-0.1-0.5-0.2-1.1-0.1-1.8c0.1-0.7,0.3-1.4,0.6-2.1s0.7-1.4,1.1-1.9
			c0.4-0.5,0.9-0.9,1.3-1.2c0.5-0.3,1-0.5,1.5-0.5C40.4,115.4,40.9,115.5,41.5,115.7z M41.3,121.3c0.2-0.6,0.4-1.1,0.5-1.6
			s0.1-0.9,0-1.2c-0.1-0.3-0.2-0.6-0.3-0.9c-0.2-0.2-0.4-0.4-0.6-0.5c-0.2-0.1-0.5-0.1-0.8-0.1c-0.3,0-0.6,0.2-0.8,0.4
			c-0.3,0.2-0.6,0.5-0.8,0.9s-0.5,0.9-0.8,1.5c-0.2,0.6-0.4,1.1-0.5,1.6c-0.1,0.5-0.1,0.9,0,1.2c0.1,0.3,0.2,0.6,0.3,0.9
			c0.2,0.2,0.4,0.4,0.6,0.5c0.2,0.1,0.5,0.1,0.8,0.1s0.6-0.2,0.8-0.4c0.3-0.2,0.6-0.5,0.8-0.9S41.1,121.9,41.3,121.3z"/>
	</g>
	<g id="XMLID_40_" class="st3">
		<path id="XMLID_41_" class="st1" d="M45.2,128.2l2.2-9.9l3,0.6c0.5,0.1,1,0.3,1.3,0.6c0.3,0.3,0.6,0.6,0.8,0.9s0.3,0.7,0.3,1.1
			c0,0.4,0,0.8-0.1,1.2c-0.1,0.4-0.2,0.7-0.4,1c-0.2,0.3-0.4,0.6-0.6,0.8c-0.2,0.2-0.5,0.4-0.8,0.5c-0.3,0.1-0.7,0.1-1.1,0.1
			l1.9,4.5l-2-0.4l-1.9-5l0,0l-0.9,4.3L45.2,128.2z M48,123.3l1,0.2c0.5,0.1,1,0.1,1.3,0c0.3-0.1,0.6-0.5,0.7-1
			c0.1-0.3,0.1-0.6,0-0.8c0-0.2-0.1-0.4-0.3-0.6c-0.1-0.2-0.3-0.3-0.5-0.4c-0.2-0.1-0.4-0.2-0.7-0.2l-0.9-0.2L48,123.3z"/>
	</g>
	<g id="XMLID_36_" class="st3">
		<path id="XMLID_37_" class="st1" d="M55.7,130.4l0.4-10.1l2.7,0.1c0.6,0,1.2,0.1,1.6,0.3c0.5,0.2,0.8,0.4,1.1,0.7
			c0.3,0.3,0.5,0.6,0.6,1c0.1,0.4,0.2,0.8,0.2,1.3c0,0.5-0.1,0.9-0.3,1.3c-0.2,0.4-0.4,0.7-0.7,1c-0.3,0.3-0.6,0.5-1,0.6
			c-0.4,0.1-0.8,0.2-1.3,0.2l-1.4-0.1l-0.1,3.8L55.7,130.4z M57.7,125.2l1.3,0c0.3,0,0.5,0,0.7-0.1c0.2-0.1,0.4-0.2,0.5-0.3
			c0.1-0.1,0.2-0.3,0.3-0.5c0.1-0.2,0.1-0.4,0.1-0.6c0-0.5-0.1-0.8-0.3-1.2c-0.2-0.3-0.6-0.5-1.2-0.5l-1.3,0L57.7,125.2z"/>
	</g>
	<g id="XMLID_32_" class="st3">
		<path id="XMLID_33_" class="st1" d="M68.5,120.1c0.5-0.1,1.1,0,1.5,0.2c0.5,0.2,0.9,0.5,1.3,0.9c0.4,0.4,0.7,0.9,1,1.5
			c0.3,0.6,0.4,1.3,0.5,2.1c0.1,0.8,0.1,1.5,0,2.2c-0.1,0.7-0.3,1.2-0.6,1.7c-0.3,0.5-0.6,0.9-1.1,1.2c-0.4,0.3-0.9,0.5-1.5,0.5
			c-0.5,0.1-1.1,0-1.5-0.2c-0.5-0.2-0.9-0.5-1.3-0.9c-0.4-0.4-0.7-0.9-1-1.5s-0.4-1.3-0.5-2.1c-0.1-0.8-0.1-1.5,0-2.2
			c0.1-0.7,0.3-1.2,0.6-1.7c0.3-0.5,0.6-0.9,1.1-1.2C67.5,120.4,68,120.2,68.5,120.1z M71.1,125.1c-0.1-0.6-0.2-1.2-0.4-1.6
			c-0.2-0.5-0.3-0.8-0.6-1.1c-0.2-0.3-0.5-0.5-0.7-0.6c-0.3-0.1-0.5-0.2-0.8-0.1c-0.3,0-0.5,0.1-0.7,0.3s-0.4,0.4-0.6,0.7
			c-0.2,0.3-0.3,0.7-0.3,1.2c-0.1,0.5,0,1,0,1.7c0.1,0.6,0.2,1.2,0.3,1.6c0.2,0.5,0.3,0.8,0.6,1.1s0.5,0.5,0.7,0.6
			c0.3,0.1,0.5,0.2,0.8,0.1s0.5-0.1,0.7-0.3s0.4-0.4,0.6-0.7c0.2-0.3,0.3-0.7,0.3-1.2C71.2,126.3,71.2,125.7,71.1,125.1z"/>
	</g>
	<g id="XMLID_28_" class="st3">
		<path id="XMLID_29_" class="st1" d="M77.7,129.1l-2.9-9.7l2.9-0.9c0.5-0.2,1-0.2,1.4-0.1c0.4,0.1,0.8,0.2,1.1,0.4s0.6,0.5,0.8,0.8
			c0.2,0.3,0.4,0.7,0.5,1.1c0.1,0.4,0.2,0.7,0.2,1.1c0,0.3-0.1,0.7-0.2,1c-0.1,0.3-0.3,0.6-0.5,0.8c-0.2,0.2-0.5,0.4-0.9,0.6
			l3.8,3.1l-2,0.6l-4-3.4l0,0l1.3,4.3L77.7,129.1z M77.9,123.4l1-0.3c0.5-0.2,0.9-0.4,1.1-0.7s0.3-0.7,0.1-1.2
			c-0.1-0.3-0.2-0.6-0.4-0.8s-0.3-0.3-0.5-0.4c-0.2-0.1-0.4-0.1-0.6-0.1s-0.5,0.1-0.7,0.1l-0.9,0.3L77.9,123.4z"/>
	</g>
</g>
<g id="XMLID_24_">
	<path id="XMLID_25_" class="st1" d="M85.4,115.8l1.4-0.7l7.3,7.7l-1.6,0.8l-1.9-2l-2.3,1.1l0.5,2.8l-1.6,0.8L85.4,115.8z
		 M87.2,117.8L87.2,117.8l0.7,3.3l1.6-0.8L87.2,117.8z"/>
</g>
<g id="XMLID_21_">
	<path id="XMLID_22_" class="st1" d="M91.5,114.5l-0.9-1.3l4.8-3.3l0.9,1.3l-1.7,1.2l4.8,7l-1.4,1l-4.8-7L91.5,114.5z"/>
</g>
<g id="XMLID_18_">
	<path id="XMLID_19_" class="st1" d="M104.4,115.7l-7.1-7.2l3.7-3.6l1.1,1.1l-2.5,2.4l1.8,1.8l2.5-2.5l1.1,1.1l-2.5,2.5l2.1,2.1
		l2.5-2.5l1.1,1.1L104.4,115.7z"/>
</g>
<g id="XMLID_14_">
	<path id="XMLID_15_" class="st1" d="M103.3,102.5l2.1-2.7c0.4-0.5,0.8-0.8,1.3-1c0.5-0.2,1-0.3,1.6-0.3c0.5,0,1.1,0.2,1.7,0.4
		c0.6,0.2,1.2,0.6,1.7,1c0.6,0.5,1.1,1,1.5,1.5s0.6,1.1,0.8,1.6c0.1,0.6,0.1,1.1,0,1.6c-0.1,0.5-0.4,1.1-0.8,1.6l-1.8,2.3
		L103.3,102.5z M111.2,106.4l0.8-1c0.2-0.3,0.3-0.6,0.4-0.9c0.1-0.3,0-0.6-0.1-1c-0.1-0.3-0.3-0.7-0.6-1s-0.7-0.7-1.1-1.1
		c-0.5-0.4-1-0.7-1.4-0.8c-0.4-0.2-0.8-0.3-1.2-0.3c-0.4,0-0.7,0.1-0.9,0.2c-0.3,0.1-0.5,0.4-0.7,0.6l-0.8,1L111.2,106.4z"/>
</g>
<g id="XMLID_75_">
</g>
<g id="XMLID_76_">
</g>
<g id="XMLID_77_">
</g>
<g id="XMLID_78_">
</g>
<g id="XMLID_79_">
</g>
<g id="XMLID_80_">
</g>
</svg>
